<svg xmlns="http://www.w3.org/2000/svg" baseProfile="tiny" version="1.2" viewBox="0 0 612 408"><defs/>[<path fill="#3D545F" d="M0 0h611v407H0z"/>,<path fill="#FD9E73" fill-opacity=".5" d="M181 407h222L316 86z"/>,<path fill="orange" fill-opacity=".5" d="M174 398l135 22 33-86z"/>,<path fill="#1F7DA9" fill-opacity=".5" d="M35 97l365 204L505 0z"/>,<path fill="#ADBCD9" fill-opacity=".5" d="M259 149l97-8-43 70z"/>,<path fill="#522D20" fill-opacity=".5" d="M248 250l-34 157-214-1z"/>,<path fill="#004354" fill-opacity=".5" d="M284 0l327 407V0z"/>,<path fill="#847B98" fill-opacity=".5" d="M162 276L319 72l121 254z"/>,<path fill="#22272A" fill-opacity=".5" d="M175 407L0 0v407z"/>,<path fill="#7B4544" fill-opacity=".5" d="M471 272l-71 135-107-107z"/>,<path fill="#332B2B" fill-opacity=".5" d="M611 145v262H383z"/>,<path fill="#197999" fill-opacity=".5" d="M377 0l177 152-172 37z"/>,<path fill="#FF972F" fill-opacity=".5" d="M375 407l-87-86-101 86z"/>,<path fill="#004962" fill-opacity=".5" d="M82 211L3 0h342z"/>,<path fill="#775B66" fill-opacity=".5" d="M415 329l12-143-113 126z"/>,<path fill="#A3A0B2" fill-opacity=".5" d="M264 258l74 26-19-162z"/>,<path fill="#1D7C9D" fill-opacity=".5" d="M205 18l63 198L341 0z"/>,<path fill="#855249" fill-opacity=".5" d="M189 407l-28-174 148 91z"/>,<path fill="#FFCE00" fill-opacity=".5" d="M222 407h104l-45-28z"/>,<path fill="#4D82A2" fill-opacity=".5" d="M339 45l-69 206-99-42z"/>,<path fill="#1B6782" fill-opacity=".5" d="M478 255l31-183-198 7z"/>,<path fill="#9BC8D8" fill-opacity=".5" d="M291 134l50 29-48 23z"/>,<path fill="#BE7059" fill-opacity=".5" d="M242 350l59-74 92 131z"/>,<path fill="#06566D" fill-opacity=".5" d="M190 0h119L151 105z"/>,<path fill="#45556F" fill-opacity=".5" d="M319 198l105-48 40 168z"/>,<path fill="#1B2F30" fill-opacity=".5" d="M445 0l166 130V0z"/>,<path fill="#B9A6B1" fill-opacity=".5" d="M332 215l-18 49-24-31z"/>,<path fill="#387292" fill-opacity=".5" d="M296 102l71 38-92-15z"/>,<path fill="#B5642F" fill-opacity=".5" d="M256 318l-72 89 94-42z"/>,<path fill="#2C343E" fill-opacity=".5" d="M161 0H0l55 127z"/>,<path fill="#46434C" fill-opacity=".5" d="M211 249L53 199l110 208z"/>,<path fill="#4E8AAB" fill-opacity=".5" d="M326 127l-8-71-47 28z"/>,<path fill="#6A5B6F" fill-opacity=".5" d="M211 324l67-44-120-66z"/>,<path fill="#2B4B62" fill-opacity=".5" d="M91 264l19-237L0 121z"/>,<path fill="#40434E" fill-opacity=".5" d="M439 407l-30-97 128-100z"/>,<path fill="#F5A862" fill-opacity=".5" d="M279 331l30 76h53z"/>,<path fill="#907786" fill-opacity=".5" d="M337 235l81 70-110-44z"/>,<path fill="#5F4636" fill-opacity=".5" d="M193 314l-8 93h-45z"/>,<path fill="#176482" fill-opacity=".5" d="M137 52v175L275 97z"/>,<path fill="#89819B" fill-opacity=".5" d="M364 208l-39 99 24-110z"/>,<path fill="#885651" fill-opacity=".5" d="M324 362l89-53-107 9z"/>,<path fill="#777993" fill-opacity=".5" d="M266 173l59 41-100 63z"/>,<path fill="#274656" fill-opacity=".5" d="M442 217l61 107 108-148z"/>,<path fill="#247D9D" fill-opacity=".5" d="M416 34l-55 50 86 72z"/>,<path fill="#0F4C5F" fill-opacity=".5" d="M122 12L264 0 61 153z"/>,<path fill="#4F6D8A" fill-opacity=".5" d="M384 191l-53 20 10-100z"/>,<path fill="#116C8A" fill-opacity=".5" d="M254 36l39-36 24 53z"/>,<path fill="#C18367" fill-opacity=".5" d="M298 362l13-64-43 34z"/>,<path fill="#0B5164" fill-opacity=".5" d="M501 236L446 0l136 84z"/>,<path fill="#144450" fill-opacity=".5" d="M551 96L514 0H396z"/>,<path fill="#9A6762" fill-opacity=".5" d="M305 272l8 86 31-33z"/>,<path fill="#1E758B" fill-opacity=".5" d="M302 93l-3-14-17 15z"/>,<path fill="#232F2D" fill-opacity=".5" d="M0 230l139 177H0z"/>,<path fill="#734C46" fill-opacity=".5" d="M461 407h-79l-7-97z"/>,<path fill="#8F543B" fill-opacity=".5" d="M182 384l33 18-42 5z"/>,<path fill="#7298B3" fill-opacity=".5" d="M274 160l21 33 39-96z"/>,<path fill="#236C8A" fill-opacity=".5" d="M180 86l-3 140L285 97z"/>,<path fill="#849BB7" fill-opacity=".5" d="M302 101l33 1 6 18z"/>,<path fill="#95B1C4" fill-opacity=".5" d="M314 202l-19-19 10-40z"/>,<path fill="#A095A8" fill-opacity=".5" d="M356 263l-17-13-4 17z"/>,<path fill="#355372" fill-opacity=".5" d="M172 274l62-87-174-57z"/>,<path fill="#AF6445" fill-opacity=".5" d="M361 337l-42 22 75 44z"/>,<path fill="#504649" fill-opacity=".5" d="M453 407l11-106-71 44z"/>,<path fill="#2081A7" fill-opacity=".5" d="M297 31l-22 6 15 28z"/>,<path fill="#21627B" fill-opacity=".5" d="M429 222l-90-104 67-38z"/>,<path fill="#115D76" fill-opacity=".5" d="M390 72l-76-16 60-56z"/>,<path fill="#145B71" fill-opacity=".5" d="M466 143l63 20-43 61z"/>,<path fill="#BFCED9" fill-opacity=".5" d="M326 181l-26-15 35-13z"/>,<path fill="#8A8194" fill-opacity=".5" d="M334 178l-49 101-33-32z"/>,<path fill="#0E6785" fill-opacity=".5" d="M369 0h39l29 85z"/>,<path fill="#3180A4" fill-opacity=".5" d="M393 85l-23-5 36-28z"/>,<path fill="#154D63" fill-opacity=".5" d="M327 0h85L294 45z"/>,<path fill="#1B5D75" fill-opacity=".5" d="M389 137l-23 36-13-17z"/>,<path fill="#12657F" fill-opacity=".5" d="M443 196l69-64-55-96z"/>,<path fill="#A47779" fill-opacity=".5" d="M320 314l-63-14 28-50z"/>,<path fill="#586078" fill-opacity=".5" d="M384 157l14 102-53-4z"/>,<path fill="#4D617F" fill-opacity=".5" d="M230 199l-70 6 45 52z"/>,<path fill="#354556" fill-opacity=".5" d="M30 256L0 82l70-48z"/>,<path fill="#1B3E46" fill-opacity=".5" d="M611 132l-60-93 41 249z"/>,<path fill="#FFB000" fill-opacity=".5" d="M262 379l-38 28h90z"/>,<path fill="#1D799B" fill-opacity=".5" d="M278 0l38 18 4-18z"/>,<path fill="#424145" fill-opacity=".5" d="M413 407h66l-2-80z"/>,<path fill="#B7B0BB" fill-opacity=".5" d="M326 246l-22-17 20-17z"/>,<path fill="#373A39" fill-opacity=".5" d="M0 238l158 52-33 117z"/>,<path fill="#2E4658" fill-opacity=".5" d="M44 237l116-5-65-78z"/>,<path fill="#17566D" fill-opacity=".5" d="M73 159l72 38-33-119z"/>,<path fill="#DE7B1E" fill-opacity=".5" d="M199 407h39l26-43z"/>,<path fill="#2F7C97" fill-opacity=".5" d="M305 89l-92 49 27 60z"/>,<path fill="#746572" fill-opacity=".5" d="M369 235l65 43-43 46z"/>,<path fill="#21657F" fill-opacity=".5" d="M317 121l28-2-7 35z"/>,<path fill="#595565" fill-opacity=".5" d="M402 332l59-51-37-25z"/>,<path fill="#0E5163" fill-opacity=".5" d="M541 187L462 24l115 110z"/>,<path fill="#BFCBD5" fill-opacity=".5" d="M334 148l-2 25-12-2z"/>,<path fill="#866A70" fill-opacity=".5" d="M354 249l52 77-60-38z"/>,<path fill="#335871" fill-opacity=".5" d="M373 206l68-44 46 85z"/>,<path fill="#173F48" fill-opacity=".5" d="M98 0l51 33 79-33z"/>,<path fill="#5B4D54" fill-opacity=".5" d="M144 307l71 19-45-95z"/>,<path fill="#6C4A34" fill-opacity=".5" d="M226 365l-60 42 37-72z"/>,<path fill="#C08089" fill-opacity=".5" d="M355 389l32 18h-49z"/>,<path fill="#2B363D" fill-opacity=".5" d="M0 0l24 65L90 0z"/>,<path fill="#865A57" fill-opacity=".5" d="M220 289l32 55 20-67z"/>,<path fill="#8C5A40" fill-opacity=".5" d="M203 331l58-20-38 62z"/>,<path fill="#39424E" fill-opacity=".5" d="M159 290L0 110v105z"/>,<path fill="#426F8D" fill-opacity=".5" d="M211 165l34 35-40 18z"/>,<path fill="#736F86" fill-opacity=".5" d="M285 211l70-18-50 31z"/>,<path fill="#7E7C98" fill-opacity=".5" d="M348 169l1 9 25 10z"/>,<path fill="#10617D" fill-opacity=".5" d="M359 42l21 86-60-37z"/>,<path fill="#6C829E" fill-opacity=".5" d="M333 155l25-9-5-27z"/>,<path fill="#91574F" fill-opacity=".5" d="M377 407l-12-85 35 85z"/>,<path fill="#B68580" fill-opacity=".5" d="M285 294l24 27-13-35z"/>,<path fill="#1B6884" fill-opacity=".5" d="M380 166l-59-95 73 77z"/>,<path fill="#477B99" fill-opacity=".5" d="M346 120l-7 34 18-29z"/>,<path fill="#FBA336" fill-opacity=".5" d="M328 401l-60-18 21-20z"/>,<path fill="#FDB760" fill-opacity=".5" d="M310 407h34l-30-19z"/>,<path fill="#283539" fill-opacity=".5" d="M611 407l-126-68 126-94z"/>,<path fill="#376684" fill-opacity=".5" d="M174 176l24 36 34-45z"/>,<path fill="#596B8F" fill-opacity=".5" d="M327 151l-10 4 10-20z"/>,<path fill="#1D5970" fill-opacity=".5" d="M194 148l-104-9 65 36z"/>,<path fill="#53D5FF" fill-opacity=".5" d="M550 86l3 2-1-5z"/>,<path fill="#CAC1D4" fill-opacity=".5" d="M326 286l-4-21 12 23z"/>,<path fill="#0E5C75" fill-opacity=".5" d="M545 134L442 93l-16-65z"/>,<path fill="#76534C" fill-opacity=".5" d="M243 316l-46 41 7-62z"/>,<path fill="#266C8F" fill-opacity=".5" d="M325 70l-10 20 16 12z"/>,<path fill="#12607D" fill-opacity=".5" d="M172 87l63-63-10 80z"/>,<path fill="#D38356" fill-opacity=".5" d="M349 407l-63-72 78 45z"/>,<path fill="#8D686E" fill-opacity=".5" d="M317 270l17 31-32-1z"/>,<path fill="#126380" fill-opacity=".5" d="M291 7l-61 89-65 11z"/>,<path fill="#FFB42F" fill-opacity=".5" d="M318 397l-32-17 24 27z"/>,<path fill="#99A3BA" fill-opacity=".5" d="M332 163l20-5-7-5z"/>,<path fill="#3C6A88" fill-opacity=".5" d="M303 124l-22-14v25z"/>,<path fill="#5D6B8B" fill-opacity=".5" d="M362 225l-33-4-7-36z"/>,<path fill="#467EA4" fill-opacity=".5" d="M300 75l15-20 22 19z"/>,<path fill="#135F7C" fill-opacity=".5" d="M303 2l-11 73 25-47z"/>,<path fill="#504542" fill-opacity=".5" d="M131 305l65 69-25-93z"/>,<path fill="#816A7A" fill-opacity=".5" d="M277 266l-54-18 12 40z"/>,<path fill="#21434D" fill-opacity=".5" d="M611 126L507 244l104-8z"/>,<path fill="#4A7C95" fill-opacity=".5" d="M276 196l-2-49-41 42z"/>,<path fill="#758FAD" fill-opacity=".5" d="M305 85l34 22-5 17z"/>,<path fill="#2D7C98" fill-opacity=".5" d="M406 99l-13-2 34 41z"/>,<path fill="#436D8E" fill-opacity=".5" d="M335 171l8 22 8-37z"/>,<path fill="#233234" fill-opacity=".5" d="M611 0v73L532 0z"/>,<path fill="#7E534B" fill-opacity=".5" d="M344 303l-12 42 18 1z"/>,<path fill="#144451" fill-opacity=".5" d="M411 19l37-19 14 25z"/>,<path fill="#617899" fill-opacity=".5" d="M302 122l26 26-10-45z"/>,<path fill="#A18A91" fill-opacity=".5" d="M321 250l-10 31-40-11z"/>,<path fill="#22728D" fill-opacity=".5" d="M358 127l-24-1 12-17z"/>,<path fill="#827187" fill-opacity=".5" d="M318 246l25 49-4-21z"/>,<path fill="#12556F" fill-opacity=".5" d="M206 80l13-52-100 49z"/>,<path fill="#114E60" fill-opacity=".5" d="M319 14l-1-14 54 49z"/>,<path fill="#9B96A6" fill-opacity=".5" d="M332 213l-42 16-6 16z"/>,<path fill="#665B6E" fill-opacity=".5" d="M181 259l10-29 49 51z"/>,<path fill="#226B84" fill-opacity=".5" d="M428 185L375 68l90 125z"/>,<path fill="#187A97" fill-opacity=".5" d="M382 9l83 126-32 10z"/>,<path fill="#7C87A0" fill-opacity=".5" d="M249 250l16 16 35-79z"/>,<path fill="#A1AECB" fill-opacity=".5" d="M607 90l4-1v2z"/>,<path fill="#FFC600" fill-opacity=".5" d="M245 407l46-20 14 20z"/>,<path fill="#2F4B60" fill-opacity=".5" d="M439 229l20 69 78-116z"/>,<path fill="#2F4B61" fill-opacity=".5" d="M165 212L34 117l20 85z"/>,<path fill="#AF6642" fill-opacity=".5" d="M324 362l-25-34 19-2z"/>,<path fill="#237191" fill-opacity=".5" d="M201 126l39-32v54z"/>,<path fill="#908396" fill-opacity=".5" d="M347 219l-46-2 12-11z"/>,<path fill="#8D7682" fill-opacity=".5" d="M259 289l36-31-32-6z"/>,<path fill="#C77A47" fill-opacity=".5" d="M262 341l-9 32 48-35z"/>,<path fill="#C57035" fill-opacity=".5" d="M217 407l36-50-63 50z"/>,<path fill="#E48D3C" fill-opacity=".5" d="M304 370l-31-14-18 30z"/>,<path fill="#1B485C" fill-opacity=".5" d="M48 69l29 61 32-101z"/>,<path fill="#186A89" fill-opacity=".5" d="M247 62l-46 23-55 58z"/>,<path fill="#6D677E" fill-opacity=".5" d="M363 268l24-2-51-41z"/>,<path fill="#6C5356" fill-opacity=".5" d="M424 307l-8 24-56 3z"/>,<path fill="#2A82A5" fill-opacity=".5" d="M266 68l29 18-23 14z"/>,<path fill="#697692" fill-opacity=".5" d="M330 146l28-9-4 23z"/>,<path fill="#13657F" fill-opacity=".5" d="M329 128l20-9-18 18z"/>,<path fill="#115A72" fill-opacity=".5" d="M371 74l-36 9-8-80z"/>,<path fill="#5183A2" fill-opacity=".5" d="M306 120l-22 20 21-5z"/>,<path fill="#938AA0" fill-opacity=".5" d="M289 268l-37-31 19 2z"/>,<path fill="#735F6A" fill-opacity=".5" d="M209 266l21 42 8-52z"/>,<path fill="#1B4450" fill-opacity=".5" d="M568 67l-54-40 12 43z"/>,<path fill="#125D73" fill-opacity=".5" d="M158 159l-56-55 45-25z"/>,<path fill="#213132" fill-opacity=".5" d="M0 407h114L0 323z"/>,<path fill="#8A656C" fill-opacity=".5" d="M294 276l14 3-15 7z"/>,<path fill="#3F3D37" fill-opacity=".5" d="M157 298l-31 109h36z"/>,<path fill="#658FAE" fill-opacity=".5" d="M322 90l-25 20 25 5z"/>,<path fill="#256D8D" fill-opacity=".5" d="M294 58l39 5-7-33z"/>,<path fill="#8F99B0" fill-opacity=".5" d="M309 150l34 12-23-17z"/>,<path fill="#FA9C00" fill-opacity=".5" d="M290 387l-55 20 4-18z"/>,<path fill="#5D8DA6" fill-opacity=".5" d="M271 209l3-54 26-28z"/>,<path fill="#A68C93" fill-opacity=".5" d="M343 285l-17 1 9 8z"/>,<path fill="#134651" fill-opacity=".5" d="M556 177l-18-85 58 16z"/>,<path fill="#3C5E76" fill-opacity=".5" d="M7 56l-7 1 7 3z"/>,<path fill="#476989" fill-opacity=".5" d="M314 111l10 22 8-7z"/>,<path fill="#116481" fill-opacity=".5" d="M405 12l41 41-59-16z"/>,<path fill="#22353A" fill-opacity=".5" d="M0 48L29 5 0 0z"/>,<path fill="#2E3F4D" fill-opacity=".5" d="M0 104l21-79 59 7z"/>,<path fill="#2F3A40" fill-opacity=".5" d="M513 255l-28 134 126 4z"/>,<path fill="#C37D59" fill-opacity=".5" d="M272 331l38 24 3-18z"/>,<path fill="#6E7E9A" fill-opacity=".5" d="M297 222l-6-31-39 15z"/>,<path fill="#A3A9BB" fill-opacity=".5" d="M312 205l3-12-13-13z"/>,<path fill="#DBA9B3" fill-opacity=".5" d="M320 334l6 3 2-4z"/>,<path fill="#223E4A" fill-opacity=".5" d="M155 0l-48 56L83 0z"/>,<path fill="#947C84" fill-opacity=".5" d="M375 268l15 31-27-25z"/>,<path fill="#79514A" fill-opacity=".5" d="M404 407l-38-87 36 28z"/>,<path fill="#A06C69" fill-opacity=".5" d="M269 278l24 33-24 9z"/>,<path fill="#406581" fill-opacity=".5" d="M349 164l14-26-2 28z"/>,<path fill="#958A9B" fill-opacity=".5" d="M298 246l-18-11 49 7z"/>,<path fill="#105F76" fill-opacity=".5" d="M283 0l-14 73-38-68z"/>,<path fill="#584849" fill-opacity=".5" d="M452 363l-24 14-25-56z"/>,<path fill="#408CAC" fill-opacity=".5" d="M283 78l8-8-5 32z"/>,<path fill="#285D75" fill-opacity=".5" d="M403 192l-23-65 72 70z"/>,<path fill="#34A2C3" fill-opacity=".5" d="M411 83l3 6 5-11z"/>,<path fill="#886D78" fill-opacity=".5" d="M264 264l17 25-51-18z"/>,<path fill="#43617C" fill-opacity=".5" d="M346 199l76 25-36-51z"/>,<path fill="#A16350" fill-opacity=".5" d="M372 401l-26-59 35 27z"/>,<path fill="#915536" fill-opacity=".5" d="M235 359l-53 48 49-68z"/>,<path fill="#1D5567" fill-opacity=".5" d="M522 214l-37-35-17 38z"/>,<path fill="#7F6A78" fill-opacity=".5" d="M363 258l33 9-9 21z"/>,<path fill="#325F79" fill-opacity=".5" d="M367 167l36-6-3 31z"/>,<path fill="#717189" fill-opacity=".5" d="M344 259l-4-25-3 15z"/>,<path fill="#6393B4" fill-opacity=".5" d="M323 66l6-8v19z"/>,<path fill="#334558" fill-opacity=".5" d="M50 210L0 135l79 11z"/>,<path fill="#767089" fill-opacity=".5" d="M216 240l39-10 1 41z"/>,<path fill="#3C6C90" fill-opacity=".5" d="M313 85l19 22v-5z"/>,<path fill="#2A749A" fill-opacity=".5" d="M345 80l6-18 1 10z"/>,<path fill="#0F5A71" fill-opacity=".5" d="M264 57l-68-19 53-25z"/>,<path fill="#74616C" fill-opacity=".5" d="M337 282l15 22 7-39z"/>,<path fill="#DA8C54" fill-opacity=".5" d="M286 347l-14 18 55-3z"/>,<path fill="#424344" fill-opacity=".5" d="M611 407v-23l-94 23z"/>,<path fill="#1F7597" fill-opacity=".5" d="M272 46l29-17 4 44z"/>,<path fill="#C09090" fill-opacity=".5" d="M362 401l17 6h-30z"/>,<path fill="#AB9CB2" fill-opacity=".5" d="M355 230h-9l8 5z"/>,<path fill="#17778E" fill-opacity=".5" d="M229 154l14-1-15 10z"/>,<path fill="#B0949A" fill-opacity=".5" d="M336 325l-6 3 4-1z"/>,<path fill="#93A0B4" fill-opacity=".5" d="M294 184l25 3 2-20z"/>,<path fill="#2B3637" fill-opacity=".5" d="M54 276l5 128 95 3z"/>,<path fill="#6F96B2" fill-opacity=".5" d="M307 141l-3 11-11-22z"/>,<path fill="#225B6B" fill-opacity=".5" d="M518 24l-8-9 15 11z"/>,<path fill="#13667D" fill-opacity=".5" d="M188 165l-22-7 12-62z"/>,<path fill="#5DACCD" fill-opacity=".5" d="M386 80l3-3 4 10z"/>,<path fill="#176E91" fill-opacity=".5" d="M304 56l-53 36-10-32z"/>,<path fill="#9E787E" fill-opacity=".5" d="M315 293l10-4 6 24z"/>,<path fill="#535064" fill-opacity=".5" d="M143 249l45-14 9 61z"/>,<path fill="#445670" fill-opacity=".5" d="M461 241l-57 21-33-66z"/>,<path fill="#5F453B" fill-opacity=".5" d="M180 354l-13 54 15-10z"/>,<path fill="#16627F" fill-opacity=".5" d="M256 48l41 15-15 9z"/>,<path fill="#75677A" fill-opacity=".5" d="M429 292l-32-2v-20z"/>,<path fill="#60555E" fill-opacity=".5" d="M215 264l2 24-43 16z"/>,<path fill="#0BBBE0" fill-opacity=".5" d="M595 62h3z"/>,<path fill="#4E83A6" fill-opacity=".5" d="M303 76l7 37 7-55z"/>,<path fill="#ED9A45" fill-opacity=".5" d="M297 381l2-19 33 14z"/>,<path fill="#0D5365" fill-opacity=".5" d="M366 45l-32 10 36-34z"/>,<path fill="#105B77" fill-opacity=".5" d="M536 123l3-17-8 16z"/>,<path fill="#125E75" fill-opacity=".5" d="M306 34h20L273 0z"/>,<path fill="#BB725F" fill-opacity=".5" d="M366 378l13 35-34-33z"/>,<path fill="#AE9DA4" fill-opacity=".5" d="M298 247h24l-29 12z"/>,<path fill="#195268" fill-opacity=".5" d="M92 178l16-51-41-8z"/>,<path fill="#144C5D" fill-opacity=".5" d="M307 0h33l18 21z"/>,<path fill="#2F678C" fill-opacity=".5" d="M374 68l19 48-27-20z"/>,<path fill="#3784A0" fill-opacity=".5" d="M280 166l-32-32 17-8z"/>,<path fill="#58453A" fill-opacity=".5" d="M179 354l33 5-28 22z"/>,<path fill="#247292" fill-opacity=".5" d="M288 131l2 11-10-1z"/>,<path fill="#8BAEC2" fill-opacity=".5" d="M300 150l-12 30 38-25z"/>,<path fill="#E19F76" fill-opacity=".5" d="M357 407h-33l17-10z"/>,<path fill="#135066" fill-opacity=".5" d="M122 77l-5 29-34-42z"/>,<path fill="#786169" fill-opacity=".5" d="M384 284l15 42 18-14z"/>,<path fill="#845858" fill-opacity=".5" d="M387 300l-73 15 67 13z"/>,<path fill="#164752" fill-opacity=".5" d="M541 87l19-5-29-42z"/>,<path fill="#41516B" fill-opacity=".5" d="M181 242l3-44-57 36z"/>,<path fill="#24769A" fill-opacity=".5" d="M129 124l-4-9-8 5z"/>,<path fill="#7C5559" fill-opacity=".5" d="M336 301l28 8-37 12z"/>,<path fill="#324C61" fill-opacity=".5" d="M112 159l1 26-10-30z"/>,<path fill="#905B4F" fill-opacity=".5" d="M333 334l-14-1 31-12z"/>,<path fill="#124C61" fill-opacity=".5" d="M143 56l20-41 39 43z"/>,<path fill="#196A85" fill-opacity=".5" d="M368 61l28-3-3 8z"/>,<path fill="#234B60" fill-opacity=".5" d="M54 109l-21 21 71 33z"/>,<path fill="#16728E" fill-opacity=".5" d="M267 40l20-20 13 16z"/>,<path fill="#2A6683" fill-opacity=".5" d="M384 106l24 5-37 5z"/>,<path fill="#6B504E" fill-opacity=".5" d="M420 350l-10 22-12-30z"/>,<path fill="#1F3940" fill-opacity=".5" d="M576 0l-99 2 68 28z"/>,<path fill="#3484A5" fill-opacity=".5" d="M433 139v-29l-2 24z"/>,<path fill="#155B87" fill-opacity=".5" d="M66 5l5-5h-5z"/>,<path fill="#0F586B" fill-opacity=".5" d="M496 108v22l38 1z"/>,<path fill="#3D434D" fill-opacity=".5" d="M493 276l-58 42 21 29z"/>,<path fill="#1C6684" fill-opacity=".5" d="M202 36l-26-8 21 11z"/>,<path fill="#53596A" fill-opacity=".5" d="M404 241l33 38-53-22z"/>,<path fill="#134E5E" fill-opacity=".5" d="M560 157l-53 6 48-56z"/>,<path fill="#2A4D61" fill-opacity=".5" d="M518 145l-4 13-8-13z"/>,<path fill="#2F7DA0" fill-opacity=".5" d="M277 69v38l-9-38z"/>,<path fill="#A0A3B4" fill-opacity=".5" d="M317 110l20-1v4z"/>,<path fill="#3D5876" fill-opacity=".5" d="M203 204l-36 23-24-46z"/>,<path fill="#7D5655" fill-opacity=".5" d="M307 290l4 11 9-13z"/>,<path fill="#0B5163" fill-opacity=".5" d="M419 0l-2 20-24-18z"/>,<path fill="#3F7FAA" fill-opacity=".5" d="M81 152l6 13-3-8z"/>,<path fill="#125C76" fill-opacity=".5" d="M346 86l-1-49-21 5z"/>,<path fill="#587899" fill-opacity=".5" d="M246 231l-24-34 49 23z"/>,<path fill="#306E8D" fill-opacity=".5" d="M255 124l-20-9 12-13z"/>,<path fill="#916669" fill-opacity=".5" d="M248 300l24-26-6 32z"/>,<path fill="#204959" fill-opacity=".5" d="M589 176l-58 7-3 69z"/>,<path fill="#B0C0CE" fill-opacity=".5" d="M339 159l-10 7-17-12z"/>,<path fill="#195B77" fill-opacity=".5" d="M365 0l14 62 14-12z"/>,<path fill="#2CA3E0" fill-opacity=".5" d="M65 66l3 2 1-4z"/>,<path fill="#447893" fill-opacity=".5" d="M264 191l9-19-35-23z"/>,<path fill="#3A485A" fill-opacity=".5" d="M145 215l-60 27 73 19z"/>,<path fill="#59A1BC" fill-opacity=".5" d="M297 134l-3-6-3 1z"/>,<path fill="#515A6E" fill-opacity=".5" d="M112 248h5l10 7z"/>,<path fill="#BE816C" fill-opacity=".5" d="M302 312l-5 33-12-32z"/>,<path fill="#12677D" fill-opacity=".5" d="M362 150l13 1 22-48z"/>,<path fill="#494650" fill-opacity=".5" d="M182 274l-68-31 39 74z"/>,<path fill="#1F3B41" fill-opacity=".5" d="M554 90l34-42 23 52z"/>,<path fill="#0B586E" fill-opacity=".5" d="M451 26l19 14-30 21z"/>,<path fill="#353D42" fill-opacity=".5" d="M102 319l-10-88-92-19z"/>,<path fill="#0F576D" fill-opacity=".5" d="M460 49l26 60 21-29z"/>,<path fill="#0F677B" fill-opacity=".5" d="M408 138l10-12-24-10z"/>,<path fill="#325773" fill-opacity=".5" d="M138 140l12 23-21 5z"/>,<path fill="#5F657C" fill-opacity=".5" d="M344 248l40-25 23 41z"/>,<path fill="#43738C" fill-opacity=".5" d="M387 175l-2 22 10-10z"/>,<path fill="#A1A4B7" fill-opacity=".5" d="M323 138l-4-4v-8z"/>,<path fill="#51607C" fill-opacity=".5" d="M402 215l-9 33-37-47z"/>,<path fill="#1E4B60" fill-opacity=".5" d="M55 42l-2 8 38 65z"/>,<path fill="#6F809D" fill-opacity=".5" d="M318 194l17-22 5 15z"/>,<path fill="#586380" fill-opacity=".5" d="M226 219l-23 30 34-17z"/>,<path fill="#2E6F89" fill-opacity=".5" d="M381 129l41 32 11-10z"/>,<path fill="#905B4B" fill-opacity=".5" d="M369 328l-26 27 6-44z"/>,<path fill="#6C748E" fill-opacity=".5" d="M348 209l-17 7 8 34z"/>,<path fill="#324659" fill-opacity=".5" d="M30 49l-10 69-4-41z"/>,<path fill="#97838D" fill-opacity=".5" d="M281 280l30-24-33-5z"/>,<path fill="#EF9325" fill-opacity=".5" d="M244 376l23 14 29-13z"/>,<path fill="#1E7798" fill-opacity=".5" d="M255 89l28-14-9 19z"/>,<path fill="#336177" fill-opacity=".5" d="M403 212l14 2-16-37z"/>,<path fill="#8C91A9" fill-opacity=".5" d="M324 220l8-8-7 25z"/>,<path fill="#3E5870" fill-opacity=".5" d="M95 176l-7-1 23 16z"/>,<path fill="#424B5B" fill-opacity=".5" d="M474 284l-29 24 2-65z"/>,<path fill="#424661" fill-opacity=".5" d="M73 116l-13-1 15-4z"/>,<path fill="#AB6133" fill-opacity=".5" d="M236 350l-26 35 33-20z"/>,<path fill="#29819B" fill-opacity=".5" d="M260 156v-51l-10 62z"/>,<path fill="#1E6B8D" fill-opacity=".5" d="M393 24l-6-18-16 29z"/>,<path fill="#2F6178" fill-opacity=".5" d="M434 162l-15 6 35 46z"/>,<path fill="#456991" fill-opacity=".5" d="M227 208l-3 14 18-11z"/>,<path fill="#59A4C9" fill-opacity=".5" d="M292 43l-4 5 2 1z"/>,<path fill="#333B3F" fill-opacity=".5" d="M47 271L0 178v114z"/>,<path fill="#694949" fill-opacity=".5" d="M385 401l18-25 8 31z"/>,<path fill="#AA7471" fill-opacity=".5" d="M277 300l38-3 4 12z"/>,<path fill="#8B7C8D" fill-opacity=".5" d="M236 274l8 3 18-7z"/>,<path fill="#9D654A" fill-opacity=".5" d="M277 333l-32-16-12 30z"/>,<path fill="#6B9EB4" fill-opacity=".5" d="M296 180l-3-32-13 12z"/>,<path fill="#165E76" fill-opacity=".5" d="M472 196l47-71-86 46z"/>,<path fill="#2C404F" fill-opacity=".5" d="M37 59l28 28 14-17z"/>,<path fill="#0C4E60" fill-opacity=".5" d="M450 39l-29-9 19-27z"/>,<path fill="#CF835E" fill-opacity=".5" d="M346 363l9 35-17 1z"/>,<path fill="#4E6380" fill-opacity=".5" d="M335 215l27-44-6 24z"/>,<path fill="#21596E" fill-opacity=".5" d="M112 9l-9-4 21 13z"/>,<path fill="#446F91" fill-opacity=".5" d="M224 148v13l8-14z"/>]</svg>