<!--?xml version="1.0" standalone="no"?-->
<svg xmlns="http://www.w3.org/2000/svg" version="1.2" baseProfile="tiny" width="750" height="500">
[<rect x="0" y="0" width="749" height="499" fill="rgb(29,40,47)" fill-opacity="1"></rect>,<polygon points="547,214 54,195 341,455" fill="rgb(123,119,137)" fill-opacity="0.5019607843137255"></polygon>,<polygon points="452,238 380,286 282,221" fill="rgb(255,247,152)" fill-opacity="0.5019607843137255"></polygon>,<polygon points="611,285 460,186 263,497" fill="rgb(84,50,49)" fill-opacity="0.5019607843137255"></polygon>,<polygon points="272,305 308,366 360,306" fill="rgb(170,117,115)" fill-opacity="0.5019607843137255"></polygon>,<polygon points="471,271 345,215 309,265" fill="rgb(255,186,128)" fill-opacity="0.5019607843137255"></polygon>,<polygon points="194,451 368,151 0,202" fill="rgb(15,67,114)" fill-opacity="0.5019607843137255"></polygon>,<polygon points="256,314 210,285 239,278" fill="rgb(98,136,192)" fill-opacity="0.5019607843137255"></polygon>,<polygon points="0,0 749,350 749,0" fill="rgb(0,16,8)" fill-opacity="0.5019607843137255"></polygon>,<polygon points="414,272 389,223 363,277" fill="rgb(255,235,164)" fill-opacity="0.5019607843137255"></polygon>,<polygon points="296,328 399,267 473,381" fill="rgb(125,64,57)" fill-opacity="0.5019607843137255"></polygon>,<polygon points="288,265 449,174 222,221" fill="rgb(74,123,149)" fill-opacity="0.5019607843137255"></polygon>,<polygon points="259,122 0,0 0,151" fill="rgb(0,9,5)" fill-opacity="0.5019607843137255"></polygon>,<polygon points="0,288 247,297 375,499" fill="rgb(39,58,89)" fill-opacity="0.5019607843137255"></polygon>,<polygon points="263,499 749,499 322,386" fill="rgb(27,20,30)" fill-opacity="0.5019607843137255"></polygon>,<polygon points="139,117 629,298 543,125" fill="rgb(27,52,67)" fill-opacity="0.5019607843137255"></polygon>,<polygon points="492,304 397,285 454,227" fill="rgb(134,95,98)" fill-opacity="0.5019607843137255"></polygon>,<polygon points="420,305 381,310 405,340" fill="rgb(191,77,67)" fill-opacity="0.5019607843137255"></polygon>,<polygon points="0,186 239,272 211,125" fill="rgb(8,45,75)" fill-opacity="0.5019607843137255"></polygon>,<polygon points="491,299 531,283 376,211" fill="rgb(126,83,71)" fill-opacity="0.5019607843137255"></polygon>,<polygon points="86,227 124,267 148,222" fill="rgb(0,111,184)" fill-opacity="0.5019607843137255"></polygon>,<polygon points="299,252 312,218 416,230" fill="rgb(150,155,117)" fill-opacity="0.5019607843137255"></polygon>,<polygon points="445,250 405,276 357,277" fill="rgb(240,142,91)" fill-opacity="0.5019607843137255"></polygon>,<polygon points="327,277 315,240 248,244" fill="rgb(109,73,88)" fill-opacity="0.5019607843137255"></polygon>,<polygon points="337,129 566,213 373,210" fill="rgb(33,56,72)" fill-opacity="0.5019607843137255"></polygon>,<polygon points="277,280 256,320 208,301" fill="rgb(91,108,141)" fill-opacity="0.5019607843137255"></polygon>,<polygon points="323,267 466,457 350,259" fill="rgb(69,48,52)" fill-opacity="0.5019607843137255"></polygon>,<polygon points="271,322 320,386 336,318" fill="rgb(115,114,130)" fill-opacity="0.5019607843137255"></polygon>,<polygon points="212,448 0,161 0,330" fill="rgb(15,39,79)" fill-opacity="0.5019607843137255"></polygon>,<polygon points="457,420 749,499 749,163" fill="rgb(15,22,16)" fill-opacity="0.5019607843137255"></polygon>,<polygon points="344,244 326,259 324,240" fill="rgb(255,231,213)" fill-opacity="0.5019607843137255"></polygon>,<polygon points="371,215 282,217 291,243" fill="rgb(88,145,175)" fill-opacity="0.5019607843137255"></polygon>,<polygon points="216,184 294,223 189,219" fill="rgb(19,78,120)" fill-opacity="0.5019607843137255"></polygon>,<polygon points="418,276 425,291 395,288" fill="rgb(114,117,160)" fill-opacity="0.5019607843137255"></polygon>,<polygon points="250,499 0,334 0,499" fill="rgb(12,10,26)" fill-opacity="0.5019607843137255"></polygon>,<polygon points="364,231 339,256 369,284" fill="rgb(222,112,76)" fill-opacity="0.5019607843137255"></polygon>,<polygon points="620,262 551,257 595,325" fill="rgb(74,54,52)" fill-opacity="0.5019607843137255"></polygon>,<polygon points="409,248 377,274 387,238" fill="rgb(255,250,223)" fill-opacity="0.5019607843137255"></polygon>,<polygon points="509,363 153,398 293,499" fill="rgb(50,51,70)" fill-opacity="0.5019607843137255"></polygon>,<polygon points="565,221 591,445 403,465" fill="rgb(39,33,33)" fill-opacity="0.5019607843137255"></polygon>,<polygon points="403,272 361,272 381,238" fill="rgb(255,224,128)" fill-opacity="0.5019607843137255"></polygon>,<polygon points="312,248 361,255 326,267" fill="rgb(226,119,105)" fill-opacity="0.5019607843137255"></polygon>,<polygon points="462,282 455,293 474,289" fill="rgb(165,200,244)" fill-opacity="0.5019607843137255"></polygon>,<polygon points="222,273 227,288 246,290" fill="rgb(97,154,219)" fill-opacity="0.5019607843137255"></polygon>,<polygon points="430,248 402,265 388,259" fill="rgb(248,198,100)" fill-opacity="0.5019607843137255"></polygon>,<polygon points="338,379 253,430 211,285" fill="rgb(63,78,102)" fill-opacity="0.5019607843137255"></polygon>,<polygon points="196,207 355,184 428,208" fill="rgb(30,75,106)" fill-opacity="0.5019607843137255"></polygon>,<polygon points="443,270 465,287 476,236" fill="rgb(86,48,48)" fill-opacity="0.5019607843137255"></polygon>,<polygon points="113,232 97,240 143,245" fill="rgb(14,136,204)" fill-opacity="0.5019607843137255"></polygon>,<polygon points="239,341 289,269 335,269" fill="rgb(59,56,72)" fill-opacity="0.5019607843137255"></polygon>,<polygon points="428,237 448,278 414,267" fill="rgb(187,117,86)" fill-opacity="0.5019607843137255"></polygon>,<polygon points="186,306 177,248 93,246" fill="rgb(12,62,107)" fill-opacity="0.5019607843137255"></polygon>,<polygon points="342,218 407,222 356,243" fill="rgb(105,136,109)" fill-opacity="0.5019607843137255"></polygon>,<polygon points="391,232 355,257 363,274" fill="rgb(253,182,103)" fill-opacity="0.5019607843137255"></polygon>,<polygon points="293,313 334,314 342,359" fill="rgb(156,100,93)" fill-opacity="0.5019607843137255"></polygon>,<polygon points="325,313 350,277 173,230" fill="rgb(53,65,84)" fill-opacity="0.5019607843137255"></polygon>,<polygon points="469,288 373,424 527,286" fill="rgb(78,61,66)" fill-opacity="0.5019607843137255"></polygon>,<polygon points="0,137 499,78 248,181" fill="rgb(8,35,47)" fill-opacity="0.5019607843137255"></polygon>,<polygon points="749,499 404,499 526,440" fill="rgb(17,20,20)" fill-opacity="0.5019607843137255"></polygon>,<polygon points="486,279 518,316 446,311" fill="rgb(53,54,69)" fill-opacity="0.5019607843137255"></polygon>,<polygon points="78,259 0,277 171,369" fill="rgb(18,57,97)" fill-opacity="0.5019607843137255"></polygon>,<polygon points="422,239 440,278 389,225" fill="rgb(180,141,92)" fill-opacity="0.5019607843137255"></polygon>,<polygon points="328,289 398,279 458,312" fill="rgb(68,61,68)" fill-opacity="0.5019607843137255"></polygon>,<polygon points="343,271 332,286 293,245" fill="rgb(115,80,94)" fill-opacity="0.5019607843137255"></polygon>,<polygon points="342,204 374,227 285,218" fill="rgb(54,127,154)" fill-opacity="0.5019607843137255"></polygon>,<polygon points="182,282 170,252 195,254" fill="rgb(36,105,160)" fill-opacity="0.5019607843137255"></polygon>,<polygon points="134,177 39,186 78,266" fill="rgb(18,49,84)" fill-opacity="0.5019607843137255"></polygon>,<polygon points="293,195 255,224 349,204" fill="rgb(30,86,122)" fill-opacity="0.5019607843137255"></polygon>,<polygon points="354,296 354,264 339,265" fill="rgb(55,50,60)" fill-opacity="0.5019607843137255"></polygon>,<polygon points="289,347 316,305 300,295" fill="rgb(128,118,144)" fill-opacity="0.5019607843137255"></polygon>,<polygon points="226,233 242,206 272,231" fill="rgb(44,107,160)" fill-opacity="0.5019607843137255"></polygon>,<polygon points="317,250 262,307 217,302" fill="rgb(73,95,129)" fill-opacity="0.5019607843137255"></polygon>,<polygon points="495,333 437,281 414,300" fill="rgb(55,47,54)" fill-opacity="0.5019607843137255"></polygon>,<polygon points="571,274 570,300 606,301" fill="rgb(103,71,72)" fill-opacity="0.5019607843137255"></polygon>,<polygon points="741,293 566,164 606,335" fill="rgb(26,36,37)" fill-opacity="0.5019607843137255"></polygon>,<polygon points="496,287 526,292 515,265" fill="rgb(128,82,84)" fill-opacity="0.5019607843137255"></polygon>,<polygon points="100,238 109,237 97,236" fill="rgb(117,176,227)" fill-opacity="0.5019607843137255"></polygon>,<polygon points="40,267 49,121 0,180" fill="rgb(18,37,61)" fill-opacity="0.5019607843137255"></polygon>,<polygon points="433,279 437,245 461,261" fill="rgb(159,96,81)" fill-opacity="0.5019607843137255"></polygon>,<polygon points="432,300 421,336 379,337" fill="rgb(132,67,62)" fill-opacity="0.5019607843137255"></polygon>,<polygon points="263,296 301,435 275,428" fill="rgb(69,73,97)" fill-opacity="0.5019607843137255"></polygon>,<polygon points="208,391 201,499 0,341" fill="rgb(25,33,51)" fill-opacity="0.5019607843137255"></polygon>,<polygon points="410,209 548,168 517,270" fill="rgb(41,51,57)" fill-opacity="0.5019607843137255"></polygon>,<polygon points="281,230 287,270 262,273" fill="rgb(87,90,98)" fill-opacity="0.5019607843137255"></polygon>,<polygon points="449,277 415,265 404,278" fill="rgb(145,73,71)" fill-opacity="0.5019607843137255"></polygon>,<polygon points="325,246 280,239 331,226" fill="rgb(155,130,122)" fill-opacity="0.5019607843137255"></polygon>,<polygon points="388,289 335,337 383,318" fill="rgb(67,41,39)" fill-opacity="0.5019607843137255"></polygon>,<polygon points="335,382 328,332 384,344" fill="rgb(99,78,82)" fill-opacity="0.5019607843137255"></polygon>,<polygon points="281,393 292,338 349,355" fill="rgb(85,100,123)" fill-opacity="0.5019607843137255"></polygon>,<polygon points="484,309 487,293 404,290" fill="rgb(74,80,104)" fill-opacity="0.5019607843137255"></polygon>,<polygon points="272,456 211,286 125,269" fill="rgb(35,58,81)" fill-opacity="0.5019607843137255"></polygon>,<polygon points="0,0 749,0 749,171" fill="rgb(4,18,11)" fill-opacity="0.5019607843137255"></polygon>,<polygon points="345,291 343,331 311,327" fill="rgb(154,87,84)" fill-opacity="0.5019607843137255"></polygon>,<polygon points="122,255 100,230 148,239" fill="rgb(8,108,169)" fill-opacity="0.5019607843137255"></polygon>,<polygon points="395,339 428,387 472,321" fill="rgb(97,64,62)" fill-opacity="0.5019607843137255"></polygon>,<polygon points="431,316 459,314 444,285" fill="rgb(59,47,50)" fill-opacity="0.5019607843137255"></polygon>,<polygon points="399,240 404,255 389,253" fill="rgb(255,231,255)" fill-opacity="0.5019607843137255"></polygon>,<polygon points="384,218 516,278 452,224" fill="rgb(87,71,64)" fill-opacity="0.5019607843137255"></polygon>,<polygon points="550,63 269,44 749,273" fill="rgb(5,32,34)" fill-opacity="0.5019607843137255"></polygon>,<polygon points="339,272 334,302 319,277" fill="rgb(72,82,115)" fill-opacity="0.5019607843137255"></polygon>,<polygon points="413,308 381,331 395,303" fill="rgb(176,77,68)" fill-opacity="0.5019607843137255"></polygon>,<polygon points="286,297 259,302 271,353" fill="rgb(88,73,87)" fill-opacity="0.5019607843137255"></polygon>,<polygon points="501,209 509,241 464,215" fill="rgb(45,62,77)" fill-opacity="0.5019607843137255"></polygon>,<polygon points="217,312 203,262 226,253" fill="rgb(46,82,117)" fill-opacity="0.5019607843137255"></polygon>,<polygon points="146,189 199,239 133,260" fill="rgb(23,61,94)" fill-opacity="0.5019607843137255"></polygon>,<polygon points="428,380 562,390 345,481" fill="rgb(47,39,45)" fill-opacity="0.5019607843137255"></polygon>,<polygon points="450,194 415,226 368,212" fill="rgb(60,79,86)" fill-opacity="0.5019607843137255"></polygon>,<polygon points="593,194 636,272 495,252" fill="rgb(31,40,40)" fill-opacity="0.5019607843137255"></polygon>,<polygon points="275,451 146,347 61,350" fill="rgb(30,48,72)" fill-opacity="0.5019607843137255"></polygon>,<polygon points="338,246 334,256 324,244" fill="rgb(255,232,236)" fill-opacity="0.5019607843137255"></polygon>,<polygon points="330,228 368,236 313,250" fill="rgb(203,177,110)" fill-opacity="0.5019607843137255"></polygon>,<polygon points="331,315 309,243 296,234" fill="rgb(79,62,73)" fill-opacity="0.5019607843137255"></polygon>,<polygon points="22,221 0,209 0,231" fill="rgb(15,57,105)" fill-opacity="0.5019607843137255"></polygon>,<polygon points="0,90 274,65 0,0" fill="rgb(5,17,10)" fill-opacity="0.5019607843137255"></polygon>,<polygon points="438,206 436,210 432,205" fill="rgb(76,99,137)" fill-opacity="0.5019607843137255"></polygon>,<polygon points="468,283 454,291 481,285" fill="rgb(175,173,200)" fill-opacity="0.5019607843137255"></polygon>,<polygon points="299,296 274,308 280,334" fill="rgb(118,92,102)" fill-opacity="0.5019607843137255"></polygon>,<polygon points="158,245 209,286 159,302" fill="rgb(31,73,111)" fill-opacity="0.5019607843137255"></polygon>,<polygon points="513,249 576,383 548,258" fill="rgb(32,33,28)" fill-opacity="0.5019607843137255"></polygon>,<polygon points="289,245 311,235 260,224" fill="rgb(86,115,141)" fill-opacity="0.5019607843137255"></polygon>,<polygon points="576,271 601,286 586,304" fill="rgb(92,68,69)" fill-opacity="0.5019607843137255"></polygon>,<polygon points="537,233 331,138 570,177" fill="rgb(25,45,56)" fill-opacity="0.5019607843137255"></polygon>,<polygon points="153,162 234,201 347,143" fill="rgb(26,50,70)" fill-opacity="0.5019607843137255"></polygon>,<polygon points="394,230 347,234 347,248" fill="rgb(167,142,88)" fill-opacity="0.5019607843137255"></polygon>,<polygon points="454,296 404,286 460,282" fill="rgb(73,78,102)" fill-opacity="0.5019607843137255"></polygon>,<polygon points="574,365 489,302 472,404" fill="rgb(36,35,33)" fill-opacity="0.5019607843137255"></polygon>,<polygon points="386,354 380,352 389,353" fill="rgb(179,169,204)" fill-opacity="0.5019607843137255"></polygon>,<polygon points="403,266 377,268 374,256" fill="rgb(255,238,204)" fill-opacity="0.5019607843137255"></polygon>,<polygon points="245,253 226,189 193,194" fill="rgb(29,72,107)" fill-opacity="0.5019607843137255"></polygon>,<polygon points="184,412 190,328 279,374" fill="rgb(40,60,82)" fill-opacity="0.5019607843137255"></polygon>,<polygon points="170,282 182,253 188,279" fill="rgb(42,96,141)" fill-opacity="0.5019607843137255"></polygon>,<polygon points="749,499 749,191 608,388" fill="rgb(11,25,23)" fill-opacity="0.5019607843137255"></polygon>,<polygon points="385,198 338,216 372,224" fill="rgb(67,107,134)" fill-opacity="0.5019607843137255"></polygon>,<polygon points="338,434 441,499 189,499" fill="rgb(30,29,46)" fill-opacity="0.5019607843137255"></polygon>,<polygon points="74,359 0,302 0,383" fill="rgb(16,25,47)" fill-opacity="0.5019607843137255"></polygon>,<polygon points="412,350 435,359 447,319" fill="rgb(115,66,65)" fill-opacity="0.5019607843137255"></polygon>,<polygon points="375,339 341,340 359,325" fill="rgb(122,85,86)" fill-opacity="0.5019607843137255"></polygon>,<polygon points="380,363 289,466 289,397" fill="rgb(51,54,71)" fill-opacity="0.5019607843137255"></polygon>,<polygon points="37,89 226,148 367,29" fill="rgb(6,26,28)" fill-opacity="0.5019607843137255"></polygon>,<polygon points="476,263 518,272 510,247" fill="rgb(77,55,52)" fill-opacity="0.5019607843137255"></polygon>,<polygon points="310,227 333,234 344,221" fill="rgb(129,176,162)" fill-opacity="0.5019607843137255"></polygon>,<polygon points="155,236 133,249 137,218" fill="rgb(18,85,132)" fill-opacity="0.5019607843137255"></polygon>,<polygon points="300,217 300,234 329,222" fill="rgb(99,140,175)" fill-opacity="0.5019607843137255"></polygon>,<polygon points="371,284 366,259 380,259" fill="rgb(255,200,106)" fill-opacity="0.5019607843137255"></polygon>,<polygon points="251,281 251,245 273,283" fill="rgb(40,52,56)" fill-opacity="0.5019607843137255"></polygon>,<polygon points="175,350 168,362 207,376" fill="rgb(42,70,104)" fill-opacity="0.5019607843137255"></polygon>,<polygon points="354,308 338,317 355,365" fill="rgb(102,63,61)" fill-opacity="0.5019607843137255"></polygon>,<polygon points="303,242 310,265 320,252" fill="rgb(130,82,78)" fill-opacity="0.5019607843137255"></polygon>,<polygon points="412,285 411,279 414,279" fill="rgb(255,237,255)" fill-opacity="0.5019607843137255"></polygon>,<polygon points="327,362 279,327 342,346" fill="rgb(109,113,118)" fill-opacity="0.5019607843137255"></polygon>,<polygon points="550,463 709,397 595,386" fill="rgb(28,33,36)" fill-opacity="0.5019607843137255"></polygon>,<polygon points="277,280 292,302 318,270" fill="rgb(39,53,71)" fill-opacity="0.5019607843137255"></polygon>,<polygon points="177,242 268,264 222,231" fill="rgb(30,54,71)" fill-opacity="0.5019607843137255"></polygon>,<polygon points="276,286 323,297 326,281" fill="rgb(41,59,80)" fill-opacity="0.5019607843137255"></polygon>,<polygon points="629,68 625,66 628,72" fill="rgb(74,83,96)" fill-opacity="0.5019607843137255"></polygon>,<polygon points="276,255 225,224 219,237" fill="rgb(51,80,100)" fill-opacity="0.5019607843137255"></polygon>,<polygon points="426,395 447,336 467,365" fill="rgb(73,59,61)" fill-opacity="0.5019607843137255"></polygon>,<polygon points="381,286 343,260 367,290" fill="rgb(128,89,90)" fill-opacity="0.5019607843137255"></polygon>,<polygon points="159,233 132,219 85,222" fill="rgb(11,75,120)" fill-opacity="0.5019607843137255"></polygon>,<polygon points="192,188 306,186 271,212" fill="rgb(26,63,92)" fill-opacity="0.5019607843137255"></polygon>,<polygon points="219,299 224,277 238,296" fill="rgb(78,118,169)" fill-opacity="0.5019607843137255"></polygon>,<polygon points="287,490 186,477 143,378" fill="rgb(30,34,50)" fill-opacity="0.5019607843137255"></polygon>,<polygon points="492,291 467,266 455,280" fill="rgb(96,65,68)" fill-opacity="0.5019607843137255"></polygon>,<polygon points="348,295 336,301 338,317" fill="rgb(153,102,101)" fill-opacity="0.5019607843137255"></polygon>,<polygon points="445,193 488,233 428,227" fill="rgb(39,47,52)" fill-opacity="0.5019607843137255"></polygon>,<polygon points="355,317 377,333 377,308" fill="rgb(49,39,41)" fill-opacity="0.5019607843137255"></polygon>,<polygon points="290,251 304,260 297,274" fill="rgb(80,107,163)" fill-opacity="0.5019607843137255"></polygon>,<polygon points="250,241 274,239 270,284" fill="rgb(65,74,81)" fill-opacity="0.5019607843137255"></polygon>,<polygon points="420,400 435,365 362,323" fill="rgb(72,62,62)" fill-opacity="0.5019607843137255"></polygon>,<polygon points="111,255 87,226 75,224" fill="rgb(16,77,125)" fill-opacity="0.5019607843137255"></polygon>,<polygon points="193,269 227,246 184,175" fill="rgb(26,55,77)" fill-opacity="0.5019607843137255"></polygon>,<polygon points="337,146 309,188 467,207" fill="rgb(26,51,68)" fill-opacity="0.5019607843137255"></polygon>,<polygon points="324,375 274,375 276,398" fill="rgb(62,79,116)" fill-opacity="0.5019607843137255"></polygon>,<polygon points="371,297 333,293 325,308" fill="rgb(110,74,76)" fill-opacity="0.5019607843137255"></polygon>,<polygon points="299,235 288,221 303,234" fill="rgb(114,142,182)" fill-opacity="0.5019607843137255"></polygon>,<polygon points="448,282 460,298 450,276" fill="rgb(98,101,129)" fill-opacity="0.5019607843137255"></polygon>,<polygon points="47,189 95,242 30,225" fill="rgb(21,54,90)" fill-opacity="0.5019607843137255"></polygon>,<polygon points="591,356 590,356 584,361" fill="rgb(101,103,112)" fill-opacity="0.5019607843137255"></polygon>,<polygon points="227,223 203,196 216,192" fill="rgb(21,77,123)" fill-opacity="0.5019607843137255"></polygon>,<polygon points="562,127 336,147 480,89" fill="rgb(10,36,41)" fill-opacity="0.5019607843137255"></polygon>,<polygon points="293,307 300,334 317,315" fill="rgb(157,123,120)" fill-opacity="0.5019607843137255"></polygon>,<polygon points="435,285 437,290 448,277" fill="rgb(134,110,113)" fill-opacity="0.5019607843137255"></polygon>,<polygon points="318,240 308,243 334,257" fill="rgb(193,156,138)" fill-opacity="0.5019607843137255"></polygon>,<polygon points="383,315 408,344 378,336" fill="rgb(115,69,69)" fill-opacity="0.5019607843137255"></polygon>,<polygon points="138,252 182,223 147,261" fill="rgb(24,45,68)" fill-opacity="0.5019607843137255"></polygon>,<polygon points="398,296 414,276 392,274" fill="rgb(119,88,95)" fill-opacity="0.5019607843137255"></polygon>,<polygon points="749,499 644,413 649,499" fill="rgb(13,23,25)" fill-opacity="0.5019607843137255"></polygon>,<polygon points="532,290 624,314 475,465" fill="rgb(32,33,32)" fill-opacity="0.5019607843137255"></polygon>,<polygon points="456,240 432,254 458,259" fill="rgb(128,99,81)" fill-opacity="0.5019607843137255"></polygon>,<polygon points="255,292 266,291 243,310" fill="rgb(93,122,170)" fill-opacity="0.5019607843137255"></polygon>,<polygon points="482,202 504,189 492,197" fill="rgb(69,83,104)" fill-opacity="0.5019607843137255"></polygon>,<polygon points="614,438 617,408 594,416" fill="rgb(35,43,51)" fill-opacity="0.5019607843137255"></polygon>,<polygon points="458,301 470,301 431,333" fill="rgb(65,46,46)" fill-opacity="0.5019607843137255"></polygon>,<polygon points="403,409 405,410 413,400" fill="rgb(100,100,127)" fill-opacity="0.5019607843137255"></polygon>,<polygon points="94,232 93,251 105,228" fill="rgb(9,86,142)" fill-opacity="0.5019607843137255"></polygon>,<polygon points="358,272 381,277 408,270" fill="rgb(233,145,106)" fill-opacity="0.5019607843137255"></polygon>,<polygon points="245,282 239,293 284,281" fill="rgb(51,84,118)" fill-opacity="0.5019607843137255"></polygon>,<polygon points="749,216 685,104 630,247" fill="rgb(5,24,20)" fill-opacity="0.5019607843137255"></polygon>,<polygon points="100,293 149,270 128,320" fill="rgb(22,44,72)" fill-opacity="0.5019607843137255"></polygon>,<polygon points="444,242 359,224 401,221" fill="rgb(118,110,91)" fill-opacity="0.5019607843137255"></polygon>,<polygon points="512,321 481,278 526,307" fill="rgb(53,43,44)" fill-opacity="0.5019607843137255"></polygon>,<polygon points="320,312 308,292 295,304" fill="rgb(77,81,121)" fill-opacity="0.5019607843137255"></polygon>,<polygon points="174,327 193,334 199,301" fill="rgb(27,48,67)" fill-opacity="0.5019607843137255"></polygon>,<polygon points="85,252 0,298 10,209" fill="rgb(20,42,70)" fill-opacity="0.5019607843137255"></polygon>,<polygon points="341,277 342,276 326,276" fill="rgb(119,127,155)" fill-opacity="0.5019607843137255"></polygon>,<polygon points="355,199 300,190 362,176" fill="rgb(29,61,85)" fill-opacity="0.5019607843137255"></polygon>,<polygon points="327,254 328,242 339,250" fill="rgb(255,227,222)" fill-opacity="0.5019607843137255"></polygon>,<polygon points="554,191 699,280 718,211" fill="rgb(12,32,33)" fill-opacity="0.5019607843137255"></polygon>,<polygon points="356,364 287,394 342,387" fill="rgb(69,70,89)" fill-opacity="0.5019607843137255"></polygon>,<polygon points="615,266 606,279 611,275" fill="rgb(80,75,81)" fill-opacity="0.5019607843137255"></polygon>,<polygon points="96,232 99,201 59,205" fill="rgb(15,56,94)" fill-opacity="0.5019607843137255"></polygon>,<polygon points="195,265 179,253 184,264" fill="rgb(49,119,177)" fill-opacity="0.5019607843137255"></polygon>,<polygon points="288,404 297,416 276,403" fill="rgb(92,91,109)" fill-opacity="0.5019607843137255"></polygon>,<polygon points="470,263 477,260 478,288" fill="rgb(140,87,89)" fill-opacity="0.5019607843137255"></polygon>,<polygon points="0,218 0,137 101,156" fill="rgb(16,35,57)" fill-opacity="0.5019607843137255"></polygon>,<polygon points="428,292 468,281 410,312" fill="rgb(73,56,67)" fill-opacity="0.5019607843137255"></polygon>,<polygon points="208,303 267,310 225,325" fill="rgb(59,82,108)" fill-opacity="0.5019607843137255"></polygon>,<polygon points="257,294 238,277 205,266" fill="rgb(43,87,132)" fill-opacity="0.5019607843137255"></polygon>,<polygon points="372,422 381,393 329,388" fill="rgb(57,56,69)" fill-opacity="0.5019607843137255"></polygon>,<polygon points="477,288 463,292 457,299" fill="rgb(102,111,143)" fill-opacity="0.5019607843137255"></polygon>,<polygon points="461,313 469,340 411,326" fill="rgb(95,54,51)" fill-opacity="0.5019607843137255"></polygon>,<polygon points="262,304 217,346 266,334" fill="rgb(50,64,79)" fill-opacity="0.5019607843137255"></polygon>,<polygon points="433,345 438,306 400,301" fill="rgb(113,56,52)" fill-opacity="0.5019607843137255"></polygon>,<polygon points="334,335 335,317 319,328" fill="rgb(173,102,97)" fill-opacity="0.5019607843137255"></polygon>,<polygon points="449,216 432,231 470,233" fill="rgb(64,62,66)" fill-opacity="0.5019607843137255"></polygon>,<polygon points="101,284 62,306 21,266" fill="rgb(16,57,97)" fill-opacity="0.5019607843137255"></polygon>,<polygon points="396,307 348,315 370,283" fill="rgb(95,60,58)" fill-opacity="0.5019607843137255"></polygon>,<polygon points="242,356 262,342 236,338" fill="rgb(64,86,110)" fill-opacity="0.5019607843137255"></polygon>,<polygon points="335,338 318,346 363,361" fill="rgb(99,82,83)" fill-opacity="0.5019607843137255"></polygon>,<polygon points="406,265 377,240 374,257" fill="rgb(255,222,133)" fill-opacity="0.5019607843137255"></polygon>,<polygon points="388,186 370,177 378,210" fill="rgb(25,60,79)" fill-opacity="0.5019607843137255"></polygon>,<polygon points="584,260 571,296 543,278" fill="rgb(65,53,57)" fill-opacity="0.5019607843137255"></polygon>,<polygon points="191,323 215,296 230,247" fill="rgb(37,65,93)" fill-opacity="0.5019607843137255"></polygon>,<polygon points="407,237 402,262 409,253" fill="rgb(252,207,100)" fill-opacity="0.5019607843137255"></polygon>,<polygon points="390,298 356,284 398,287" fill="rgb(67,70,76)" fill-opacity="0.5019607843137255"></polygon>,<polygon points="218,317 176,328 202,375" fill="rgb(32,52,73)" fill-opacity="0.5019607843137255"></polygon>,<polygon points="735,258 734,262 738,273" fill="rgb(61,70,81)" fill-opacity="0.5019607843137255"></polygon>,<polygon points="360,246 371,230 371,254" fill="rgb(193,162,96)" fill-opacity="0.5019607843137255"></polygon>,<polygon points="728,286 613,270 597,299" fill="rgb(32,32,28)" fill-opacity="0.5019607843137255"></polygon>,<polygon points="329,287 351,267 351,287" fill="rgb(49,61,78)" fill-opacity="0.5019607843137255"></polygon>,<polygon points="299,253 280,247 310,241" fill="rgb(69,73,88)" fill-opacity="0.5019607843137255"></polygon>,<polygon points="384,373 362,396 359,366" fill="rgb(66,61,79)" fill-opacity="0.5019607843137255"></polygon>,<polygon points="504,144 582,144 645,267" fill="rgb(15,37,41)" fill-opacity="0.5019607843137255"></polygon>,<polygon points="377,250 388,235 368,238" fill="rgb(220,197,116)" fill-opacity="0.5019607843137255"></polygon>,<polygon points="380,222 323,222 347,230" fill="rgb(95,157,141)" fill-opacity="0.5019607843137255"></polygon>,<polygon points="529,297 515,293 523,271" fill="rgb(87,53,52)" fill-opacity="0.5019607843137255"></polygon>,<polygon points="362,275 359,264 341,250" fill="rgb(218,109,98)" fill-opacity="0.5019607843137255"></polygon>,<polygon points="566,277 553,259 603,256" fill="rgb(44,49,57)" fill-opacity="0.5019607843137255"></polygon>,<polygon points="465,298 500,308 473,312" fill="rgb(73,64,79)" fill-opacity="0.5019607843137255"></polygon>,<polygon points="429,169 432,168 428,172" fill="rgb(97,117,155)" fill-opacity="0.5019607843137255"></polygon>,<polygon points="247,239 241,216 266,241" fill="rgb(74,113,156)" fill-opacity="0.5019607843137255"></polygon>,<polygon points="338,262 329,250 344,255" fill="rgb(222,129,105)" fill-opacity="0.5019607843137255"></polygon>,<polygon points="512,276 504,277 505,287" fill="rgb(142,112,116)" fill-opacity="0.5019607843137255"></polygon>,<polygon points="418,430 489,379 401,391" fill="rgb(55,43,49)" fill-opacity="0.5019607843137255"></polygon>,<polygon points="403,225 434,238 422,211" fill="rgb(82,73,68)" fill-opacity="0.5019607843137255"></polygon>,<polygon points="647,88 646,82 647,71" fill="rgb(59,70,79)" fill-opacity="0.5019607843137255"></polygon>,<polygon points="388,314 397,309 412,317" fill="rgb(194,89,80)" fill-opacity="0.5019607843137255"></polygon>,<polygon points="374,217 349,201 339,208" fill="rgb(57,94,125)" fill-opacity="0.5019607843137255"></polygon>,<polygon points="212,163 220,100 368,78" fill="rgb(10,34,42)" fill-opacity="0.5019607843137255"></polygon>,<polygon points="232,209 279,229 247,199" fill="rgb(21,80,120)" fill-opacity="0.5019607843137255"></polygon>,<polygon points="343,212 343,223 309,222" fill="rgb(73,147,165)" fill-opacity="0.5019607843137255"></polygon>,<polygon points="0,212 225,179 28,157" fill="rgb(21,43,66)" fill-opacity="0.5019607843137255"></polygon>,<polygon points="397,496 387,497 393,499" fill="rgb(59,56,84)" fill-opacity="0.5019607843137255"></polygon>,<polygon points="494,258 523,210 530,255" fill="rgb(46,47,49)" fill-opacity="0.5019607843137255"></polygon>,<polygon points="220,137 107,110 87,169" fill="rgb(13,33,44)" fill-opacity="0.5019607843137255"></polygon>,<polygon points="262,239 257,255 245,239" fill="rgb(60,83,105)" fill-opacity="0.5019607843137255"></polygon>,<polygon points="277,335 262,328 302,335" fill="rgb(105,97,125)" fill-opacity="0.5019607843137255"></polygon>,<polygon points="349,248 333,232 333,242" fill="rgb(226,194,123)" fill-opacity="0.5019607843137255"></polygon>,<polygon points="570,265 599,285 601,265" fill="rgb(49,51,56)" fill-opacity="0.5019607843137255"></polygon>,<polygon points="466,232 525,261 487,259" fill="rgb(65,53,50)" fill-opacity="0.5019607843137255"></polygon>,<polygon points="297,328 280,306 299,303" fill="rgb(132,105,109)" fill-opacity="0.5019607843137255"></polygon>,<polygon points="416,193 374,213 425,201" fill="rgb(48,73,92)" fill-opacity="0.5019607843137255"></polygon>,<polygon points="226,409 218,314 268,386" fill="rgb(45,65,87)" fill-opacity="0.5019607843137255"></polygon>,<polygon points="364,233 394,222 362,238" fill="rgb(130,126,101)" fill-opacity="0.5019607843137255"></polygon>,<polygon points="664,434 417,456 405,499" fill="rgb(28,25,31)" fill-opacity="0.5019607843137255"></polygon>,<polygon points="749,253 726,248 745,273" fill="rgb(15,32,35)" fill-opacity="0.5019607843137255"></polygon>,<polygon points="37,91 29,94 28,95" fill="rgb(54,67,76)" fill-opacity="0.5019607843137255"></polygon>,<polygon points="406,241 392,236 414,254" fill="rgb(230,203,98)" fill-opacity="0.5019607843137255"></polygon>,<polygon points="374,266 393,262 378,267" fill="rgb(255,231,255)" fill-opacity="0.5019607843137255"></polygon>,<polygon points="284,215 261,215 279,238" fill="rgb(54,96,123)" fill-opacity="0.5019607843137255"></polygon>,<polygon points="291,210 313,210 291,231" fill="rgb(59,107,150)" fill-opacity="0.5019607843137255"></polygon>,<polygon points="385,265 396,271 368,274" fill="rgb(255,208,112)" fill-opacity="0.5019607843137255"></polygon>,<polygon points="656,275 641,316 677,292" fill="rgb(35,34,34)" fill-opacity="0.5019607843137255"></polygon>,<polygon points="313,253 301,241 321,245" fill="rgb(130,97,95)" fill-opacity="0.5019607843137255"></polygon>,<polygon points="270,250 275,244 282,271" fill="rgb(95,102,117)" fill-opacity="0.5019607843137255"></polygon>,<polygon points="664,340 663,343 663,341" fill="rgb(84,100,130)" fill-opacity="0.5019607843137255"></polygon>,<polygon points="312,343 316,331 327,340" fill="rgb(137,128,118)" fill-opacity="0.5019607843137255"></polygon>,<polygon points="103,333 83,298 30,334" fill="rgb(20,46,76)" fill-opacity="0.5019607843137255"></polygon>,<polygon points="393,234 445,263 409,232" fill="rgb(171,139,97)" fill-opacity="0.5019607843137255"></polygon>,<polygon points="270,397 242,398 269,455" fill="rgb(42,50,73)" fill-opacity="0.5019607843137255"></polygon>,<polygon points="215,298 233,297 238,330" fill="rgb(70,95,126)" fill-opacity="0.5019607843137255"></polygon>,<polygon points="379,220 411,210 371,203" fill="rgb(57,87,101)" fill-opacity="0.5019607843137255"></polygon>,<polygon points="417,265 366,280 413,273" fill="rgb(201,118,108)" fill-opacity="0.5019607843137255"></polygon>,<polygon points="298,233 271,233 273,242" fill="rgb(90,115,137)" fill-opacity="0.5019607843137255"></polygon>,<polygon points="691,366 672,374 702,387" fill="rgb(30,35,38)" fill-opacity="0.5019607843137255"></polygon>,<polygon points="387,250 399,244 401,255" fill="rgb(255,228,255)" fill-opacity="0.5019607843137255"></polygon>,<polygon points="475,278 509,275 497,291" fill="rgb(92,64,67)" fill-opacity="0.5019607843137255"></polygon>,<polygon points="590,296 591,305 565,289" fill="rgb(111,77,77)" fill-opacity="0.5019607843137255"></polygon>,<polygon points="474,278 448,267 451,281" fill="rgb(76,55,56)" fill-opacity="0.5019607843137255"></polygon>,<polygon points="378,270 386,262 382,259" fill="rgb(255,227,245)" fill-opacity="0.5019607843137255"></polygon>,<polygon points="481,273 486,255 499,262" fill="rgb(89,57,59)" fill-opacity="0.5019607843137255"></polygon>,<polygon points="381,306 398,299 380,322" fill="rgb(110,53,49)" fill-opacity="0.5019607843137255"></polygon>,<polygon points="329,274 329,300 337,278" fill="rgb(72,84,115)" fill-opacity="0.5019607843137255"></polygon>,<polygon points="389,368 397,360 367,347" fill="rgb(101,73,81)" fill-opacity="0.5019607843137255"></polygon>,<polygon points="265,366 282,406 237,389" fill="rgb(53,68,93)" fill-opacity="0.5019607843137255"></polygon>,<polygon points="394,352 398,387 416,337" fill="rgb(71,54,53)" fill-opacity="0.5019607843137255"></polygon>,<polygon points="335,308 306,337 322,306" fill="rgb(110,80,80)" fill-opacity="0.5019607843137255"></polygon>,<polygon points="298,265 275,279 303,277" fill="rgb(49,70,93)" fill-opacity="0.5019607843137255"></polygon>,<polygon points="258,252 269,264 251,273" fill="rgb(40,53,61)" fill-opacity="0.5019607843137255"></polygon>,<polygon points="229,240 217,221 242,211" fill="rgb(33,86,124)" fill-opacity="0.5019607843137255"></polygon>,<polygon points="0,413 0,499 144,499" fill="rgb(18,19,26)" fill-opacity="0.5019607843137255"></polygon>,<polygon points="490,368 500,314 462,311" fill="rgb(49,40,41)" fill-opacity="0.5019607843137255"></polygon>,<polygon points="604,479 607,476 601,478" fill="rgb(100,100,110)" fill-opacity="0.5019607843137255"></polygon>,<polygon points="555,184 534,201 551,195" fill="rgb(40,56,71)" fill-opacity="0.5019607843137255"></polygon>,<polygon points="263,230 271,225 263,228" fill="rgb(128,173,227)" fill-opacity="0.5019607843137255"></polygon>,<polygon points="452,356 439,370 384,332" fill="rgb(100,71,72)" fill-opacity="0.5019607843137255"></polygon>,<polygon points="377,364 383,325 380,376" fill="rgb(70,52,59)" fill-opacity="0.5019607843137255"></polygon>,<polygon points="292,173 271,216 271,158" fill="rgb(28,54,74)" fill-opacity="0.5019607843137255"></polygon>,<polygon points="344,231 393,228 392,235" fill="rgb(151,148,108)" fill-opacity="0.5019607843137255"></polygon>,<polygon points="423,290 420,288 418,294" fill="rgb(150,171,205)" fill-opacity="0.5019607843137255"></polygon>,<polygon points="404,266 431,251 411,254" fill="rgb(218,171,108)" fill-opacity="0.5019607843137255"></polygon>,<polygon points="48,308 0,294 41,244" fill="rgb(18,44,81)" fill-opacity="0.5019607843137255"></polygon>,<polygon points="299,267 302,254 302,262" fill="rgb(111,126,190)" fill-opacity="0.5019607843137255"></polygon>,<polygon points="217,316 167,268 150,317" fill="rgb(31,61,92)" fill-opacity="0.5019607843137255"></polygon>,<polygon points="241,317 262,345 269,320" fill="rgb(57,60,73)" fill-opacity="0.5019607843137255"></polygon>,<polygon points="111,298 95,348 176,367" fill="rgb(25,56,90)" fill-opacity="0.5019607843137255"></polygon>,<polygon points="249,480 149,389 340,464" fill="rgb(34,42,62)" fill-opacity="0.5019607843137255"></polygon>,<polygon points="593,420 636,423 628,407" fill="rgb(32,41,46)" fill-opacity="0.5019607843137255"></polygon>,<polygon points="186,262 203,267 171,270" fill="rgb(34,86,127)" fill-opacity="0.5019607843137255"></polygon>,<polygon points="268,420 268,454 300,399" fill="rgb(49,55,76)" fill-opacity="0.5019607843137255"></polygon>,<polygon points="456,340 440,358 474,344" fill="rgb(72,49,45)" fill-opacity="0.5019607843137255"></polygon>,<polygon points="338,267 319,265 319,275" fill="rgb(128,80,74)" fill-opacity="0.5019607843137255"></polygon>,<polygon points="263,226 253,220 275,224" fill="rgb(33,87,124)" fill-opacity="0.5019607843137255"></polygon>,<polygon points="635,322 611,308 645,287" fill="rgb(16,28,22)" fill-opacity="0.5019607843137255"></polygon>,<polygon points="266,286 212,266 242,260" fill="rgb(38,64,84)" fill-opacity="0.5019607843137255"></polygon>,<polygon points="175,252 168,245 202,228" fill="rgb(39,68,102)" fill-opacity="0.5019607843137255"></polygon>,<polygon points="349,333 323,368 345,371" fill="rgb(99,84,92)" fill-opacity="0.5019607843137255"></polygon>,<polygon points="136,279 113,283 108,244" fill="rgb(25,49,78)" fill-opacity="0.5019607843137255"></polygon>,<polygon points="0,167 133,117 0,118" fill="rgb(13,27,36)" fill-opacity="0.5019607843137255"></polygon>,<polygon points="447,281 458,289 452,283" fill="rgb(122,122,153)" fill-opacity="0.5019607843137255"></polygon>,<polygon points="399,339 426,326 390,336" fill="rgb(132,79,79)" fill-opacity="0.5019607843137255"></polygon>,<polygon points="304,268 286,265 287,252" fill="rgb(72,98,135)" fill-opacity="0.5019607843137255"></polygon>,<polygon points="749,268 735,265 749,302" fill="rgb(8,23,20)" fill-opacity="0.5019607843137255"></polygon>,<polygon points="631,443 610,430 620,444" fill="rgb(32,43,51)" fill-opacity="0.5019607843137255"></polygon>,<polygon points="352,175 315,126 304,167" fill="rgb(23,44,57)" fill-opacity="0.5019607843137255"></polygon>,<polygon points="474,262 440,281 466,246" fill="rgb(103,59,58)" fill-opacity="0.5019607843137255"></polygon>,<polygon points="192,285 211,254 228,275" fill="rgb(48,82,113)" fill-opacity="0.5019607843137255"></polygon>,<polygon points="153,224 165,232 168,196" fill="rgb(22,70,108)" fill-opacity="0.5019607843137255"></polygon>,<polygon points="595,320 570,341 623,388" fill="rgb(21,33,31)" fill-opacity="0.5019607843137255"></polygon>,<polygon points="359,214 374,228 349,225" fill="rgb(101,132,134)" fill-opacity="0.5019607843137255"></polygon>]</svg>