<svg xmlns="http://www.w3.org/2000/svg" viewBox="0 0 506 252"><defs/><path fill="#06524c" d="M0 0h506v252H0z"/><path fill="#09dcd4" fill-opacity=".5" d="M506 73L53 0l95 146 358-73z"/><path fill="#040000" fill-opacity=".5" d="M278 213l228 39V21L278 213z"/><path fill="#050000" fill-opacity=".5" d="M0 252l388-95L0 133v119z"/><path fill="#28e1c9" fill-opacity=".5" d="M288 164l112-68-207 10 95 58z"/><path fill="#04a993" fill-opacity=".5" d="M29 105l100 17L63 7l-34 98z"/><path fill="#030700" fill-opacity=".5" d="M125 120l94 110 41-97-135-13z"/><path fill="#049499" fill-opacity=".5" d="M66 0h399l-58 142L66 0z"/><path fill="#040200" fill-opacity=".5" d="M506 252V65L263 252h243z"/><path fill="#04645f" fill-opacity=".5" d="M131 0H36L21 114 131 0z"/><path fill="#04595d" fill-opacity=".5" d="M506 76L453 0 352 154l154-78z"/><path fill="#2cdec3" fill-opacity=".5" d="M230 135l124-14-14-41-110 55z"/><path fill="#04bcaf" fill-opacity=".5" d="M260 42L83 36l110 100 67-94z"/><path fill="#006e75" fill-opacity=".5" d="M271 158l147-25-190-3 43 28z"/><path fill="#046259" fill-opacity=".5" d="M40 240l91-48 69 12-160 36z"/><path fill="#037a6c" fill-opacity=".5" d="M220 125l-70 22-57-59 127 37z"/><path fill="#899893" fill-opacity=".5" d="M293 140l-16 48 21 3-5-51z"/><path fill="#057a67" fill-opacity=".5" d="M363 252l-177-37 147 3 30 34z"/><path fill="#010000" fill-opacity=".5" d="M0 204v-76l298 51L0 204z"/><path fill="#f6ffe6" fill-opacity=".5" d="M287 182l-3 9 16-5-13-4z"/><path fill="#011d16" fill-opacity=".5" d="M170 213L0 252h295l-125-39z"/><path fill="#213c37" fill-opacity=".5" d="M302 137l22 31h-30l8-31z"/><path fill="#5fd3b6" fill-opacity=".5" d="M232 122l42 10 16-31-58 21z"/><path fill="#055b5f" fill-opacity=".5" d="M356 150l95-119 7 75-102 44z"/><path fill="#066754" fill-opacity=".5" d="M230 213l15 24-93-2 78-22z"/><path fill="#030500" fill-opacity=".5" d="M277 166l-117-10 56-34 61 44z"/><path fill="#020300" fill-opacity=".5" d="M332 206L94 170l147 48 91-12z"/><path fill="#006c6a" fill-opacity=".5" d="M375 144l-113 14 159-73-46 59z"/><path fill="#033e35" fill-opacity=".5" d="M438 242l-29-29-114 39 143-10z"/><path fill="#01828e" fill-opacity=".5" d="M229 209l45-29 21 15-66 14z"/><path fill="#01b69a" fill-opacity=".5" d="M324 60l57 49-43 15-14-64z"/><path fill="#060200" fill-opacity=".5" d="M200 211l46-11 45-51-91 62z"/><path fill="#022d37" fill-opacity=".5" d="M506 78V0l-48 34 48 44z"/><path fill="#070900" fill-opacity=".5" d="M506 152l-271 59 271 17v-76z"/><path fill="#06bbb5" fill-opacity=".5" d="M276 85L115 72l72-45 89 58z"/><path fill="#091100" fill-opacity=".5" d="M336 165l55 65L506 87l-170 78z"/><path fill="#068681" fill-opacity=".5" d="M333 85l94-13-44-55-50 68z"/><path fill="#069094" fill-opacity=".5" d="M87 5l110-5 234 60L87 5z"/><path fill="#00060a" fill-opacity=".5" d="M304 164l83-9-99-5 16 14z"/><path fill="#05af9c" fill-opacity=".5" d="M154 22l-44 89-47-31 91-58z"/><path fill="#049b88" fill-opacity=".5" d="M114 85l104 43 11-40-115-3z"/><path fill="#03423f" fill-opacity=".5" d="M27 242l12-44 124-1-136 45z"/><path fill="#055ae5" fill-opacity=".5" d="M264 159l7 4 13-26-20 22z"/><path fill="#06655a" fill-opacity=".5" d="M161 228l-22-35 43 5-21 30z"/><path fill="#1e3f25" fill-opacity=".5" d="M304 189l-36-21 135 18-99 3z"/><path fill="#012728" fill-opacity=".5" d="M484 237l-55-23-1 38 56-15z"/><path fill="#010100" fill-opacity=".5" d="M0 134v72l183-60L0 134z"/><path fill="#040b36" fill-opacity=".5" d="M277 153l-11 15 28-18-17 3z"/><path fill="#044d55" fill-opacity=".5" d="M484 83l-35-51-47 105 82-54z"/><path fill="#033034" fill-opacity=".5" d="M467 100l39-86-27-14-12 100z"/><path fill="#056561" fill-opacity=".5" d="M108 16L31 83 55 0l53 16z"/><path fill="#2e5644" fill-opacity=".5" d="M338 149l3 33 5-13-8-20z"/><path fill="#045255" fill-opacity=".5" d="M403 25l88-25H330l73 25z"/><path fill="#8eaba4" fill-opacity=".5" d="M321 167l-37-6 25 7 12-1z"/><path fill="#172b07" fill-opacity=".5" d="M315 191l156-5-68-29-88 34z"/><path fill="#000500" fill-opacity=".5" d="M506 74l-129 79 129 14V74z"/><path fill="#010000" fill-opacity=".5" d="M140 163l13 30-140 6 127-36z"/><path fill="#067d87" fill-opacity=".5" d="M286 15l150 35-200 3 50-38z"/><path fill="#066f69" fill-opacity=".5" d="M333 227l-54-15 27 25 27-10z"/><path fill="#03303f" fill-opacity=".5" d="M0 131l53 6L0 79v52z"/><path fill="#ffe3dc" fill-opacity=".5" d="M297 156l-15-1 5 9 10-8z"/><path fill="#5bdbc4" fill-opacity=".5" d="M303 113l36 1-34 15-2-16z"/><path fill="#12c2aa" fill-opacity=".5" d="M233 133l63-41-81 13 18 28z"/><path fill="#056b5c" fill-opacity=".5" d="M29 106l12-76 23 90-35-14z"/><path fill="#fdeede" fill-opacity=".5" d="M298 159l-10-4-3 6 13-2z"/><path fill="#12bc97" fill-opacity=".5" d="M250 139l-64-30 127 27-63 3z"/><path fill="#00a089" fill-opacity=".5" d="M342 111l3-5-29 6 26-1z"/><path fill="#0e290e" fill-opacity=".5" d="M278 162l-180 4 185 18-5-22z"/><path fill="#08bab7" fill-opacity=".5" d="M280 92l7 49 33-52-40 3z"/><path fill="#03605d" fill-opacity=".5" d="M167 111l-69 20-73-24 142 4z"/><path fill="#064e54" fill-opacity=".5" d="M14 95l19 24 16-21-35-3z"/><path fill="#0c7e62" fill-opacity=".5" d="M327 185l-28 3-12 13 40-16z"/><path fill="#077dc9" fill-opacity=".5" d="M277 186l-1 15-11-19 12 4z"/><path fill="#04120e" fill-opacity=".5" d="M254 168l-55-36 27-8 28 44z"/><path fill="#02130b" fill-opacity=".5" d="M320 221l-56-17 17-9 39 26z"/><path fill="#058681" fill-opacity=".5" d="M171 79l-51 33 83-34-32 1z"/><path fill="#054b39" fill-opacity=".5" d="M347 252l-23-35 50 15-27 20z"/><path fill="#056e59" fill-opacity=".5" d="M185 200l51 35-82-43 31 8z"/><path fill="#03231f" fill-opacity=".5" d="M2 233l310 19H0l2-19z"/><path fill="#448d98" fill-opacity=".5" d="M262 170l59-4-36 4h-23z"/><path fill="#023833" fill-opacity=".5" d="M23 1L2 0 0 123 23 1z"/><path fill="#026665" fill-opacity=".5" d="M310 129l-24 23 128-34-104 11z"/><path fill="#061105" fill-opacity=".5" d="M323 171l7-11 43 77-50-66z"/><path fill="#058f77" fill-opacity=".5" d="M346 128L446 22l-59 87-41 19z"/><path fill="#010600" fill-opacity=".5" d="M155 184l55 28 63-33-118 5z"/><path fill="#0693c1" fill-opacity=".5" d="M272 185l8 12-20-11 12-1z"/><path fill="#06756b" fill-opacity=".5" d="M469 31L367 77l60-71 42 25z"/><path fill="#06775e" fill-opacity=".5" d="M208 227h14l13-22-27 22z"/><path fill="#06857d" fill-opacity=".5" d="M65 90l-9-50 92-40-83 90z"/><path fill="#05ada7" fill-opacity=".5" d="M126 29l14 50 28-49-42-1z"/><path fill="#040f11" fill-opacity=".5" d="M274 187l10-5-44-47 34 52z"/><path fill="#1b281e" fill-opacity=".5" d="M297 155l-3 25 22 7-19-32z"/><path fill="#07b395" fill-opacity=".5" d="M353 116l-12-31 66-7-54 38z"/><path fill="#03403d" fill-opacity=".5" d="M368 252l-84-22-133 7 217 15z"/><path fill="#054b53" fill-opacity=".5" d="M404 16l29-16h-26l-3 16z"/><path fill="#045a60" fill-opacity=".5" d="M162 144l-37-3 5-42 32 45z"/><path fill="#079497" fill-opacity=".5" d="M316 93l81-63-27 43-54 20z"/><path fill="#00555d" fill-opacity=".5" d="M247 149l39-6-23-5-16 11z"/><path fill="#043d44" fill-opacity=".5" d="M486 1l-54 87 74-8-20-79z"/><path fill="#030300" fill-opacity=".5" d="M107 138H61l108 18-62-18z"/><path fill="#04392f" fill-opacity=".5" d="M113 252l10-50-107 31 97 19z"/><path fill="#069a9a" fill-opacity=".5" d="M252 22l32 81-116-89 84 8z"/><path fill-opacity=".5" d="M506 185l-83 13 83 50v-63z"/><path fill="#076c57" fill-opacity=".5" d="M261 181l-3 25 13-9-10-16z"/><path fill="#001e3a" fill-opacity=".5" d="M280 154l26-5-35 11 9-6z"/><path fill="#027e6a" fill-opacity=".5" d="M266 150l-17-6 20-12-3 18z"/><path fill="#03c3b3" fill-opacity=".5" d="M273 131l25-12 18 10-43 2z"/><path fill="#3ccdc0" fill-opacity=".5" d="M312 103l10 13-60 11 50-24z"/><path fill="#021819" fill-opacity=".5" d="M36 252H0v-53l36 53z"/><path fill="#05606b" fill-opacity=".5" d="M286 17L258 0h112l-84 17z"/><path fill="#015259" fill-opacity=".5" d="M266 181l29 11 2 9-31-20z"/><path fill-opacity=".5" d="M328 170l-34 6-7-5 41-1z"/><path fill="#056163" fill-opacity=".5" d="M417 128l35-27-48-23 13 50z"/><path fill="#040000" fill-opacity=".5" d="M172 214l-2-4 13 7-11-3z"/><path fill="#35ceaa" fill-opacity=".5" d="M192 122l30 4 76-7-106 3z"/><path fill="#06ac94" fill-opacity=".5" d="M283 151l32-2-59-3 27 5z"/><path fill="#00b6b0" fill-opacity=".5" d="M272 104l69-2 11-21-80 23z"/><path fill="#537985" fill-opacity=".5" d="M286 177l33-1-33 5v-4z"/><path fill="#032a22" fill-opacity=".5" d="M64 238l-60-8 44 22 16-14z"/><path fill="#088775" fill-opacity=".5" d="M326 152l-29-4 97-15-68 19z"/><path fill="#06a198" fill-opacity=".5" d="M132 45l14-23-62 30 48-7z"/><path fill="#57d0ba" fill-opacity=".5" d="M293 113l-53 15 2-19 51 4z"/><path fill="#007e95" fill-opacity=".5" d="M284 151l-26 1 46-24-20 23z"/><path fill="#02352f" fill-opacity=".5" d="M7 35l-7-6L1 0l6 35z"/><path fill="#013d58" fill-opacity=".5" d="M277 141l63-4-47 9-16-5z"/><path fill="#05947c" fill-opacity=".5" d="M210 126l-52-23 21 38 31-15z"/><path fill="#054b4c" fill-opacity=".5" d="M71 200l89-5-79 15-10-10z"/><path fill="#033834" fill-opacity=".5" d="M363 252h-48l42-9 6 9z"/><path fill="#284d3a" fill-opacity=".5" d="M299 161l-20 3 31 1-11-4z"/><path fill="#051211" fill-opacity=".5" d="M281 184l-64-53 28 7 36 46z"/><path fill="#010f16" fill-opacity=".5" d="M327 165l50-18-54 5 4 13z"/><path fill="#09c3bc" fill-opacity=".5" d="M171 53l73 11-85 12 12-23z"/><path fill="#04b69a" fill-opacity=".5" d="M239 97l-2 29-85-6 87-23z"/><path fill="#042f2b" fill-opacity=".5" d="M433 228l-29-18-28 42 57-24z"/><path fill="#04b292" fill-opacity=".5" d="M71 90l27 9 63-6-90-3z"/><path fill="#033b3b" fill-opacity=".5" d="M416 224l-17-9 10-4 7 13z"/><path fill="#16300a" fill-opacity=".5" d="M218 177l12-15 49 11-61 4z"/><path fill="#02090d" fill-opacity=".5" d="M255 148l-42-21 8-1 34 22z"/><path fill="#638c9b" fill-opacity=".5" d="M325 168l2-1-28-1 26 2z"/><path fill="#00040a" fill-opacity=".5" d="M444 243l-9 9h71l-62-9z"/><path fill="#000005" fill-opacity=".5" d="M299 184l16-6 20 5-36 1z"/><path fill="#56d0ae" fill-opacity=".5" d="M241 129l24-4-20-8-4 12z"/><path fill="#066a65" fill-opacity=".5" d="M308 217l-15 21 1-23 14 2z"/><path fill="#0d4334" fill-opacity=".5" d="M293 169l8 28-6-28h-2z"/><path fill="#058c87" fill-opacity=".5" d="M178 84l28 24 22-12-50-12z"/><path fill="#054d44" fill-opacity=".5" d="M109 227l71-6-44-27-27 33z"/><path fill="#05605d" fill-opacity=".5" d="M95 5L53 0l-4 28L95 5z"/><path fill="#067571" fill-opacity=".5" d="M362 117l13 26-61 8 48-34z"/><path fill="#048871" fill-opacity=".5" d="M44 99l122-2-110 16-12-14z"/><path fill="#046363" fill-opacity=".5" d="M173 143l-36-24 62 8-26 16z"/><path fill="#055952" fill-opacity=".5" d="M363 239l-94-4 57-8 37 12z"/><path fill="#06807c" fill-opacity=".5" d="M106 29L98 0h130L106 29z"/><path fill="#051308" fill-opacity=".5" d="M202 137l-47 58-11-47 58-11z"/><path fill="#056e78" fill-opacity=".5" d="M392 10L151 0l259 37-18-27z"/><path fill="#083426" fill-opacity=".5" d="M506 151l-16 2 10 5 6-7z"/><path fill="#077567" fill-opacity=".5" d="M321 184l-90 22 99-22h-9z"/><path fill="#1d2f0d" fill-opacity=".5" d="M369 165l41 8-35 16-6-24z"/><path fill="#020a05" fill-opacity=".5" d="M368 145l24 22 34-36-58 14z"/><path fill="#06b488" fill-opacity=".5" d="M256 130l-34-7 20 14 14-7z"/><path fill="#071903" fill-opacity=".5" d="M395 160l80-28 25 71-105-43z"/><path fill="#011416" fill-opacity=".5" d="M301 168l9-19-15 4 6 15z"/><path fill="#000403" fill-opacity=".5" d="M401 230l-99-17 100-21-1 38z"/><path fill="#065966" fill-opacity=".5" d="M352 0l11 26 30-26h-41z"/><path fill="#1162f8" fill-opacity=".5" d="M267 163l-1-3 12-11-11 14z"/><path fill="#000807" fill-opacity=".5" d="M288 167l-9-6-30 2 39 4z"/><path fill="#03484a" fill-opacity=".5" d="M57 137l12-24-60 19 48 5z"/><path fill="#052f21" fill-opacity=".5" d="M220 210l-17 9-42 13 59-22z"/><path fill="#057983" fill-opacity=".5" d="M334 0l42 63-25 5-17-68z"/><path fill="#0b1d04" fill-opacity=".5" d="M314 227l1-35 30-5-31 40z"/><path fill="#03312e" fill-opacity=".5" d="M85 252L3 202l55-4 27 54z"/><path fill="#045355" fill-opacity=".5" d="M484 8l-78 89h27l51-89z"/><path fill="#36d1a9" fill-opacity=".5" d="M311 128l37-14v-6l-37 20z"/><path fill="#058669" fill-opacity=".5" d="M286 194l15-9 9 2-24 7z"/><path fill="#066b6a" fill-opacity=".5" d="M425 108l-23-24-19 29 42-5z"/><path fill="#057e74" fill-opacity=".5" d="M403 29l31 27-32 39 1-66z"/><path fill="#05958a" fill-opacity=".5" d="M146 104l7-27 13 33-20-6z"/><path fill="#040e04" fill-opacity=".5" d="M191 200L16 156l141-12 34 56z"/><path fill="#032929" fill-opacity=".5" d="M260 239l-108 13h167l-59-13z"/><path fill="#044e4a" fill-opacity=".5" d="M448 43l25 1 13-44-38 43z"/><path fill="#001659" fill-opacity=".5" d="M276 156l15-2-22-2 7 4z"/><path fill="#00aba2" fill-opacity=".5" d="M251 112l23-29-40 21 17 8z"/><path fill="#05423c" fill-opacity=".5" d="M157 250l-51-50 88 45-37 5z"/><path fill="#051600" fill-opacity=".5" d="M358 150h42l-56 33 14-33z"/><path fill="#244608" fill-opacity=".5" d="M362 186l-3-5-25 6 28-1z"/><path fill="#069685" fill-opacity=".5" d="M106 66L85 33l-13 69 34-36z"/><path fill="#020301" fill-opacity=".5" d="M479 86l27 55-67-23 40-32z"/><path fill="#0dc093" fill-opacity=".5" d="M191 123l19 4 6-6-25 2z"/><path fill="#05afa5" fill-opacity=".5" d="M94 55l7-14 126 50L94 55z"/><path fill="#056853" fill-opacity=".5" d="M268 230l-75-3 46-14 29 17z"/><path fill="#068989" fill-opacity=".5" d="M241 18L160 7l68 33 13-22z"/><path fill="#04b0a9" fill-opacity=".5" d="M236 90l32-25-74 22 42 3z"/><path fill-opacity=".5" d="M484 196l22 39-35 8 13-47z"/><path fill="#068a8c" fill-opacity=".5" d="M303 88l41-53-51 19 10 34z"/><path fill="#18421e" fill-opacity=".5" d="M219 171l-9-4-4 4h13z"/><path fill="#067661" fill-opacity=".5" d="M273 214l51 14-110-8 59-6z"/><path fill="#05675b" fill-opacity=".5" d="M446 0l-25 92 56-89-31-3z"/><path fill="#000b0b" fill-opacity=".5" d="M240 174l49 2-13 9-36-11z"/><path fill="#05938c" fill-opacity=".5" d="M118 43l-28-9 60-24-32 33z"/><path fill="#056f6a" fill-opacity=".5" d="M94 0L41 43l20 26L94 0z"/><path fill="#0e1803" fill-opacity=".5" d="M303 178l37 30-20-8-17-22z"/><path fill="#06150d" fill-opacity=".5" d="M312 197l-34 6 32 18 2-24z"/><path fill="#38cbac" fill-opacity=".5" d="M226 125l-7-3 16-8-9 11z"/><path fill="#077e8b" fill-opacity=".5" d="M275 13l-31-3 21 51 10-48z"/><path fill="#0abfad" fill-opacity=".5" d="M285 116l-1 12 9-22-8 10z"/><path fill="#0f0d00" fill-opacity=".5" d="M328 204l-29-3 9-8 20 11z"/><path fill="#089390" fill-opacity=".5" d="M393 37l-9-12-32 72 41-60z"/><path fill="#00827f" fill-opacity=".5" d="M263 134l67 1-15-4-52 3z"/><path fill="#068b89" fill-opacity=".5" d="M162 0l-22 21 50 11-28-32z"/><path fill="#05464c" fill-opacity=".5" d="M40 136l37-1L0 81l40 55z"/><path fill="#05484d" fill-opacity=".5" d="M506 66v11l-46 18 46-29z"/><path fill="#044042" fill-opacity=".5" d="M48 199l64 1-96 2 32-3z"/><path fill="#05aba4" fill-opacity=".5" d="M138 30l86 14-108 26 22-40z"/><path fill="#316245" fill-opacity=".5" d="M345 170l-5-8-10-5 15 13z"/><path fill="#597988" fill-opacity=".5" d="M320 177l6-3-32 2 26 1z"/><path fill="#048173" fill-opacity=".5" d="M102 120h60l20-13-80 13z"/><path fill="#056e67" fill-opacity=".5" d="M436 2l-41 30 65-10-24-20z"/><path fill="#086d4c" fill-opacity=".5" d="M259 203l-32 7 30-16 2 9z"/><path fill="#06a386" fill-opacity=".5" d="M392 64l5 14-17 2 12-16z"/><path fill="#058f82" fill-opacity=".5" d="M100 80l46 3-18 12-28-15z"/><path fill="#010300" fill-opacity=".5" d="M176 178l-81 21-57-11 138-10z"/><path fill="#06615c" fill-opacity=".5" d="M184 199l-30-5h-20l50 5z"/><path fill="#05baab" fill-opacity=".5" d="M172 103l22-2-39-10 17 12z"/><path fill="#04342f" fill-opacity=".5" d="M455 241l-10-19h-16l26 19z"/><path fill="#05aca0" fill-opacity=".5" d="M239 82l-42 7-14 12 56-19z"/><path fill="#058076" fill-opacity=".5" d="M100 99l24 13 34-13h-58z"/><path fill="#04100b" fill-opacity=".5" d="M173 232l-2-12 12 2-10 10z"/><path fill="#000301" fill-opacity=".5" d="M382 185l48 39 17-14-65-25z"/><path fill="#053629" fill-opacity=".5" d="M405 224l-48 25 24-25h24z"/><path fill="#05423a" fill-opacity=".5" d="M194 218v22l-34 8 34-30z"/><path fill="#06a487" fill-opacity=".5" d="M72 95l14 3 20-34-34 31z"/><path fill="#122d15" fill-opacity=".5" d="M182 171l-51-10 11 5 40 5z"/><path fill="#0b241a" fill-opacity=".5" d="M293 166l20 18-17-7-3-11z"/><path fill="#056b70" fill-opacity=".5" d="M326 39l18-39-37 3 19 36z"/><path fill="#030805" fill-opacity=".5" d="M385 233l19-31-19 34v-3z"/><path fill="#06837e" fill-opacity=".5" d="M386 77l-23 3 32-44-9 41z"/><path fill="#03140a" fill-opacity=".5" d="M246 170l-29-45-65 30 94 15z"/><path fill="#066672" fill-opacity=".5" d="M443 113l-7 2 14-10-7 8z"/><path fill="#032c2f" fill-opacity=".5" d="M488 11l18-11-21 96 3-85z"/><path fill="#056151" fill-opacity=".5" d="M248 206l2-13 14-7-16 20z"/><path fill="#073221" fill-opacity=".5" d="M342 221l-17-6 18 21-1-15z"/><path fill="#0d7c59" fill-opacity=".5" d="M305 187h14l-29 6 15-6z"/><path fill="#04372d" fill-opacity=".5" d="M387 222l3 30h30l-33-30z"/><path fill="#6cc8be" fill-opacity=".5" d="M367 98v-3l-2 4 2-1z"/><path fill="#06624f" fill-opacity=".5" d="M332 232l-8-17-14 14 22 3z"/><path fill="#053840" fill-opacity=".5" d="M27 134L0 85v48l27 1z"/><path fill="#020202" fill-opacity=".5" d="M506 138l-46-41 46-19v60z"/><path fill="#066c5f" fill-opacity=".5" d="M322 234l-2-16-4 16h6z"/><path fill="#32c9b7" fill-opacity=".5" d="M293 103l-57 10 10 7 47-17z"/><path fill="#062618" fill-opacity=".5" d="M56 186l41-13-37 5-4 8z"/><path fill="#05a3b9" fill-opacity=".5" d="M266 152l13-1 6-7-19 8z"/><path fill="#0d1b09" fill-opacity=".5" d="M423 142l-33 52 58-6-25-46z"/><path fill="#06837d" fill-opacity=".5" d="M96 63L76 32v40l20-9z"/><path fill="#030e05" fill-opacity=".5" d="M283 214h-50l33-10 17 10z"/><path fill="#046d65" fill-opacity=".5" d="M127 107l33 4-64 9 31-13z"/><path fill="#043537" fill-opacity=".5" d="M123 216l42-8H62l61 8z"/><path fill="#061e0f" fill-opacity=".5" d="M159 176l42 1-14-25-28 24z"/><path fill="#031f1f" fill-opacity=".5" d="M488 241l-65 11-3-23 68 12z"/><path fill="#05675b" fill-opacity=".5" d="M44 33l6 84-36-29 30-55z"/><path fill="#066b54" fill-opacity=".5" d="M164 223l-34-7 46 1-12 6z"/><path fill="#06717e" fill-opacity=".5" d="M278 12l-15 16h42l-27-16z"/><path fill="#04a39f" fill-opacity=".5" d="M190 25l89 80 29-8-118-72z"/><path fill="#043e36" fill-opacity=".5" d="M65 239l4-38 76 27-80 11z"/><path fill="#049171" fill-opacity=".5" d="M329 143l-44 1 40 7 4-8z"/><path fill="#507961" fill-opacity=".5" d="M296 159l10 9-18-2 8-7z"/><path fill="#050d06" fill-opacity=".5" d="M164 215h-9l8 3 1-3z"/><path fill="#3ccdc1" fill-opacity=".5" d="M310 115l33-12-54 10 21 2z"/><path fill="#056955" fill-opacity=".5" d="M208 218l-40-7 13-10 27 17z"/><path fill="#069e9e" fill-opacity=".5" d="M339 36l-26 52 36-3-10-49z"/><path fill="#01a797" fill-opacity=".5" d="M306 138l14-7-67 7h53z"/><path fill="#065246" fill-opacity=".5" d="M201 228l-8 9-7-26 15 17z"/><path fill="#030801" fill-opacity=".5" d="M271 209l2-12 19 3-21 9z"/><path fill="#045b6e" fill-opacity=".5" d="M306 143l-56-4v8l56-4z"/><path fill="#00141b" fill-opacity=".5" d="M350 150l-17 15-35-9 52-6z"/><path fill="#076355" fill-opacity=".5" d="M315 220l-33-7 16 5 17 2z"/><path fill="#057874" fill-opacity=".5" d="M140 0H94L69 37l71-37z"/><path fill="#055a4b" fill-opacity=".5" d="M251 232l-46-20 19 25 27-5z"/><path fill="#05b6ac" fill-opacity=".5" d="M167 87V34l-27 33 27 20z"/><path fill="#054839" fill-opacity=".5" d="M361 222l1 18-18 12 17-30z"/><path fill="#06b9b2" fill-opacity=".5" d="M231 80l-26-24 35 1-9 23z"/><path fill="#00a691" fill-opacity=".5" d="M336 112l-3-4-13 3 16 1z"/><path fill="#069196" fill-opacity=".5" d="M273 38l-4 61 44-43-40-18z"/><path fill="#079a9b" fill-opacity=".5" d="M214 42l61 33-33-48-28 15z"/><path fill="#067a5b" fill-opacity=".5" d="M258 217l-4-2-12 8 16-6z"/><path fill="#030805" fill-opacity=".5" d="M439 114l-18 38 10-34 8-4z"/><path fill="#05c0b6" fill-opacity=".5" d="M312 101l4 10 30-25-34 15z"/><path fill="#255311" fill-opacity=".5" d="M228 165l9 3-7 3-2-6z"/><path fill="#27c3a1" fill-opacity=".5" d="M250 129l13 3 19-7-32 4z"/><path fill="#048b73" fill-opacity=".5" d="M188 119l-23 5 38 3-15-8z"/><path fill="#034d48" fill-opacity=".5" d="M45 0H17L2 95 45 0z"/><path fill="#046067" fill-opacity=".5" d="M90 136h24l35 7-59-7z"/><path fill="#06a19d" fill-opacity=".5" d="M219 41l-39-18-19 18h58z"/><path fill="#068480" fill-opacity=".5" d="M84 46l47-46-54 41 7 5z"/><path fill="#030904" fill-opacity=".5" d="M171 216l12-1 10 2-22-1z"/><path fill="#29697e" fill-opacity=".5" d="M276 173l11 3 13-1-24-2z"/><path fill="#043c38" fill-opacity=".5" d="M303 237l-66-1 56 16 10-15z"/><path fill="#042531" fill-opacity=".5" d="M358 147l-34 6 33 4 1-10z"/><path fill="#04c1a5" fill-opacity=".5" d="M355 116l-23-19 27 7-4 12z"/><path fill="#058e7e" fill-opacity=".5" d="M376 97l-4 16 38-36-34 20z"/><path fill="#060d04" fill-opacity=".5" d="M341 170l35-11-18 23-17-12z"/><path fill="#057169" fill-opacity=".5" d="M446 9l-18 71-17 3 35-74z"/><path fill="#020a00" fill-opacity=".5" d="M0 134l119 40-119 1v-41z"/><path fill="#020c01" fill-opacity=".5" d="M74 186v-11l42 9-42 2z"/><path fill="#030d01" fill-opacity=".5" d="M506 176l-26-52 15 90 11-38z"/><path fill="#055150" fill-opacity=".5" d="M136 207l3-13 50 10-53 3z"/><path fill="#05a697" fill-opacity=".5" d="M82 78l25 6 27-28-52 22z"/><path fill="#05785b" fill-opacity=".5" d="M214 219l48 2-30-6-18 4z"/><path fill="#032325" fill-opacity=".5" d="M55 210l-44 30-11-38 55 8z"/><path fill="#031410" fill-opacity=".5" d="M307 175l-31-4-1 1 32 3z"/><path fill="#046f9b" fill-opacity=".5" d="M275 148l1-9h14l-15 9z"/><path fill="#059179" fill-opacity=".5" d="M94 100l30 8-74-1 44-7z"/><path fill="#058b77" fill-opacity=".5" d="M167 130l29 2h-32l3-2z"/><path fill="#066154" fill-opacity=".5" d="M442 34l11-34 18 24-29 10z"/><path fill="#06a189" fill-opacity=".5" d="M109 68l-34 8 5 10 29-18z"/><path fill="#051811" fill-opacity=".5" d="M230 130l-40 8 25-13 15 5z"/><path fill-opacity=".5" d="M45 197L2 176l-2 25 45-4z"/><path fill="#034b50" fill-opacity=".5" d="M87 138l1-20 82 9-83 11z"/><path fill="#051f19" fill-opacity=".5" d="M149 222l3 3 39-4-42 1z"/><path fill="#043c42" fill-opacity=".5" d="M459 64l47 11-10 8-37-19z"/><path fill="#035458" fill-opacity=".5" d="M76 128l66 15 47-8-113-7z"/><path fill="#045e5a" fill-opacity=".5" d="M102 115l-45 1 72 7-27-8z"/><path fill="#04bbb4" fill-opacity=".5" d="M283 133l18-4 3-17-21 21z"/><path fill="#05574a" fill-opacity=".5" d="M144 226l11-13-24 2 13 11z"/><path fill="#1d412b" fill-opacity=".5" d="M343 168l2 11-17 13 15-24z"/><path fill="#063f4a" fill-opacity=".5" d="M13 100l-11 9 63 28-52-37z"/><path fill="#056c69" fill-opacity=".5" d="M281 214l26 4 1 16-27-20z"/><path fill="#041007" fill-opacity=".5" d="M479 105l-68 68 40-66 28-2z"/><path fill="#005c59" fill-opacity=".5" d="M247 137l33-4h-19l-14 4z"/><path fill="#054a78" fill-opacity=".5" d="M259 196l34-4-2 6-32-2z"/><path fill="#066b75" fill-opacity=".5" d="M342 12l6-12 23 46-29-34z"/><path fill="#032010" fill-opacity=".5" d="M93 160l-15-8 22 4-7 4z"/><path fill="#086162" fill-opacity=".5" d="M28 111l38 4-34-11-4 7z"/><path fill="#063140" fill-opacity=".5" d="M287 193l13 4 8-4h-21z"/><path fill="#0c2714" fill-opacity=".5" d="M191 169h-40l32-7 8 7z"/><path fill="#059a83" fill-opacity=".5" d="M177 114l-28 3 12 6 16-9z"/><path fill="#069583" fill-opacity=".5" d="M407 62l-3 20-15-19 18-1z"/><path fill="#030c0f" fill-opacity=".5" d="M266 164l-3-10-27-15 30 25z"/><path fill="#04514f" fill-opacity=".5" d="M25 132l18 2-39-1 21-1z"/><path fill="#06bdb1" fill-opacity=".5" d="M217 81h-18l8 7 10-7z"/><path fill="#059175" fill-opacity=".5" d="M68 85l1 8 37-6-38-2z"/><path fill="#153524" fill-opacity=".5" d="M256 167l27 11-17-13-10 2z"/><path fill="#055344" fill-opacity=".5" d="M346 244l-14-13 29 3-15 10z"/><path fill="#19460f" fill-opacity=".5" d="M233 170l11-7-26 10 15-3z"/><path fill="#071a11" fill-opacity=".5" d="M324 168l3 14 14-30-17 16z"/><path fill="#2196b2" fill-opacity=".5" d="M393 34l-10 3 6 4 4-7z"/><path fill="#058b84" fill-opacity=".5" d="M186 106l36-17 14 7-50 10z"/><path fill="#040d04" fill-opacity=".5" d="M374 235h-2l3-20-1 20z"/><path fill="#059692" fill-opacity=".5" d="M183 95l25-20-24 1-1 19z"/><path fill="#069292" fill-opacity=".5" d="M354 68l-15-33-23 27 38 6z"/><path fill="#5ccebe" fill-opacity=".5" d="M272 105l-9 7 10 15-1-22z"/><path fill="#068982" fill-opacity=".5" d="M162 89l-6-2-1 15 7-13z"/></svg>