<svg xmlns="http://www.w3.org/2000/svg" baseProfile="tiny" version="1.2" viewBox="0 0 576 432"><defs/>[<path fill="#E7E9DD" d="M0 0h575v431H0z"/>,<path fill="#4E5500" fill-opacity=".5" d="M91 249l-7-47-29 49z"/>,<path fill="#5C7613" fill-opacity=".5" d="M251 169l91 17-78 84z"/>,<path fill="#95A537" fill-opacity=".5" d="M575 202l-452-36-26 105z"/>,<path fill="#909000" fill-opacity=".5" d="M113 279l-9-72 60-7z"/>,<path fill="#FBF8FF" fill-opacity=".5" d="M72 0L0 204l193-17z"/>,<path fill="#FFFDFF" fill-opacity=".5" d="M290 115l-9 173 24-1z"/>,<path fill="#BBCD35" fill-opacity=".5" d="M517 129l-96 39 60 122z"/>,<path fill="#FFF" fill-opacity=".5" d="M440 0l135 431V0z"/>,<path fill="#FFF" fill-opacity=".5" d="M250 212l-19-17 55-80z"/>,<path fill="#FFFBFF" fill-opacity=".5" d="M257 319l-2-170-26 117z"/>,<path fill="#175200" fill-opacity=".5" d="M276 141l-22 68 12 61z"/>,<path fill="#246000" fill-opacity=".5" d="M349 172l51 114 3-115z"/>,<path fill="#87AE28" fill-opacity=".5" d="M392 157l32 32-66-5z"/>,<path fill="#FCFAFF" fill-opacity=".5" d="M0 0l348 208L478 0z"/>,<path fill="#CBB66E" fill-opacity=".5" d="M328 305l-41-153 57 23z"/>,<path fill="#C7D560" fill-opacity=".5" d="M495 258l19-114-66 9z"/>,<path fill="#849A14" fill-opacity=".5" d="M242 205l-64-20 4 91z"/>,<path fill="#FBFAFF" fill-opacity=".5" d="M489 0L334 180l241-65z"/>,<path fill="#F7F5FE" fill-opacity=".5" d="M96 240l55-105-66 78z"/>,<path fill="#A46A03" fill-opacity=".5" d="M82 215l4-10-4-27z"/>,<path fill="#92A91A" fill-opacity=".5" d="M233 253l-16 12-10-37z"/>,<path fill="#3C6D00" fill-opacity=".5" d="M355 222l24-57 34 109z"/>,<path fill="#F6F5FE" fill-opacity=".5" d="M575 249L0 309l547 122z"/>,<path fill="#EEEEF0" fill-opacity=".5" d="M203 248l-50 67 119-22z"/>,<path fill="#67A53D" fill-opacity=".5" d="M255 248l33-36-15 69z"/>,<path fill="#FFFCFF" fill-opacity=".5" d="M168 213l-65 86 84-16z"/>,<path fill="#A8B500" fill-opacity=".5" d="M473 184l-28-22 35-22z"/>,<path fill="#AAD978" fill-opacity=".5" d="M383 156l27 123 16-83z"/>,<path fill="#FDFBFF" fill-opacity=".5" d="M239 71l-94 113 19 32z"/>,<path fill="#4E820E" fill-opacity=".5" d="M266 186l13-4-8-35z"/>,<path fill="#94A834" fill-opacity=".5" d="M210 170l-25 6 8 39z"/>,<path fill="#B49946" fill-opacity=".5" d="M291 197l27 74 25-29z"/>,<path fill="#A3B924" fill-opacity=".5" d="M505 228l-26 42-42-49z"/>,<path fill="#676F13" fill-opacity=".5" d="M95 232l-29-7 3 31z"/>,<path fill="#F3F1FA" fill-opacity=".5" d="M136 292L7 309l81-69z"/>,<path fill="#FCFCFF" fill-opacity=".5" d="M502 264l8-78 65 15z"/>,<path fill="#EEEDF4" fill-opacity=".5" d="M83 303l80-73 29 57z"/>,<path fill="#FAFAFF" fill-opacity=".5" d="M557 174l-99-57 117 3z"/>,<path fill="#9BA200" fill-opacity=".5" d="M106 271l25-92 25 52z"/>,<path fill="#BDD23B" fill-opacity=".5" d="M345 229l-28 21 12 22z"/>,<path fill="#B0C162" fill-opacity=".5" d="M447 238l15 26 18-71z"/>,<path fill="#7F9311" fill-opacity=".5" d="M195 261l5-53-25 38z"/>,<path fill="#F9F6FE" fill-opacity=".5" d="M458 133l-86-38 58 109z"/>,<path fill="#395D00" fill-opacity=".5" d="M364 178l27-14-32 50z"/>,<path fill="#FDF7FE" fill-opacity=".5" d="M322 195l47 88-15-93z"/>,<path fill="#D8E4A2" fill-opacity=".5" d="M436 214l72 5-14-66z"/>,<path fill="#FBF9FF" fill-opacity=".5" d="M258 206l-2-17-45 2z"/>,<path fill="#BC9C63" fill-opacity=".5" d="M291 190l33-47-8 120z"/>,<path fill="#A89911" fill-opacity=".5" d="M106 262l5-54 30 46z"/>,<path fill="#ABB10B" fill-opacity=".5" d="M157 214l-12 32-23 18z"/>,<path fill="#F7F7FE" fill-opacity=".5" d="M459 147l-33 38-27-21z"/>,<path fill="#FFFBFF" fill-opacity=".5" d="M153 238l9-37 16 6z"/>,<path fill="#EEEEF0" fill-opacity=".5" d="M289 210l131 221H249z"/>,<path fill="#539546" fill-opacity=".5" d="M281 182l-17 68 24-23z"/>,<path fill="#D7CEBF" fill-opacity=".5" d="M252 246l3 48 15-30z"/>,<path fill="#EEEEEF" fill-opacity=".5" d="M322 309l25-85 98 77z"/>,<path fill="#F7F6FF" fill-opacity=".5" d="M261 161l-32 96 22-7z"/>,<path fill="#8AA22D" fill-opacity=".5" d="M177 188l67-3-76 20z"/>,<path fill="#FAFAFF" fill-opacity=".5" d="M290 208l-15-46 37-40z"/>,<path fill="#F1F1F4" fill-opacity=".5" d="M123 60L3 421 0 0z"/>,<path fill="#F6F5FA" fill-opacity=".5" d="M199 111l-62-27 23 140z"/>,<path fill="#9EB400" fill-opacity=".5" d="M155 200l-19-13 17 44z"/>,<path fill="#FBF4FD" fill-opacity=".5" d="M188 204l-32 11 55-13z"/>,<path fill="#FFF" fill-opacity=".5" d="M187 223l-9-3-26 16z"/>,<path fill="#BABB48" fill-opacity=".5" d="M446 165l-14 24 14 36z"/>,<path fill="#B38266" fill-opacity=".5" d="M308 248l-5-81-8 21z"/>,<path fill="#D1CB85" fill-opacity=".5" d="M309 258l39-24-6-50z"/>,<path fill="#F4F6F9" fill-opacity=".5" d="M415 218l35 110-3-93z"/>,<path fill="#BEDA8C" fill-opacity=".5" d="M386 156l14 80 14-61z"/>,<path fill="#F6F4F6" fill-opacity=".5" d="M359 190l21-43-57 43z"/>,<path fill="#73AA35" fill-opacity=".5" d="M430 220l-11 2-26-43z"/>,<path fill="#869A23" fill-opacity=".5" d="M201 241l-31-7 20-14z"/>,<path fill="#D1DC4E" fill-opacity=".5" d="M503 201l4 18-20 39z"/>,<path fill="#F1F1F0" fill-opacity=".5" d="M329 136l-159 41L42 0z"/>,<path fill="#C3D027" fill-opacity=".5" d="M321 210l-2-34 4-40z"/>,<path fill="#FBF8FF" fill-opacity=".5" d="M346 223l10 2 6-57z"/>,<path fill="#D1CEB5" fill-opacity=".5" d="M376 233l-20 1 30 24z"/>,<path fill="#B4C069" fill-opacity=".5" d="M207 184l-23 37 58-4z"/>,<path fill="#B6AC5B" fill-opacity=".5" d="M328 268l-6-72-15 52z"/>,<path fill="#F6EBED" fill-opacity=".5" d="M426 165l13 84-12-44z"/>,<path fill="#EBEBEE" fill-opacity=".5" d="M358 431L84 246 0 415z"/>,<path fill="#4B7619" fill-opacity=".5" d="M272 249l-14-5-1-42z"/>,<path fill="#EFF0F0" fill-opacity=".5" d="M429 220l-27 77 47-75z"/>,<path fill="#A89C0A" fill-opacity=".5" d="M106 242l15-47 23-13z"/>,<path fill="#FBF9FF" fill-opacity=".5" d="M161 154l-52 25 21 11z"/>,<path fill="#FEFCFF" fill-opacity=".5" d="M255 219l-12 10-23-12z"/>,<path fill="#DADFAF" fill-opacity=".5" d="M344 191l-22-9 3 35z"/>,<path fill="#F7F5FF" fill-opacity=".5" d="M278 169l12-4 10 91z"/>,<path fill="#DEE9A9" fill-opacity=".5" d="M483 280l-9-88v41z"/>,<path fill="#EBE8E3" fill-opacity=".5" d="M87 218l17 44 4-77z"/>,<path fill="#3B630C" fill-opacity=".5" d="M361 191l32 42-34-9z"/>,<path fill="#D0E98F" fill-opacity=".5" d="M273 163v55l-2-44z"/>,<path fill="#CED957" fill-opacity=".5" d="M510 150l-18-13 20 29z"/>,<path fill="#85AF4F" fill-opacity=".5" d="M432 220l-7-12-10 15z"/>,<path fill="#93A73A" fill-opacity=".5" d="M237 229l-31-11 5 41z"/>,<path fill="#EFEEF4" fill-opacity=".5" d="M254 207l2 51-19-51z"/>,<path fill="#BFAE78" fill-opacity=".5" d="M292 185l16-22 16 56z"/>,<path fill="#A6A617" fill-opacity=".5" d="M153 201l-27-10-12 15z"/>,<path fill="#C7B28A" fill-opacity=".5" d="M138 198l-29 70 26-67z"/>,<path fill="#92B633" fill-opacity=".5" d="M210 169l25 5-12 16z"/>,<path fill="#D8E7A1" fill-opacity=".5" d="M453 173l-9 56 18-23z"/>,<path fill="#F6F7F5" fill-opacity=".5" d="M535 92l9 36-37 32z"/>,<path fill="#EDEEC8" fill-opacity=".5" d="M203 221l-6 4 40 9z"/>,<path fill="#809725" fill-opacity=".5" d="M174 193l30 16-17-18z"/>,<path fill="#F0EFEF" fill-opacity=".5" d="M0 304l78-90L0 0z"/>,<path fill="#92AE1A" fill-opacity=".5" d="M153 208l-45 57 35-71z"/>,<path fill="#E0E1E2" fill-opacity=".5" d="M156 431L0 350v81z"/>,<path fill="#6F6912" fill-opacity=".5" d="M62 234l7 8 14-31z"/>,<path fill="#EEEEF1" fill-opacity=".5" d="M147 274l35 9-20-86z"/>,<path fill="#4F7B18" fill-opacity=".5" d="M360 240l26-22-13-50z"/>,<path fill="#A3B81B" fill-opacity=".5" d="M471 169l-3 79 6 15z"/>,<path fill="#8CBF5A" fill-opacity=".5" d="M277 235l-3 35-13-9z"/>,<path fill="#F0F1F1" fill-opacity=".5" d="M323 150l-27 24-60-62z"/>,<path fill="#CBD22F" fill-opacity=".5" d="M478 142l13-4v11z"/>,<path fill="#F3F3F4" fill-opacity=".5" d="M567 140l7 291H376z"/>,<path fill="#AFC242" fill-opacity=".5" d="M174 262l7-17 7 8z"/>,<path fill="#A6B44C" fill-opacity=".5" d="M443 206l-8 10 29 27z"/>,<path fill="#F1F2F1" fill-opacity=".5" d="M343 191l-17-43 120-29z"/>,<path fill="#F0EDF1" fill-opacity=".5" d="M156 195l-24-9 84-9z"/>,<path fill="#CFD6BF" fill-opacity=".5" d="M455 273l12-27 2 21z"/>,<path fill="#4B7019" fill-opacity=".5" d="M359 203l38 26-35-46z"/>,<path fill="#54802C" fill-opacity=".5" d="M257 233v-35l24 22z"/>,<path fill="#6A8500" fill-opacity=".5" d="M165 221l32-8-25 1z"/>,<path fill="#BAC951" fill-opacity=".5" d="M468 246l6-68-10-11z"/>,<path fill="#35590D" fill-opacity=".5" d="M271 173l-9 56 8 15z"/>,<path fill="#E2E2DB" fill-opacity=".5" d="M445 222v8l-36-8z"/>,<path fill="#F8F9FA" fill-opacity=".5" d="M575 129l-70 56 70 104z"/>,<path fill="#7B9F29" fill-opacity=".5" d="M414 275l-40-31 19-9z"/>,<path fill="#DADAAD" fill-opacity=".5" d="M321 148l27 53-23 25z"/>,<path fill="#EFF0EF" fill-opacity=".5" d="M383 263l-41 77 4-125z"/>,<path fill="#DBE4AE" fill-opacity=".5" d="M509 198l-31-33 12 46z"/>,<path fill="#F9F9FF" fill-opacity=".5" d="M248 209l-12 1-21-5z"/>,<path fill="#EDEDEB" fill-opacity=".5" d="M421 431l-289-57 180-118z"/>,<path fill="#9FC77F" fill-opacity=".5" d="M422 206l-11 61-20-75z"/>,<path fill="#F5F4F8" fill-opacity=".5" d="M270 154l-18 44-58-67z"/>,<path fill="#EEEEEC" fill-opacity=".5" d="M60 155L0 0h139z"/>,<path fill="#CAD489" fill-opacity=".5" d="M227 252v15l10-33z"/>,<path fill="#EFEDEA" fill-opacity=".5" d="M4 327l59-98 9 52z"/>,<path fill="#7D8D03" fill-opacity=".5" d="M185 263l6 3 5-27z"/>,<path fill="#99AE3C" fill-opacity=".5" d="M218 195l10 66-22-10z"/>,<path fill="#F6F5FF" fill-opacity=".5" d="M157 225l30-6-28 26z"/>,<path fill="#5E8804" fill-opacity=".5" d="M199 197l36 10 8-4z"/>,<path fill="#B3D139" fill-opacity=".5" d="M334 252l-3 17-8-12z"/>,<path fill="#EDEDEB" fill-opacity=".5" d="M104 408l41-132 114-20z"/>,<path fill="#EFEFED" fill-opacity=".5" d="M77 161l50 21-30 51z"/>,<path fill="#B2D08F" fill-opacity=".5" d="M405 260l12-28 3 21z"/>,<path fill="#C1C816" fill-opacity=".5" d="M451 167l37-25-8-3z"/>,<path fill="#D3DE88" fill-opacity=".5" d="M488 238l19-43-34 20z"/>,<path fill="#B9C934" fill-opacity=".5" d="M501 231l-23 5 6 27z"/>,<path fill="#7F921F" fill-opacity=".5" d="M198 204l-29 17 31-8z"/>,<path fill="#F0F2F0" fill-opacity=".5" d="M369 274l107-5 27 60z"/>,<path fill="#EDEDED" fill-opacity=".5" d="M575 431l-43-138 43 1z"/>,<path fill="#ECE6BF" fill-opacity=".5" d="M203 190l1 12 14-13z"/>,<path fill="#D5D2C5" fill-opacity=".5" d="M464 275l-18-35 20 21z"/>,<path fill="#EFF1EF" fill-opacity=".5" d="M527 300l-105-54-21 39z"/>,<path fill="#EDEEEC" fill-opacity=".5" d="M203 330l-37-98-52 41z"/>,<path fill="#F1F1F0" fill-opacity=".5" d="M140 182L163 0 90 214z"/>,<path fill="#FCFAF6" fill-opacity=".5" d="M246 248l-43-16 17 9z"/>,<path fill="#F1EFF1" fill-opacity=".5" d="M294 214l-10 18 40 54z"/>,<path fill="#EBECEA" fill-opacity=".5" d="M161 177l10 34-12 24z"/>,<path fill="#82842D" fill-opacity=".5" d="M90 241l-24-2 3 12z"/>,<path fill="#C2B3A6" fill-opacity=".5" d="M393 264l-21-30 11 26z"/>,<path fill="#CEB994" fill-opacity=".5" d="M349 229l-10-47 3 6z"/>,<path fill="#F6F5F6" fill-opacity=".5" d="M472 145L181 0h394z"/>,<path fill="#FCF6FF" fill-opacity=".5" d="M300 220l-24 44 3-13z"/>,<path fill="#F3EDEB" fill-opacity=".5" d="M205 212l-8 2 26 3z"/>,<path fill="#F3F4F2" fill-opacity=".5" d="M487 112l-64 74L265 0z"/>,<path fill="#C2CD5E" fill-opacity=".5" d="M488 193l-49-25 10-8z"/>,<path fill="#F0F0ED" fill-opacity=".5" d="M264 129l61 24-41 18z"/>,<path fill="#D9E29A" fill-opacity=".5" d="M476 161l7-19 31 44z"/>,<path fill="#7D9100" fill-opacity=".5" d="M381 176l11-20-4 34z"/>,<path fill="#899E25" fill-opacity=".5" d="M168 203l23 1 16-21z"/>,<path fill="#F2F2F2" fill-opacity=".5" d="M353 196l59-140-85 106z"/>,<path fill="#B2835D" fill-opacity=".5" d="M294 188l6 42 19 14z"/>,<path fill="#E0CDA1" fill-opacity=".5" d="M434 178l7 20-12 10z"/>,<path fill="#AC971F" fill-opacity=".5" d="M112 272l8-72-16 32z"/>,<path fill="#C8CE6B" fill-opacity=".5" d="M343 239l-16-19-6 50z"/>,<path fill="#D6D7A4" fill-opacity=".5" d="M327 176l13 55-17-29z"/>,<path fill="#F5F4FF" fill-opacity=".5" d="M210 180l49-1-12 4z"/>,<path fill="#CEDA71" fill-opacity=".5" d="M481 208l7 31 19-7z"/>,<path fill="#879820" fill-opacity=".5" d="M189 266l11-14-7-34z"/>,<path fill="#FAFAFD" fill-opacity=".5" d="M575 0v129L501 5z"/>,<path fill="#E3E4DF" fill-opacity=".5" d="M265 263l7 14-19 27z"/>,<path fill="#CBB497" fill-opacity=".5" d="M257 263v-26l6 32z"/>,<path fill="#8CA02F" fill-opacity=".5" d="M223 204l-37-17-6 9z"/>,<path fill="#ACB325" fill-opacity=".5" d="M143 247l-33 23 48-63z"/>,<path fill="#B6C30D" fill-opacity=".5" d="M474 146h3l-7 67z"/>,<path fill="#788F66" fill-opacity=".5" d="M92 239l-17-12h16z"/>,<path fill="#EAEBE9" fill-opacity=".5" d="M254 222l-28 41 36 76z"/>,<path fill="#E9EF6C" fill-opacity=".5" d="M476 157l-4 44 9-60z"/>,<path fill="#F0F0EE" fill-opacity=".5" d="M228 132l-66 66-21-56z"/>,<path fill="#E9EAE6" fill-opacity=".5" d="M65 258l22-14 51 51z"/>,<path fill="#EDEDEA" fill-opacity=".5" d="M12 382l211-76-157-53z"/>,<path fill="#C7D579" fill-opacity=".5" d="M467 211l-10-35h12z"/>,<path fill="#CAC16F" fill-opacity=".5" d="M445 224l-11-7 5-37z"/>,<path fill="#F5F6F5" fill-opacity=".5" d="M441 0l134 178-94-46z"/>,<path fill="#BB8672" fill-opacity=".5" d="M145 172l-16 45 23-52z"/>,<path fill="#D4E089" fill-opacity=".5" d="M518 167l-24-30-15 20z"/>,<path fill="#BFDB98" fill-opacity=".5" d="M389 165l26 41-6-37z"/>,<path fill="#DCE7AE" fill-opacity=".5" d="M475 184l-2 29 5-52z"/>,<path fill="#E9E5DB" fill-opacity=".5" d="M57 226l14 33-15 3z"/>,<path fill="#68A953" fill-opacity=".5" d="M286 227l-12-22-1-49z"/>,<path fill="#527B0D" fill-opacity=".5" d="M383 170l13 69-6-51z"/>,<path fill="#AEC22B" fill-opacity=".5" d="M472 264v-32l9 41z"/>,<path fill="#EDECED" fill-opacity=".5" d="M203 252l31 12-78 41z"/>,<path fill="#F1F1F0" fill-opacity=".5" d="M71 38L373 0 165 194z"/>,<path fill="#F6F6F8" fill-opacity=".5" d="M377 230l-3 33-27-18z"/>,<path fill="#EEEEED" fill-opacity=".5" d="M248 216l-19-91 40 34z"/>,<path fill="#F8F7FF" fill-opacity=".5" d="M159 161l-11 15-3 12z"/>,<path fill="#89A22B" fill-opacity=".5" d="M171 194l16-9 53 1z"/>,<path fill="#F1EFF6" fill-opacity=".5" d="M193 205l-29 1 7 7z"/>,<path fill="#DEDFDD" fill-opacity=".5" d="M0 379v52h67z"/>,<path fill="#78A549" fill-opacity=".5" d="M284 220l-29-6 6-6z"/>,<path fill="#F7F5F7" fill-opacity=".5" d="M470 79l-92 89 7-5z"/>,<path fill="#C7C484" fill-opacity=".5" d="M323 269l-15-106 9-2z"/>,<path fill="#F0F1F0" fill-opacity=".5" d="M408 430l13-208 31 27z"/>,<path fill="#EFEFEC" fill-opacity=".5" d="M349 148l45 7-46 33z"/>,<path fill="#AED18E" fill-opacity=".5" d="M415 213l-24-19 26 56z"/>,<path fill="#E1EDAB" fill-opacity=".5" d="M453 179l-9-19 8 53z"/>,<path fill="#A68145" fill-opacity=".5" d="M306 228l3 16 8-9z"/>,<path fill="#E9E9E8" fill-opacity=".5" d="M105 431l216-91 10 91z"/>,<path fill="#F2F4F3" fill-opacity=".5" d="M524 217l-33 36 75 75z"/>,<path fill="#F2F3F2" fill-opacity=".5" d="M442 302l-21 39 118-16z"/>,<path fill="#718B12" fill-opacity=".5" d="M204 197l-33 5 25-1z"/>,<path fill="#6B9B41" fill-opacity=".5" d="M288 216l-5 22 1-44z"/>,<path fill="#EFF0ED" fill-opacity=".5" d="M155 0L29 313 6 0z"/>,<path fill="#F3F3F6" fill-opacity=".5" d="M346 211l12-6-11-65z"/>,<path fill="#B0D040" fill-opacity=".5" d="M271 269l7 12-6 3z"/>,<path fill="#B4C43E" fill-opacity=".5" d="M147 239l-15-24 20 12z"/>,<path fill="#EFEFF2" fill-opacity=".5" d="M257 239l-7 10-22-19z"/>,<path fill="#DAD0A5" fill-opacity=".5" d="M438 177l-11 22 6 1z"/>,<path fill="#D4DF9C" fill-opacity=".5" d="M511 185l-31-25 19-9z"/>,<path fill="#F1F1EF" fill-opacity=".5" d="M107 206L138 0l7 174z"/>,<path fill="#EDEEED" fill-opacity=".5" d="M424 357l151 70-207 4z"/>,<path fill="#ECECEC" fill-opacity=".5" d="M192 216l-38 15-27 40z"/>,<path fill="#C2D170" fill-opacity=".5" d="M486 190l3 21-13-22z"/>,<path fill="#F5F5F5" fill-opacity=".5" d="M553 130l-92 5 27 5z"/>,<path fill="#B2C55D" fill-opacity=".5" d="M449 240l20-31 5 52z"/>,<path fill="#F0F0F0" fill-opacity=".5" d="M144 185l24-51-8 72z"/>,<path fill="#E9E9E8" fill-opacity=".5" d="M0 385l52-74-52-19z"/>,<path fill="#EDEDEC" fill-opacity=".5" d="M185 258l-14 2-32 82z"/>,<path fill="#C3CD86" fill-opacity=".5" d="M459 256v-17l-13-7z"/>,<path fill="#859B77" fill-opacity=".5" d="M88 225l-2 16 4-13z"/>,<path fill="#F6F5F6" fill-opacity=".5" d="M411 171l-16-8-8-31z"/>,<path fill="#DAE4AC" fill-opacity=".5" d="M507 219l-28-36-3-16z"/>,<path fill="#A9AB8D" fill-opacity=".5" d="M381 253l-1-5 32 26z"/>,<path fill="#F1F2F5" fill-opacity=".5" d="M345 192l10 95 4-67z"/>,<path fill="#B5C519" fill-opacity=".5" d="M497 243l-5 8 5-19z"/>,<path fill="#EDEDEA" fill-opacity=".5" d="M60 271L0 172l63 58z"/>,<path fill="#5F891B" fill-opacity=".5" d="M375 195l10-25 22 101z"/>,<path fill="#F3F3F2" fill-opacity=".5" d="M409 83l18 110-4-1z"/>,<path fill="#78883D" fill-opacity=".5" d="M256 231l-2-17 8 40z"/>,<path fill="#848900" fill-opacity=".5" d="M390 158v6l-7 13z"/>,<path fill="#63850C" fill-opacity=".5" d="M208 221l25 2 2 9z"/>,<path fill="#F0F0F0" fill-opacity=".5" d="M234 24L125 0h103z"/>,<path fill="#F1F0F0" fill-opacity=".5" d="M444 129l-20 60 16-17z"/>,<path fill="#C8D688" fill-opacity=".5" d="M449 240l13 12-2-12z"/>,<path fill="#D8E27E" fill-opacity=".5" d="M503 224l-4-22-1 35z"/>,<path fill="#AFBD27" fill-opacity=".5" d="M456 177l-6-15 23-17z"/>,<path fill="#F2F2F2" fill-opacity=".5" d="M281 96l94 18-101 44z"/>,<path fill="#A6C74E" fill-opacity=".5" d="M243 207l-27-12 24 5z"/>,<path fill="#B6A827" fill-opacity=".5" d="M108 267l42-30-26 29z"/>,<path fill="#A6A51F" fill-opacity=".5" d="M326 243l-3-15-3-47z"/>,<path fill="#618622" fill-opacity=".5" d="M387 253l-11-14 17-16z"/>,<path fill="#BDC862" fill-opacity=".5" d="M189 232l17-1 26 17z"/>,<path fill="#56821F" fill-opacity=".5" d="M268 236l-4-7 5 29z"/>,<path fill="#BAC326" fill-opacity=".5" d="M152 230l-2-35 8 26z"/>,<path fill="#F5F4FD" fill-opacity=".5" d="M247 198l-48-6 41-2z"/>,<path fill="#E3DED6" fill-opacity=".5" d="M257 239l-3-18 2 50z"/>,<path fill="#89B246" fill-opacity=".5" d="M275 274l-7-15-6-2z"/>,<path fill="#CEDE92" fill-opacity=".5" d="M445 222l19-5-4-33z"/>,<path fill="#DAE4A1" fill-opacity=".5" d="M496 141l4 54-11-57z"/>,<path fill="#E8E8E2" fill-opacity=".5" d="M457 286l11-5-17-29z"/>,<path fill="#E8E9E7" fill-opacity=".5" d="M104 427l55-55L0 344z"/>,<path fill="#E1DFD9" fill-opacity=".5" d="M371 248l30 24-9 3z"/>,<path fill="#AECC23" fill-opacity=".5" d="M446 176l-2-2 2 47z"/>,<path fill="#E3ED72" fill-opacity=".5" d="M327 245l-5-49 3 23z"/>,<path fill="#F4F5F4" fill-opacity=".5" d="M575 329V213l-72-13z"/>,<path fill="#C3B17A" fill-opacity=".5" d="M321 236l-1 29-13-14z"/>,<path fill="#EDEDEB" fill-opacity=".5" d="M237 219l18-17-3 78z"/>,<path fill="#B1954A" fill-opacity=".5" d="M81 183l2 38 3-29z"/>,<path fill="#466B18" fill-opacity=".5" d="M385 241l-26-44 2 10z"/>,<path fill="#77771C" fill-opacity=".5" d="M69 250l7-32-2 34z"/>,<path fill="#BAC700" fill-opacity=".5" d="M513 151l-13-8 9 7z"/>,<path fill="#93A91D" fill-opacity=".5" d="M125 249l18-2-3-27z"/>,<path fill="#898B14" fill-opacity=".5" d="M197 243l31 17-10-7z"/>,<path fill="#F0F0EE" fill-opacity=".5" d="M254 185l22-49-62 28z"/>,<path fill="#F6F5F6" fill-opacity=".5" d="M574 205l-67 18 8-60z"/>,<path fill="#4C7619" fill-opacity=".5" d="M364 180l27 37-30 14z"/>,<path fill="#DDD6B2" fill-opacity=".5" d="M334 218l13 5-11-51z"/>,<path fill="#EEEEF1" fill-opacity=".5" d="M182 236l-63 32 55-30z"/>,<path fill="#809522" fill-opacity=".5" d="M451 226l-4-2 2 12z"/>,<path fill="#E8E7E1" fill-opacity=".5" d="M105 253v-47l-27 63z"/>,<path fill="#F1ECDE" fill-opacity=".5" d="M82 198l-1-9-3 23z"/>,<path fill="#517619" fill-opacity=".5" d="M368 174l-9 42 19-48z"/>,<path fill="#CED863" fill-opacity=".5" d="M517 163l-7-5-8 10z"/>,<path fill="#B5C538" fill-opacity=".5" d="M327 260l11-11-9 22z"/>,<path fill="#F0F0EF" fill-opacity=".5" d="M326 90l-39 100-9-17z"/>,<path fill="#DED897" fill-opacity=".5" d="M201 243l13-90-11 37z"/>,<path fill="#EFEDE0" fill-opacity=".5" d="M82 206l-6 10-29 35z"/>,<path fill="#C8D465" fill-opacity=".5" d="M458 174l-7 12 4-19z"/>,<path fill="#A2C976" fill-opacity=".5" d="M402 242l11-8-15-22z"/>,<path fill="#C9BFA6" fill-opacity=".5" d="M260 275l-2-22 11 13z"/>,<path fill="#6F9A30" fill-opacity=".5" d="M392 260l12-10-23-14z"/>,<path fill="#EEE" fill-opacity=".5" d="M521 431l54-100v100z"/>,<path fill="#EDEEEC" fill-opacity=".5" d="M353 235l-46 82 110-27z"/>,<path fill="#7A961B" fill-opacity=".5" d="M450 228l-2-3 5-5z"/>,<path fill="#C0D27F" fill-opacity=".5" d="M457 226l11-19-20 9z"/>,<path fill="#EDEEEC" fill-opacity=".5" d="M0 320l107-62L0 285z"/>,<path fill="#CEDC89" fill-opacity=".5" d="M464 210l5-10-19-30z"/>,<path fill="#EEEFEE" fill-opacity=".5" d="M439 267l-30 5-85 59z"/>,<path fill="#B3BC41" fill-opacity=".5" d="M131 233v15l-2-23z"/>,<path fill="#D0DA4F" fill-opacity=".5" d="M485 157l-4-17v16z"/>,<path fill="#F3F2F7" fill-opacity=".5" d="M376 229l-13 11 12 10z"/>,<path fill="#82982A" fill-opacity=".5" d="M196 220l-19 11 19 21z"/>,<path fill="#E9EAE8" fill-opacity=".5" d="M191 429l230 2-22-30z"/>,<path fill="#87AE33" fill-opacity=".5" d="M374 208l11-29-1-5z"/>,<path fill="#84B445" fill-opacity=".5" d="M397 195l5-3 28 29z"/>,<path fill="#EEE" fill-opacity=".5" d="M257 238l-12-34-14 65z"/>,<path fill="#EFEFEE" fill-opacity=".5" d="M87 207l-6-56 61 32z"/>,<path fill="#738515" fill-opacity=".5" d="M197 229l43 13-37-15z"/>,<path fill="#91BE5B" fill-opacity=".5" d="M425 193v20l-7-25z"/>,<path fill="#F5F6F4" fill-opacity=".5" d="M410 0h148l-37 162z"/>,<path fill="#F0F0F4" fill-opacity=".5" d="M243 234l-13 11 12 2z"/>,<path fill="#F3F3F3" fill-opacity=".5" d="M488 260l19-32 68 38z"/>,<path fill="#EBECE9" fill-opacity=".5" d="M311 261l-56 32 83-10z"/>,<path fill="#F4F4F4" fill-opacity=".5" d="M381 167l54-58-71 61z"/>,<path fill="#F0F0EE" fill-opacity=".5" d="M379 152l9 12-48 16z"/>,<path fill="#DCCCA2" fill-opacity=".5" d="M439 219l-3 12-3-23z"/>,<path fill="#CBCF74" fill-opacity=".5" d="M179 250l-6-19-3 4z"/>,<path fill="#25460B" fill-opacity=".5" d="M271 196l-2-34-9 40z"/>,<path fill="#F8F5FE" fill-opacity=".5" d="M287 225l11-4-8-24z"/>,<path fill="#6A8216" fill-opacity=".5" d="M205 216l-18 15-16 6z"/>,<path fill="#ECECEB" fill-opacity=".5" d="M82 49L99 0H0z"/>,<path fill="#C5C2B1" fill-opacity=".5" d="M395 269l6-4-23-13z"/>,<path fill="#EEEDE8" fill-opacity=".5" d="M199 181l8 2 11-4z"/>,<path fill="#F1F2F1" fill-opacity=".5" d="M334 169l23 47-2-84z"/>,<path fill="#F1F3F2" fill-opacity=".5" d="M541 223l-72 112 20-82z"/>,<path fill="#B7C41F" fill-opacity=".5" d="M481 141l-27 23-2-8z"/>,<path fill="#BB936D" fill-opacity=".5" d="M306 164l-13 30 7 30z"/>,<path fill="#3A5116" fill-opacity=".5" d="M382 234l-7-6 14-9z"/>,<path fill="#F5F5F5" fill-opacity=".5" d="M523 146l-79-21-27-105z"/>,<path fill="#C4C485" fill-opacity=".5" d="M138 254l10-14 10-17z"/>,<path fill="#B7A067" fill-opacity=".5" d="M300 186l25 49-14-2z"/>,<path fill="#C5DA55" fill-opacity=".5" d="M386 167l5-3 5 54z"/>,<path fill="#F2F2F1" fill-opacity=".5" d="M77 184l11-4-7-11z"/>,<path fill="#F2EFF6" fill-opacity=".5" d="M220 239l19 6-24-9z"/>,<path fill="#D5DF73" fill-opacity=".5" d="M498 205l10-5-1-4z"/>,<path fill="#98B613" fill-opacity=".5" d="M134 220l7-27 17 13z"/>,<path fill="#83802E" fill-opacity=".5" d="M82 205l-10 50-6-8z"/>,<path fill="#EFF0F0" fill-opacity=".5" d="M280 262l7-35 14 1z"/>,<path fill="#BDBB41" fill-opacity=".5" d="M147 242l10-23-14 16z"/>,<path fill="#78A425" fill-opacity=".5" d="M404 267l-7-36 7 20z"/>,<path fill="#F0F1F0" fill-opacity=".5" d="M449 354l-31-131 26 3z"/>,<path fill="#EEEEEC" fill-opacity=".5" d="M164 232l-28 23 70 119z"/>,<path fill="#CBCB29" fill-opacity=".5" d="M321 191l1-41-2 7z"/>,<path fill="#B2D395" fill-opacity=".5" d="M397 212l23 29-31-66z"/>,<path fill="#F8F8F8" fill-opacity=".5" d="M575 245V31l-60 133z"/>,<path fill="#D9D6C1" fill-opacity=".5" d="M454 253l-6-13 15 30z"/>,<path fill="#EEEDEB" fill-opacity=".5" d="M82 180l18 47 14-29z"/>,<path fill="#7D910B" fill-opacity=".5" d="M141 194l1 11-5-6z"/>,<path fill="#EAE9E5" fill-opacity=".5" d="M256 200l9-32-30 58z"/>,<path fill="#D5E1A4" fill-opacity=".5" d="M472 192l4-7 3 43z"/>,<path fill="#DCE9A0" fill-opacity=".5" d="M447 224l6-15-5-7z"/>,<path fill="#C7CE36" fill-opacity=".5" d="M151 197l7 8-3 18z"/>,<path fill="#BFCC54" fill-opacity=".5" d="M477 183l-31-19 10 11z"/>,<path fill="#EDEDED" fill-opacity=".5" d="M156 268l-51 7 72-36z"/>,<path fill="#EAEBE8" fill-opacity=".5" d="M246 248l15 53-24-14z"/>,<path fill="#F2F2EE" fill-opacity=".5" d="M419 151l70-16-32 17z"/>,<path fill="#688C0B" fill-opacity=".5" d="M211 244l20 8-3-7z"/>,<path fill="#C3DB9C" fill-opacity=".5" d="M419 240l-10 29-1-6z"/>,<path fill="#EBECE8" fill-opacity=".5" d="M335 262l-6 19 29 10z"/>,<path fill="#F0F3F0" fill-opacity=".5" d="M501 231l7 30-18 6z"/>,<path fill="#C0B479" fill-opacity=".5" d="M322 203l-7 4-9-31z"/>,<path fill="#4C7317" fill-opacity=".5" d="M385 171l-21 11 5 37z"/>,<path fill="#8A9A54" fill-opacity=".5" d="M73 233l12-24-5 36z"/>,<path fill="#F4F4F3" fill-opacity=".5" d="M343 0l52 165L557 0z"/>,<path fill="#F8F8FE" fill-opacity=".5" d="M514 170l-2 17-5-21z"/>,<path fill="#EDEDEB" fill-opacity=".5" d="M180 248L85 380l53-126z"/>,<path fill="#FFFFE9" fill-opacity=".5" d="M272 207l-1 40 1-34z"/>,<path fill="#577D27" fill-opacity=".5" d="M282 228l-5-11h7z"/>,<path fill="#CBD720" fill-opacity=".5" d="M472 195l5-48-1 5z"/>,<path fill="#F4F4F6" fill-opacity=".5" d="M235 182l5-12 5 10z"/>,<path fill="#B5C530" fill-opacity=".5" d="M481 256l15-23-10 26z"/>,<path fill="#6AA040" fill-opacity=".5" d="M283 243l1-19-7 31z"/>,<path fill="#F0F0EE" fill-opacity=".5" d="M244 111l-45 16-43-60z"/>,<path fill="#988C13" fill-opacity=".5" d="M107 234v17l14-13z"/>,<path fill="#EDEEED" fill-opacity=".5" d="M341 243l75 58-66-75z"/>,<path fill="#3A6212" fill-opacity=".5" d="M258 233l11-13-10 22z"/>,<path fill="#DED9C9" fill-opacity=".5" d="M306 248l-1-13 12 37z"/>,<path fill="#DEE6AD" fill-opacity=".5" d="M482 173l7 12 22 15z"/>,<path fill="#ECECE7" fill-opacity=".5" d="M147 191l16 14 12-10z"/>,<path fill="#EDEDEB" fill-opacity=".5" d="M288 180l33-31-45 19z"/>,<path fill="#D8D093" fill-opacity=".5" d="M324 204l20 32 3-15z"/>,<path fill="#E9EBEC" fill-opacity=".5" d="M86 182v39l15 19z"/>,<path fill="#CFDA7A" fill-opacity=".5" d="M486 263l-9-12 3 26z"/>,<path fill="#EDEDEB" fill-opacity=".5" d="M77 361l180-5L0 277z"/>,<path fill="#D9E3A6" fill-opacity=".5" d="M504 219l-27-40 17 8z"/>,<path fill="#73A952" fill-opacity=".5" d="M271 227l4 28 8-21z"/>,<path fill="#ECEDEB" fill-opacity=".5" d="M289 215l18 26-32 49z"/>,<path fill="#779A1F" fill-opacity=".5" d="M229 183l-31 4 41 1z"/>,<path fill="#AEC24B" fill-opacity=".5" d="M142 206l7 16-12-23z"/>,<path fill="#F1F1F1" fill-opacity=".5" d="M416 177l33-17 2-2z"/>,<path fill="#99A425" fill-opacity=".5" d="M194 261l4-19-15 22z"/>,<path fill="#CCD987" fill-opacity=".5" d="M490 240l-13-44-1 25z"/>,<path fill="#EEEFED" fill-opacity=".5" d="M291 303l-24-26-17 50z"/>,<path fill="#EDEDE9" fill-opacity=".5" d="M240 195l29-31 3-25z"/>,<path fill="#EAEAE9" fill-opacity=".5" d="M41 0L0 33V0z"/>,<path fill="#BEB157" fill-opacity=".5" d="M150 194l-28-1 12-6z"/>,<path fill="#B1A66A" fill-opacity=".5" d="M85 198l-10 41 3-3z"/>,<path fill="#F1F1F1" fill-opacity=".5" d="M138 188l-15-4 32-34z"/>,<path fill="#5B831A" fill-opacity=".5" d="M378 171l-18 23 23-23z"/>,<path fill="#ECECEC" fill-opacity=".5" d="M276 271l1-18 19 46z"/>,<path fill="#EFEEEB" fill-opacity=".5" d="M425 194l9-6-19-14z"/>,<path fill="#F2F2F0" fill-opacity=".5" d="M206 120l-13 52 57-44z"/>,<path fill="#E1EAAF" fill-opacity=".5" d="M484 144l18 24-20-23z"/>,<path fill="#D8C690" fill-opacity=".5" d="M110 212l-6 17-1 10z"/>,<path fill="#B89E6A" fill-opacity=".5" d="M320 197l-9 19-5-8z"/>,<path fill="#C9C9A5" fill-opacity=".5" d="M446 223l-5-5-6 9z"/>,<path fill="#435C43" fill-opacity=".5" d="M84 244l7-7h-1z"/>,<path fill="#F3F3F3" fill-opacity=".5" d="M397 78l16 93L240 50z"/>,<path fill="#EDEDEA" fill-opacity=".5" d="M169 284l3-61-11-6z"/>,<path fill="#788D1B" fill-opacity=".5" d="M191 206l53 11-45-6z"/>,<path fill="#9FB729" fill-opacity=".5" d="M449 195l-2 3-8-17z"/>,<path fill="#E4E6E5" fill-opacity=".5" d="M95 237l13 24-27-14z"/>,<path fill="#F1F1F0" fill-opacity=".5" d="M190 128l94 8-61 32z"/>,<path fill="#F2F2F0" fill-opacity=".5" d="M343 173l43-7 5-32z"/>,<path fill="#DEE74F" fill-opacity=".5" d="M322 194v-17 27z"/>,<path fill="#D7C084" fill-opacity=".5" d="M346 201l-1 31h-2z"/>,<path fill="#B5C654" fill-opacity=".5" d="M232 223l-45-7h27z"/>,<path fill="#676D25" fill-opacity=".5" d="M76 218l-7 21 7-7z"/>,<path fill="#F0F1EE" fill-opacity=".5" d="M223 150l-67 43-9-40z"/>,<path fill="#CCD54D" fill-opacity=".5" d="M506 149l-7-8 15 25z"/>,<path fill="#F1F1EE" fill-opacity=".5" d="M328 125l-73 20 60 10z"/>,<path fill="#CDD96E" fill-opacity=".5" d="M511 216l-36 10 11 4z"/>,<path fill="#ECECEA" fill-opacity=".5" d="M20 178L0 159v180z"/>,<path fill="#EEEDEA" fill-opacity=".5" d="M81 201l-23 41 20-69z"/>,<path fill="#ECEEEC" fill-opacity=".5" d="M320 355l5 62 115-15z"/>,<path fill="#9AB238" fill-opacity=".5" d="M461 246l2-15 3 4z"/>,<path fill="#EFF0EE" fill-opacity=".5" d="M428 271l-20 19 14-53z"/>,<path fill="#F5F5F7" fill-opacity=".5" d="M232 224l14-12-1 5z"/>,<path fill="#C8CD6F" fill-opacity=".5" d="M210 183l-20 15 10-2z"/>,<path fill="#D5DA62" fill-opacity=".5" d="M193 236l29 20 4-4z"/>,<path fill="#EDF1F7" fill-opacity=".5" d="M478 272l-10-13 3 34z"/>,<path fill="#ADBD2F" fill-opacity=".5" d="M473 155v28l-5-26z"/>,<path fill="#E7E7E5" fill-opacity=".5" d="M0 337l218 94-208-32z"/>,<path fill="#DBDDDB" fill-opacity=".5" d="M0 431v-17l34 17z"/>,<path fill="#ECECEA" fill-opacity=".5" d="M251 315l4-81-21 7z"/>,<path fill="#EFF0F0" fill-opacity=".5" d="M541 431h-83l-53-32z"/>,<path fill="#D6DEDD" fill-opacity=".5" d="M92 239v7l-31 16z"/>,<path fill="#F1F1EF" fill-opacity=".5" d="M152 0l9 170-103-17z"/>,<path fill="#EFF0EB" fill-opacity=".5" d="M175 161l9 23-26 14z"/>,<path fill="#B0D095" fill-opacity=".5" d="M416 253l-12-17h16z"/>,<path fill="#E1DFD3" fill-opacity=".5" d="M360 176l11-8-18 31z"/>,<path fill="#D2D29E" fill-opacity=".5" d="M338 226l-13-8 3-22z"/>,<path fill="#728F20" fill-opacity=".5" d="M184 190l20-2-12 7z"/>,<path fill="#E8E8E6" fill-opacity=".5" d="M277 395l50 36H157z"/>,<path fill="#F4F5F4" fill-opacity=".5" d="M509 226l3-58 26-30z"/>,<path fill="#B39624" fill-opacity=".5" d="M125 259l-16 10-2-29z"/>,<path fill="#E8E9E7" fill-opacity=".5" d="M12 309H0v60z"/>,<path fill="#F1F2F1" fill-opacity=".5" d="M437 337l35-70 34 37z"/>,<path fill="#EEEEEC" fill-opacity=".5" d="M0 294l37-143 23 99z"/>,<path fill="#718B06" fill-opacity=".5" d="M216 233l10 6 10-1z"/>,<path fill="#899972" fill-opacity=".5" d="M89 226l1 9-7 10z"/>,<path fill="#B8D881" fill-opacity=".5" d="M421 190l-18-23 11 9z"/>,<path fill="#A4B94B" fill-opacity=".5" d="M451 228l13-9-10 17z"/>,<path fill="#7B911D" fill-opacity=".5" d="M201 238l-8-9-8 26z"/>,<path fill="#638603" fill-opacity=".5" d="M209 172l-18 5 3 4z"/>,<path fill="#DEE0B6" fill-opacity=".5" d="M341 192h-18l-1-34z"/>,<path fill="#BBB87A" fill-opacity=".5" d="M136 255l-12 10 16-14z"/>,<path fill="#F0F0EF" fill-opacity=".5" d="M306 85l-16 26 49-10z"/>,<path fill="#C5D25B" fill-opacity=".5" d="M496 247l-8-17 2 14z"/>,<path fill="#C9B54C" fill-opacity=".5" d="M133 187l-16 13-7 14z"/>,<path fill="#99C35F" fill-opacity=".5" d="M419 246l-24-33 10 8z"/>,<path fill="#EFEFED" fill-opacity=".5" d="M185 270l56 3-16 85z"/>,<path fill="#F4F5F3" fill-opacity=".5" d="M512 253l-3-68 42-41z"/>,<path fill="#C2D070" fill-opacity=".5" d="M490 222l-13-33 7 29z"/>,<path fill="#446D16" fill-opacity=".5" d="M390 224l-11-19-7 25z"/>,<path fill="#BCC750" fill-opacity=".5" d="M189 196l-2 2 32-4z"/>,<path fill="#ECECEA" fill-opacity=".5" d="M32 361l-7-60 46 1z"/>,<path fill="#F2F2F0" fill-opacity=".5" d="M387 162l-62-2-3-42z"/>,<path fill="#F1F1EF" fill-opacity=".5" d="M234 113l-27 54-32 10z"/>,<path fill="#ECEDEA" fill-opacity=".5" d="M363 180l10-12-23 1z"/>,<path fill="#929E15" fill-opacity=".5" d="M117 230l20 19 2-5z"/>,<path fill="#AFC248" fill-opacity=".5" d="M189 227l-12 21-3-3z"/>,<path fill="#D0DB6D" fill-opacity=".5" d="M480 151l4-3 14 18z"/>,<path fill="#B49860" fill-opacity=".5" d="M307 175l-12 14 8-20z"/>,<path fill="#EFF0EE" fill-opacity=".5" d="M258 182l-19 8 13 34z"/>,<path fill="#EDEDEB" fill-opacity=".5" d="M563 395l12-95v131z"/>,<path fill="#5F8D38" fill-opacity=".5" d="M271 227l14 2-1-13z"/>,<path fill="#F2F2F1" fill-opacity=".5" d="M179 17l75-17 16 158z"/>,<path fill="#DCD4C5" fill-opacity=".5" d="M102 255l12 21-10-12z"/>,<path fill="#93A52E" fill-opacity=".5" d="M177 211l31-4-34 11z"/>,<path fill="#F2F2F0" fill-opacity=".5" d="M274 154l25-78-14 115z"/>,<path fill="#84861C" fill-opacity=".5" d="M120 239l14-42-20 55z"/>,<path fill="#D6CC7D" fill-opacity=".5" d="M325 230h20l-2 7z"/>,<path fill="#BFD06D" fill-opacity=".5" d="M466 228l-16-8 17-3z"/>,<path fill="#EEF0F5" fill-opacity=".5" d="M272 281l-4-11 4 22z"/>,<path fill="#EDEDEB" fill-opacity=".5" d="M278 256l59 46-47-76z"/>]</svg>