<!--?xml version="1.0" standalone="no"?-->
<svg xmlns="http://www.w3.org/2000/svg" version="1.2" baseProfile="tiny" width="536" height="356">
[<rect x="0" y="0" width="535" height="355" fill="rgb(103,127,115)" fill-opacity="1"></rect>,<polygon points="0,355 535,354 0,100" fill="rgb(0,0,0)" fill-opacity="0.5019607843137255"></polygon>,<polygon points="262,238 535,0 0,0" fill="rgb(255,255,255)" fill-opacity="0.5019607843137255"></polygon>,<polygon points="535,80 216,303 535,355" fill="rgb(0,18,0)" fill-opacity="0.5019607843137255"></polygon>,<polygon points="535,0 80,161 0,0" fill="rgb(255,255,255)" fill-opacity="0.5019607843137255"></polygon>,<polygon points="92,355 0,355 0,98" fill="rgb(0,1,0)" fill-opacity="0.5019607843137255"></polygon>,<polygon points="149,125 446,138 535,5" fill="rgb(239,237,242)" fill-opacity="0.5019607843137255"></polygon>,<polygon points="0,3 83,71 10,84" fill="rgb(236,234,242)" fill-opacity="0.5019607843137255"></polygon>,<polygon points="494,65 446,91 469,131" fill="rgb(51,93,76)" fill-opacity="0.5019607843137255"></polygon>,<polygon points="0,0 535,64 535,0" fill="rgb(252,248,252)" fill-opacity="0.5019607843137255"></polygon>,<polygon points="535,283 535,69 378,341" fill="rgb(0,44,24)" fill-opacity="0.5019607843137255"></polygon>,<polygon points="249,241 450,130 170,161" fill="rgb(126,150,138)" fill-opacity="0.5019607843137255"></polygon>,<polygon points="121,355 114,127 0,166" fill="rgb(0,59,33)" fill-opacity="0.5019607843137255"></polygon>,<polygon points="320,308 336,247 236,355" fill="rgb(64,136,81)" fill-opacity="0.5019607843137255"></polygon>,<polygon points="535,255 535,355 361,355" fill="rgb(13,73,32)" fill-opacity="0.5019607843137255"></polygon>,<polygon points="435,349 0,250 374,191" fill="rgb(8,62,42)" fill-opacity="0.5019607843137255"></polygon>,<polygon points="440,109 445,151 460,146" fill="rgb(169,192,179)" fill-opacity="0.5019607843137255"></polygon>,<polygon points="440,243 462,267 415,250" fill="rgb(91,151,88)" fill-opacity="0.5019607843137255"></polygon>,<polygon points="279,313 334,355 288,298" fill="rgb(93,144,75)" fill-opacity="0.5019607843137255"></polygon>,<polygon points="159,86 0,104 175,189" fill="rgb(135,159,148)" fill-opacity="0.5019607843137255"></polygon>,<polygon points="49,355 263,355 133,255" fill="rgb(7,69,30)" fill-opacity="0.5019607843137255"></polygon>,<polygon points="531,311 454,302 483,275" fill="rgb(59,109,64)" fill-opacity="0.5019607843137255"></polygon>,<polygon points="432,119 289,123 412,189" fill="rgb(167,182,174)" fill-opacity="0.5019607843137255"></polygon>,<polygon points="261,200 271,281 0,116" fill="rgb(52,104,84)" fill-opacity="0.5019607843137255"></polygon>,<polygon points="237,310 258,257 168,320" fill="rgb(82,134,90)" fill-opacity="0.5019607843137255"></polygon>,<polygon points="142,317 95,271 79,295" fill="rgb(77,127,87)" fill-opacity="0.5019607843137255"></polygon>,<polygon points="457,94 481,80 514,103" fill="rgb(36,82,67)" fill-opacity="0.5019607843137255"></polygon>,<polygon points="385,259 422,198 387,237" fill="rgb(80,141,97)" fill-opacity="0.5019607843137255"></polygon>,<polygon points="361,326 331,332 346,276" fill="rgb(0,7,3)" fill-opacity="0.5019607843137255"></polygon>,<polygon points="240,355 293,320 450,355" fill="rgb(48,113,56)" fill-opacity="0.5019607843137255"></polygon>,<polygon points="164,270 203,299 209,233" fill="rgb(0,13,6)" fill-opacity="0.5019607843137255"></polygon>,<polygon points="290,323 316,355 278,355" fill="rgb(0,45,22)" fill-opacity="0.5019607843137255"></polygon>,<polygon points="535,241 462,292 488,207" fill="rgb(0,12,8)" fill-opacity="0.5019607843137255"></polygon>,<polygon points="439,93 535,64 513,37" fill="rgb(136,157,148)" fill-opacity="0.5019607843137255"></polygon>,<polygon points="378,186 0,30 30,101" fill="rgb(183,191,189)" fill-opacity="0.5019607843137255"></polygon>,<polygon points="217,292 237,244 192,256" fill="rgb(0,37,27)" fill-opacity="0.5019607843137255"></polygon>,<polygon points="172,312 165,352 115,346" fill="rgb(0,9,7)" fill-opacity="0.5019607843137255"></polygon>,<polygon points="267,221 247,128 407,134" fill="rgb(186,193,188)" fill-opacity="0.5019607843137255"></polygon>,<polygon points="415,201 431,124 467,180" fill="rgb(5,61,46)" fill-opacity="0.5019607843137255"></polygon>,<polygon points="445,183 535,166 465,114" fill="rgb(0,40,30)" fill-opacity="0.5019607843137255"></polygon>,<polygon points="237,159 148,107 128,160" fill="rgb(165,178,171)" fill-opacity="0.5019607843137255"></polygon>,<polygon points="423,206 461,182 439,224" fill="rgb(85,147,107)" fill-opacity="0.5019607843137255"></polygon>,<polygon points="406,197 437,135 374,170" fill="rgb(79,121,102)" fill-opacity="0.5019607843137255"></polygon>,<polygon points="535,298 535,355 496,355" fill="rgb(0,11,5)" fill-opacity="0.5019607843137255"></polygon>,<polygon points="365,331 395,355 314,332" fill="rgb(102,150,88)" fill-opacity="0.5019607843137255"></polygon>,<polygon points="417,355 442,309 481,330" fill="rgb(64,114,68)" fill-opacity="0.5019607843137255"></polygon>,<polygon points="225,322 254,309 263,350" fill="rgb(87,152,73)" fill-opacity="0.5019607843137255"></polygon>,<polygon points="0,283 66,205 136,282" fill="rgb(0,26,15)" fill-opacity="0.5019607843137255"></polygon>,<polygon points="495,215 450,179 443,199" fill="rgb(63,112,85)" fill-opacity="0.5019607843137255"></polygon>,<polygon points="464,212 357,256 353,318" fill="rgb(1,42,27)" fill-opacity="0.5019607843137255"></polygon>,<polygon points="247,221 268,240 246,250" fill="rgb(116,141,126)" fill-opacity="0.5019607843137255"></polygon>,<polygon points="93,348 0,355 0,238" fill="rgb(0,7,0)" fill-opacity="0.5019607843137255"></polygon>,<polygon points="486,292 505,326 461,348" fill="rgb(3,43,23)" fill-opacity="0.5019607843137255"></polygon>,<polygon points="164,318 194,294 239,297" fill="rgb(87,127,84)" fill-opacity="0.5019607843137255"></polygon>,<polygon points="63,184 70,171 19,148" fill="rgb(67,122,91)" fill-opacity="0.5019607843137255"></polygon>,<polygon points="416,293 351,310 410,323" fill="rgb(42,87,56)" fill-opacity="0.5019607843137255"></polygon>,<polygon points="228,230 219,184 254,189" fill="rgb(106,131,117)" fill-opacity="0.5019607843137255"></polygon>,<polygon points="452,82 441,0 535,0" fill="rgb(210,213,217)" fill-opacity="0.5019607843137255"></polygon>,<polygon points="122,73 0,55 0,0" fill="rgb(214,216,222)" fill-opacity="0.5019607843137255"></polygon>,<polygon points="515,99 535,78 475,122" fill="rgb(89,134,119)" fill-opacity="0.5019607843137255"></polygon>,<polygon points="234,102 22,0 464,0" fill="rgb(249,245,248)" fill-opacity="0.5019607843137255"></polygon>,<polygon points="86,181 0,144 0,64" fill="rgb(22,80,61)" fill-opacity="0.5019607843137255"></polygon>,<polygon points="0,226 33,205 5,201" fill="rgb(38,118,75)" fill-opacity="0.5019607843137255"></polygon>,<polygon points="255,288 263,331 293,287" fill="rgb(0,16,10)" fill-opacity="0.5019607843137255"></polygon>,<polygon points="317,206 295,213 298,144" fill="rgb(153,170,158)" fill-opacity="0.5019607843137255"></polygon>,<polygon points="479,113 457,128 473,217" fill="rgb(5,51,38)" fill-opacity="0.5019607843137255"></polygon>,<polygon points="240,182 83,69 38,106" fill="rgb(161,175,168)" fill-opacity="0.5019607843137255"></polygon>,<polygon points="121,94 476,0 408,106" fill="rgb(230,229,232)" fill-opacity="0.5019607843137255"></polygon>,<polygon points="0,172 121,201 208,303" fill="rgb(2,42,29)" fill-opacity="0.5019607843137255"></polygon>,<polygon points="275,324 303,281 369,237" fill="rgb(92,133,95)" fill-opacity="0.5019607843137255"></polygon>,<polygon points="496,113 448,214 535,91" fill="rgb(6,53,42)" fill-opacity="0.5019607843137255"></polygon>,<polygon points="493,100 457,101 447,132" fill="rgb(154,173,163)" fill-opacity="0.5019607843137255"></polygon>,<polygon points="464,112 402,99 451,148" fill="rgb(170,183,174)" fill-opacity="0.5019607843137255"></polygon>,<polygon points="18,115 94,148 1,63" fill="rgb(95,127,114)" fill-opacity="0.5019607843137255"></polygon>,<polygon points="342,280 263,218 405,183" fill="rgb(42,86,69)" fill-opacity="0.5019607843137255"></polygon>,<polygon points="511,61 535,77 535,37" fill="rgb(115,140,131)" fill-opacity="0.5019607843137255"></polygon>,<polygon points="95,236 179,189 228,290" fill="rgb(5,48,34)" fill-opacity="0.5019607843137255"></polygon>,<polygon points="510,195 535,168 535,209" fill="rgb(58,110,90)" fill-opacity="0.5019607843137255"></polygon>,<polygon points="535,0 535,37 424,52" fill="rgb(212,215,219)" fill-opacity="0.5019607843137255"></polygon>,<polygon points="465,349 420,331 430,346" fill="rgb(75,124,67)" fill-opacity="0.5019607843137255"></polygon>,<polygon points="488,130 487,99 476,106" fill="rgb(137,168,151)" fill-opacity="0.5019607843137255"></polygon>,<polygon points="120,178 122,152 133,156" fill="rgb(19,64,50)" fill-opacity="0.5019607843137255"></polygon>,<polygon points="313,198 372,205 401,170" fill="rgb(76,115,98)" fill-opacity="0.5019607843137255"></polygon>,<polygon points="156,158 158,197 101,184" fill="rgb(86,127,107)" fill-opacity="0.5019607843137255"></polygon>,<polygon points="210,202 225,222 203,260" fill="rgb(23,65,52)" fill-opacity="0.5019607843137255"></polygon>,<polygon points="285,181 368,144 378,184" fill="rgb(151,167,157)" fill-opacity="0.5019607843137255"></polygon>,<polygon points="328,212 279,194 299,218" fill="rgb(101,130,115)" fill-opacity="0.5019607843137255"></polygon>,<polygon points="125,321 155,312 167,292" fill="rgb(64,121,82)" fill-opacity="0.5019607843137255"></polygon>,<polygon points="402,338 485,221 452,313" fill="rgb(3,33,22)" fill-opacity="0.5019607843137255"></polygon>,<polygon points="8,69 53,123 90,83" fill="rgb(160,176,169)" fill-opacity="0.5019607843137255"></polygon>,<polygon points="99,318 69,284 69,325" fill="rgb(42,116,70)" fill-opacity="0.5019607843137255"></polygon>,<polygon points="525,316 521,205 543,238" fill="rgb(0,21,14)" fill-opacity="0.5019607843137255"></polygon>,<polygon points="461,220 449,200 388,238" fill="rgb(46,100,73)" fill-opacity="0.5019607843137255"></polygon>,<polygon points="135,294 76,257 154,229" fill="rgb(6,28,22)" fill-opacity="0.5019607843137255"></polygon>,<polygon points="520,289 465,289 535,311" fill="rgb(56,105,60)" fill-opacity="0.5019607843137255"></polygon>,<polygon points="395,260 435,282 413,282" fill="rgb(84,136,77)" fill-opacity="0.5019607843137255"></polygon>,<polygon points="110,242 78,222 99,221" fill="rgb(63,113,84)" fill-opacity="0.5019607843137255"></polygon>,<polygon points="490,307 418,337 460,308" fill="rgb(60,109,65)" fill-opacity="0.5019607843137255"></polygon>,<polygon points="174,299 176,355 190,355" fill="rgb(62,113,75)" fill-opacity="0.5019607843137255"></polygon>,<polygon points="193,355 164,355 164,345" fill="rgb(72,121,77)" fill-opacity="0.5019607843137255"></polygon>,<polygon points="250,152 387,94 114,85" fill="rgb(213,215,216)" fill-opacity="0.5019607843137255"></polygon>,<polygon points="131,284 163,233 165,279" fill="rgb(53,96,66)" fill-opacity="0.5019607843137255"></polygon>,<polygon points="435,128 455,161 430,168" fill="rgb(70,111,94)" fill-opacity="0.5019607843137255"></polygon>,<polygon points="274,217 256,268 373,254" fill="rgb(19,61,47)" fill-opacity="0.5019607843137255"></polygon>,<polygon points="74,261 6,197 86,326" fill="rgb(17,67,43)" fill-opacity="0.5019607843137255"></polygon>,<polygon points="112,279 94,296 136,303" fill="rgb(77,125,86)" fill-opacity="0.5019607843137255"></polygon>,<polygon points="343,170 385,191 361,194" fill="rgb(108,137,122)" fill-opacity="0.5019607843137255"></polygon>,<polygon points="92,159 133,214 132,182" fill="rgb(87,131,109)" fill-opacity="0.5019607843137255"></polygon>,<polygon points="217,294 240,208 256,293" fill="rgb(42,85,67)" fill-opacity="0.5019607843137255"></polygon>,<polygon points="195,182 153,158 202,148" fill="rgb(137,157,146)" fill-opacity="0.5019607843137255"></polygon>,<polygon points="108,73 101,142 78,135" fill="rgb(156,171,163)" fill-opacity="0.5019607843137255"></polygon>,<polygon points="503,340 535,355 447,355" fill="rgb(2,40,22)" fill-opacity="0.5019607843137255"></polygon>,<polygon points="386,355 457,329 402,355" fill="rgb(0,37,22)" fill-opacity="0.5019607843137255"></polygon>,<polygon points="87,179 94,187 117,131" fill="rgb(74,112,97)" fill-opacity="0.5019607843137255"></polygon>,<polygon points="453,255 494,279 518,246" fill="rgb(0,15,10)" fill-opacity="0.5019607843137255"></polygon>,<polygon points="234,297 267,324 246,286" fill="rgb(3,41,30)" fill-opacity="0.5019607843137255"></polygon>,<polygon points="157,248 134,261 163,259" fill="rgb(0,27,21)" fill-opacity="0.5019607843137255"></polygon>,<polygon points="492,202 460,203 473,212" fill="rgb(79,123,87)" fill-opacity="0.5019607843137255"></polygon>,<polygon points="275,337 230,315 257,314" fill="rgb(98,143,75)" fill-opacity="0.5019607843137255"></polygon>,<polygon points="105,289 95,273 69,299" fill="rgb(59,109,78)" fill-opacity="0.5019607843137255"></polygon>,<polygon points="200,285 238,297 229,316" fill="rgb(94,131,92)" fill-opacity="0.5019607843137255"></polygon>,<polygon points="140,183 160,214 123,219" fill="rgb(22,78,61)" fill-opacity="0.5019607843137255"></polygon>,<polygon points="386,153 494,51 358,135" fill="rgb(168,181,175)" fill-opacity="0.5019607843137255"></polygon>,<polygon points="298,317 311,328 361,331" fill="rgb(2,34,18)" fill-opacity="0.5019607843137255"></polygon>,<polygon points="0,315 73,350 65,265" fill="rgb(0,22,12)" fill-opacity="0.5019607843137255"></polygon>,<polygon points="42,207 0,126 0,196" fill="rgb(0,21,14)" fill-opacity="0.5019607843137255"></polygon>,<polygon points="240,204 301,190 266,223" fill="rgb(145,161,149)" fill-opacity="0.5019607843137255"></polygon>,<polygon points="216,165 267,215 238,160" fill="rgb(128,148,138)" fill-opacity="0.5019607843137255"></polygon>,<polygon points="123,320 112,299 137,316" fill="rgb(77,128,79)" fill-opacity="0.5019607843137255"></polygon>,<polygon points="282,250 247,238 282,261" fill="rgb(73,114,96)" fill-opacity="0.5019607843137255"></polygon>,<polygon points="450,319 462,330 435,323" fill="rgb(87,126,73)" fill-opacity="0.5019607843137255"></polygon>,<polygon points="171,285 203,251 203,296" fill="rgb(0,24,17)" fill-opacity="0.5019607843137255"></polygon>,<polygon points="445,182 475,210 460,187" fill="rgb(70,112,85)" fill-opacity="0.5019607843137255"></polygon>,<polygon points="362,322 372,300 368,324" fill="rgb(79,124,93)" fill-opacity="0.5019607843137255"></polygon>,<polygon points="403,332 381,331 398,304" fill="rgb(0,12,7)" fill-opacity="0.5019607843137255"></polygon>,<polygon points="401,267 444,272 408,280" fill="rgb(74,120,71)" fill-opacity="0.5019607843137255"></polygon>,<polygon points="0,355 0,271 49,355" fill="rgb(0,3,1)" fill-opacity="0.5019607843137255"></polygon>,<polygon points="320,320 317,353 317,355" fill="rgb(240,231,230)" fill-opacity="0.5019607843137255"></polygon>,<polygon points="47,160 61,124 77,137" fill="rgb(43,87,70)" fill-opacity="0.5019607843137255"></polygon>,<polygon points="387,241 400,242 381,272" fill="rgb(62,111,79)" fill-opacity="0.5019607843137255"></polygon>,<polygon points="294,290 295,300 313,274" fill="rgb(87,130,93)" fill-opacity="0.5019607843137255"></polygon>,<polygon points="417,227 387,181 428,208" fill="rgb(15,73,53)" fill-opacity="0.5019607843137255"></polygon>,<polygon points="431,219 448,193 422,199" fill="rgb(91,135,97)" fill-opacity="0.5019607843137255"></polygon>,<polygon points="192,283 190,295 135,355" fill="rgb(0,28,18)" fill-opacity="0.5019607843137255"></polygon>,<polygon points="315,273 321,221 333,210" fill="rgb(31,72,57)" fill-opacity="0.5019607843137255"></polygon>,<polygon points="408,193 414,235 391,218" fill="rgb(60,113,83)" fill-opacity="0.5019607843137255"></polygon>,<polygon points="98,150 137,172 124,178" fill="rgb(26,70,59)" fill-opacity="0.5019607843137255"></polygon>,<polygon points="369,282 397,255 414,262" fill="rgb(3,30,20)" fill-opacity="0.5019607843137255"></polygon>,<polygon points="188,355 203,308 239,355" fill="rgb(10,45,23)" fill-opacity="0.5019607843137255"></polygon>,<polygon points="525,170 506,169 523,187" fill="rgb(0,30,25)" fill-opacity="0.5019607843137255"></polygon>,<polygon points="362,214 352,263 363,236" fill="rgb(90,132,102)" fill-opacity="0.5019607843137255"></polygon>,<polygon points="29,141 39,164 41,145" fill="rgb(64,118,82)" fill-opacity="0.5019607843137255"></polygon>,<polygon points="0,260 19,210 59,311" fill="rgb(0,32,19)" fill-opacity="0.5019607843137255"></polygon>,<polygon points="317,229 307,196 294,230" fill="rgb(65,102,85)" fill-opacity="0.5019607843137255"></polygon>,<polygon points="69,302 86,310 73,286" fill="rgb(67,118,82)" fill-opacity="0.5019607843137255"></polygon>,<polygon points="535,138 427,194 474,121" fill="rgb(13,54,41)" fill-opacity="0.5019607843137255"></polygon>,<polygon points="507,176 486,210 486,160" fill="rgb(33,89,62)" fill-opacity="0.5019607843137255"></polygon>,<polygon points="458,88 510,108 483,85" fill="rgb(41,81,68)" fill-opacity="0.5019607843137255"></polygon>,<polygon points="145,213 111,184 121,209" fill="rgb(51,103,80)" fill-opacity="0.5019607843137255"></polygon>,<polygon points="464,241 411,248 419,258" fill="rgb(77,127,79)" fill-opacity="0.5019607843137255"></polygon>,<polygon points="433,246 436,247 424,246" fill="rgb(161,192,119)" fill-opacity="0.5019607843137255"></polygon>,<polygon points="149,194 186,173 126,149" fill="rgb(96,128,112)" fill-opacity="0.5019607843137255"></polygon>,<polygon points="338,283 407,277 371,259" fill="rgb(4,30,21)" fill-opacity="0.5019607843137255"></polygon>,<polygon points="129,256 114,243 122,274" fill="rgb(37,87,63)" fill-opacity="0.5019607843137255"></polygon>,<polygon points="434,286 453,328 405,282" fill="rgb(5,39,24)" fill-opacity="0.5019607843137255"></polygon>,<polygon points="89,0 0,0 0,52" fill="rgb(212,213,218)" fill-opacity="0.5019607843137255"></polygon>,<polygon points="427,145 441,88 418,150" fill="rgb(172,183,176)" fill-opacity="0.5019607843137255"></polygon>,<polygon points="489,74 477,53 535,56" fill="rgb(148,165,158)" fill-opacity="0.5019607843137255"></polygon>,<polygon points="251,320 296,355 241,328" fill="rgb(39,88,48)" fill-opacity="0.5019607843137255"></polygon>,<polygon points="391,337 370,326 334,343" fill="rgb(66,115,68)" fill-opacity="0.5019607843137255"></polygon>,<polygon points="151,334 194,329 210,333" fill="rgb(0,31,16)" fill-opacity="0.5019607843137255"></polygon>,<polygon points="142,274 169,289 112,239" fill="rgb(3,32,23)" fill-opacity="0.5019607843137255"></polygon>,<polygon points="0,256 24,263 0,201" fill="rgb(5,58,35)" fill-opacity="0.5019607843137255"></polygon>,<polygon points="424,220 464,253 428,241" fill="rgb(4,41,33)" fill-opacity="0.5019607843137255"></polygon>,<polygon points="356,300 323,335 359,326" fill="rgb(2,26,17)" fill-opacity="0.5019607843137255"></polygon>,<polygon points="300,254 323,279 249,256" fill="rgb(16,57,45)" fill-opacity="0.5019607843137255"></polygon>,<polygon points="10,78 0,76 0,119" fill="rgb(37,75,66)" fill-opacity="0.5019607843137255"></polygon>,<polygon points="107,262 103,220 87,216" fill="rgb(45,93,68)" fill-opacity="0.5019607843137255"></polygon>,<polygon points="243,309 220,312 202,346" fill="rgb(8,59,26)" fill-opacity="0.5019607843137255"></polygon>,<polygon points="71,247 56,279 80,252" fill="rgb(30,77,52)" fill-opacity="0.5019607843137255"></polygon>,<polygon points="524,209 456,219 530,302" fill="rgb(5,43,30)" fill-opacity="0.5019607843137255"></polygon>,<polygon points="421,196 450,192 425,151" fill="rgb(0,37,25)" fill-opacity="0.5019607843137255"></polygon>,<polygon points="271,351 266,355 296,353" fill="rgb(96,141,93)" fill-opacity="0.5019607843137255"></polygon>,<polygon points="427,308 439,322 462,293" fill="rgb(27,72,45)" fill-opacity="0.5019607843137255"></polygon>,<polygon points="388,243 354,269 370,223" fill="rgb(7,48,36)" fill-opacity="0.5019607843137255"></polygon>,<polygon points="535,187 530,176 535,175" fill="rgb(91,127,108)" fill-opacity="0.5019607843137255"></polygon>,<polygon points="66,197 27,217 29,158" fill="rgb(4,37,28)" fill-opacity="0.5019607843137255"></polygon>,<polygon points="409,220 414,228 392,230" fill="rgb(113,151,109)" fill-opacity="0.5019607843137255"></polygon>,<polygon points="438,198 468,113 451,188" fill="rgb(24,67,49)" fill-opacity="0.5019607843137255"></polygon>,<polygon points="347,340 396,355 320,355" fill="rgb(52,104,65)" fill-opacity="0.5019607843137255"></polygon>,<polygon points="342,103 365,143 320,151" fill="rgb(199,204,204)" fill-opacity="0.5019607843137255"></polygon>,<polygon points="249,312 270,286 276,324" fill="rgb(0,22,15)" fill-opacity="0.5019607843137255"></polygon>,<polygon points="268,344 236,335 249,333" fill="rgb(102,142,83)" fill-opacity="0.5019607843137255"></polygon>,<polygon points="319,243 348,184 387,206" fill="rgb(50,91,74)" fill-opacity="0.5019607843137255"></polygon>,<polygon points="187,117 166,154 125,146" fill="rgb(178,189,182)" fill-opacity="0.5019607843137255"></polygon>,<polygon points="31,342 120,355 80,325" fill="rgb(4,39,26)" fill-opacity="0.5019607843137255"></polygon>,<polygon points="465,107 447,100 473,82" fill="rgb(93,125,111)" fill-opacity="0.5019607843137255"></polygon>,<polygon points="4,86 0,72 0,90" fill="rgb(22,59,50)" fill-opacity="0.5019607843137255"></polygon>,<polygon points="141,306 129,315 129,307" fill="rgb(0,30,20)" fill-opacity="0.5019607843137255"></polygon>,<polygon points="426,271 440,256 475,272" fill="rgb(24,76,44)" fill-opacity="0.5019607843137255"></polygon>,<polygon points="21,95 5,58 49,115" fill="rgb(124,147,138)" fill-opacity="0.5019607843137255"></polygon>,<polygon points="273,81 469,6 435,98" fill="rgb(227,228,230)" fill-opacity="0.5019607843137255"></polygon>,<polygon points="154,242 154,235 168,255" fill="rgb(63,112,81)" fill-opacity="0.5019607843137255"></polygon>,<polygon points="394,208 361,228 391,233" fill="rgb(11,60,46)" fill-opacity="0.5019607843137255"></polygon>,<polygon points="514,280 535,302 535,278" fill="rgb(6,27,15)" fill-opacity="0.5019607843137255"></polygon>,<polygon points="89,340 89,359 102,355" fill="rgb(61,118,78)" fill-opacity="0.5019607843137255"></polygon>,<polygon points="298,355 310,355 312,339" fill="rgb(0,17,8)" fill-opacity="0.5019607843137255"></polygon>,<polygon points="533,264 508,254 535,252" fill="rgb(29,81,45)" fill-opacity="0.5019607843137255"></polygon>,<polygon points="265,340 273,342 282,324" fill="rgb(100,149,82)" fill-opacity="0.5019607843137255"></polygon>,<polygon points="72,315 86,316 70,318" fill="rgb(117,163,116)" fill-opacity="0.5019607843137255"></polygon>,<polygon points="312,327 352,290 305,298" fill="rgb(6,40,28)" fill-opacity="0.5019607843137255"></polygon>,<polygon points="363,265 425,308 410,286" fill="rgb(35,74,48)" fill-opacity="0.5019607843137255"></polygon>,<polygon points="18,200 0,209 27,212" fill="rgb(46,98,69)" fill-opacity="0.5019607843137255"></polygon>,<polygon points="181,333 138,327 145,355" fill="rgb(0,15,10)" fill-opacity="0.5019607843137255"></polygon>,<polygon points="457,290 475,288 525,212" fill="rgb(1,27,17)" fill-opacity="0.5019607843137255"></polygon>,<polygon points="406,116 386,151 409,182" fill="rgb(135,155,143)" fill-opacity="0.5019607843137255"></polygon>,<polygon points="209,281 218,310 200,325" fill="rgb(50,94,60)" fill-opacity="0.5019607843137255"></polygon>,<polygon points="177,314 197,295 194,291" fill="rgb(100,137,90)" fill-opacity="0.5019607843137255"></polygon>,<polygon points="34,249 107,263 137,229" fill="rgb(6,32,24)" fill-opacity="0.5019607843137255"></polygon>,<polygon points="107,227 108,245 82,234" fill="rgb(36,85,62)" fill-opacity="0.5019607843137255"></polygon>,<polygon points="535,133 535,99 525,119" fill="rgb(47,95,85)" fill-opacity="0.5019607843137255"></polygon>,<polygon points="0,127 44,124 52,148" fill="rgb(13,56,44)" fill-opacity="0.5019607843137255"></polygon>,<polygon points="535,100 535,80 529,78" fill="rgb(0,29,27)" fill-opacity="0.5019607843137255"></polygon>,<polygon points="61,197 80,145 114,185" fill="rgb(32,77,62)" fill-opacity="0.5019607843137255"></polygon>,<polygon points="82,280 120,262 74,260" fill="rgb(0,17,12)" fill-opacity="0.5019607843137255"></polygon>,<polygon points="408,106 391,132 430,136" fill="rgb(158,172,165)" fill-opacity="0.5019607843137255"></polygon>,<polygon points="76,353 73,355 59,355" fill="rgb(105,154,103)" fill-opacity="0.5019607843137255"></polygon>,<polygon points="110,129 90,127 127,159" fill="rgb(115,140,128)" fill-opacity="0.5019607843137255"></polygon>,<polygon points="300,248 284,246 291,206" fill="rgb(16,57,43)" fill-opacity="0.5019607843137255"></polygon>,<polygon points="303,317 283,302 281,308" fill="rgb(113,147,87)" fill-opacity="0.5019607843137255"></polygon>,<polygon points="188,177 215,261 168,177" fill="rgb(43,88,71)" fill-opacity="0.5019607843137255"></polygon>,<polygon points="54,225 32,214 46,208" fill="rgb(54,104,79)" fill-opacity="0.5019607843137255"></polygon>,<polygon points="252,279 231,298 254,314" fill="rgb(23,68,50)" fill-opacity="0.5019607843137255"></polygon>,<polygon points="62,348 64,353 67,347" fill="rgb(61,118,81)" fill-opacity="0.5019607843137255"></polygon>,<polygon points="140,234 150,243 139,218" fill="rgb(28,80,58)" fill-opacity="0.5019607843137255"></polygon>,<polygon points="104,77 135,92 111,126" fill="rgb(175,186,183)" fill-opacity="0.5019607843137255"></polygon>,<polygon points="342,258 318,277 321,266" fill="rgb(116,154,105)" fill-opacity="0.5019607843137255"></polygon>,<polygon points="163,295 177,305 155,298" fill="rgb(77,124,85)" fill-opacity="0.5019607843137255"></polygon>,<polygon points="299,285 307,252 355,239" fill="rgb(12,50,39)" fill-opacity="0.5019607843137255"></polygon>,<polygon points="322,290 309,284 289,313" fill="rgb(27,71,53)" fill-opacity="0.5019607843137255"></polygon>,<polygon points="470,243 463,232 451,245" fill="rgb(62,112,82)" fill-opacity="0.5019607843137255"></polygon>,<polygon points="505,118 488,79 468,82" fill="rgb(68,107,93)" fill-opacity="0.5019607843137255"></polygon>,<polygon points="357,334 360,355 363,328" fill="rgb(116,161,93)" fill-opacity="0.5019607843137255"></polygon>,<polygon points="458,127 413,86 462,118" fill="rgb(190,198,194)" fill-opacity="0.5019607843137255"></polygon>,<polygon points="103,339 122,344 117,324" fill="rgb(57,112,69)" fill-opacity="0.5019607843137255"></polygon>,<polygon points="94,214 50,199 70,254" fill="rgb(4,39,29)" fill-opacity="0.5019607843137255"></polygon>,<polygon points="355,355 342,348 343,355" fill="rgb(6,47,34)" fill-opacity="0.5019607843137255"></polygon>,<polygon points="294,335 267,354 264,346" fill="rgb(0,42,22)" fill-opacity="0.5019607843137255"></polygon>,<polygon points="507,172 486,182 482,189" fill="rgb(76,132,89)" fill-opacity="0.5019607843137255"></polygon>,<polygon points="409,274 437,274 403,283" fill="rgb(49,90,55)" fill-opacity="0.5019607843137255"></polygon>,<polygon points="330,338 297,344 299,337" fill="rgb(54,103,59)" fill-opacity="0.5019607843137255"></polygon>,<polygon points="174,338 161,353 213,342" fill="rgb(54,103,63)" fill-opacity="0.5019607843137255"></polygon>,<polygon points="293,167 274,159 266,192" fill="rgb(194,200,197)" fill-opacity="0.5019607843137255"></polygon>,<polygon points="456,325 470,311 480,319" fill="rgb(1,44,25)" fill-opacity="0.5019607843137255"></polygon>,<polygon points="474,146 481,151 477,142" fill="rgb(56,101,77)" fill-opacity="0.5019607843137255"></polygon>,<polygon points="395,300 396,295 420,288" fill="rgb(0,3,2)" fill-opacity="0.5019607843137255"></polygon>,<polygon points="42,92 0,49 43,54" fill="rgb(188,197,195)" fill-opacity="0.5019607843137255"></polygon>,<polygon points="132,0 346,0 223,58" fill="rgb(249,250,249)" fill-opacity="0.5019607843137255"></polygon>,<polygon points="62,166 53,177 43,168" fill="rgb(84,129,96)" fill-opacity="0.5019607843137255"></polygon>,<polygon points="179,170 234,184 214,192" fill="rgb(141,158,148)" fill-opacity="0.5019607843137255"></polygon>,<polygon points="437,251 412,272 418,254" fill="rgb(25,88,48)" fill-opacity="0.5019607843137255"></polygon>,<polygon points="86,330 82,310 76,303" fill="rgb(9,36,24)" fill-opacity="0.5019607843137255"></polygon>,<polygon points="81,324 64,315 67,329" fill="rgb(15,60,38)" fill-opacity="0.5019607843137255"></polygon>,<polygon points="530,308 475,341 484,321" fill="rgb(3,34,18)" fill-opacity="0.5019607843137255"></polygon>,<polygon points="244,242 192,220 172,236" fill="rgb(46,87,70)" fill-opacity="0.5019607843137255"></polygon>,<polygon points="281,290 300,285 256,260" fill="rgb(3,39,32)" fill-opacity="0.5019607843137255"></polygon>,<polygon points="58,229 84,236 101,275" fill="rgb(1,15,11)" fill-opacity="0.5019607843137255"></polygon>,<polygon points="309,323 310,302 277,355" fill="rgb(30,72,45)" fill-opacity="0.5019607843137255"></polygon>,<polygon points="240,260 266,212 260,201" fill="rgb(84,115,100)" fill-opacity="0.5019607843137255"></polygon>,<polygon points="234,309 211,315 234,320" fill="rgb(49,103,59)" fill-opacity="0.5019607843137255"></polygon>,<polygon points="396,218 387,249 394,242" fill="rgb(86,130,94)" fill-opacity="0.5019607843137255"></polygon>,<polygon points="455,291 454,274 426,314" fill="rgb(0,14,8)" fill-opacity="0.5019607843137255"></polygon>,<polygon points="79,141 60,123 60,99" fill="rgb(119,143,131)" fill-opacity="0.5019607843137255"></polygon>,<polygon points="1,140 21,120 37,175" fill="rgb(19,69,50)" fill-opacity="0.5019607843137255"></polygon>,<polygon points="293,162 383,151 334,186" fill="rgb(159,173,164)" fill-opacity="0.5019607843137255"></polygon>,<polygon points="121,275 122,290 163,291" fill="rgb(0,26,18)" fill-opacity="0.5019607843137255"></polygon>,<polygon points="379,325 378,296 358,316" fill="rgb(40,89,60)" fill-opacity="0.5019607843137255"></polygon>,<polygon points="483,49 337,150 535,27" fill="rgb(198,204,204)" fill-opacity="0.5019607843137255"></polygon>,<polygon points="347,232 355,223 334,225" fill="rgb(74,114,91)" fill-opacity="0.5019607843137255"></polygon>,<polygon points="416,259 399,244 409,266" fill="rgb(0,44,25)" fill-opacity="0.5019607843137255"></polygon>,<polygon points="471,203 478,203 486,147" fill="rgb(0,33,26)" fill-opacity="0.5019607843137255"></polygon>,<polygon points="181,295 167,335 164,262" fill="rgb(26,75,47)" fill-opacity="0.5019607843137255"></polygon>,<polygon points="412,293 407,287 407,320" fill="rgb(49,93,66)" fill-opacity="0.5019607843137255"></polygon>,<polygon points="170,317 142,318 167,348" fill="rgb(1,39,26)" fill-opacity="0.5019607843137255"></polygon>,<polygon points="383,191 369,165 415,169" fill="rgb(91,123,109)" fill-opacity="0.5019607843137255"></polygon>,<polygon points="401,242 417,256 417,247" fill="rgb(33,88,55)" fill-opacity="0.5019607843137255"></polygon>,<polygon points="90,287 121,313 90,313" fill="rgb(17,60,38)" fill-opacity="0.5019607843137255"></polygon>,<polygon points="187,347 186,306 184,317" fill="rgb(76,122,73)" fill-opacity="0.5019607843137255"></polygon>,<polygon points="134,355 102,342 137,336" fill="rgb(22,72,47)" fill-opacity="0.5019607843137255"></polygon>,<polygon points="535,122 495,142 505,100" fill="rgb(17,60,50)" fill-opacity="0.5019607843137255"></polygon>,<polygon points="452,198 455,221 471,202" fill="rgb(22,65,51)" fill-opacity="0.5019607843137255"></polygon>,<polygon points="142,177 126,104 120,136" fill="rgb(141,161,149)" fill-opacity="0.5019607843137255"></polygon>,<polygon points="252,152 133,114 133,91" fill="rgb(190,198,196)" fill-opacity="0.5019607843137255"></polygon>,<polygon points="513,182 514,211 531,209" fill="rgb(37,87,64)" fill-opacity="0.5019607843137255"></polygon>,<polygon points="96,217 82,230 111,230" fill="rgb(56,101,75)" fill-opacity="0.5019607843137255"></polygon>,<polygon points="485,308 522,307 494,320" fill="rgb(49,106,54)" fill-opacity="0.5019607843137255"></polygon>,<polygon points="181,306 143,337 146,312" fill="rgb(15,61,41)" fill-opacity="0.5019607843137255"></polygon>,<polygon points="144,175 150,155 171,193" fill="rgb(63,102,88)" fill-opacity="0.5019607843137255"></polygon>,<polygon points="421,158 418,188 404,198" fill="rgb(67,120,95)" fill-opacity="0.5019607843137255"></polygon>,<polygon points="422,243 405,232 463,204" fill="rgb(23,69,50)" fill-opacity="0.5019607843137255"></polygon>,<polygon points="316,129 318,197 267,203" fill="rgb(167,180,173)" fill-opacity="0.5019607843137255"></polygon>,<polygon points="473,291 457,310 457,297" fill="rgb(78,127,82)" fill-opacity="0.5019607843137255"></polygon>,<polygon points="259,263 242,253 224,265" fill="rgb(65,111,81)" fill-opacity="0.5019607843137255"></polygon>,<polygon points="313,95 368,0 471,0" fill="rgb(232,233,233)" fill-opacity="0.5019607843137255"></polygon>,<polygon points="417,187 436,191 396,207" fill="rgb(16,62,48)" fill-opacity="0.5019607843137255"></polygon>,<polygon points="311,209 354,173 344,199" fill="rgb(88,121,104)" fill-opacity="0.5019607843137255"></polygon>,<polygon points="120,199 136,201 133,164" fill="rgb(63,103,86)" fill-opacity="0.5019607843137255"></polygon>,<polygon points="159,302 169,307 159,322" fill="rgb(1,42,27)" fill-opacity="0.5019607843137255"></polygon>,<polygon points="451,169 474,205 508,144" fill="rgb(9,45,34)" fill-opacity="0.5019607843137255"></polygon>,<polygon points="197,295 172,281 180,237" fill="rgb(0,23,17)" fill-opacity="0.5019607843137255"></polygon>,<polygon points="54,318 32,315 59,355" fill="rgb(0,6,4)" fill-opacity="0.5019607843137255"></polygon>,<polygon points="518,293 521,331 490,355" fill="rgb(17,63,36)" fill-opacity="0.5019607843137255"></polygon>,<polygon points="65,321 74,305 49,326" fill="rgb(0,24,14)" fill-opacity="0.5019607843137255"></polygon>,<polygon points="261,354 252,355 206,331" fill="rgb(10,45,26)" fill-opacity="0.5019607843137255"></polygon>,<polygon points="486,293 500,297 523,291" fill="rgb(91,132,80)" fill-opacity="0.5019607843137255"></polygon>,<polygon points="200,332 198,349 188,337" fill="rgb(1,39,18)" fill-opacity="0.5019607843137255"></polygon>,<polygon points="278,355 276,348 266,355" fill="rgb(112,148,102)" fill-opacity="0.5019607843137255"></polygon>,<polygon points="315,201 328,176 333,212" fill="rgb(66,103,88)" fill-opacity="0.5019607843137255"></polygon>,<polygon points="497,332 445,337 478,355" fill="rgb(19,63,39)" fill-opacity="0.5019607843137255"></polygon>,<polygon points="244,248 250,270 254,246" fill="rgb(33,74,62)" fill-opacity="0.5019607843137255"></polygon>,<polygon points="224,284 223,296 233,279" fill="rgb(8,49,35)" fill-opacity="0.5019607843137255"></polygon>,<polygon points="446,103 490,97 479,114" fill="rgb(121,147,134)" fill-opacity="0.5019607843137255"></polygon>,<polygon points="212,135 223,191 177,154" fill="rgb(165,177,170)" fill-opacity="0.5019607843137255"></polygon>,<polygon points="459,289 470,263 451,268" fill="rgb(33,81,52)" fill-opacity="0.5019607843137255"></polygon>,<polygon points="406,343 413,355 415,316" fill="rgb(0,25,15)" fill-opacity="0.5019607843137255"></polygon>,<polygon points="210,297 205,301 200,304" fill="rgb(146,178,126)" fill-opacity="0.5019607843137255"></polygon>,<polygon points="368,329 380,290 390,290" fill="rgb(7,44,27)" fill-opacity="0.5019607843137255"></polygon>,<polygon points="413,339 412,319 424,328" fill="rgb(3,20,13)" fill-opacity="0.5019607843137255"></polygon>,<polygon points="214,300 222,311 233,291" fill="rgb(110,143,104)" fill-opacity="0.5019607843137255"></polygon>,<polygon points="424,329 432,328 408,347" fill="rgb(71,120,70)" fill-opacity="0.5019607843137255"></polygon>,<polygon points="298,324 291,335 282,327" fill="rgb(2,38,20)" fill-opacity="0.5019607843137255"></polygon>,<polygon points="199,215 143,248 148,212" fill="rgb(7,52,38)" fill-opacity="0.5019607843137255"></polygon>,<polygon points="42,92 11,82 48,120" fill="rgb(122,145,135)" fill-opacity="0.5019607843137255"></polygon>,<polygon points="465,207 485,200 491,210" fill="rgb(79,120,83)" fill-opacity="0.5019607843137255"></polygon>,<polygon points="139,232 244,247 227,264" fill="rgb(19,60,46)" fill-opacity="0.5019607843137255"></polygon>,<polygon points="17,205 58,239 50,286" fill="rgb(10,51,35)" fill-opacity="0.5019607843137255"></polygon>,<polygon points="382,216 424,229 376,187" fill="rgb(42,90,71)" fill-opacity="0.5019607843137255"></polygon>,<polygon points="107,289 130,298 137,305" fill="rgb(100,150,111)" fill-opacity="0.5019607843137255"></polygon>,<polygon points="276,90 21,0 161,104" fill="rgb(226,225,229)" fill-opacity="0.5019607843137255"></polygon>,<polygon points="51,227 32,206 74,288" fill="rgb(20,62,44)" fill-opacity="0.5019607843137255"></polygon>,<polygon points="141,138 52,63 91,114" fill="rgb(178,188,184)" fill-opacity="0.5019607843137255"></polygon>,<polygon points="535,67 452,79 535,50" fill="rgb(130,151,142)" fill-opacity="0.5019607843137255"></polygon>,<polygon points="413,282 438,261 384,299" fill="rgb(9,45,25)" fill-opacity="0.5019607843137255"></polygon>,<polygon points="269,251 271,274 304,240" fill="rgb(38,81,64)" fill-opacity="0.5019607843137255"></polygon>,<polygon points="297,243 311,215 312,252" fill="rgb(22,63,50)" fill-opacity="0.5019607843137255"></polygon>,<polygon points="428,195 461,215 435,205" fill="rgb(95,132,100)" fill-opacity="0.5019607843137255"></polygon>,<polygon points="315,199 309,214 317,228" fill="rgb(99,131,111)" fill-opacity="0.5019607843137255"></polygon>,<polygon points="121,196 124,178 116,183" fill="rgb(130,158,133)" fill-opacity="0.5019607843137255"></polygon>,<polygon points="64,221 52,228 64,252" fill="rgb(0,23,17)" fill-opacity="0.5019607843137255"></polygon>,<polygon points="518,245 535,253 535,215" fill="rgb(0,12,9)" fill-opacity="0.5019607843137255"></polygon>]</svg>