<svg xmlns="http://www.w3.org/2000/svg" baseProfile="tiny" version="1.2" viewBox="0 0 536 356"><defs/>[<path fill="#677F73" d="M0 0h535v355H0z"/>,<path fill-opacity=".5" d="M0 355l535-1L0 100z"/>,<path fill="#FFF" fill-opacity=".5" d="M262 238L535 0H0z"/>,<path fill="#001200" fill-opacity=".5" d="M535 80L216 303l319 52z"/>,<path fill="#FFF" fill-opacity=".5" d="M535 0L80 161 0 0z"/>,<path fill="#000100" fill-opacity=".5" d="M92 355H0V98z"/>,<path fill="#EFEDF2" fill-opacity=".5" d="M149 125l297 13L535 5z"/>,<path fill="#ECEAF2" fill-opacity=".5" d="M0 3l83 68-73 13z"/>,<path fill="#335D4C" fill-opacity=".5" d="M494 65l-48 26 23 40z"/>,<path fill="#FCF8FC" fill-opacity=".5" d="M0 0l535 64V0z"/>,<path fill="#002C18" fill-opacity=".5" d="M535 283V69L378 341z"/>,<path fill="#7E968A" fill-opacity=".5" d="M249 241l201-111-280 31z"/>,<path fill="#003B21" fill-opacity=".5" d="M121 355l-7-228L0 166z"/>,<path fill="#408851" fill-opacity=".5" d="M320 308l16-61-100 108z"/>,<path fill="#0D4920" fill-opacity=".5" d="M535 255v100H361z"/>,<path fill="#083E2A" fill-opacity=".5" d="M435 349L0 250l374-59z"/>,<path fill="#A9C0B3" fill-opacity=".5" d="M440 109l5 42 15-5z"/>,<path fill="#5B9758" fill-opacity=".5" d="M440 243l22 24-47-17z"/>,<path fill="#5D904B" fill-opacity=".5" d="M279 313l55 42-46-57z"/>,<path fill="#879F94" fill-opacity=".5" d="M159 86L0 104l175 85z"/>,<path fill="#07451E" fill-opacity=".5" d="M49 355h214L133 255z"/>,<path fill="#3B6D40" fill-opacity=".5" d="M531 311l-77-9 29-27z"/>,<path fill="#A7B6AE" fill-opacity=".5" d="M432 119l-143 4 123 66z"/>,<path fill="#346854" fill-opacity=".5" d="M261 200l10 81L0 116z"/>,<path fill="#52865A" fill-opacity=".5" d="M237 310l21-53-90 63z"/>,<path fill="#4D7F57" fill-opacity=".5" d="M142 317l-47-46-16 24z"/>,<path fill="#245243" fill-opacity=".5" d="M457 94l24-14 33 23z"/>,<path fill="#508D61" fill-opacity=".5" d="M385 259l37-61-35 39z"/>,<path fill="#000703" fill-opacity=".5" d="M361 326l-30 6 15-56z"/>,<path fill="#307138" fill-opacity=".5" d="M240 355l53-35 157 35z"/>,<path fill="#000D06" fill-opacity=".5" d="M164 270l39 29 6-66z"/>,<path fill="#002D16" fill-opacity=".5" d="M290 323l26 32h-38z"/>,<path fill="#000C08" fill-opacity=".5" d="M535 241l-73 51 26-85z"/>,<path fill="#889D94" fill-opacity=".5" d="M439 93l96-29-22-27z"/>,<path fill="#B7BFBD" fill-opacity=".5" d="M378 186L0 30l30 71z"/>,<path fill="#00251B" fill-opacity=".5" d="M217 292l20-48-45 12z"/>,<path fill="#000907" fill-opacity=".5" d="M172 312l-7 40-50-6z"/>,<path fill="#BAC1BC" fill-opacity=".5" d="M267 221l-20-93 160 6z"/>,<path fill="#053D2E" fill-opacity=".5" d="M415 201l16-77 36 56z"/>,<path fill="#00281E" fill-opacity=".5" d="M445 183l90-17-70-52z"/>,<path fill="#A5B2AB" fill-opacity=".5" d="M237 159l-89-52-20 53z"/>,<path fill="#55936B" fill-opacity=".5" d="M423 206l38-24-22 42z"/>,<path fill="#4F7966" fill-opacity=".5" d="M406 197l31-62-63 35z"/>,<path fill="#000B05" fill-opacity=".5" d="M535 298v57h-39z"/>,<path fill="#669658" fill-opacity=".5" d="M365 331l30 24-81-23z"/>,<path fill="#407244" fill-opacity=".5" d="M417 355l25-46 39 21z"/>,<path fill="#579849" fill-opacity=".5" d="M225 322l29-13 9 41z"/>,<path fill="#001A0F" fill-opacity=".5" d="M0 283l66-78 70 77z"/>,<path fill="#3F7055" fill-opacity=".5" d="M495 215l-45-36-7 20z"/>,<path fill="#012A1B" fill-opacity=".5" d="M464 212l-107 44-4 62z"/>,<path fill="#748D7E" fill-opacity=".5" d="M247 221l21 19-22 10z"/>,<path fill="#000700" fill-opacity=".5" d="M93 348l-93 7V238z"/>,<path fill="#032B17" fill-opacity=".5" d="M486 292l19 34-44 22z"/>,<path fill="#577F54" fill-opacity=".5" d="M164 318l30-24 45 3z"/>,<path fill="#437A5B" fill-opacity=".5" d="M63 184l7-13-51-23z"/>,<path fill="#2A5738" fill-opacity=".5" d="M416 293l-65 17 59 13z"/>,<path fill="#6A8375" fill-opacity=".5" d="M228 230l-9-46 35 5z"/>,<path fill="#D2D5D9" fill-opacity=".5" d="M452 82L441 0h94z"/>,<path fill="#D6D8DE" fill-opacity=".5" d="M122 73L0 55V0z"/>,<path fill="#598677" fill-opacity=".5" d="M515 99l20-21-60 44z"/>,<path fill="#F9F5F8" fill-opacity=".5" d="M234 102L22 0h442z"/>,<path fill="#16503D" fill-opacity=".5" d="M86 181L0 144V64z"/>,<path fill="#26764B" fill-opacity=".5" d="M0 226l33-21-28-4z"/>,<path fill="#00100A" fill-opacity=".5" d="M255 288l8 43 30-44z"/>,<path fill="#99AA9E" fill-opacity=".5" d="M317 206l-22 7 3-69z"/>,<path fill="#053326" fill-opacity=".5" d="M479 113l-22 15 16 89z"/>,<path fill="#A1AFA8" fill-opacity=".5" d="M240 182L83 69l-45 37z"/>,<path fill="#E6E5E8" fill-opacity=".5" d="M121 94L476 0l-68 106z"/>,<path fill="#022A1D" fill-opacity=".5" d="M0 172l121 29 87 102z"/>,<path fill="#5C855F" fill-opacity=".5" d="M275 324l28-43 66-44z"/>,<path fill="#06352A" fill-opacity=".5" d="M496 113l-48 101 87-123z"/>,<path fill="#9AADA3" fill-opacity=".5" d="M493 100l-36 1-10 31z"/>,<path fill="#AAB7AE" fill-opacity=".5" d="M464 112l-62-13 49 49z"/>,<path fill="#5F7F72" fill-opacity=".5" d="M18 115l76 33L1 63z"/>,<path fill="#2A5645" fill-opacity=".5" d="M342 280l-79-62 142-35z"/>,<path fill="#738C83" fill-opacity=".5" d="M511 61l24 16V37z"/>,<path fill="#053022" fill-opacity=".5" d="M95 236l84-47 49 101z"/>,<path fill="#3A6E5A" fill-opacity=".5" d="M510 195l25-27v41z"/>,<path fill="#D4D7DB" fill-opacity=".5" d="M535 0v37L424 52z"/>,<path fill="#4B7C43" fill-opacity=".5" d="M465 349l-45-18 10 15z"/>,<path fill="#89A897" fill-opacity=".5" d="M488 130l-1-31-11 7z"/>,<path fill="#134032" fill-opacity=".5" d="M120 178l2-26 11 4z"/>,<path fill="#4C7362" fill-opacity=".5" d="M313 198l59 7 29-35z"/>,<path fill="#567F6B" fill-opacity=".5" d="M156 158l2 39-57-13z"/>,<path fill="#174134" fill-opacity=".5" d="M210 202l15 20-22 38z"/>,<path fill="#97A79D" fill-opacity=".5" d="M285 181l83-37 10 40z"/>,<path fill="#658273" fill-opacity=".5" d="M328 212l-49-18 20 24z"/>,<path fill="#407952" fill-opacity=".5" d="M125 321l30-9 12-20z"/>,<path fill="#032116" fill-opacity=".5" d="M402 338l83-117-33 92z"/>,<path fill="#A0B0A9" fill-opacity=".5" d="M8 69l45 54 37-40z"/>,<path fill="#2A7446" fill-opacity=".5" d="M99 318l-30-34v41z"/>,<path fill="#00150E" fill-opacity=".5" d="M525 316l-4-111 22 33z"/>,<path fill="#2E6449" fill-opacity=".5" d="M461 220l-12-20-61 38z"/>,<path fill="#061C16" fill-opacity=".5" d="M135 294l-59-37 78-28z"/>,<path fill="#38693C" fill-opacity=".5" d="M520 289h-55l70 22z"/>,<path fill="#54884D" fill-opacity=".5" d="M395 260l40 22h-22z"/>,<path fill="#3F7154" fill-opacity=".5" d="M110 242l-32-20 21-1z"/>,<path fill="#3C6D41" fill-opacity=".5" d="M490 307l-72 30 42-29z"/>,<path fill="#3E714B" fill-opacity=".5" d="M174 299l2 56h14z"/>,<path fill="#48794D" fill-opacity=".5" d="M193 355h-29v-10z"/>,<path fill="#D5D7D8" fill-opacity=".5" d="M250 152l137-58-273-9z"/>,<path fill="#356042" fill-opacity=".5" d="M131 284l32-51 2 46z"/>,<path fill="#466F5E" fill-opacity=".5" d="M435 128l20 33-25 7z"/>,<path fill="#133D2F" fill-opacity=".5" d="M274 217l-18 51 117-14z"/>,<path fill="#11432B" fill-opacity=".5" d="M74 261L6 197l80 129z"/>,<path fill="#4D7D56" fill-opacity=".5" d="M112 279l-18 17 42 7z"/>,<path fill="#6C897A" fill-opacity=".5" d="M343 170l42 21-24 3z"/>,<path fill="#57836D" fill-opacity=".5" d="M92 159l41 55-1-32z"/>,<path fill="#2A5543" fill-opacity=".5" d="M217 294l23-86 16 85z"/>,<path fill="#899D92" fill-opacity=".5" d="M195 182l-42-24 49-10z"/>,<path fill="#9CABA3" fill-opacity=".5" d="M108 73l-7 69-23-7z"/>,<path fill="#022816" fill-opacity=".5" d="M503 340l32 15h-88z"/>,<path fill="#002516" fill-opacity=".5" d="M386 355l71-26-55 26z"/>,<path fill="#4A7061" fill-opacity=".5" d="M87 179l7 8 23-56z"/>,<path fill="#000F0A" fill-opacity=".5" d="M453 255l41 24 24-33z"/>,<path fill="#03291E" fill-opacity=".5" d="M234 297l33 27-21-38z"/>,<path fill="#001B15" fill-opacity=".5" d="M157 248l-23 13 29-2z"/>,<path fill="#4F7B57" fill-opacity=".5" d="M492 202l-32 1 13 9z"/>,<path fill="#628F4B" fill-opacity=".5" d="M275 337l-45-22 27-1z"/>,<path fill="#3B6D4E" fill-opacity=".5" d="M105 289l-10-16-26 26z"/>,<path fill="#5E835C" fill-opacity=".5" d="M200 285l38 12-9 19z"/>,<path fill="#164E3D" fill-opacity=".5" d="M140 183l20 31-37 5z"/>,<path fill="#A8B5AF" fill-opacity=".5" d="M386 153L494 51l-136 84z"/>,<path fill="#022212" fill-opacity=".5" d="M298 317l13 11 50 3z"/>,<path fill="#00160C" fill-opacity=".5" d="M0 315l73 35-8-85z"/>,<path fill="#00150E" fill-opacity=".5" d="M42 207L0 126v70z"/>,<path fill="#91A195" fill-opacity=".5" d="M240 204l61-14-35 33z"/>,<path fill="#80948A" fill-opacity=".5" d="M216 165l51 50-29-55z"/>,<path fill="#4D804F" fill-opacity=".5" d="M123 320l-11-21 25 17z"/>,<path fill="#497260" fill-opacity=".5" d="M282 250l-35-12 35 23z"/>,<path fill="#577E49" fill-opacity=".5" d="M450 319l12 11-27-7z"/>,<path fill="#001811" fill-opacity=".5" d="M171 285l32-34v45z"/>,<path fill="#467055" fill-opacity=".5" d="M445 182l30 28-15-23z"/>,<path fill="#4F7C5D" fill-opacity=".5" d="M362 322l10-22-4 24z"/>,<path fill="#000C07" fill-opacity=".5" d="M403 332l-22-1 17-27z"/>,<path fill="#4A7847" fill-opacity=".5" d="M401 267l43 5-36 8z"/>,<path fill="#000301" fill-opacity=".5" d="M0 355v-84l49 84z"/>,<path fill="#F0E7E6" fill-opacity=".5" d="M320 320l-3 33v2z"/>,<path fill="#2B5746" fill-opacity=".5" d="M47 160l14-36 16 13z"/>,<path fill="#3E6F4F" fill-opacity=".5" d="M387 241l13 1-19 30z"/>,<path fill="#57825D" fill-opacity=".5" d="M294 290l1 10 18-26z"/>,<path fill="#0F4935" fill-opacity=".5" d="M417 227l-30-46 41 27z"/>,<path fill="#5B8761" fill-opacity=".5" d="M431 219l17-26-26 6z"/>,<path fill="#001C12" fill-opacity=".5" d="M192 283l-2 12-55 60z"/>,<path fill="#1F4839" fill-opacity=".5" d="M315 273l6-52 12-11z"/>,<path fill="#3C7153" fill-opacity=".5" d="M408 193l6 42-23-17z"/>,<path fill="#1A463B" fill-opacity=".5" d="M98 150l39 22-13 6z"/>,<path fill="#031E14" fill-opacity=".5" d="M369 282l28-27 17 7z"/>,<path fill="#0A2D17" fill-opacity=".5" d="M188 355l15-47 36 47z"/>,<path fill="#001E19" fill-opacity=".5" d="M525 170l-19-1 17 18z"/>,<path fill="#5A8466" fill-opacity=".5" d="M362 214l-10 49 11-27z"/>,<path fill="#407652" fill-opacity=".5" d="M29 141l10 23 2-19z"/>,<path fill="#002013" fill-opacity=".5" d="M0 260l19-50 40 101z"/>,<path fill="#416655" fill-opacity=".5" d="M317 229l-10-33-13 34z"/>,<path fill="#437652" fill-opacity=".5" d="M69 302l17 8-13-24z"/>,<path fill="#0D3629" fill-opacity=".5" d="M535 138l-108 56 47-73z"/>,<path fill="#21593E" fill-opacity=".5" d="M507 176l-21 34v-50z"/>,<path fill="#295144" fill-opacity=".5" d="M458 88l52 20-27-23z"/>,<path fill="#336750" fill-opacity=".5" d="M145 213l-34-29 10 25z"/>,<path fill="#4D7F4F" fill-opacity=".5" d="M464 241l-53 7 8 10z"/>,<path fill="#A1C077" fill-opacity=".5" d="M433 246l3 1-12-1z"/>,<path fill="#608070" fill-opacity=".5" d="M149 194l37-21-60-24z"/>,<path fill="#041E15" fill-opacity=".5" d="M338 283l69-6-36-18z"/>,<path fill="#25573F" fill-opacity=".5" d="M129 256l-15-13 8 31z"/>,<path fill="#052718" fill-opacity=".5" d="M434 286l19 42-48-46z"/>,<path fill="#D4D5DA" fill-opacity=".5" d="M89 0H0v52z"/>,<path fill="#ACB7B0" fill-opacity=".5" d="M427 145l14-57-23 62z"/>,<path fill="#94A59E" fill-opacity=".5" d="M489 74l-12-21 58 3z"/>,<path fill="#275830" fill-opacity=".5" d="M251 320l45 35-55-27z"/>,<path fill="#427344" fill-opacity=".5" d="M391 337l-21-11-36 17z"/>,<path fill="#001F10" fill-opacity=".5" d="M151 334l43-5 16 4z"/>,<path fill="#032017" fill-opacity=".5" d="M142 274l27 15-57-50z"/>,<path fill="#053A23" fill-opacity=".5" d="M0 256l24 7-24-62z"/>,<path fill="#042921" fill-opacity=".5" d="M424 220l40 33-36-12z"/>,<path fill="#021A11" fill-opacity=".5" d="M356 300l-33 35 36-9z"/>,<path fill="#10392D" fill-opacity=".5" d="M300 254l23 25-74-23z"/>,<path fill="#254B42" fill-opacity=".5" d="M10 78L0 76v43z"/>,<path fill="#2D5D44" fill-opacity=".5" d="M107 262l-4-42-16-4z"/>,<path fill="#083B1A" fill-opacity=".5" d="M243 309l-23 3-18 34z"/>,<path fill="#1E4D34" fill-opacity=".5" d="M71 247l-15 32 24-27z"/>,<path fill="#052B1E" fill-opacity=".5" d="M524 209l-68 10 74 83z"/>,<path fill="#002519" fill-opacity=".5" d="M421 196l29-4-25-41z"/>,<path fill="#608D5D" fill-opacity=".5" d="M271 351l-5 4 30-2z"/>,<path fill="#1B482D" fill-opacity=".5" d="M427 308l12 14 23-29z"/>,<path fill="#073024" fill-opacity=".5" d="M388 243l-34 26 16-46z"/>,<path fill="#5B7F6C" fill-opacity=".5" d="M535 187l-5-11 5-1z"/>,<path fill="#04251C" fill-opacity=".5" d="M66 197l-39 20 2-59z"/>,<path fill="#71976D" fill-opacity=".5" d="M409 220l5 8-22 2z"/>,<path fill="#184331" fill-opacity=".5" d="M438 198l30-85-17 75z"/>,<path fill="#346841" fill-opacity=".5" d="M347 340l49 15h-76z"/>,<path fill="#C7CCCC" fill-opacity=".5" d="M342 103l23 40-45 8z"/>,<path fill="#00160F" fill-opacity=".5" d="M249 312l21-26 6 38z"/>,<path fill="#668E53" fill-opacity=".5" d="M268 344l-32-9 13-2z"/>,<path fill="#325B4A" fill-opacity=".5" d="M319 243l29-59 39 22z"/>,<path fill="#B2BDB6" fill-opacity=".5" d="M187 117l-21 37-41-8z"/>,<path fill="#04271A" fill-opacity=".5" d="M31 342l89 13-40-30z"/>,<path fill="#5D7D6F" fill-opacity=".5" d="M465 107l-18-7 26-18z"/>,<path fill="#163B32" fill-opacity=".5" d="M4 86L0 72v18z"/>,<path fill="#001E14" fill-opacity=".5" d="M141 306l-12 9v-8z"/>,<path fill="#184C2C" fill-opacity=".5" d="M426 271l14-15 35 16z"/>,<path fill="#7C938A" fill-opacity=".5" d="M21 95L5 58l44 57z"/>,<path fill="#E3E4E6" fill-opacity=".5" d="M273 81L469 6l-34 92z"/>,<path fill="#3F7051" fill-opacity=".5" d="M154 242v-7l14 20z"/>,<path fill="#0B3C2E" fill-opacity=".5" d="M394 208l-33 20 30 5z"/>,<path fill="#061B0F" fill-opacity=".5" d="M514 280l21 22v-24z"/>,<path fill="#3D764E" fill-opacity=".5" d="M89 340v19l13-4z"/>,<path fill="#001108" fill-opacity=".5" d="M298 355h12l2-16z"/>,<path fill="#1D512D" fill-opacity=".5" d="M533 264l-25-10 27-2z"/>,<path fill="#649552" fill-opacity=".5" d="M265 340l8 2 9-18z"/>,<path fill="#75A374" fill-opacity=".5" d="M72 315l14 1-16 2z"/>,<path fill="#06281C" fill-opacity=".5" d="M312 327l40-37-47 8z"/>,<path fill="#234A30" fill-opacity=".5" d="M363 265l62 43-15-22z"/>,<path fill="#2E6245" fill-opacity=".5" d="M18 200l-18 9 27 3z"/>,<path fill="#000F0A" fill-opacity=".5" d="M181 333l-43-6 7 28z"/>,<path fill="#011B11" fill-opacity=".5" d="M457 290l18-2 50-76z"/>,<path fill="#879B8F" fill-opacity=".5" d="M406 116l-20 35 23 31z"/>,<path fill="#325E3C" fill-opacity=".5" d="M209 281l9 29-18 15z"/>,<path fill="#64895A" fill-opacity=".5" d="M177 314l20-19-3-4z"/>,<path fill="#062018" fill-opacity=".5" d="M34 249l73 14 30-34z"/>,<path fill="#24553E" fill-opacity=".5" d="M107 227l1 18-26-11z"/>,<path fill="#2F5F55" fill-opacity=".5" d="M535 133V99l-10 20z"/>,<path fill="#0D382C" fill-opacity=".5" d="M0 127l44-3 8 24z"/>,<path fill="#001D1B" fill-opacity=".5" d="M535 100V80l-6-2z"/>,<path fill="#204D3E" fill-opacity=".5" d="M61 197l19-52 34 40z"/>,<path fill="#00110C" fill-opacity=".5" d="M82 280l38-18-46-2z"/>,<path fill="#9EACA5" fill-opacity=".5" d="M408 106l-17 26 39 4z"/>,<path fill="#699A67" fill-opacity=".5" d="M76 353l-3 2H59z"/>,<path fill="#738C80" fill-opacity=".5" d="M110 129l-20-2 37 32z"/>,<path fill="#10392B" fill-opacity=".5" d="M300 248l-16-2 7-40z"/>,<path fill="#719357" fill-opacity=".5" d="M303 317l-20-15-2 6z"/>,<path fill="#2B5847" fill-opacity=".5" d="M188 177l27 84-47-84z"/>,<path fill="#36684F" fill-opacity=".5" d="M54 225l-22-11 14-6z"/>,<path fill="#174432" fill-opacity=".5" d="M252 279l-21 19 23 16z"/>,<path fill="#3D7651" fill-opacity=".5" d="M62 348l2 5 3-6z"/>,<path fill="#1C503A" fill-opacity=".5" d="M140 234l10 9-11-25z"/>,<path fill="#AFBAB7" fill-opacity=".5" d="M104 77l31 15-24 34z"/>,<path fill="#749A69" fill-opacity=".5" d="M342 258l-24 19 3-11z"/>,<path fill="#4D7C55" fill-opacity=".5" d="M163 295l14 10-22-7z"/>,<path fill="#0C3227" fill-opacity=".5" d="M299 285l8-33 48-13z"/>,<path fill="#1B4735" fill-opacity=".5" d="M322 290l-13-6-20 29z"/>,<path fill="#3E7052" fill-opacity=".5" d="M470 243l-7-11-12 13z"/>,<path fill="#446B5D" fill-opacity=".5" d="M505 118l-17-39-20 3z"/>,<path fill="#74A15D" fill-opacity=".5" d="M357 334l3 21 3-27z"/>,<path fill="#BEC6C2" fill-opacity=".5" d="M458 127l-45-41 49 32z"/>,<path fill="#397045" fill-opacity=".5" d="M103 339l19 5-5-20z"/>,<path fill="#04271D" fill-opacity=".5" d="M94 214l-44-15 20 55z"/>,<path fill="#062F22" fill-opacity=".5" d="M355 355l-13-7 1 7z"/>,<path fill="#002A16" fill-opacity=".5" d="M294 335l-27 19-3-8z"/>,<path fill="#4C8459" fill-opacity=".5" d="M507 172l-21 10-4 7z"/>,<path fill="#315A37" fill-opacity=".5" d="M409 274h28l-34 9z"/>,<path fill="#36673B" fill-opacity=".5" d="M330 338l-33 6 2-7z"/>,<path fill="#36673F" fill-opacity=".5" d="M174 338l-13 15 52-11z"/>,<path fill="#C2C8C5" fill-opacity=".5" d="M293 167l-19-8-8 33z"/>,<path fill="#012C19" fill-opacity=".5" d="M456 325l14-14 10 8z"/>,<path fill="#38654D" fill-opacity=".5" d="M474 146l7 5-4-9z"/>,<path fill="#000302" fill-opacity=".5" d="M395 300l1-5 24-7z"/>,<path fill="#BCC5C3" fill-opacity=".5" d="M42 92L0 49l43 5z"/>,<path fill="#F9FAF9" fill-opacity=".5" d="M132 0h214L223 58z"/>,<path fill="#548160" fill-opacity=".5" d="M62 166l-9 11-10-9z"/>,<path fill="#8D9E94" fill-opacity=".5" d="M179 170l55 14-20 8z"/>,<path fill="#195830" fill-opacity=".5" d="M437 251l-25 21 6-18z"/>,<path fill="#092418" fill-opacity=".5" d="M86 330l-4-20-6-7z"/>,<path fill="#0F3C26" fill-opacity=".5" d="M81 324l-17-9 3 14z"/>,<path fill="#032212" fill-opacity=".5" d="M530 308l-55 33 9-20z"/>,<path fill="#2E5746" fill-opacity=".5" d="M244 242l-52-22-20 16z"/>,<path fill="#032720" fill-opacity=".5" d="M281 290l19-5-44-25z"/>,<path fill="#010F0B" fill-opacity=".5" d="M58 229l26 7 17 39z"/>,<path fill="#1E482D" fill-opacity=".5" d="M309 323l1-21-33 53z"/>,<path fill="#547364" fill-opacity=".5" d="M240 260l26-48-6-11z"/>,<path fill="#31673B" fill-opacity=".5" d="M234 309l-23 6 23 5z"/>,<path fill="#56825E" fill-opacity=".5" d="M396 218l-9 31 7-7z"/>,<path fill="#000E08" fill-opacity=".5" d="M455 291l-1-17-28 40z"/>,<path fill="#778F83" fill-opacity=".5" d="M79 141l-19-18V99z"/>,<path fill="#134532" fill-opacity=".5" d="M1 140l20-20 16 55z"/>,<path fill="#9FADA4" fill-opacity=".5" d="M293 162l90-11-49 35z"/>,<path fill="#001A12" fill-opacity=".5" d="M121 275l1 15 41 1z"/>,<path fill="#28593C" fill-opacity=".5" d="M379 325l-1-29-20 20z"/>,<path fill="#C6CCCC" fill-opacity=".5" d="M483 49L337 150 535 27z"/>,<path fill="#4A725B" fill-opacity=".5" d="M347 232l8-9-21 2z"/>,<path fill="#002C19" fill-opacity=".5" d="M416 259l-17-15 10 22z"/>,<path fill="#00211A" fill-opacity=".5" d="M471 203h7l8-56z"/>,<path fill="#1A4B2F" fill-opacity=".5" d="M181 295l-14 40-3-73z"/>,<path fill="#315D42" fill-opacity=".5" d="M412 293l-5-6v33z"/>,<path fill="#01271A" fill-opacity=".5" d="M170 317l-28 1 25 30z"/>,<path fill="#5B7B6D" fill-opacity=".5" d="M383 191l-14-26 46 4z"/>,<path fill="#215837" fill-opacity=".5" d="M401 242l16 14v-9z"/>,<path fill="#113C26" fill-opacity=".5" d="M90 287l31 26H90z"/>,<path fill="#4C7A49" fill-opacity=".5" d="M187 347l-1-41-2 11z"/>,<path fill="#16482F" fill-opacity=".5" d="M134 355l-32-13 35-6z"/>,<path fill="#113C32" fill-opacity=".5" d="M535 122l-40 20 10-42z"/>,<path fill="#164133" fill-opacity=".5" d="M452 198l3 23 16-19z"/>,<path fill="#8DA195" fill-opacity=".5" d="M142 177l-16-73-6 32z"/>,<path fill="#BEC6C4" fill-opacity=".5" d="M252 152l-119-38V91z"/>,<path fill="#255740" fill-opacity=".5" d="M513 182l1 29 17-2z"/>,<path fill="#38654B" fill-opacity=".5" d="M96 217l-14 13h29z"/>,<path fill="#316A36" fill-opacity=".5" d="M485 308l37-1-28 13z"/>,<path fill="#0F3D29" fill-opacity=".5" d="M181 306l-38 31 3-25z"/>,<path fill="#3F6658" fill-opacity=".5" d="M144 175l6-20 21 38z"/>,<path fill="#43785F" fill-opacity=".5" d="M421 158l-3 30-14 10z"/>,<path fill="#174532" fill-opacity=".5" d="M422 243l-17-11 58-28z"/>,<path fill="#A7B4AD" fill-opacity=".5" d="M316 129l2 68-51 6z"/>,<path fill="#4E7F52" fill-opacity=".5" d="M473 291l-16 19v-13z"/>,<path fill="#416F51" fill-opacity=".5" d="M259 263l-17-10-18 12z"/>,<path fill="#E8E9E9" fill-opacity=".5" d="M313 95l55-95h103z"/>,<path fill="#103E30" fill-opacity=".5" d="M417 187l19 4-40 16z"/>,<path fill="#587968" fill-opacity=".5" d="M311 209l43-36-10 26z"/>,<path fill="#3F6756" fill-opacity=".5" d="M120 199l16 2-3-37z"/>,<path fill="#012A1B" fill-opacity=".5" d="M159 302l10 5-10 15z"/>,<path fill="#092D22" fill-opacity=".5" d="M451 169l23 36 34-61z"/>,<path fill="#001711" fill-opacity=".5" d="M197 295l-25-14 8-44z"/>,<path fill="#000604" fill-opacity=".5" d="M54 318l-22-3 27 40z"/>,<path fill="#113F24" fill-opacity=".5" d="M518 293l3 38-31 24z"/>,<path fill="#00180E" fill-opacity=".5" d="M65 321l9-16-25 21z"/>,<path fill="#0A2D1A" fill-opacity=".5" d="M261 354l-9 1-46-24z"/>,<path fill="#5B8450" fill-opacity=".5" d="M486 293l14 4 23-6z"/>,<path fill="#012712" fill-opacity=".5" d="M200 332l-2 17-10-12z"/>,<path fill="#709466" fill-opacity=".5" d="M278 355l-2-7-10 7z"/>,<path fill="#426758" fill-opacity=".5" d="M315 201l13-25 5 36z"/>,<path fill="#133F27" fill-opacity=".5" d="M497 332l-52 5 33 18z"/>,<path fill="#214A3E" fill-opacity=".5" d="M244 248l6 22 4-24z"/>,<path fill="#083123" fill-opacity=".5" d="M224 284l-1 12 10-17z"/>,<path fill="#799386" fill-opacity=".5" d="M446 103l44-6-11 17z"/>,<path fill="#A5B1AA" fill-opacity=".5" d="M212 135l11 56-46-37z"/>,<path fill="#215134" fill-opacity=".5" d="M459 289l11-26-19 5z"/>,<path fill="#00190F" fill-opacity=".5" d="M406 343l7 12 2-39z"/>,<path fill="#92B27E" fill-opacity=".5" d="M210 297l-5 4-5 3z"/>,<path fill="#072C1B" fill-opacity=".5" d="M368 329l12-39h10z"/>,<path fill="#03140D" fill-opacity=".5" d="M413 339l-1-20 12 9z"/>,<path fill="#6E8F68" fill-opacity=".5" d="M214 300l8 11 11-20z"/>,<path fill="#477846" fill-opacity=".5" d="M424 329l8-1-24 19z"/>,<path fill="#022614" fill-opacity=".5" d="M298 324l-7 11-9-8z"/>,<path fill="#073426" fill-opacity=".5" d="M199 215l-56 33 5-36z"/>,<path fill="#7A9187" fill-opacity=".5" d="M42 92L11 82l37 38z"/>,<path fill="#4F7853" fill-opacity=".5" d="M465 207l20-7 6 10z"/>,<path fill="#133C2E" fill-opacity=".5" d="M139 232l105 15-17 17z"/>,<path fill="#0A3323" fill-opacity=".5" d="M17 205l41 34-8 47z"/>,<path fill="#2A5A47" fill-opacity=".5" d="M382 216l42 13-48-42z"/>,<path fill="#64966F" fill-opacity=".5" d="M107 289l23 9 7 7z"/>,<path fill="#E2E1E5" fill-opacity=".5" d="M276 90L21 0l140 104z"/>,<path fill="#143E2C" fill-opacity=".5" d="M51 227l-19-21 42 82z"/>,<path fill="#B2BCB8" fill-opacity=".5" d="M141 138L52 63l39 51z"/>,<path fill="#82978E" fill-opacity=".5" d="M535 67l-83 12 83-29z"/>,<path fill="#092D19" fill-opacity=".5" d="M413 282l25-21-54 38z"/>,<path fill="#265140" fill-opacity=".5" d="M269 251l2 23 33-34z"/>,<path fill="#163F32" fill-opacity=".5" d="M297 243l14-28 1 37z"/>,<path fill="#5F8464" fill-opacity=".5" d="M428 195l33 20-26-10z"/>,<path fill="#63836F" fill-opacity=".5" d="M315 199l-6 15 8 14z"/>,<path fill="#829E85" fill-opacity=".5" d="M121 196l3-18-8 5z"/>,<path fill="#001711" fill-opacity=".5" d="M64 221l-12 7 12 24z"/>,<path fill="#000C09" fill-opacity=".5" d="M518 245l17 8v-38z"/>]</svg>