<svg xmlns="http://www.w3.org/2000/svg" baseProfile="tiny" version="1.2" viewBox="0 0 479 304"><defs/>[<path fill="#767D5D" d="M0 0h479v304H0z"/>,<path fill="#005559" fill-opacity=".5" d="M292 0L0 304V0z"/>,<path fill="#F0D3B4" fill-opacity=".5" d="M230 71l-95 139 192 33z"/>,<path fill="#CD9753" fill-opacity=".5" d="M479 304V0L161 156z"/>,<path fill="#5A6B57" fill-opacity=".5" d="M289 141L171 45 283 0z"/>,<path fill="#0A5655" fill-opacity=".5" d="M140 161l32 143H0z"/>,<path fill="#B3874A" fill-opacity=".5" d="M473 304H232l46-108z"/>,<path fill="#DFD3BC" fill-opacity=".5" d="M270 222l-129 8 134-96z"/>,<path fill="#857348" fill-opacity=".5" d="M301 193l-78 60 94-19z"/>,<path fill="#486454" fill-opacity=".5" d="M240 240l-67 64-29-77z"/>,<path fill="#C19454" fill-opacity=".5" d="M305 0l-3 292L456 0z"/>,<path fill="#D2CDB1" fill-opacity=".5" d="M149 204l10 29 37-6z"/>,<path fill="#0C5956" fill-opacity=".5" d="M0 0h118L0 163z"/>,<path fill="#ACAC99" fill-opacity=".5" d="M318 201L199 86l-44 97z"/>,<path fill="#FDFFFA" fill-opacity=".5" d="M261 125l-24-32 40 65z"/>,<path fill="#505B4B" fill-opacity=".5" d="M273 146l-17-34 32 29z"/>,<path fill="#55715B" fill-opacity=".5" d="M291 0L79 104l159-11z"/>,<path fill="#FFFEEB" fill-opacity=".5" d="M341 150l-11 2 12 6z"/>,<path fill="#9A824A" fill-opacity=".5" d="M479 0v304L355 0z"/>,<path fill="#8C7B49" fill-opacity=".5" d="M479 304v-96l-114 43z"/>,<path fill="#FFF6D7" fill-opacity=".5" d="M204 219l42 10 26-16z"/>,<path fill="#53725E" fill-opacity=".5" d="M199 76l-79 191-66-138z"/>,<path fill="#526350" fill-opacity=".5" d="M138 253l121-24-59-6z"/>,<path fill="#506F5C" fill-opacity=".5" d="M156 130L97 96l46 208z"/>,<path fill="#F5E3C4" fill-opacity=".5" d="M184 232l-16-3 32-10z"/>,<path fill="#DDBE99" fill-opacity=".5" d="M284 159l-19-20-10 76z"/>,<path fill="#927D50" fill-opacity=".5" d="M270 67l30 147L322 0z"/>,<path fill="#B29F79" fill-opacity=".5" d="M266 154l-27 54-54 15z"/>,<path fill="#A2A489" fill-opacity=".5" d="M147 201l52-111 67 48z"/>,<path fill="#BF9C5E" fill-opacity=".5" d="M318 0l16 142 41-123z"/>,<path fill="#235B53" fill-opacity=".5" d="M0 304h93L0 119z"/>,<path fill="#536F5A" fill-opacity=".5" d="M207 245l-69-23 18 82z"/>,<path fill="#2D6B60" fill-opacity=".5" d="M186 0L0 160 79 0z"/>,<path fill="#AD8B55" fill-opacity=".5" d="M333 304l-60-95L479 49z"/>,<path fill="#FEF1D7" fill-opacity=".5" d="M201 208l-51 19 60-33z"/>,<path fill="#A0A089" fill-opacity=".5" d="M188 109l79 41-16-37z"/>,<path fill="#887D57" fill-opacity=".5" d="M299 217l-73 87 53-107z"/>,<path fill="#CDC09D" fill-opacity=".5" d="M210 95l-52 88 23-62z"/>,<path fill="#6F6B4B" fill-opacity=".5" d="M242 0h74l-5 38z"/>,<path fill="#DCC9B2" fill-opacity=".5" d="M289 171l-19 30h23z"/>,<path fill="#0D5958" fill-opacity=".5" d="M0 61L93 0H0z"/>,<path fill="#BDA077" fill-opacity=".5" d="M254 208l31-41v21z"/>,<path fill="#576F5A" fill-opacity=".5" d="M233 95l46-95-97 94z"/>,<path fill="#4C3840" fill-opacity=".5" d="M333 147l-6 8-5-13z"/>,<path fill="#C4BA9A" fill-opacity=".5" d="M157 206l43-39 11 36z"/>,<path fill="#C9AB81" fill-opacity=".5" d="M327 80l13-5-5 33z"/>,<path fill="#677157" fill-opacity=".5" d="M294 0l-58 87 37 54z"/>,<path fill="#777452" fill-opacity=".5" d="M229 225l31 79h-83z"/>,<path fill="#56705A" fill-opacity=".5" d="M202 304l-59-90 5 90z"/>,<path fill="#536553" fill-opacity=".5" d="M219 225h-26l-23 15z"/>,<path fill="#7F7659" fill-opacity=".5" d="M279 158l-15-92 27 98z"/>,<path fill="#56705A" fill-opacity=".5" d="M182 123l42-85L83 176z"/>,<path fill="#947D4B" fill-opacity=".5" d="M445 82l34-82v81z"/>,<path fill="#BD945D" fill-opacity=".5" d="M287 202l90-22-58-34z"/>,<path fill="#A18857" fill-opacity=".5" d="M456 260l-166-67-20 111z"/>,<path fill="#4F6D5C" fill-opacity=".5" d="M130 75l41 80-42 53z"/>,<path fill="#EAD2AF" fill-opacity=".5" d="M217 218l46 6 16-28z"/>,<path fill="#A39F85" fill-opacity=".5" d="M242 100l12 60-89 9z"/>,<path fill="#E5D6BA" fill-opacity=".5" d="M223 95l37 27-19-24z"/>,<path fill="#8A9180" fill-opacity=".5" d="M225 164l-4-7-25 26z"/>,<path fill="#BBAF8E" fill-opacity=".5" d="M208 163l19-30-5-16z"/>,<path fill="#47715F" fill-opacity=".5" d="M109 47L52 267 249 0z"/>,<path fill="#E6D4B7" fill-opacity=".5" d="M171 146l2-7 24-39z"/>,<path fill="#DECEB6" fill-opacity=".5" d="M205 179l40-3v-16z"/>,<path fill="#1F685F" fill-opacity=".5" d="M161 0L34 55 54 0z"/>,<path fill="#306055" fill-opacity=".5" d="M72 128L0 192V66z"/>,<path fill="#DFCBB1" fill-opacity=".5" d="M333 160v-16l5 14z"/>,<path fill="#B78D58" fill-opacity=".5" d="M288 146l37-15 7 76z"/>,<path fill="#23574F" fill-opacity=".5" d="M0 233v71h55z"/>,<path fill="#5F745E" fill-opacity=".5" d="M214 47l21 50 27 3z"/>,<path fill="#B2A796" fill-opacity=".5" d="M276 149l-2 8 20 22z"/>,<path fill="#C4B292" fill-opacity=".5" d="M235 164l39 44-92-23z"/>,<path fill="#9E9F81" fill-opacity=".5" d="M220 126l-19-30-52 124z"/>,<path fill="#BE965F" fill-opacity=".5" d="M354 177l-29-68 33-24z"/>,<path fill="#58735D" fill-opacity=".5" d="M184 96l37-3 3-47z"/>,<path fill="#A6A388" fill-opacity=".5" d="M191 183l23-5-8-8z"/>,<path fill="#ADA481" fill-opacity=".5" d="M165 228l51-15 26-30z"/>,<path fill="#847849" fill-opacity=".5" d="M431 304h48v-59z"/>,<path fill="#3A6D5F" fill-opacity=".5" d="M60 65l68 224-115-52z"/>,<path fill="#A58A53" fill-opacity=".5" d="M335 0l130 36-30 242z"/>,<path fill="#948253" fill-opacity=".5" d="M323 88l-41 70L302 5z"/>,<path fill="#546E59" fill-opacity=".5" d="M117 114l97-47-63 105z"/>,<path fill="#877F57" fill-opacity=".5" d="M269 304h-61l58-84z"/>,<path fill="#E4D5B6" fill-opacity=".5" d="M224 95l-20 2 25 7z"/>,<path fill="#E0D1B7" fill-opacity=".5" d="M200 211l6-16 10 5z"/>,<path fill="#DCC49E" fill-opacity=".5" d="M290 194l-66 11 13 18z"/>,<path fill="#B8A789" fill-opacity=".5" d="M269 145l-13 46-11-84z"/>,<path fill="#99804C" fill-opacity=".5" d="M455 237L479 0v214z"/>,<path fill="#356656" fill-opacity=".5" d="M56 227l17 77h50z"/>,<path fill="#9C8859" fill-opacity=".5" d="M376 304l-81-62-37 62z"/>,<path fill="#A3A185" fill-opacity=".5" d="M253 117v36l-19-52z"/>,<path fill="#95987F" fill-opacity=".5" d="M209 134l-1-18-49 76z"/>,<path fill="#FFF" fill-opacity=".5" d="M271 209l-19 16 9-2z"/>,<path fill="#9A8453" fill-opacity=".5" d="M411 83l68-83h-97z"/>,<path fill="#C19E6D" fill-opacity=".5" d="M328 179l14-2-33-7z"/>,<path fill="#86794B" fill-opacity=".5" d="M479 304h-30l30-26z"/>,<path fill="#517678" fill-opacity=".5" d="M334 142l-3 5 15 3z"/>,<path fill="#947D4C" fill-opacity=".5" d="M479 0h-46l26 65z"/>,<path fill="#306458" fill-opacity=".5" d="M52 120l30-74-62 33z"/>,<path fill="#46705F" fill-opacity=".5" d="M139 304L52 173l57-65z"/>,<path fill="#D8BFA2" fill-opacity=".5" d="M273 153l-47 12 50-8z"/>,<path fill="#4F6B59" fill-opacity=".5" d="M155 227l15 7-39-5z"/>,<path fill="#C6AF89" fill-opacity=".5" d="M244 181l-17 23 49-3z"/>,<path fill="#A4874F" fill-opacity=".5" d="M454 236l14-147-142 166z"/>,<path fill="#7E7A55" fill-opacity=".5" d="M302 0l-36 97 25 40z"/>,<path fill="#F1E4CF" fill-opacity=".5" d="M258 220l15-8-14-3z"/>,<path fill="#656F56" fill-opacity=".5" d="M226 89l54 19-47-13z"/>,<path fill="#7A7250" fill-opacity=".5" d="M198 253l74-19-18-10z"/>,<path fill="#A69A82" fill-opacity=".5" d="M242 173l16 6-1-19z"/>,<path fill="#F5E2C3" fill-opacity=".5" d="M258 222l-11 6 21-26z"/>,<path fill="#0F5353" fill-opacity=".5" d="M33 0H0v36z"/>,<path fill="#B28F5A" fill-opacity=".5" d="M318 239l59-59-87-3z"/>,<path fill="#486658" fill-opacity=".5" d="M231 44l46-44h-56z"/>,<path fill="#6A7055" fill-opacity=".5" d="M190 304l59-75-41-6z"/>,<path fill="#BEA581" fill-opacity=".5" d="M260 205l28-20-7-25z"/>,<path fill="#3C6D5E" fill-opacity=".5" d="M104 39l33 39-95 100z"/>,<path fill="#A98D58" fill-opacity=".5" d="M313 70l14 63-4-108z"/>,<path fill="#F3E2C5" fill-opacity=".5" d="M237 97l-38-1 33 2z"/>,<path fill="#F1E5D3" fill-opacity=".5" d="M244 170l-16-8 23 1z"/>,<path fill="#B58E53" fill-opacity=".5" d="M370 122l-32 37 88-15z"/>,<path fill="#B58145" fill-opacity=".5" d="M321 160l-1-15 15 12z"/>,<path fill="#979681" fill-opacity=".5" d="M233 136v22l17-21z"/>,<path fill="#8F856F" fill-opacity=".5" d="M268 133l24 43-38-63z"/>,<path fill="#817752" fill-opacity=".5" d="M227 292l43-70-36 9z"/>,<path fill="#2E6D61" fill-opacity=".5" d="M115 0l16 52-70 8z"/>,<path fill="#F1E9E0" fill-opacity=".5" d="M289 197l3-13-14 16z"/>,<path fill="#BBAE94" fill-opacity=".5" d="M225 170l12-10-10-5z"/>,<path fill="#51705B" fill-opacity=".5" d="M172 51l-67 122 113-93z"/>,<path fill="#FFF1D2" fill-opacity=".5" d="M235 224l1-6 10 12z"/>,<path fill="#727558" fill-opacity=".5" d="M254 112l28-84-5 121z"/>,<path fill="#BEB699" fill-opacity=".5" d="M184 133l-27 43-4 20z"/>,<path fill="#91804E" fill-opacity=".5" d="M479 256l-42 48-11-52z"/>,<path fill="#AC8A53" fill-opacity=".5" d="M389 85l64 55-119 98z"/>,<path fill="#8A7453" fill-opacity=".5" d="M276 143l15 15v-17z"/>,<path fill="#938056" fill-opacity=".5" d="M279 199l17 1-27 103z"/>,<path fill="#A99056" fill-opacity=".5" d="M383 0l-63 28-4-28z"/>,<path fill="#AFAF92" fill-opacity=".5" d="M149 197l6 23 47-27z"/>,<path fill="#D3C7A8" fill-opacity=".5" d="M151 224l42-23 3 5z"/>,<path fill="#607359" fill-opacity=".5" d="M210 273l-41 31-11-14z"/>,<path fill="#D4C5AB" fill-opacity=".5" d="M202 198l35-31 10 2z"/>,<path fill="#C2B28D" fill-opacity=".5" d="M185 190l19-21-12-6z"/>,<path fill="#C4B89E" fill-opacity=".5" d="M174 207l66-25-19-13z"/>,<path fill="#ABA383" fill-opacity=".5" d="M169 190l48-33-7-27z"/>,<path fill="#466955" fill-opacity=".5" d="M152 304l-31-65-10 65z"/>,<path fill="#777554" fill-opacity=".5" d="M202 288l37-59 24-4z"/>,<path fill="#E1C7A2" fill-opacity=".5" d="M272 175l-12 25 9-47z"/>,<path fill="#92957D" fill-opacity=".5" d="M186 157l15-20-10 26z"/>,<path fill="#CEB99F" fill-opacity=".5" d="M271 171l26 20-9-16z"/>,<path fill="#4C6B5B" fill-opacity=".5" d="M100 182l50 8-2 27z"/>,<path fill="#B9A888" fill-opacity=".5" d="M246 171l-22 23 25 10z"/>,<path fill="#A69378" fill-opacity=".5" d="M283 173l3 9-2-22z"/>,<path fill="#C69A84" fill-opacity=".5" d="M318 137l21 6-30-4z"/>,<path fill="#6E6F50" fill-opacity=".5" d="M286 63l-2-63h16z"/>,<path fill="#8D7E54" fill-opacity=".5" d="M277 217l-2 29-30-14z"/>,<path fill="#A28F6C" fill-opacity=".5" d="M272 209l27-18v-2z"/>,<path fill="#A68755" fill-opacity=".5" d="M318 107l-17-9-8 116z"/>,<path fill="#FFFBE7" fill-opacity=".5" d="M241 173l4-9-4-3z"/>,<path fill="#E7B294" fill-opacity=".5" d="M328 160l-4-1 13-1z"/>,<path fill="#BEB28E" fill-opacity=".5" d="M194 141l1-25-13 4z"/>,<path fill="#DAC29E" fill-opacity=".5" d="M271 172l-19 27 3-13z"/>,<path fill="#BE9D6A" fill-opacity=".5" d="M341 88l-14 6 3 30z"/>,<path fill="#3A6E61" fill-opacity=".5" d="M213 3l-87 18-36 61z"/>,<path fill="#5F6D55" fill-opacity=".5" d="M251 36l37-34-2 27z"/>,<path fill="#C9BD9A" fill-opacity=".5" d="M164 196v10l27-24z"/>,<path fill="#727858" fill-opacity=".5" d="M224 251l-4 53h-35z"/>,<path fill="#11123A" fill-opacity=".5" d="M325 146l4 2 6-1z"/>,<path fill="#958353" fill-opacity=".5" d="M321 49l-36 71L318 0z"/>,<path fill="#A4A78C" fill-opacity=".5" d="M151 209l26-7-12 18z"/>,<path fill="#556D59" fill-opacity=".5" d="M142 183l27-91 13 29z"/>,<path fill="#CDC1A2" fill-opacity=".5" d="M174 137l-6 25 29-64z"/>,<path fill="#607660" fill-opacity=".5" d="M203 93l51 4-45-37z"/>,<path fill="#C2AC8B" fill-opacity=".5" d="M267 165l-1-18-29 14z"/>,<path fill="#F2E3C8" fill-opacity=".5" d="M153 224l15 8-13-14z"/>,<path fill="#516D5C" fill-opacity=".5" d="M170 150l-70 29 64-14z"/>,<path fill="#466F5C" fill-opacity=".5" d="M126 67L236 9 88 157z"/>,<path fill="#4F6D58" fill-opacity=".5" d="M174 235l-42 69h34z"/>,<path fill="#1F5852" fill-opacity=".5" d="M0 130l25-88-25-9z"/>,<path fill="#A48B55" fill-opacity=".5" d="M474 108L351 0l23 74z"/>,<path fill="#A88556" fill-opacity=".5" d="M318 133l15-5 16 23z"/>,<path fill="#7C764F" fill-opacity=".5" d="M298 0l-10 55 27-55z"/>,<path fill="#546C59" fill-opacity=".5" d="M250 91L240 5l31 1z"/>,<path fill="#919B85" fill-opacity=".5" d="M156 185l30-27-23 33z"/>,<path fill="#B59162" fill-opacity=".5" d="M313 134l32-13-20-18z"/>,<path fill="#9A8451" fill-opacity=".5" d="M292 298l187-120-44 109z"/>,<path fill="#656C58" fill-opacity=".5" d="M264 125l5-9-25-17z"/>,<path fill="#D1B992" fill-opacity=".5" d="M265 193l-41 10 40 3z"/>,<path fill="#B3A989" fill-opacity=".5" d="M220 151l-21-18 13 26z"/>,<path fill="#B2915D" fill-opacity=".5" d="M301 193l39-15-42 59z"/>,<path fill="#B39459" fill-opacity=".5" d="M326 22l47 45-51 12z"/>,<path fill="#918359" fill-opacity=".5" d="M252 268l29-24-7 60z"/>,<path fill="#E2CEAC" fill-opacity=".5" d="M248 227l16-11-33 1z"/>,<path fill="#5D6E5A" fill-opacity=".5" d="M226 225l-66 21 33-20z"/>,<path fill="#A79673" fill-opacity=".5" d="M275 204l-5 10 3 6z"/>,<path fill="#CFB991" fill-opacity=".5" d="M233 213l-21 1 33 7z"/>,<path fill="#9D8551" fill-opacity=".5" d="M479 76L436 0l6 94z"/>,<path fill="#316559" fill-opacity=".5" d="M49 199L18 80 9 266z"/>,<path fill="#AAA68A" fill-opacity=".5" d="M209 176l-28 22 14-8z"/>,<path fill="#AFA989" fill-opacity=".5" d="M203 125l-22 1-13 50z"/>,<path fill="#D5BC96" fill-opacity=".5" d="M263 188l-23-3 16-3z"/>,<path fill="#506F5D" fill-opacity=".5" d="M95 137l51 67 12-35z"/>,<path fill="#BC995F" fill-opacity=".5" d="M352 96l-21 57 23-49z"/>,<path fill="#ABA187" fill-opacity=".5" d="M257 140l-32 21 20 1z"/>,<path fill="#526D5C" fill-opacity=".5" d="M154 217l-13 25 1-48z"/>,<path fill="#FFFFF9" fill-opacity=".5" d="M213 219l31 5-50-1z"/>,<path fill="#29695E" fill-opacity=".5" d="M96 41l4-30-63 45z"/>,<path fill="#8C8159" fill-opacity=".5" d="M254 254l16 50h-25z"/>,<path fill="#8E7B4B" fill-opacity=".5" d="M479 0l-18 9 18 38z"/>,<path fill="#CBC1A1" fill-opacity=".5" d="M198 96l-13 23 21-23z"/>,<path fill="#978254" fill-opacity=".5" d="M295 233l-25 22 23-60z"/>,<path fill="#9D8755" fill-opacity=".5" d="M318 92l2-54-14 26z"/>,<path fill="#35695B" fill-opacity=".5" d="M61 210l24 82-56-42z"/>,<path fill="#987F58" fill-opacity=".5" d="M280 149l8 18 20-21z"/>,<path fill="#B2A382" fill-opacity=".5" d="M207 204l51-17-37 16z"/>,<path fill="#90804E" fill-opacity=".5" d="M411 304h33l35-63z"/>,<path fill="#145D5A" fill-opacity=".5" d="M69 0H15l18 29z"/>,<path fill="#FEF5DC" fill-opacity=".5" d="M158 222l47-17-52 22z"/>,<path fill="#877D56" fill-opacity=".5" d="M276 91l24-29-18 87z"/>,<path fill="#606C55" fill-opacity=".5" d="M182 271l25-49 22 17z"/>,<path fill="#2C5F53" fill-opacity=".5" d="M36 304h40L0 229z"/>,<path fill="#516F5D" fill-opacity=".5" d="M158 228l28 12-46 19z"/>,<path fill="#A78B59" fill-opacity=".5" d="M299 208l-17 74 65-48z"/>,<path fill="#EEE4D3" fill-opacity=".5" d="M273 153l-26-47 30 45z"/>,<path fill="#A6A689" fill-opacity=".5" d="M211 100l-12-4-5 32z"/>,<path fill="#AB8957" fill-opacity=".5" d="M332 132l17 20-33-22z"/>,<path fill="#BB8F54" fill-opacity=".5" d="M329 174l-27-31 14-8z"/>,<path fill="#5F725B" fill-opacity=".5" d="M268 73l-11-45-15 68z"/>,<path fill="#DFD4C9" fill-opacity=".5" d="M289 190l5-2-7-13z"/>,<path fill="#B2AD8D" fill-opacity=".5" d="M149 194l35-14-28 28z"/>,<path fill="#B99057" fill-opacity=".5" d="M364 101l-28 32 19 44z"/>,<path fill="#A8A084" fill-opacity=".5" d="M259 140l-10-28-5 48z"/>,<path fill="#C5AD8A" fill-opacity=".5" d="M286 175l-16 30 19-16z"/>,<path fill="#B48E56" fill-opacity=".5" d="M377 179l-3-87-35 68z"/>,<path fill="#897D52" fill-opacity=".5" d="M298 34l18-28-3 36z"/>,<path fill="#DAD1BA" fill-opacity=".5" d="M211 184l-15 20-3 7z"/>,<path fill="#B89056" fill-opacity=".5" d="M391 135l-54 40 70-40z"/>,<path fill="#4F6C58" fill-opacity=".5" d="M188 244l-14 21-32-14z"/>,<path fill="#9C8756" fill-opacity=".5" d="M395 161l69-44-32 29z"/>,<path fill="#AE8C52" fill-opacity=".5" d="M479 87l-9 1-34 30z"/>,<path fill="#B7925F" fill-opacity=".5" d="M387 160l-57 28 86-48z"/>,<path fill="#D69170" fill-opacity=".5" d="M275 152l45-14-24 8z"/>,<path fill="#B1AB8A" fill-opacity=".5" d="M160 228l8 4 35-26z"/>,<path fill="#BBAD92" fill-opacity=".5" d="M233 173l-7-10 12 3z"/>,<path fill="#3E665B" fill-opacity=".5" d="M218 24l37-24h-54z"/>,<path fill="#546D58" fill-opacity=".5" d="M247 55l27-55-47 75z"/>,<path fill="#CFB38F" fill-opacity=".5" d="M337 76l-1 3-10 4z"/>,<path fill="#295F57" fill-opacity=".5" d="M9 211l-9 32v-84z"/>,<path fill="#9E8955" fill-opacity=".5" d="M378 0l75 34-94-4z"/>,<path fill="#CBC0A3" fill-opacity=".5" d="M183 127l8-14-14 17z"/>,<path fill="#A78750" fill-opacity=".5" d="M428 177l-42 57-6-81z"/>,<path fill="#949B81" fill-opacity=".5" d="M156 214l-2-11 11 9z"/>,<path fill="#C0975E" fill-opacity=".5" d="M350 168l1-17-28 17z"/>,<path fill="#57715C" fill-opacity=".5" d="M185 59l30 38 7-8z"/>,<path fill="#A0865B" fill-opacity=".5" d="M300 191v27l-12-16z"/>,<path fill="#2D5D54" fill-opacity=".5" d="M27 85L0 203V89z"/>,<path fill="#9B9A80" fill-opacity=".5" d="M193 139l19 22h-11z"/>,<path fill="#AE9058" fill-opacity=".5" d="M373 31l-36 52 40 21z"/>,<path fill="#C0B192" fill-opacity=".5" d="M203 211l31-35 1 9z"/>,<path fill="#AE8A53" fill-opacity=".5" d="M303 145l-3 32 18-39z"/>,<path fill="#9D9E83" fill-opacity=".5" d="M179 184l-20-5 30-28z"/>,<path fill="#9D9D83" fill-opacity=".5" d="M222 139l23-22-17-4z"/>,<path fill="#717053" fill-opacity=".5" d="M225 253l26-23-33-6z"/>,<path fill="#A18652" fill-opacity=".5" d="M291 274l122-29 66-80z"/>,<path fill="#4E715F" fill-opacity=".5" d="M107 119l44 30-43 48z"/>,<path fill="#647F6A" fill-opacity=".5" d="M217 87l8 2-18-27z"/>,<path fill="#AC9258" fill-opacity=".5" d="M345 23l1-23h-25z"/>,<path fill="#999E85" fill-opacity=".5" d="M207 130l-10-28 6-4z"/>,<path fill="#1E6058" fill-opacity=".5" d="M33 59l26-47L5 52z"/>,<path fill="#A28953" fill-opacity=".5" d="M467 82l-82-63 23 100z"/>,<path fill="#F7ECD3" fill-opacity=".5" d="M212 200l-26 14-35 11z"/>,<path fill="#7C7459" fill-opacity=".5" d="M225 227l-20-4 43 6z"/>,<path fill="#978357" fill-opacity=".5" d="M340 274l62 30h-80z"/>,<path fill="#E1CCA8" fill-opacity=".5" d="M256 213l-11 8-9-22z"/>,<path fill="#4F705D" fill-opacity=".5" d="M169 87l74-36-8-27z"/>,<path fill="#B8975C" fill-opacity=".5" d="M340 105l-2-47 18 26z"/>,<path fill="#D4C8AD" fill-opacity=".5" d="M159 221l29-11 26-19z"/>,<path fill="#306358" fill-opacity=".5" d="M16 164L61 62 9 119z"/>,<path fill="#D1BEA0" fill-opacity=".5" d="M236 182l8-10-10 4z"/>,<path fill="#897C58" fill-opacity=".5" d="M267 234l-39-9 12 4z"/>,<path fill="#917F56" fill-opacity=".5" d="M264 232l18-32 10 3z"/>,<path fill="#978351" fill-opacity=".5" d="M443 248l-10 42-67-18z"/>,<path fill="#536E5C" fill-opacity=".5" d="M164 103l-15 95-27-30z"/>,<path fill="#B79360" fill-opacity=".5" d="M343 197l-48-43 9 11z"/>,<path fill="#B5AD8C" fill-opacity=".5" d="M213 98l6 26 10-26z"/>,<path fill="#396254" fill-opacity=".5" d="M81 304v-20l41 20z"/>,<path fill="#2D6357" fill-opacity=".5" d="M0 194l56 69-29 27z"/>,<path fill="#AB803F" fill-opacity=".5" d="M328 150l-11-7 8 13z"/>,<path fill="#3D6F60" fill-opacity=".5" d="M54 246v-96l52 93z"/>,<path fill="#306C60" fill-opacity=".5" d="M96 46l78-46h-39z"/>,<path fill="#1D645C" fill-opacity=".5" d="M57 40L98 0 26 31z"/>,<path fill="#4A6D5C" fill-opacity=".5" d="M163 247l-14 47-20-78z"/>,<path fill="ivory" fill-opacity=".5" d="M203 220l29 3h-24z"/>,<path fill="#AF8E58" fill-opacity=".5" d="M309 233l47-35-53 3z"/>,<path fill="#4B705D" fill-opacity=".5" d="M142 130l19-61-61 67z"/>,<path fill="#CDB48E" fill-opacity=".5" d="M252 202l5-24 4 31z"/>,<path fill="#A4A283" fill-opacity=".5" d="M172 204l10-13-8 8z"/>,<path fill="#3D6856" fill-opacity=".5" d="M115 304l-35-50 50 17z"/>,<path fill="#97824F" fill-opacity=".5" d="M479 221l-47 53 47-104z"/>,<path fill="#B9AE8E" fill-opacity=".5" d="M198 182l2-19-16 36z"/>,<path fill="#426D5C" fill-opacity=".5" d="M80 231l55 50-10-41z"/>,<path fill="#B7AD8F" fill-opacity=".5" d="M231 129l12 2-24 9z"/>]</svg>