<svg xmlns="http://www.w3.org/2000/svg" baseProfile="tiny" version="1.2" viewBox="0 0 752 502"><defs/>[<path fill="#677186" d="M0 0h751v501H0z"/>,<path fill="#FFF" fill-opacity=".5" d="M701 371L751 0 121 96z"/>,<path fill-opacity=".5" d="M0 501V223l751 278z"/>,<path fill="#000500" fill-opacity=".5" d="M0 501h751V285z"/>,<path fill="#6EA0ED" fill-opacity=".5" d="M0 30l446 156L0 302z"/>,<path fill="#004EA3" fill-opacity=".5" d="M115 182L81 92l-40 74z"/>,<path fill="#FFF7E9" fill-opacity=".5" d="M437 350L421 67l330 165z"/>,<path fill="#FFDAD6" fill-opacity=".5" d="M751 20v318L644 38z"/>,<path fill="#0057CB" fill-opacity=".5" d="M0 0l361 133L438 0z"/>,<path fill="#6C3D41" fill-opacity=".5" d="M667 83l-63 44 65 41z"/>,<path fill="#F9D1CA" fill-opacity=".5" d="M0 95l124 115L0 223z"/>,<path fill="#DC8947" fill-opacity=".5" d="M751 239l-37 109-129-82z"/>,<path fill="#004FA5" fill-opacity=".5" d="M130 111l-48 71-59-22z"/>,<path fill="#FFDEDB" fill-opacity=".5" d="M134 140l-51 16 69 17z"/>,<path fill="#C69680" fill-opacity=".5" d="M750 271l-289 24 80 102z"/>,<path fill="#005AB1" fill-opacity=".5" d="M73 212l105 24-167 38z"/>,<path fill="#795E40" fill-opacity=".5" d="M751 330l-155-23 155-39z"/>,<path fill="#CBB6C9" fill-opacity=".5" d="M37 263l11 23 94-27z"/>,<path fill="#EED4D4" fill-opacity=".5" d="M31 186l92-4-5 36z"/>,<path fill="#B5A0C4" fill-opacity=".5" d="M586 339L312 79l95 258z"/>,<path fill="#FFE3D9" fill-opacity=".5" d="M603 377l38-4-20 11z"/>,<path fill="#0E4588" fill-opacity=".5" d="M303 215l266 183-415-108z"/>,<path fill="#F3DBEF" fill-opacity=".5" d="M480 0h202L518 342z"/>,<path fill="#030700" fill-opacity=".5" d="M608 501h143V344z"/>,<path fill="#798AC3" fill-opacity=".5" d="M730 0H352L148 228z"/>,<path fill="#423B19" fill-opacity=".5" d="M612 338l24-13-84-11z"/>,<path fill="#1863B3" fill-opacity=".5" d="M101 0l208 177-198-35z"/>,<path fill="#F8E9F7" fill-opacity=".5" d="M744 434l-30 3 32 3z"/>,<path fill="#003899" fill-opacity=".5" d="M0 52V0h398z"/>,<path fill="#00010F" fill-opacity=".5" d="M0 501h466L0 275z"/>,<path fill="#807A88" fill-opacity=".5" d="M274 345l137 57 26-132z"/>,<path fill="#CBB1C8" fill-opacity=".5" d="M235 103L132 76l-81 46z"/>,<path fill="#FFD6B9" fill-opacity=".5" d="M751 207L505 83l208 209z"/>,<path fill="#2F5CA0" fill-opacity=".5" d="M422 475l4 26-43-42z"/>,<path fill="#0050A4" fill-opacity=".5" d="M123 87L307 0H0z"/>,<path fill="#0052A4" fill-opacity=".5" d="M233 0L0 19l182 71z"/>,<path fill="#BEB8DF" fill-opacity=".5" d="M424 244l-73-1 124 83z"/>,<path fill="#DBBBDC" fill-opacity=".5" d="M108 64l-50-7 29-7z"/>,<path fill="#DFC1CD" fill-opacity=".5" d="M14 36L0 172l62-43z"/>,<path fill="#A57771" fill-opacity=".5" d="M596 157l87-47-1 54z"/>,<path fill="#24250C" fill-opacity=".5" d="M751 345v-30l-141 62z"/>,<path fill="#FCD6DB" fill-opacity=".5" d="M31 261l-18-11 2 14z"/>,<path fill="#004083" fill-opacity=".5" d="M358 237l-254 46 234 31z"/>,<path fill="#7A6A8C" fill-opacity=".5" d="M487 302l-8-47-20 36z"/>,<path fill="#FFFBF6" fill-opacity=".5" d="M331 131l272-6-14 166z"/>,<path fill="#101400" fill-opacity=".5" d="M683 392l-65-10-11 45z"/>,<path fill="#7F6C75" fill-opacity=".5" d="M608 135l61 12-32-66z"/>,<path fill="#8E797E" fill-opacity=".5" d="M604 339l-85 44-118-65z"/>,<path fill="#000200" fill-opacity=".5" d="M601 431l55 37-80-33z"/>,<path fill="#BFAFAE" fill-opacity=".5" d="M641 406l29 15-12 10z"/>,<path fill="#375EA0" fill-opacity=".5" d="M314 211l155 10-276 55z"/>,<path fill="#2E3E4E" fill-opacity=".5" d="M362 346l166 1-6 154z"/>,<path fill="#00111A" fill-opacity=".5" d="M251 347L0 501l36-217z"/>,<path fill="#FFD3A6" fill-opacity=".5" d="M571 216l16 55 164-10z"/>,<path fill="#487BBD" fill-opacity=".5" d="M30 257L0 285l31 20z"/>,<path fill="#9B5E3F" fill-opacity=".5" d="M533 270l110 59-54-42z"/>,<path fill="#EAC9A9" fill-opacity=".5" d="M596 357l38-12 56-1z"/>,<path fill="#FFFCF8" fill-opacity=".5" d="M705 177l-39-7 85-98z"/>,<path fill="#EDD8E7" fill-opacity=".5" d="M190 81l100 33-77-40z"/>,<path fill="#D0B6CD" fill-opacity=".5" d="M107 79l15 28-53-47z"/>,<path fill="#FDE9F3" fill-opacity=".5" d="M679 122l72 24V41z"/>,<path fill="ivory" fill-opacity=".5" d="M535 322l-11-56 63 42z"/>,<path fill="#9589AB" fill-opacity=".5" d="M502 310l-37-89-125 15z"/>,<path fill="#DA8365" fill-opacity=".5" d="M588 166l-3 12 51-16z"/>,<path fill="#CBAA85" fill-opacity=".5" d="M620 339l2 22 38-86z"/>,<path fill="#C5B7CB" fill-opacity=".5" d="M178 110l-45-36-9 47z"/>,<path fill="#ACB6DC" fill-opacity=".5" d="M250 194l-82 82 250-105z"/>,<path fill="#D08966" fill-opacity=".5" d="M656 290l-82-55 42 59z"/>,<path fill="#7D96CE" fill-opacity=".5" d="M245 281l-15 5 9-13z"/>,<path fill="#453359" fill-opacity=".5" d="M663 98l-12-29-6 5z"/>,<path fill="#C9B5CD" fill-opacity=".5" d="M662 0L388 124l125 20z"/>,<path fill="#E7A79C" fill-opacity=".5" d="M751 149v118l-38 1z"/>,<path fill="#2A72BA" fill-opacity=".5" d="M257 174l-73-80-82 163z"/>,<path fill="#003469" fill-opacity=".5" d="M276 297l80-49-64 13z"/>,<path fill="#D8C7D8" fill-opacity=".5" d="M490 177l-140 4 80 39z"/>,<path fill="ivory" fill-opacity=".5" d="M598 172l-101 69h240z"/>,<path fill="#ECD8F5" fill-opacity=".5" d="M415 311l-41-36 47 27z"/>,<path fill="#93A0C5" fill-opacity=".5" d="M717 453l34 4-27 4z"/>,<path fill="#D9AFA3" fill-opacity=".5" d="M581 350l-97-33 63-14z"/>,<path fill="#9C696F" fill-opacity=".5" d="M751 183l-36 26 11-80z"/>,<path fill="#123B78" fill-opacity=".5" d="M391 258l-30 19 33-1z"/>,<path fill="#314278" fill-opacity=".5" d="M382 230l39-13-21-8z"/>,<path fill="#887EA1" fill-opacity=".5" d="M433 216l-5 41 25-6z"/>,<path fill="#9F8B65" fill-opacity=".5" d="M696 377l55-18-105-3z"/>,<path fill="#433B19" fill-opacity=".5" d="M672 324h-28l24-23z"/>,<path fill="#2B3834" fill-opacity=".5" d="M565 370l19 122-113-82z"/>,<path fill="#FFFCFA" fill-opacity=".5" d="M409 160l63-16-54-19z"/>,<path fill="#005FA9" fill-opacity=".5" d="M29 267l-2-43 111 13z"/>,<path fill="#030E00" fill-opacity=".5" d="M650 412l-66 19-33-37z"/>,<path fill="#FFF" fill-opacity=".5" d="M643 330l27-4h-25z"/>,<path fill="#BCB7CF" fill-opacity=".5" d="M357 110l-22 103 119-15z"/>,<path fill="#D2C0D2" fill-opacity=".5" d="M142 127l-7-52v47z"/>,<path fill="#635340" fill-opacity=".5" d="M334 418l-21-3-6-99z"/>,<path fill="#FFFBE3" fill-opacity=".5" d="M602 315l-27-2 25-10z"/>,<path fill="#AEA6C5" fill-opacity=".5" d="M125 192l22 26-68-1z"/>,<path fill="#AFA0BB" fill-opacity=".5" d="M494 328l3-47-139 66z"/>,<path fill="#5D513D" fill-opacity=".5" d="M346 395L201 294l230 81z"/>,<path fill="#1655A4" fill-opacity=".5" d="M66 121l-24-12 48-5z"/>,<path fill="#243232" fill-opacity=".5" d="M131 303l69-37-48 145z"/>,<path fill="#003A95" fill-opacity=".5" d="M31 93l59-14-32-6z"/>,<path fill="#A29685" fill-opacity=".5" d="M724 406l14-9-56-5z"/>,<path fill="#4F4643" fill-opacity=".5" d="M730 338v-65l-30 20z"/>,<path fill="#F2E0EE" fill-opacity=".5" d="M601 426l-11 7 21-5z"/>,<path fill="#5F5B5C" fill-opacity=".5" d="M498 337l-5 50 75 10z"/>,<path fill="#D9B29B" fill-opacity=".5" d="M604 345l8-12-55-1z"/>,<path fill="#000003" fill-opacity=".5" d="M89 476l-79 21 36-46z"/>,<path fill="#5164A5" fill-opacity=".5" d="M27 95V60L0 98z"/>,<path fill="#86697D" fill-opacity=".5" d="M712 157l39 3-26-26z"/>,<path fill="#FFFFFB" fill-opacity=".5" d="M698 268l14-15 24 3z"/>,<path fill="#A18556" fill-opacity=".5" d="M721 276l-63 70 40 3z"/>,<path fill="#DBCAD2" fill-opacity=".5" d="M0 165l71-76-71 23z"/>,<path fill="#003392" fill-opacity=".5" d="M73 55L0 37V0z"/>,<path fill="#B68C84" fill-opacity=".5" d="M696 149l-61-8 11 32z"/>,<path fill="#0058A6" fill-opacity=".5" d="M85 174l-50-10 67-52z"/>,<path fill="#000600" fill-opacity=".5" d="M575 494l45 7 11-71z"/>,<path fill="#FFEFC7" fill-opacity=".5" d="M676 315l-3-8 27-5z"/>,<path fill="#E3BCAB" fill-opacity=".5" d="M610 279l52 20-11 18z"/>,<path fill="#004EAB" fill-opacity=".5" d="M0 233l29 16-29 8z"/>,<path fill="#FFD3C3" fill-opacity=".5" d="M577 259l-91-11 25 48z"/>,<path fill="#FFF9F6" fill-opacity=".5" d="M633 176l-1-22h-12z"/>,<path fill="#888AB7" fill-opacity=".5" d="M0 67l67 65-22-35z"/>,<path fill="#D7C7CB" fill-opacity=".5" d="M549 370l46 7-70-4z"/>,<path fill="#49303A" fill-opacity=".5" d="M603 122l1-11 11 20z"/>,<path fill="#E6D4E2" fill-opacity=".5" d="M417 288l66 41-23-43z"/>,<path fill="#00336C" fill-opacity=".5" d="M345 212l-71 20 48-24z"/>,<path fill="#112739" fill-opacity=".5" d="M24 339l41 9-2-74z"/>,<path fill="#4D5740" fill-opacity=".5" d="M193 443l11-117 7 129z"/>,<path fill="#5A77B6" fill-opacity=".5" d="M305 299l47 56 92-43z"/>,<path fill="#8C88B7" fill-opacity=".5" d="M93 69L23 82l-1-43z"/>,<path fill="#444765" fill-opacity=".5" d="M645 96l-6 15 35-9z"/>,<path fill="#0D1F2B" fill-opacity=".5" d="M142 476l189 8-30-133z"/>,<path fill="#6E704B" fill-opacity=".5" d="M171 382l12 20-2-43z"/>,<path fill="#00132C" fill-opacity=".5" d="M331 450l45-73 169 119z"/>,<path fill="#FFE8F1" fill-opacity=".5" d="M734 362l-15-2 27-1z"/>,<path fill="#EEA139" fill-opacity=".5" d="M500 418l-5-10-22 1z"/>,<path fill="#8A97C9" fill-opacity=".5" d="M299 259l-29 17 8-23z"/>,<path fill="#B4B8CA" fill-opacity=".5" d="M653 469l-28 4 31 2z"/>,<path fill="#EDC9D0" fill-opacity=".5" d="M0 82V56l35-11z"/>,<path fill="#0B1208" fill-opacity=".5" d="M751 496l-104-27-32-65z"/>,<path fill="#FFF1E9" fill-opacity=".5" d="M678 394l8-1 1 4z"/>,<path fill="#505035" fill-opacity=".5" d="M180 323l25-24-1 66z"/>,<path fill="#232019" fill-opacity=".5" d="M267 346l-6-65-10 37z"/>,<path fill="#DECBD4" fill-opacity=".5" d="M153 168l-14-24-53 5z"/>,<path fill="#C5938C" fill-opacity=".5" d="M700 206l38 28 13-49z"/>,<path fill="#F2A280" fill-opacity=".5" d="M677 169l21 1-36 47z"/>,<path fill="#B68363" fill-opacity=".5" d="M616 302l22-25-31-13z"/>,<path fill="#68515A" fill-opacity=".5" d="M690 122l-17 26 4-18z"/>,<path fill="#005EAD" fill-opacity=".5" d="M60 131l98-8 11 27z"/>,<path fill="#216FBC" fill-opacity=".5" d="M22 266L0 308v-53z"/>,<path fill="#403D21" fill-opacity=".5" d="M697 364l-32-37 63 38z"/>,<path fill="#111600" fill-opacity=".5" d="M721 399l-66 11 34 14z"/>,<path fill="#FFAD7E" fill-opacity=".5" d="M571 212l63 40-55-23z"/>,<path fill="#FFFDFC" fill-opacity=".5" d="M532 303l72 12-57-28z"/>,<path fill="#0B468D" fill-opacity=".5" d="M430 477l-35 24h34z"/>,<path fill="#C1B0CE" fill-opacity=".5" d="M751 0L646 76 569 0z"/>,<path fill="#3D381D" fill-opacity=".5" d="M631 377l1-46 41-2z"/>,<path fill="#CBC1BA" fill-opacity=".5" d="M729 328l-21 2v-13z"/>,<path fill="#696538" fill-opacity=".5" d="M577 337l27 45 8-21z"/>,<path fill="#FFD3B9" fill-opacity=".5" d="M667 232l-49-82 107 63z"/>,<path fill="#246EB8" fill-opacity=".5" d="M119 186l79-36-44 57z"/>,<path fill="#A37820" fill-opacity=".5" d="M492 491h37l-38 9z"/>,<path fill="#507DC5" fill-opacity=".5" d="M213 88l-45-1 23-19z"/>,<path fill="#C09A9B" fill-opacity=".5" d="M667 92l7 71 10 11z"/>,<path fill="#C6ABC6" fill-opacity=".5" d="M13 236l38 13-25-1z"/>,<path fill="#0062AB" fill-opacity=".5" d="M129 221l-61 42-3-42z"/>,<path fill="#E8D7E5" fill-opacity=".5" d="M751 107l-91-65 3 59z"/>,<path fill="#2E3841" fill-opacity=".5" d="M445 413l-74-3 20-35z"/>,<path fill="#E0BCC3" fill-opacity=".5" d="M105 257l8-5 21 6z"/>,<path fill="#0F1F0B" fill-opacity=".5" d="M558 372l14 14-35 8z"/>,<path fill="#4570B1" fill-opacity=".5" d="M173 94l55 15-75-6z"/>,<path fill="#FFF" fill-opacity=".5" d="M608 160l-121 33-12-53z"/>,<path fill="#6781B6" fill-opacity=".5" d="M326 234l-23-11-3 39z"/>,<path fill="#002654" fill-opacity=".5" d="M0 297l62 3-44-12z"/>,<path fill="#4C4939" fill-opacity=".5" d="M40 432l-10-32-3 62z"/>,<path fill="#9B8896" fill-opacity=".5" d="M551 338l-17 17 71 2z"/>,<path fill="#FFC19F" fill-opacity=".5" d="M601 285l29-40-55-1z"/>,<path fill="#4076B6" fill-opacity=".5" d="M349 0l-17 108-136-36z"/>,<path fill="#41473F" fill-opacity=".5" d="M151 336l-15-20-11 31z"/>,<path fill="#C2867D" fill-opacity=".5" d="M726 228l25 3-15-13z"/>,<path fill="#FFF" fill-opacity=".5" d="M614 436l11-3-2-4z"/>,<path fill="#2457A2" fill-opacity=".5" d="M58 82L35 50l-6 8z"/>,<path fill="#1B1B07" fill-opacity=".5" d="M699 370l-55 31 96-19z"/>,<path fill="#9093BD" fill-opacity=".5" d="M96 146l-14 32 39-13z"/>,<path fill="#807348" fill-opacity=".5" d="M686 376l-9-15-27 29z"/>,<path fill="#485D91" fill-opacity=".5" d="M381 265l37-49-9 21z"/>,<path fill="#162433" fill-opacity=".5" d="M417 413l-82-35-7 47z"/>,<path fill="#375283" fill-opacity=".5" d="M395 470l27 12-25-28z"/>,<path fill="#EAC5A5" fill-opacity=".5" d="M664 326l-36 2 61 2z"/>,<path fill="#775949" fill-opacity=".5" d="M637 306l-40-11 22 23z"/>,<path fill="#061C30" fill-opacity=".5" d="M497 490l-50-47 73-38z"/>,<path fill="#40415B" fill-opacity=".5" d="M666 116l3-20-12 21z"/>,<path fill="#A19684" fill-opacity=".5" d="M658 400l17 4-33 1z"/>,<path fill="#BFC0DC" fill-opacity=".5" d="M293 210l89 1-58-17z"/>,<path fill="#000001" fill-opacity=".5" d="M751 498l-133 3 133-42z"/>,<path fill="#C37D6C" fill-opacity=".5" d="M598 143v12l36 21z"/>,<path fill="#665E4B" fill-opacity=".5" d="M606 356l-37 26 40-2z"/>,<path fill="#917962" fill-opacity=".5" d="M430 360l-97-4 27 22z"/>,<path fill="#D69B68" fill-opacity=".5" d="M675 264l16 53 24-47z"/>,<path fill="#9B92AF" fill-opacity=".5" d="M43 176l22 61-36-21z"/>,<path fill="#9C741D" fill-opacity=".5" d="M510 492l15-3-14 20z"/>,<path fill="#34362C" fill-opacity=".5" d="M199 328l79 74-52-111z"/>,<path fill="#6A8ABE" fill-opacity=".5" d="M218 106l163 47-151 69z"/>,<path fill="#FFFDF7" fill-opacity=".5" d="M633 144l14 1 2 8z"/>,<path fill="#0A3D71" fill-opacity=".5" d="M334 238l-10 54 56-26z"/>,<path fill="#5C7DC7" fill-opacity=".5" d="M170 283l18-28-82 14z"/>,<path fill="#584F44" fill-opacity=".5" d="M148 397l6-57 9 97z"/>,<path fill="#0B1002" fill-opacity=".5" d="M598 358l71 30-38-31z"/>,<path fill="#05203E" fill-opacity=".5" d="M84 270l-18 65 24-63z"/>,<path fill="#0E150C" fill-opacity=".5" d="M628 334l12 8 51-9z"/>,<path fill="#7A8282" fill-opacity=".5" d="M569 470l10-12-12 8z"/>,<path fill="#191D0A" fill-opacity=".5" d="M658 351l18 9 75-7z"/>,<path fill="#EECBC8" fill-opacity=".5" d="M723 282h-18l-8-10z"/>,<path fill="#FFF6F4" fill-opacity=".5" d="M672 336l-17 15 19-9z"/>,<path fill="#3A4457" fill-opacity=".5" d="M406 378l35-44 78 56z"/>,<path fill="#C4B3C8" fill-opacity=".5" d="M43 59L9 76l-19-8z"/>,<path fill="#EFD7DC" fill-opacity=".5" d="M583 65l59 33-172 67z"/>,<path fill="#EAD5DE" fill-opacity=".5" d="M355 199l115 24 64-38z"/>,<path fill="#8593C8" fill-opacity=".5" d="M474 0l37 53-158 5z"/>,<path fill="#DAC8CE" fill-opacity=".5" d="M52 212l79-12-80-31z"/>,<path fill="#9499C3" fill-opacity=".5" d="M335 105l124 30L494 5z"/>,<path fill="#FFF" fill-opacity=".5" d="M647 345l3 1-22 2z"/>,<path fill="#939FC7" fill-opacity=".5" d="M256 211l125-24-40-60z"/>,<path fill="#1F67AF" fill-opacity=".5" d="M128 173l-54 8 29-15z"/>,<path fill="#FCEAEE" fill-opacity=".5" d="M734 108l17-29v79z"/>,<path fill="#CEC8DC" fill-opacity=".5" d="M250 225l3 16 50-25z"/>,<path fill="#000511" fill-opacity=".5" d="M163 410L0 436V322z"/>,<path fill="#5065A5" fill-opacity=".5" d="M0 110l17-15L0 73z"/>,<path fill="#FFF7DE" fill-opacity=".5" d="M580 170l113 73-75 4z"/>,<path fill="#A19FC5" fill-opacity=".5" d="M120 112L82 48l-18 2z"/>,<path fill="#00388A" fill-opacity=".5" d="M0 0l107 57 32-57z"/>,<path fill="#87989D" fill-opacity=".5" d="M602 462l-43 3 47-1z"/>,<path fill="#8C8362" fill-opacity=".5" d="M751 389l-40 20 40-18z"/>,<path fill="#284E7A" fill-opacity=".5" d="M333 328l-50-5 38 22z"/>,<path fill="#63675F" fill-opacity=".5" d="M673 444l-28-30 16 33z"/>,<path fill="#332F56" fill-opacity=".5" d="M660 81l-1 15-1 1z"/>,<path fill="#003673" fill-opacity=".5" d="M230 274l-25 39-27-45z"/>,<path fill="#C89DA8" fill-opacity=".5" d="M496 234l-4 78-24-86z"/>,<path fill="#89846C" fill-opacity=".5" d="M597 396l35-2-26 12z"/>,<path fill="#FFF" fill-opacity=".5" d="M468 217l136-39-67 84z"/>,<path fill="#6A645F" fill-opacity=".5" d="M544 389l19 8-58-46z"/>,<path fill="#286FB4" fill-opacity=".5" d="M169 85l63-85h173z"/>,<path fill="#020B00" fill-opacity=".5" d="M750 395l1 21-29 27z"/>,<path fill="#6B5536" fill-opacity=".5" d="M278 329l15 4-13 61z"/>,<path fill="#D6BFCA" fill-opacity=".5" d="M90 263l-4 18 22-10z"/>,<path fill="#4679BA" fill-opacity=".5" d="M208 118l-81 112 175-108z"/>,<path fill="#004385" fill-opacity=".5" d="M226 263l54-29-40 11z"/>,<path fill="#F3B08B" fill-opacity=".5" d="M635 283l68-18-48-20z"/>,<path fill="#624F71" fill-opacity=".5" d="M646 85l6 4 5-23z"/>,<path fill="#001D3F" fill-opacity=".5" d="M39 301l2-33-20 63z"/>,<path fill="#555145" fill-opacity=".5" d="M231 435l-14-58 25-40z"/>,<path fill="#0760AA" fill-opacity=".5" d="M67 175l-30-30 93-22z"/>,<path fill="#202B2B" fill-opacity=".5" d="M229 447l6-41-38 64z"/>,<path fill="#656270" fill-opacity=".5" d="M476 333l101 31-59 12z"/>,<path fill="#FFFCFA" fill-opacity=".5" d="M647 178l14 5 28-24z"/>,<path fill="#032036" fill-opacity=".5" d="M1 312l115-39 15 73z"/>,<path fill="#F5D7E1" fill-opacity=".5" d="M657 96l-35-32 22 29z"/>,<path fill="#715D47" fill-opacity=".5" d="M751 288l-70 32 70-6z"/>,<path fill="#8E94C1" fill-opacity=".5" d="M219 119l-12-43-22 3z"/>,<path fill="#BBAABD" fill-opacity=".5" d="M0 216l64-87-51 18z"/>,<path fill="#005CAA" fill-opacity=".5" d="M81 118l66 14-92 12z"/>,<path fill="#005FA7" fill-opacity=".5" d="M78 217l-46-3 83 22z"/>,<path fill="#051929" fill-opacity=".5" d="M157 299L43 362l88-75z"/>,<path fill="#898BB5" fill-opacity=".5" d="M49 173L7 150l13-4z"/>,<path fill="#FFFFFB" fill-opacity=".5" d="M634 268l12-6 8 16z"/>,<path fill="#949BC4" fill-opacity=".5" d="M423 125l-48 16-32-33z"/>,<path fill="#0059A4" fill-opacity=".5" d="M11 237l105 3-103-14z"/>,<path fill="#FCE9E8" fill-opacity=".5" d="M751 126l-61 27-3-52z"/>,<path fill="#08191F" fill-opacity=".5" d="M116 382l116 105-167 8z"/>,<path fill="#4A7CC6" fill-opacity=".5" d="M120 301l-2-31 14-2z"/>,<path fill="#08130E" fill-opacity=".5" d="M634 458l-19-26-29 60z"/>,<path fill="#B398A5" fill-opacity=".5" d="M532 304l-54-31 24 71z"/>,<path fill="#DEC4CA" fill-opacity=".5" d="M687 365l-6 14 20-14z"/>,<path fill="#394040" fill-opacity=".5" d="M45 332l20-19 1 26z"/>,<path fill="#A8A2C5" fill-opacity=".5" d="M93 88l-21 14 40 13z"/>,<path fill="#1C4068" fill-opacity=".5" d="M386 362l8-14-40 5z"/>,<path fill="#ABA4C2" fill-opacity=".5" d="M69 263l-20 1 20 27z"/>,<path fill="#D7B69D" fill-opacity=".5" d="M623 326l8-16 39-13z"/>,<path fill="#000B1D" fill-opacity=".5" d="M496 498l-64-74-23 62z"/>,<path fill="#796273" fill-opacity=".5" d="M747 166l-23-15 24 1z"/>,<path fill="#6F687E" fill-opacity=".5" d="M364 345l95-13 99 21z"/>,<path fill="#4D4736" fill-opacity=".5" d="M271 389l-2-61-57-30z"/>,<path fill="#444619" fill-opacity=".5" d="M621 349l-42-7 17 11z"/>,<path fill="#C47F5A" fill-opacity=".5" d="M644 268l32-9 12 16z"/>,<path fill="#171F0F" fill-opacity=".5" d="M735 368l-15 53 14 19z"/>,<path fill="#FFF4EE" fill-opacity=".5" d="M705 248l-2 16 19-3z"/>,<path fill="#CEC1D7" fill-opacity=".5" d="M260 120l59-5-111-27z"/>,<path fill="#1E2416" fill-opacity=".5" d="M644 414l9-2 33-57z"/>,<path fill="#E0A7A1" fill-opacity=".5" d="M519 261l7-4-53-33z"/>,<path fill="#115CAE" fill-opacity=".5" d="M74 44L63 62 46 40z"/>,<path fill="#0056A1" fill-opacity=".5" d="M50 269l-4 7-46-11z"/>,<path fill="#35619E" fill-opacity=".5" d="M276 247l49-40 29 11z"/>,<path fill="#FFFBF8" fill-opacity=".5" d="M591 302l-48 2 36 8z"/>,<path fill="#FFF3E5" fill-opacity=".5" d="M722 267l29-13v8z"/>,<path fill="#E7BFB3" fill-opacity=".5" d="M558 325v-13l-74 8z"/>,<path fill="#DEBDC8" fill-opacity=".5" d="M62 231l-8 1 2-10z"/>,<path fill="#E8972C" fill-opacity=".5" d="M443 402l4-18-2-5z"/>,<path fill="#131E0B" fill-opacity=".5" d="M611 381l-24 64-3-61z"/>,<path fill="#223242" fill-opacity=".5" d="M552 392l-15 109-14-105z"/>,<path fill="#0E52A2" fill-opacity=".5" d="M70 96h11l-23 19z"/>,<path fill="#BC9153" fill-opacity=".5" d="M659 328l5-5 6 2z"/>,<path fill="#7D5635" fill-opacity=".5" d="M645 301l40-26-3 18z"/>,<path fill="#3F78B7" fill-opacity=".5" d="M99 249l-14 10 30 10z"/>,<path fill="#8E9ACD" fill-opacity=".5" d="M376 262l2-29-28 12z"/>,<path fill="#9C90B0" fill-opacity=".5" d="M37 287l-7-11-30 12z"/>,<path fill="#0B3968" fill-opacity=".5" d="M66 294l92-19-50-3z"/>,<path fill="#E5CCC9" fill-opacity=".5" d="M17 226l21-22-36-6z"/>,<path fill="#748197" fill-opacity=".5" d="M751 461l-14-5h14z"/>,<path fill="#BCAEC7" fill-opacity=".5" d="M27 110l-2-35h19z"/>,<path fill="#FFD2B0" fill-opacity=".5" d="M633 281l-29-61-17 8z"/>,<path fill="#E49A7D" fill-opacity=".5" d="M688 178l-32 7 23 15z"/>,<path fill="#E2CCD3" fill-opacity=".5" d="M715 399l4-3-19-1z"/>,<path fill="#E3C4C7" fill-opacity=".5" d="M41 225l5-4-17-4z"/>,<path fill="#9997A2" fill-opacity=".5" d="M719 438l-3-5 30 8z"/>,<path fill="#3D639E" fill-opacity=".5" d="M281 325l77-45 60 28z"/>,<path fill="#B3AAC8" fill-opacity=".5" d="M528 20L662 7 372 141z"/>,<path fill="#A5929F" fill-opacity=".5" d="M649 419l-2-16-7 16z"/>,<path fill="#E0C5B4" fill-opacity=".5" d="M652 354l7 3-30 1z"/>,<path fill="#5D8ECB" fill-opacity=".5" d="M223 245l1-70-103 76z"/>,<path fill="#575948" fill-opacity=".5" d="M551 421l33-9 9 11z"/>,<path fill="#FEC588" fill-opacity=".5" d="M690 260l-1 50 5-1z"/>,<path fill="#BAAFCB" fill-opacity=".5" d="M199 99l-80-19 11-6z"/>,<path fill="#003E79" fill-opacity=".5" d="M250 298l66-21-69-3z"/>,<path fill="#CDB79A" fill-opacity=".5" d="M535 390l17-2h-27z"/>,<path fill="#212618" fill-opacity=".5" d="M682 355l-5 13 10 4z"/>,<path fill="#B37771" fill-opacity=".5" d="M733 177l-27-3-4 3z"/>,<path fill="#005FAC" fill-opacity=".5" d="M166 88l80-88L87 46z"/>,<path fill="#FFE5C9" fill-opacity=".5" d="M585 176l111 30h-87z"/>,<path fill="#FFFAFF" fill-opacity=".5" d="M734 199l7 3-1-6z"/>,<path fill="#152830" fill-opacity=".5" d="M579 501h-37l1-104z"/>,<path fill="#071323" fill-opacity=".5" d="M266 413l-15-70-13 19z"/>,<path fill="#C9C0DA" fill-opacity=".5" d="M393 273l25 14 7-52z"/>,<path fill="#84696A" fill-opacity=".5" d="M634 160l49-31 4 11z"/>,<path fill="#86887C" fill-opacity=".5" d="M732 437l27-20-10 12z"/>,<path fill="#73746F" fill-opacity=".5" d="M657 438l-39 1 6-8z"/>,<path fill="#594E3F" fill-opacity=".5" d="M609 350l-6-28 28 3z"/>,<path fill="#7188B9" fill-opacity=".5" d="M295 129l152-66-29-63z"/>,<path fill="#444F3E" fill-opacity=".5" d="M110 318l14 4-10 15z"/>,<path fill="#6A595C" fill-opacity=".5" d="M649 124l16 17-15 23z"/>,<path fill="#0A0C08" fill-opacity=".5" d="M709 397l-22-14 64 1z"/>,<path fill="#D0C1CF" fill-opacity=".5" d="M659 418l6 11 8-11z"/>,<path fill="#BAB0D1" fill-opacity=".5" d="M650 1l101 83V0z"/>,<path fill="#564B5A" fill-opacity=".5" d="M625 90l13 16 11 31z"/>,<path fill="#EDDDDE" fill-opacity=".5" d="M285 106l-9 9 30 5z"/>,<path fill="#13191D" fill-opacity=".5" d="M751 319l-26-3 26 44z"/>,<path fill="#FFF" fill-opacity=".5" d="M634 184l-14-6-16 9z"/>,<path fill="#907E95" fill-opacity=".5" d="M498 283l-18 21 12-40z"/>,<path fill="#FFE8E3" fill-opacity=".5" d="M504 280l14 17 49-5z"/>,<path fill="#B5847A" fill-opacity=".5" d="M666 171l-55-51 16 34z"/>,<path fill="#737DB0" fill-opacity=".5" d="M0 85l21-20 15 8z"/>,<path fill="#AE7463" fill-opacity=".5" d="M557 288l23 3-38-24z"/>]</svg>