<svg xmlns="http://www.w3.org/2000/svg" baseProfile="tiny" version="1.2" viewBox="0 0 600 337">
  [
  <path fill="#382B2B" d="M0 0h599v336H0z"/>
  ,
  <path fill="#EF816D" fill-opacity=".5" d="m66 147 502-14-112 101z"/>
  ,
  <path fill="#D5C0BD" fill-opacity=".5" d="M326 128 134 86 46 19z"/>
  ,
  <path fill="#000506" fill-opacity=".5" d="m274 128 108 34-55 10z"/>
  ,
  <path fill="#FF7E75" fill-opacity=".5" d="m42 169 265 24 253-1z"/>
  ,
  <path fill="#1F3942" fill-opacity=".5" d="M361 152 78 47l119 106z"/>
  ,
  <path fill="#0C1309" fill-opacity=".5" d="m401 180 112 17-80-23z"/>
  ,
  <path fill="#FF746A" fill-opacity=".5" d="M287 158 61 143l440 67z"/>
  ,
  <path fill="#FF7975" fill-opacity=".5" d="M410 131 219 14l91 59z"/>
  ,
  <path fill="#FFAF98" fill-opacity=".5" d="m0 9 34 20 84 24z"/>
  ,
  <path fill="#D07263" fill-opacity=".5" d="m324 58 25 2 59 56z"/>
  ,
  <path fill="#06231E" fill-opacity=".5" d="m513 142 47-1-45 40z"/>
  ,
  <path fill="#AB9988" fill-opacity=".5" d="m599 91-37 1-2 88z"/>
  ,
  <path fill="#010C0B" fill-opacity=".5" d="M0 336h599L0 165z"/>
  ,
  <path fill="#000100" fill-opacity=".5" d="M599 175v161H177z"/>
  ,
  <path fill="#FFBA93" fill-opacity=".5" d="m542 41-52 17 12-22z"/>
  ,
  <path fill="#BBA89E" fill-opacity=".5" d="M207 241 15 256l87 3z"/>
  ,
  <path fill="#635B57" fill-opacity=".5" d="M343 182 93 276l297-2z"/>
  ,
  <path fill="#FFDEC4" fill-opacity=".5" d="m530 189-7 21-30-40z"/>
  ,
  <path fill="#5B3126" fill-opacity=".5" d="m324 125 104-18 28 65z"/>
  ,
  <path fill="#FFCDB2" fill-opacity=".5" d="m548 161-6 24 14 14z"/>
  ,
  <path fill="#B4AFA5" fill-opacity=".5" d="m521 89-8 1V78z"/>
  ,
  <path fill-opacity=".5" d="M106 181 0 229l393-31z"/>
  ,
  <path fill="#CE7F64" fill-opacity=".5" d="m203 86 98 55 65-4z"/>
  ,
  <path fill="#000104" fill-opacity=".5" d="m181 141 85 14-34-40z"/>
  ,
  <path fill="#000707" fill-opacity=".5" d="m391 158-27 16 34 6z"/>
  ,
  <path fill="#FED4C1" fill-opacity=".5" d="m284 213 96 10 101-17z"/>
  ,
  <path fill="#A39688" fill-opacity=".5" d="m449 119 49-38-8 67z"/>
  ,
  <path fill="#FFF" fill-opacity=".5" d="m205 212 88 2-65 2z"/>
  ,
  <path fill="#00081B" fill-opacity=".5" d="M404 78 599 0H257z"/>
  ,
  <path fill="#FF877F" fill-opacity=".5" d="m272 190 93-24-2 26z"/>
  ,
  <path fill="#FFF" fill-opacity=".5" d="m222 255-13 4-72 12z"/>
  ,
  <path fill="#F94D41" fill-opacity=".5" d="m29 128 215 36L8 141z"/>
  ,
  <path fill="#FFF" fill-opacity=".5" d="m510 142-44-5 37-2z"/>
  ,
  <path fill="#FFCAB5" fill-opacity=".5" d="m527 197-81-61-46-26z"/>
  ,
  <path fill="#171F1C" fill-opacity=".5" d="m393 222 77 14 12-21z"/>
  ,
  <path fill="#000002" fill-opacity=".5" d="m249 232 31 18 168-15z"/>
  ,
  <path fill="#F49672" fill-opacity=".5" d="m529 54-35-14 43-3z"/>
  ,
  <path fill-opacity=".5" d="m574 153-14-12 17 1z"/>
  ,
  <path fill="#FFF9F6" fill-opacity=".5" d="m364 249-43 18 71-21z"/>
  ,
  <path fill-opacity=".5" d="m489 54 76 81 1-85z"/>
  ,
  <path fill="#9A3D3B" fill-opacity=".5" d="m137 132-46 43 97-29z"/>
  ,
  <path fill="#000002" fill-opacity=".5" d="m381 161-87-1 28 7z"/>
  ,
  <path fill="#FFA596" fill-opacity=".5" d="m340 187 88 17-9-23z"/>
  ,
  <path fill="#E7E4D5" fill-opacity=".5" d="M110 98H89l24-3z"/>
  ,
  <path fill="#2C0500" fill-opacity=".5" d="m312 219 124-3-104-2z"/>
  ,
  <path fill="#FFAC83" fill-opacity=".5" d="m559 50 4-19-19 9z"/>
  ,
  <path fill="#678998" fill-opacity=".5" d="m145 43 47 54-53 20z"/>
  ,
  <path fill="#2B0D0C" fill-opacity=".5" d="m438 166-17-18 34 3z"/>
  ,
  <path fill="#FFA5A8" fill-opacity=".5" d="m330 100-4 2-64-37z"/>
  ,
  <path fill="#620104" fill-opacity=".5" d="m148 155 97 19-162 8z"/>
  ,
  <path fill="#00435D" fill-opacity=".5" d="m128 84 109 31-105-4z"/>
  ,
  <path fill="#FFF" fill-opacity=".5" d="m599 91-9 6-28-3z"/>
  ,
  <path fill="#FFB69F" fill-opacity=".5" d="m287 174 13-12-63 1z"/>
  ,
  <path fill="#004467" fill-opacity=".5" d="m440 15-29 90 68-1z"/>
  ,
  <path fill="#000611" fill-opacity=".5" d="M107 49 597 0H1z"/>
  ,
  <path fill="#FFCBB6" fill-opacity=".5" d="m330 128-32-6 117 38z"/>
  ,
  <path fill="#FFF8E7" fill-opacity=".5" d="m494 95-37 5 33 2z"/>
  ,
  <path fill="#955946" fill-opacity=".5" d="M419 140V41l-22 53z"/>
  ,
  <path fill="#000210" fill-opacity=".5" d="m599 8-51-8 25 83z"/>
  ,
  <path fill="#7B5740" fill-opacity=".5" d="m518 315 38-4-29-8z"/>
  ,
  <path fill="#1C2920" fill-opacity=".5" d="m518 154-35-12-19 14z"/>
  ,
  <path fill="#3B89A6" fill-opacity=".5" d="m300 99 9-18 3 30z"/>
  ,
  <path fill="#29170F" fill-opacity=".5" d="m490 185 11-1-66-30z"/>
  ,
  <path fill="#ECDFD8" fill-opacity=".5" d="m105 47 13 20 46-8z"/>
  ,
  <path fill="#C4B2A2" fill-opacity=".5" d="m521 111-51 5 60 1z"/>
  ,
  <path fill="#DDD5D3" fill-opacity=".5" d="m243 290-17 11 139-49z"/>
  ,
  <path fill="#738889" fill-opacity=".5" d="m148 83-22 24 1-27z"/>
  ,
  <path fill="#FF8478" fill-opacity=".5" d="m524 194 11 15-105-16z"/>
  ,
  <path fill="#000202" fill-opacity=".5" d="m357 169-11 3-27-15z"/>
  ,
  <path fill="#977161" fill-opacity=".5" d="m391 54-43 31 41-4z"/>
  ,
  <path fill="#3E2619" fill-opacity=".5" d="m462 206 72 3-54-9z"/>
  ,
  <path fill="#FFFFF3" fill-opacity=".5" d="m590 115 9 6-38 2z"/>
  ,
  <path fill="#37211D" fill-opacity=".5" d="m410 155-60-20 60-2z"/>
  ,
  <path fill="#FFFAE1" fill-opacity=".5" d="m578 159 1-7 20 4z"/>
  ,
  <path fill="#001723" fill-opacity=".5" d="m259 0 340 27-262 32z"/>
  ,
  <path fill="#F55" fill-opacity=".5" d="m340 172-45-8-13 34z"/>
  ,
  <path fill="#003B5C" fill-opacity=".5" d="m479 26 23 37-81 19z"/>
  ,
  <path fill="#010808" fill-opacity=".5" d="m68 136 29-63L0 38z"/>
  ,
  <path fill="#FF8F84" fill-opacity=".5" d="m252 0 130 96L258 0z"/>
  ,
  <path fill="#F64E47" fill-opacity=".5" d="M0 167h80l17 7z"/>
  ,
  <path fill="#877D73" fill-opacity=".5" d="m528 82 2 13-24 5z"/>
  ,
  <path fill="#000E15" fill-opacity=".5" d="m421 123 65-3-65-34z"/>
  ,
  <path fill="#9C6A60" fill-opacity=".5" d="m499 255-11 80 5 1z"/>
  ,
  <path fill="#000104" fill-opacity=".5" d="m172 174-29-9 63 6z"/>
  ,
  <path fill="#7C5446" fill-opacity=".5" d="m211 106 42-1 22 25z"/>
  ,
  <path fill="#0D0E09" fill-opacity=".5" d="m533 123-17 13-75-2z"/>
  ,
  <path fill="#E3C6B4" fill-opacity=".5" d="m80 84 33-5-7 5z"/>
  ,
  <path fill="#EBCFBB" fill-opacity=".5" d="m545 134 54-1-43 8z"/>
  ,
  <path fill="#AB9784" fill-opacity=".5" d="m526 157-20-17-1 35z"/>
  ,
  <path fill="#DE9372" fill-opacity=".5" d="m452 175-75-14 4-18z"/>
  ,
  <path fill="#002240" fill-opacity=".5" d="m246 97 55-60-174 6z"/>
  ,
  <path fill="#BFB7B6" fill-opacity=".5" d="m117 170-9-6-1-22z"/>
  ,
  <path fill="#827672" fill-opacity=".5" d="M332 248h40l-97 33z"/>
  ,
  <path fill="#E1453A" fill-opacity=".5" d="m200 145 117 36-117 6z"/>
  ,
  <path fill="#FF7261" fill-opacity=".5" d="m361 117 51 24-55-29z"/>
  ,
  <path fill="#CCFDFF" fill-opacity=".5" d="m99 57-2 4-12-7z"/>
  ,
  <path fill="#FFFFF1" fill-opacity=".5" d="M495 125h-64l65-3z"/>
  ,
  <path fill="#FFD4BC" fill-opacity=".5" d="m374 94-59 5 57-1z"/>
  ,
  <path fill="#000B10" fill-opacity=".5" d="m142 133-78-16 16-37z"/>
  ,
  <path fill="#FAFAF8" fill-opacity=".5" d="m263 249-55 9 42-9z"/>
  ,
  <path fill-opacity=".5" d="m599 105-35 2 32 11z"/>
  ,
  <path fill="#FFD9C8" fill-opacity=".5" d="M236 97 85 42l89 36z"/>
  ,
  <path fill="#778A92" fill-opacity=".5" d="m202 310 49-22-88 31z"/>
  ,
  <path fill="#C88573" fill-opacity=".5" d="m336 228 6-10h53z"/>
  ,
  <path fill="#000F1A" fill-opacity=".5" d="M599 81 536 9l63-9z"/>
  ,
  <path fill="#FFA493" fill-opacity=".5" d="m394 199 74-16 16 17z"/>
  ,
  <path fill="#FFF" fill-opacity=".5" d="m599 158 4-6-19 6z"/>
  ,
  <path fill="#18140E" fill-opacity=".5" d="m585 122 14 10-102 2z"/>
  ,
  <path fill="#A15466" fill-opacity=".5" d="m296 0-3 2 44 36z"/>
  ,
  <path fill="#FFB39B" fill-opacity=".5" d="M69 37 0 13V9z"/>
  ,
  <path fill-opacity=".5" d="m558 168 41 2-28 31z"/>
  ,
  <path fill="#FFF" fill-opacity=".5" d="m175 215 104-2-106 4z"/>
  ,
  <path fill="#C39881" fill-opacity=".5" d="m569 160-24-9 43 5z"/>
  ,
  <path fill="#131F19" fill-opacity=".5" d="m472 132 4 19-9-10z"/>
  ,
  <path fill="#110704" fill-opacity=".5" d="m0 100 54-42-24 84z"/>
  ,
  <path fill="#711E17" fill-opacity=".5" d="M105 159 0 149v-32z"/>
  ,
  <path fill="#FF8386" fill-opacity=".5" d="m226 70-37-19 130 58z"/>
  ,
  <path fill="#1A3038" fill-opacity=".5" d="m141 42-5 19-20-26z"/>
  ,
  <path fill="#615953" fill-opacity=".5" d="M31 12 0 9l94 35z"/>
  ,
  <path fill="#000806" fill-opacity=".5" d="m535 128-20-1-4 18z"/>
  ,
  <path fill="#160A07" fill-opacity=".5" d="M24 162H0v-27z"/>
  ,
  <path fill="#070606" fill-opacity=".5" d="m0 170 259 25L0 250z"/>
  ,
  <path fill-opacity=".5" d="m264 247 81-19-164 20z"/>
  ,
  <path fill="#0E0502" fill-opacity=".5" d="m385 60 17 11h-50z"/>
  ,
  <path fill="#000605" fill-opacity=".5" d="m411 127 46 28-27-20z"/>
  ,
  <path fill="#010807" fill-opacity=".5" d="m561 124-4-21-27 53z"/>
  ,
  <path fill="#FFEBDB" fill-opacity=".5" d="m399 77 13 4h-20z"/>
  ,
  <path fill="#9B7766" fill-opacity=".5" d="m514 201 17 1v-67z"/>
  ,
  <path fill="#000304" fill-opacity=".5" d="m529 111-37-31 9 32z"/>
  ,
  <path fill="#FFF" fill-opacity=".5" d="m342 211 135-2-48 4z"/>
  ,
  <path fill="#0E0C0A" fill-opacity=".5" d="m516 263 34-39-9-75z"/>
  ,
  <path fill="#FF888B" fill-opacity=".5" d="m171 17 53 30 63 31z"/>
  ,
  <path fill="#191718" fill-opacity=".5" d="m372 252-79 27 161 13z"/>
  ,
  <path fill="#7E140E" fill-opacity=".5" d="m189 151 58-4-11 12z"/>
  ,
  <path fill="#2A1E19" fill-opacity=".5" d="m535 188-10 11 45 2z"/>
  ,
  <path fill="#FF6B65" fill-opacity=".5" d="m151 176 67 3-29 2z"/>
  ,
  <path fill="#DFC3B9" fill-opacity=".5" d="m516 195 15-5-38-19z"/>
  ,
  <path fill="#9D7970" fill-opacity=".5" d="m204 230 19-5-99 6z"/>
  ,
  <path fill="#090A0A" fill-opacity=".5" d="m353 270-181 66 63-41z"/>
  ,
  <path fill="#4F3325" fill-opacity=".5" d="m407 160 12 23-37-6z"/>
  ,
  <path fill="#1C1E1D" fill-opacity=".5" d="m430 106 16 37 20-46z"/>
  ,
  <path fill="#25251C" fill-opacity=".5" d="m504 156-31 8 32 5z"/>
  ,
  <path fill="#BCB09C" fill-opacity=".5" d="m464 136-24 6 36 31z"/>
  ,
  <path fill="#6A4A3E" fill-opacity=".5" d="m567 215-15 4-2-73z"/>
  ,
  <path fill="#003B57" fill-opacity=".5" d="m408 35 26 67 62-53z"/>
  ,
  <path fill="#AB8579" fill-opacity=".5" d="m341 228-44 1 74-10z"/>
  ,
  <path fill="#CDB0AA" fill-opacity=".5" d="m130 59 26-7 17 26z"/>
  ,
  <path fill="#A3937F" fill-opacity=".5" d="m508 127-5-3 18-1z"/>
  ,
  <path fill="#885C4F" fill-opacity=".5" d="m349 83 10-27-48 31z"/>
  ,
  <path fill="#121211" fill-opacity=".5" d="m127 183 58 43-185-3z"/>
  ,
  <path fill="#3C4B60" fill-opacity=".5" d="m201 110 48-5-98-30z"/>
  ,
  <path fill="#FF6669" fill-opacity=".5" d="m202 58 14 4-83-36z"/>
  ,
  <path fill="#FF867D" fill-opacity=".5" d="m508 199-166-28 53 29z"/>
  ,
  <path fill="#000201" fill-opacity=".5" d="m492 55 15-2-2 65z"/>
  ,
  <path fill="#FFFFF9" fill-opacity=".5" d="m495 109 1-4-36 2z"/>
  ,
  <path fill="#FFF0E3" fill-opacity=".5" d="M599 98v6l-37-1z"/>
  ,
  <path fill="#102C3B" fill-opacity=".5" d="M95 49 75 83l-2-43z"/>
  ,
  <path fill="#EDEFD9" fill-opacity=".5" d="m534 130-14 16 22-12z"/>
  ,
  <path fill="#D27B5A" fill-opacity=".5" d="m492 77-2-10-28 3z"/>
  ,
  <path fill="#000C1C" fill-opacity=".5" d="M333 82 203 0l92 33z"/>
  ,
  <path fill="#E1A088" fill-opacity=".5" d="m253 96 7 16-32-19z"/>
  ,
  <path fill="#4B616A" fill-opacity=".5" d="m202 305-90 31 58-14z"/>
  ,
  <path fill="#9F6E5E" fill-opacity=".5" d="M110 58 86 39l36 7z"/>
  ,
  <path fill="#FFE8DB" fill-opacity=".5" d="m363 149 9-4 19 2z"/>
  ,
  <path fill="#1C120F" fill-opacity=".5" d="m513 141 24 18 34-8z"/>
  ,
  <path fill="#D69788" fill-opacity=".5" d="m372 95 13 4 16-5z"/>
  ,
  <path fill="#93C7CF" fill-opacity=".5" d="m137 95-1 5-4-3z"/>
  ,
  <path fill="#B59181" fill-opacity=".5" d="m62 49-21-8 9-1z"/>
  ,
  <path fill="#FF5F4D" fill-opacity=".5" d="m318 110-22-11 49 22z"/>
  ,
  <path fill="#070401" fill-opacity=".5" d="m502 104-9 16-5-8z"/>
  ,
  <path fill="#211E18" fill-opacity=".5" d="m331 211-25-17 101 9z"/>
  ,
  <path fill="#1A1814" fill-opacity=".5" d="m367 199-19-7 23 19z"/>
  ,
  <path fill="#4C4542" fill-opacity=".5" d="M0 264v-17l97 12z"/>
  ,
  <path fill="#E5A388" fill-opacity=".5" d="M497 50V35l23 18z"/>
  ,
  <path fill="#FF9D8C" fill-opacity=".5" d="m246 182 60 10 58-6z"/>
  ,
  <path fill="#75716F" fill-opacity=".5" d="m281 244-38 9 73 3z"/>
  ,
  <path fill="#FFE6D5" fill-opacity=".5" d="m458 211 10-6v14z"/>
  ,
  <path fill="#F7F3E8" fill-opacity=".5" d="m472 141 9-4 21 5z"/>
  ,
  <path fill="#010303" fill-opacity=".5" d="m103 255 30 77-133 4z"/>
  ,
  <path fill="#A7C3CA" fill-opacity=".5" d="m114 275-61 12 93-17z"/>
  ,
  <path fill="#FFF" fill-opacity=".5" d="M355 173h10l-6-8z"/>
  ,
  <path fill="#FFFAF0" fill-opacity=".5" d="m359 132-10 1v3z"/>
  ,
  <path fill="#342D27" fill-opacity=".5" d="m496 281 42-4 24 59z"/>
  ,
  <path fill-opacity=".5" d="m183 212 32 1 13-1z"/>
  ,
  <path fill="#FF7B6D" fill-opacity=".5" d="m256 0 44 36 41 29z"/>
  ,
  <path fill="#FFF" fill-opacity=".5" d="m494 158-35 4-6-4z"/>
  ,
  <path fill="#A8A8AC" fill-opacity=".5" d="m165 236 83-7-16 1z"/>
  ,
  <path fill="#320E0E" fill-opacity=".5" d="m124 150 36 24-42-1z"/>
  ,
  <path fill="#040300" fill-opacity=".5" d="m531 1 19-1-12 98z"/>
  ,
  <path fill="#001927" fill-opacity=".5" d="m245 152-45-50-86 25z"/>
  ,
  <path fill="#714F3D" fill-opacity=".5" d="m568 130-8-40 2 34z"/>
  ,
  <path fill="#530C0F" fill-opacity=".5" d="m232 175-60-6 35-6z"/>
  ,
  <path fill="#5F3E2F" fill-opacity=".5" d="m542 146 10 31 24-10z"/>
  ,
  <path fill="#492D21" fill-opacity=".5" d="m282 115-31-3 83 50z"/>
  ,
  <path fill="#341D12" fill-opacity=".5" d="m297 140-97 9 52-28z"/>
  ,
  <path fill="#FF876F" fill-opacity=".5" d="m380 114 70 39-49-30z"/>
  ,
  <path fill="#05425E" fill-opacity=".5" d="m169 88 51 44 10-23z"/>
  ,
  <path fill="#E0AC96" fill-opacity=".5" d="m451 217-50 3 76-12z"/>
  ,
  <path fill="#FFAB97" fill-opacity=".5" d="m299 168-28-12-23 18z"/>
  ,
  <path fill="#82594D" fill-opacity=".5" d="m468 231 14-13-25-3z"/>
  ,
  <path fill="#001B30" fill-opacity=".5" d="m313 121-14-34-77-40z"/>
  ,
  <path fill="#BAAAA2" fill-opacity=".5" d="m135 245 91-6-62 10z"/>
  ,
  <path fill="#FFF8DF" fill-opacity=".5" d="m586 85-9-1-10 2z"/>
  ,
  <path fill="#FFEEE9" fill-opacity=".5" d="m96 48 32 7 3 6z"/>
  ,
  <path fill="#140C04" fill-opacity=".5" d="m454 188 42 2 23 9z"/>
  ,
  <path fill="#D44D53" fill-opacity=".5" d="M218 11 195 0l56 35z"/>
  ,
  <path fill="#000507" fill-opacity=".5" d="m399 128-38-23 32 25z"/>
  ,
  <path fill="#171413" fill-opacity=".5" d="M468 72h12l-32 66z"/>
  ,
  <path fill="#31241F" fill-opacity=".5" d="m491 299 28 37h53z"/>
  ,
  <path fill="#38120D" fill-opacity=".5" d="m37 154 75-3-7 19z"/>
  ,
  <path fill="#D54F44" fill-opacity=".5" d="m132 157-16-26-13 11z"/>
  ,
  <path fill="#C23430" fill-opacity=".5" d="m65 171-65-9v5z"/>
  ,
  <path fill="#4E6B76" fill-opacity=".5" d="m268 105 10-21 2 26z"/>
  ,
  <path fill="#6C7779" fill-opacity=".5" d="m69 245-44 5H2z"/>
  ,
  <path fill="#B67253" fill-opacity=".5" d="m584 74-19-11h20z"/>
  ,
  <path fill="#5F4D44" fill-opacity=".5" d="m117 91 21-26-48-7z"/>
  ,
  <path fill="#F5FCFF" fill-opacity=".5" d="m339 127-12 4 8-6z"/>
  ,
  <path fill="#242221" fill-opacity=".5" d="m142 235-24 39-50 8z"/>
  ,
  <path fill="#DDD4D1" fill-opacity=".5" d="m385 246-99 33 31-13z"/>
  ,
  <path fill="#C0A795" fill-opacity=".5" d="m496 84-11-4-6 4z"/>
  ,
  <path fill="#060707" fill-opacity=".5" d="m238 290-131 46 12-56z"/>
  ,
  <path fill="#00172C" fill-opacity=".5" d="m153 0 157 72 7 21z"/>
  ,
  <path fill="#0E1517" fill-opacity=".5" d="m376 247-12-24-78 22z"/>
  ,
  <path fill="#717C7D" fill-opacity=".5" d="m189 266 54-6-86-1z"/>
  ,
  <path fill="#A39C98" fill-opacity=".5" d="m415 240 44-12-19 2z"/>
  ,
  <path fill="#130605" fill-opacity=".5" d="m325 76-4-12 43-1z"/>
  ,
  <path fill="#FC8875" fill-opacity=".5" d="m113 143-20-1 34 11z"/>
  ,
  <path fill="#002C44" fill-opacity=".5" d="m553 53 46-21v30z"/>
  ,
  <path fill="#FF6E60" fill-opacity=".5" d="m281 76 119 59-27-12z"/>
  ,
  <path fill="#BB927D" fill-opacity=".5" d="m241 128 8-10 12-9z"/>
  ,
  <path fill="#040305" fill-opacity=".5" d="m356 128-33-16 20 22z"/>
  ,
  <path fill="#000B13" fill-opacity=".5" d="M303 99 136 0H83z"/>
  ,
  <path fill="#180F0B" fill-opacity=".5" d="m546 160-67 2 58 3z"/>
  ,
  <path fill="#D5685E" fill-opacity=".5" d="m145 134 24 22-20 3z"/>
  ,
  <path fill="#0A0D0D" fill-opacity=".5" d="m572 49-78 46 1-39z"/>
  ,
  <path fill="#835037" fill-opacity=".5" d="m344 138 43 19-31-3z"/>
  ,
  <path fill="#101312" fill-opacity=".5" d="m348 150 6 22-56-11z"/>
  ,
  <path fill-opacity=".5" d="m173 248-49 11 47-3z"/>
  ,
  <path fill="#6F6872" fill-opacity=".5" d="m164 73 65 41 10-2z"/>
  ,
  <path fill="#AC6957" fill-opacity=".5" d="m414 135 14-16-27 5z"/>
  ,
  <path fill="#A6B7BE" fill-opacity=".5" d="m112 155-3 13h10z"/>
  ,
  <path fill="#DCC1B1" fill-opacity=".5" d="m564 152 9 6-15 2z"/>
  ,
  <path fill="#322B29" fill-opacity=".5" d="m396 221 50-1-61 52z"/>
  ,
  <path fill="#312A25" fill-opacity=".5" d="m493 93-36 7 13-10z"/>
  ,
  <path fill="#000100" fill-opacity=".5" d="m411 67-2 24-5-38z"/>
  ,
  <path fill="#030000" fill-opacity=".5" d="m6 151 14 4 35 1z"/>
  ,
  <path fill="#FFDAC4" fill-opacity=".5" d="m396 73-23-1-6 3z"/>
  ,
  <path fill="#CAA898" fill-opacity=".5" d="m322 200-2 3 13-1z"/>
  ,
  <path fill="#030607" fill-opacity=".5" d="m571 89-64 1-19 5z"/>
  ,
  <path fill="#FF4E50" fill-opacity=".5" d="m311 186 87-5-106-19z"/>
  ,
  <path fill="#0D0705" fill-opacity=".5" d="m358 98 59 26-35-26z"/>
  ,
  <path fill="#2F231E" fill-opacity=".5" d="m574 153-60 2 18-15z"/>
  ,
  <path fill="#050909" fill-opacity=".5" d="m307 107 39 20-26-3z"/>
  ,
  <path fill="#160E08" fill-opacity=".5" d="m599 151-24-19 24 5z"/>
  ,
  <path fill="#000405" fill-opacity=".5" d="m539 301 60 35V168z"/>
  ,
  <path fill="#211612" fill-opacity=".5" d="m578 151-31-2 43 5z"/>
  ,
  <path fill="#544338" fill-opacity=".5" d="m547 187-29 3v-26z"/>
  ,
  <path fill="#000B13" fill-opacity=".5" d="M313 77 143 0h49z"/>
  ,
  <path fill="#E0D9CA" fill-opacity=".5" d="m479 155 22 5-24 1z"/>
  ,
  <path fill="#002D45" fill-opacity=".5" d="m464 79-52 12 53 23z"/>
  ,
  <path fill="#11110E" fill-opacity=".5" d="M26 108 0 18v100z"/>
  ,
  <path fill="#1A0E08" fill-opacity=".5" d="m464 123 26-14-24 3z"/>
  ,
  <path fill="#7D0003" fill-opacity=".5" d="m115 182 94 2-47-5z"/>
  ,
  <path fill="#080907" fill-opacity=".5" d="m529 85 70-18v16z"/>
  ,
  <path fill="#140600" fill-opacity=".5" d="m397 35 13 23-88-9z"/>
  ,
  <path fill="#EFFFFF" fill-opacity=".5" d="m140 54 13 15-14-11z"/>
  ,
  <path fill="#FFE8DD" fill-opacity=".5" d="m476 211-38 1 39-4z"/>
  ,
  <path fill="#040F10" fill-opacity=".5" d="m131 98-20 1 22 25z"/>
  ,
  <path fill="#381D14" fill-opacity=".5" d="m104 48-8 20 15-1z"/>
  ,
  <path fill="#00090E" fill-opacity=".5" d="M243 79 73 0H0z"/>
  ,
  <path fill="#4E3928" fill-opacity=".5" d="m458 199-46 7 83-3z"/>
  ,
  <path fill="#0C0300" fill-opacity=".5" d="m356 216-164 10 45-9z"/>
  ,
  <path fill="#CFB0A0" fill-opacity=".5" d="m384 58 14 1-26 1z"/>
  ,
  <path fill="#7C553F" fill-opacity=".5" d="m546 305 7 2-33 5z"/>
  ,
  <path fill="#7AADBD" fill-opacity=".5" d="m181 113-1-13-6-1z"/>
  ,
  <path fill="#1A130F" fill-opacity=".5" d="m544 177-3-9-32 3z"/>
  ,
  <path fill="#92675C" fill-opacity=".5" d="m412 47-2 16 12 8z"/>
  ,
  <path fill="#362A24" fill-opacity=".5" d="m330 145 76 23-27 10z"/>
  ,
  <path fill="#746360" fill-opacity=".5" d="m582 201 13-8h-14z"/>
  ,
  <path fill="#030404" fill-opacity=".5" d="m217 305-86 31h80z"/>
  ,
  <path fill="#615144" fill-opacity=".5" d="m248 155 66 6-12-38z"/>
  ,
  <path fill="#66341D" fill-opacity=".5" d="m229 110-1-12 22 11z"/>
  ,
  <path fill="#050B0D" fill-opacity=".5" d="m596 74 3 31V65z"/>
  ,
  <path fill="#3D2D27" fill-opacity=".5" d="m344 211-36-20 85 6z"/>
  ,
  <path fill="#190C09" fill-opacity=".5" d="m578 140-13 2 10 9z"/>
  ,
  <path fill="#FFA494" fill-opacity=".5" d="m361 197 14-9h-23z"/>
  ,
  <path fill="#010301" fill-opacity=".5" d="m537 147 7 27 1-57z"/>
  ,
  <path fill="#6A2525" fill-opacity=".5" d="m49 114 171 43-165-24z"/>
  ,
  <path fill="#322928" fill-opacity=".5" d="m403 217 57 53-82-31z"/>
  ,
  <path fill="#011118" fill-opacity=".5" d="m362 0 116 53 73-53z"/>
  ,
  <path fill="#01101F" fill-opacity=".5" d="m68 114 20 22v-31z"/>
  ,
  <path fill="#BA775E" fill-opacity=".5" d="m508 53 28-14 1 10z"/>
  ,
  <path fill="#342F2E" fill-opacity=".5" d="m551 121-28-31 9-8z"/>
  ,
  <path fill="#001A2F" fill-opacity=".5" d="m331 61-60-47 18 41z"/>
  ,
  <path fill="#4F3D34" fill-opacity=".5" d="m427 123 36-15-12 34z"/>
  ,
  <path fill="#362B28" fill-opacity=".5" d="m135 70-23 27 2-31z"/>
  ,
  <path fill="#003040" fill-opacity=".5" d="m119 83 25 4 4 18z"/>
  ,
  <path fill="#BCA394" fill-opacity=".5" d="m472 150 64-1-82 3z"/>
  ,
  <path fill="#00263C" fill-opacity=".5" d="m319 93-22-29-95-34z"/>
  ,
  <path fill="#040000" fill-opacity=".5" d="m380 93-4-7V72z"/>
  ,
  <path fill="#FF7562" fill-opacity=".5" d="m355 125 66 28-43-20z"/>
  ,
  <path fill="#C4CCBC" fill-opacity=".5" d="M154 115h-12l-14-5z"/>
  ,
  <path fill="#FF8478" fill-opacity=".5" d="m387 101-19-17-47-33z"/>
  ,
  <path fill="#B09884" fill-opacity=".5" d="m546 134 7 1-7 9z"/>
  ,
  <path fill="#222020" fill-opacity=".5" d="m485 336 33-90-2 90z"/>
  ,
  <path fill="#925474" fill-opacity=".5" d="m181 140 25 6-17 11z"/>
  ,
  <path fill="#FF5348" fill-opacity=".5" d="m264 85 37 18 35 13z"/>
  ,
  <path fill="#090000" fill-opacity=".5" d="m332 101 29 1 8 16z"/>
  ,
  <path fill="#023" fill-opacity=".5" d="m322 22 165 34 11-20z"/>
  ,
  <path fill="#160D0B" fill-opacity=".5" d="m0 144 72 10-72-13z"/>
  ,
  <path fill="#000102" fill-opacity=".5" d="m0 270 91-8-91 74z"/>
  ,
  <path fill="#7ECAE9" fill-opacity=".5" d="m313 92-9-6 2-2z"/>
  ,
  <path fill="#4C4E5E" fill-opacity=".5" d="m170 79 9 18 44 14z"/>
  ,
  <path fill="#81402C" fill-opacity=".5" d="m301 193-2-3-35-1z"/>
  ,
  <path fill="#DD917B" fill-opacity=".5" d="m267 224-27 1 99-6z"/>
  ,
  <path fill="#00080F" fill-opacity=".5" d="m253 0 38 31-90-31z"/>
  ,
  <path fill="#FFF" fill-opacity=".5" d="m457 161 2-5-6 5z"/>
  ,
  <path fill="#F46D78" fill-opacity=".5" d="m259 41-22-18 64 42z"/>
  ,
  <path fill="#3F1710" fill-opacity=".5" d="m519 200 35 11-44-15z"/>
  ,
  <path fill="#FF9787" fill-opacity=".5" d="m458 148-34-21-33-24z"/>
  ,
  <path fill="#00273D" fill-opacity=".5" d="m230 119-47 25 2-43z"/>
  ,
  <path fill="#9A8D88" fill-opacity=".5" d="M195 253v-5l67 4z"/>
  ,
  <path fill="#502A2B" fill-opacity=".5" d="m86 149 27 16-59-18z"/>
  ,
  <path fill="#1E2223" fill-opacity=".5" d="m186 121-20 14-29-37z"/>
  ,
  <path fill="#A38D7B" fill-opacity=".5" d="m115 114 15-3-17-1z"/>
  ,
  <path fill="#070408" fill-opacity=".5" d="m522 60-4-51-6 15z"/>
  ,
  <path fill="#04151D" fill-opacity=".5" d="m327 127-55-23 14-6z"/>
  ,
  <path fill="#CBAF98" fill-opacity=".5" d="m593 164-36 3h28z"/>
  ,
  <path fill="#FFF9EE" fill-opacity=".5" d="m566 96 25-5 5 4z"/>
  ,
  <path fill="#00283F" fill-opacity=".5" d="m270 49 50 30h-29z"/>
  ,
  <path fill="#FFF" fill-opacity=".5" d="M315 85h8l-1-2z"/>
  ,
  <path fill="#835240" fill-opacity=".5" d="M64 84H46l22 5z"/>
  ,
  <path fill="#080A0B" fill-opacity=".5" d="m347 73-5-4-9 5z"/>
  ,
  <path fill-opacity=".5" d="m531 128 3 19v52z"/>
  ,
  <path fill="#C48471" fill-opacity=".5" d="m419 88-3-15-6 9z"/>
  ,
  <path fill="#FFF" fill-opacity=".5" d="m517 96-2-2-3 6z"/>
  ,
  <path fill="#D84D4B" fill-opacity=".5" d="m83 173 54 3-53-9z"/>
  ,
  <path fill="#C7AA9C" fill-opacity=".5" d="m567 145-14 4h17z"/>
  ,
  <path fill="#FCE2DD" fill-opacity=".5" d="M385 246h4l17-5z"/>
  ,
  <path fill="#080A0B" fill-opacity=".5" d="m330 102 56 34-87-37z"/>
  ,
  <path fill="#E2BFAD" fill-opacity=".5" d="m509 155-5 8 31-7z"/>
  ,
  <path fill="#3E0E0E" fill-opacity=".5" d="M14 179 0 167l49 5z"/>
  ,
  <path fill="#3C0905" fill-opacity=".5" d="m176 144-17 1 16-14z"/>
  ,
  <path fill="#1C1C33" fill-opacity=".5" d="m233 20 34 21-12-5z"/>
  ,
  <path fill="#050708" fill-opacity=".5" d="m442 308 48-6 13-84z"/>
  ,
  <path fill="#0A0000" fill-opacity=".5" d="m462 112 4-8-69 2z"/>
  ,
  <path fill="#A8705B" fill-opacity=".5" d="m371 155 1 13 7-29z"/>
  ,
  <path fill="#492F28" fill-opacity=".5" d="m380 58-22 3 2 22z"/>
  ,
  <path fill="#EC4B45" fill-opacity=".5" d="m59 141 31 7-47-5z"/>
  ,
  <path fill="#8E523A" fill-opacity=".5" d="m299 122 15 18 44 12z"/>
  ,
  <path fill="#B94549" fill-opacity=".5" d="m93 7 36 15 68 33z"/>
  ,
  <path fill="#7F6255" fill-opacity=".5" d="m54 63-3-10 14 7z"/>
  ,
  <path fill="#A6504A" fill-opacity=".5" d="m322 27 102 88-105-94z"/>
  ,
  <path fill="#91918D" fill-opacity=".5" d="m30 257-28 2h11z"/>
  ,
  <path fill="#050708" fill-opacity=".5" d="m412 141-41-15 32 17z"/>
  ,
  <path fill="#100B0A" fill-opacity=".5" d="m341 44-18-7 25 32z"/>
  ,
  <path fill="#004966" fill-opacity=".5" d="m468 60-47 12 37 17z"/>
  ,
  <path fill="#564845" fill-opacity=".5" d="m169 227 10 4-89 4z"/>
  ,
  <path fill="#4B423D" fill-opacity=".5" d="M85 51 57 34 0 15z"/>
  ,
  <path fill="#191010" fill-opacity=".5" d="m404 99-18-3 27 21z"/>
  ,
  <path fill="#372215" fill-opacity=".5" d="M425 173h-21l-9-9z"/>
  ,
  <path fill="#312A29" fill-opacity=".5" d="m400 267 46-35-94 26z"/>
  ,
  <path fill="#A1ECFF" fill-opacity=".5" d="m88 52 13 5-8 1z"/>
  ,
  <path fill="#F1D4C9" fill-opacity=".5" d="m382 212 3-8-19 9z"/>
  ,
  <path fill="#C6D3D2" fill-opacity=".5" d="m113 70-5 2-14-1z"/>
  ,
  <path fill="#FFBAAD" fill-opacity=".5" d="m468 199-10-11-14 10z"/>
  ,
  <path fill="#D0B2A2" fill-opacity=".5" d="m539 184-17 5-17-7z"/>
  ,
  <path fill="#494E4E" fill-opacity=".5" d="m179 267 118-25 5 28z"/>
  ,
  <path fill="#171513" fill-opacity=".5" d="M101 90 91 67l6-4z"/>
  ,
  <path fill="#396275" fill-opacity=".5" d="m126 65 19 4v14z"/>
  ,
  <path fill="#0C0705" fill-opacity=".5" d="m456 127 24 1-5 4z"/>
  ,
  <path fill="#FFF" fill-opacity=".5" d="m288 196-3-5 5 1z"/>
  ,
  <path fill="#8A4E39" fill-opacity=".5" d="m466 200 5 16v-8z"/>
  ,
  <path fill="#FFBAAE" fill-opacity=".5" d="M266 110 130 60l68 20z"/>
  ,
  <path fill-opacity=".5" d="m557 113 31 2-13 3z"/>
  ,
  <path fill="#00374E" fill-opacity=".5" d="m503 66-65 4-37-28z"/>
  ,
  <path fill="#00273D" fill-opacity=".5" d="m309 43-25 9 26 15z"/>
  ,
  <path fill="#69372A" fill-opacity=".5" d="m477 161 39 37-58-36z"/>
  ,
  <path fill="#010000" fill-opacity=".5" d="M122 114V72l5 40z"/>
  ,
  <path fill="#FF9283" fill-opacity=".5" d="m333 195 12-5-21-6z"/>
  ,
  <path fill="#FFA683" fill-opacity=".5" d="m434 167 46 14 36 16z"/>
  ,
  <path fill="#BFA698" fill-opacity=".5" d="m524 96-1 3-1-20z"/>
  ,
  <path fill="#A7393D" fill-opacity=".5" d="m140 2 14 4 46 26z"/>
  ,
  <path fill="#333232" fill-opacity=".5" d="m552 200-8 44 28-50z"/>
  ,
  <path fill="#E0D2C9" fill-opacity=".5" d="m174 94-43-12 19 3z"/>
  ,
  <path fill="#E9FAEF" fill-opacity=".5" d="M63 167h7l-1 6z"/>
  ,
  <path fill="#0F0B07" fill-opacity=".5" d="m536 161 52-2v5z"/>
  ,
  <path fill="#E7CEC3" fill-opacity=".5" d="m500 91-8-1-1 1z"/>
  ,
  <path fill="#DE1614" fill-opacity=".5" d="m218 187 32-1-5 2z"/>
  ,
  <path fill="#EAAA8D" fill-opacity=".5" d="m421 199-4 13-7-24z"/>
  ,
  <path fill="#F9DDCE" fill-opacity=".5" d="m317 63 42-3-45 2z"/>
  ,
  <path fill="#423731" fill-opacity=".5" d="m543 105-27 21h29z"/>
  ,
  <path fill="#130502" fill-opacity=".5" d="M464 154h-21l-18-8z"/>
  ,
  <path fill="#816B61" fill-opacity=".5" d="m39 114 46 9-45-6z"/>
  ,
  <path fill="#CCB7AD" fill-opacity=".5" d="M141 81H98l14 3z"/>
  ,
  <path fill="#A98777" fill-opacity=".5" d="m524 176-24-3-18 6z"/>
  ,
  <path fill="#7A5444" fill-opacity=".5" d="m14 153 21 6-21-1z"/>
  ,
  <path fill="#A08D86" fill-opacity=".5" d="m189 255 14-3-33 1z"/>
  ,
  <path fill="#121012" fill-opacity=".5" d="m109 104-41 20 43 6z"/>
  ,
  <path fill="#FFE0B3" fill-opacity=".5" d="m553 47 5-13-3 17z"/>
  ,
  <path fill="#F8B49D" fill-opacity=".5" d="m369 120 5-3h-12z"/>
  ,
  <path fill="#161615" fill-opacity=".5" d="M71 50 15 66l-4-31z"/>
  ,
  <path fill="#D89A86" fill-opacity=".5" d="m404 100-11-7h14z"/>
  ,
  <path fill="#160E0C" fill-opacity=".5" d="m375 88 31-6-23 13z"/>
  ,
  <path fill="#001E31" fill-opacity=".5" d="m169 66 63 7-77-35z"/>
  ,
  <path fill="#FF6B6A" fill-opacity=".5" d="m404 191-95-15 92 5z"/>
  ,
  <path fill="#74696D" fill-opacity=".5" d="m136 74 29 8-4 12z"/>
  ,
  <path fill="#D8BBAD" fill-opacity=".5" d="M576 70h14l-6-3z"/>
  ,
  <path fill="#0A0D0C" fill-opacity=".5" d="m553 84-35 32 11-20z"/>
  ,
  <path fill="#003A54" fill-opacity=".5" d="m463 101-43-49v52z"/>
  ,
  <path fill="#161515" fill-opacity=".5" d="m515 113-10-67-12 39z"/>
  ,
  <path fill="#402D2A" fill-opacity=".5" d="m480 260 5-14-72 2z"/>
  ,
  <path fill="#CF372E" fill-opacity=".5" d="m37 130 18 7-55-9z"/>
  ,
  <path fill="#DFC3B7" fill-opacity=".5" d="m156 143-6-1 1 5z"/>
  ,
  <path fill="#32241B" fill-opacity=".5" d="m469 148 19 1-34-9z"/>
  ,
  <path fill="#3A3028" fill-opacity=".5" d="m504 141-25 16-2-8z"/>
  ,
  <path fill="#FF584C" fill-opacity=".5" d="m372 131-57-23 30 13z"/>
  ,
  <path fill="#3DAACD" fill-opacity=".5" d="m307 111 2-22 1 22z"/>
  ,
  <path fill="#D9A182" fill-opacity=".5" d="m492 188-25-6 1 5z"/>
  ,
  <path fill="#070909" fill-opacity=".5" d="m270 236-95 14 113-6z"/>
  ,
  <path fill="#090D10" fill-opacity=".5" d="m496 110 16-10-15-35z"/>
  ,
  <path fill="#020605" fill-opacity=".5" d="m559 189 33-25-5 16z"/>
  ,
  <path fill="#0C0D0D" fill-opacity=".5" d="m147 228 64-42-88 4z"/>
  ,
  <path fill="#040100" fill-opacity=".5" d="m166 123 10-4-15-12z"/>
  ,
  <path fill="#040304" fill-opacity=".5" d="m124 257 51-4 36-7z"/>
  ,
  <path fill="#1C0500" fill-opacity=".5" d="m240 122-36 30-2-13z"/>
  ,
  <path fill="#956D4D" fill-opacity=".5" d="m541 283-10 2v-4z"/>
  ,
  <path fill="#0F0F10" fill-opacity=".5" d="m521 47-22 26 26 11z"/>
  ,
  <path fill="#0A0C0B" fill-opacity=".5" d="m581 65-37 42-7-36z"/>
  ,
  <path fill="#FFF" fill-opacity=".5" d="M387 212H276l-9 2z"/>
  ,
  <path fill="#090B0B" fill-opacity=".5" d="m483 247 116 44-103-86z"/>
  ,
  <path fill="#7B675A" fill-opacity=".5" d="m297 164-43-26 53 16z"/>
  ,
  <path fill="#D18365" fill-opacity=".5" d="m499 65-9 11-2-7z"/>
  ,
  <path fill="#FFCDBB" fill-opacity=".5" d="m282 112-23-6 45 17z"/>
  ,
  <path fill="#20120E" fill-opacity=".5" d="m344 59-21-15 32 29z"/>
  ,
  <path fill="#826E69" fill-opacity=".5" d="m355 253 26-6-93 2z"/>
  ,
  <path fill="#FFF" fill-opacity=".5" d="M451 144v3l11 4z"/>
  ,
  <path fill="#674D3E" fill-opacity=".5" d="m58 145-46-4 33 6z"/>
  ,
  <path fill="#281D1A" fill-opacity=".5" d="m403 239 18-19 47 4z"/>
  ,
  <path fill="#FF6567" fill-opacity=".5" d="m191 179-83-6 26 4z"/>
  ,
  <path fill="#0C0808" fill-opacity=".5" d="M147 195 1 204l64-32z"/>
  ,
  <path fill="#A98F85" fill-opacity=".5" d="m112 68 14-6-15-3z"/>
  ,
  <path fill="#9DB5BC" fill-opacity=".5" d="m392 228-29 5 35-6z"/>
  ,
  <path fill="#30241F" fill-opacity=".5" d="M364 206h41l-61-13z"/>
  ,
  <path fill="#212121" fill-opacity=".5" d="m0 253 60-7-60 21z"/>
  ,
  <path fill="#FFDBCD" fill-opacity=".5" d="m461 124 35-4-14 6z"/>
  ,
  <path fill="#1F2526" fill-opacity=".5" d="m281 278-53-12-117 11z"/>
  ,
  <path fill="#9E5F4B" fill-opacity=".5" d="m462 217 53-1h23z"/>
  ,
  <path fill="#1D140A" fill-opacity=".5" d="m454 167-7 4 16 1z"/>
  ,
  <path fill="#AA9895" fill-opacity=".5" d="m426 234-25 9 51-14z"/>
  ,
  <path fill="#2D1B15" fill-opacity=".5" d="m272 211 62-5-77-16z"/>
  ,
  <path fill="#FF5348" fill-opacity=".5" d="m151 153-45-3 65 9z"/>
  ,
  <path fill="#4B3C60" fill-opacity=".5" d="m73 124 10 13 1-14z"/>
  ,
  <path fill="#081721" fill-opacity=".5" d="m64 72 26-22-7 62z"/>
  ,
  <path fill="#FFE9DE" fill-opacity=".5" d="m562 119 28 3 9-5z"/>
  ,
  <path fill="#363C43" fill-opacity=".5" d="M94 52 63 37l21 29z"/>
  ,
  <path fill="#94938C" fill-opacity=".5" d="m92 97-8 3 21-2z"/>
  ,
  <path fill="#FFE6D5" fill-opacity=".5" d="m467 101-3-5 30 4z"/>
  ,
  <path fill="#892F31" fill-opacity=".5" d="m143 0 4 4-11-4z"/>
  ,
  <path fill="#181511" fill-opacity=".5" d="m599 123-11 4-26-4z"/>
  ,
  <path fill="#0A0B0D" fill-opacity=".5" d="m530 50-20 36 37-31z"/>
  ,
  <path fill="#33231B" fill-opacity=".5" d="m115 74 3-7 12 28z"/>
  ,
  <path fill="#000306" fill-opacity=".5" d="m256 139-6-13-20 18z"/>
  ,
  <path fill="#060302" fill-opacity=".5" d="m341 88 35 7-14-12z"/>
  ,
  <path fill="#8A5B4D" fill-opacity=".5" d="m357 227-16-6 29-3z"/>
  ,
  <path fill="#A81920" fill-opacity=".5" d="m332 168-32-5 4 4z"/>
  ,
  <path fill="#572419" fill-opacity=".5" d="m506 184-32-17 32 26z"/>
  ,
  <path fill="#E06B68" fill-opacity=".5" d="m206 153-21-4-8 13z"/>
  ,
  <path fill="#FBD2B6" fill-opacity=".5" d="m447 143 9 6 4-12z"/>
  ,
  <path fill="#3A140C" fill-opacity=".5" d="M311 85v12l29-3z"/>
  ,
  <path fill="#FFB2A5" fill-opacity=".5" d="m177 155-9-4h-21z"/>
  ,
  <path fill="#04080A" fill-opacity=".5" d="M590 210v-21l-6 7z"/>
  ,
  <path fill="#FF584E" fill-opacity=".5" d="m49 133 85 14-55-6z"/>
  ,
  <path fill="#697B83" fill-opacity=".5" d="m141 54 41 18-34-11z"/>
  ,
  <path fill="#3B2F2A" fill-opacity=".5" d="m483 79 7 17-12-1z"/>
  ,
  <path fill="#FFA791" fill-opacity=".5" d="m476 181-66-24-25-5z"/>
  ,
  <path fill="#FF8368" fill-opacity=".5" d="m265 170-14-17-20 14z"/>
  ,
  <path fill="#543C30" fill-opacity=".5" d="m495 189-8 5-36-8z"/>
  ,
  <path fill="#270A07" fill-opacity=".5" d="M334 184v47l1-5z"/>
  ,
  <path fill="#021720" fill-opacity=".5" d="m446 123 14 18-8-21z"/>
  ,
  <path fill="#002035" fill-opacity=".5" d="m273 91-82-37 49 40z"/>
  ,
  <path fill="#003C51" fill-opacity=".5" d="m144 111 4-20-17 12z"/>
  ,
  <path fill="#291D15" fill-opacity=".5" d="m509 178 21 1-12 5z"/>
  ,
  <path fill="#FF5B5D" fill-opacity=".5" d="m264 172 20-2 65 6z"/>
  ,
  <path fill="#FF8375" fill-opacity=".5" d="m194 179 81 10 27-7z"/>
  ,
  <path fill="#010708" fill-opacity=".5" d="m13 110 76 8-59-17z"/>
  ,
  <path fill="#FBE2D7" fill-opacity=".5" d="m487 125-29 1 34-5z"/>
  ,
  <path fill="#26211C" fill-opacity=".5" d="m249 132-6-11 13 31z"/>
  ,
  <path fill="#FFFFF7" fill-opacity=".5" d="m362 166-4 13v-9z"/>
  ,
  <path fill="#001A26" fill-opacity=".5" d="m453 109 17-16-3-1z"/>
  ,
  <path fill="#F1B3A0" fill-opacity=".5" d="m324 97 32-2 3 1z"/>
  ,
  <path fill="#5F1012" fill-opacity=".5" d="m58 179 4-12 14 11z"/>
  ,
  <path fill="#9D8271" fill-opacity=".5" d="M295 151v10l-17-1z"/>
  ,
  <path fill="#0B0808" fill-opacity=".5" d="m539 146 9 66-10-8z"/>
  ,
  <path fill="#534A45" fill-opacity=".5" d="m545 116-12 12 20-26z"/>
  ,
  <path fill="#306779" fill-opacity=".5" d="m284 112-2-19h-16z"/>
  ,
  <path fill="#1A1717" fill-opacity=".5" d="m108 245 20 6-2-52z"/>
  ,
  <path fill="#211B18" fill-opacity=".5" d="m508 91 5-18-26 14z"/>
  ,
  <path fill="#261D1A" fill-opacity=".5" d="m382 170-24-15h8z"/>
  ]
</svg>