<svg xmlns="http://www.w3.org/2000/svg" baseProfile="tiny" version="1.2" viewBox="0 0 750 375"><defs/>[<path fill="#212D36" d="M0 0h749v374H0z"/>,<path fill="#AA8A89" fill-opacity=".5" d="M275 362l-41-237 298 65z"/>,<path fill="#FFED94" fill-opacity=".5" d="M376 223l-91-63 166 18z"/>,<path fill="#59393D" fill-opacity=".5" d="M509 114L226 374l305-76z"/>,<path fill="#175084" fill-opacity=".5" d="M17 140l128 198 263-228z"/>,<path fill="#3C4F6F" fill-opacity=".5" d="M349 209l-90 165-99-187z"/>,<path fill="#000D04" fill-opacity=".5" d="M749 374V0H353z"/>,<path fill="#FFF2A4" fill-opacity=".5" d="M395 164l-39 42 60 7z"/>,<path fill="#1F292B" fill-opacity=".5" d="M573 60l117 314-270-244z"/>,<path fill="#5B8D97" fill-opacity=".5" d="M433 164l-209 11 160-43z"/>,<path fill="#E9B285" fill-opacity=".5" d="M296 178l40 27 15-46z"/>,<path fill="#724848" fill-opacity=".5" d="M579 194l26 44-39 1z"/>,<path fill="#5A7BA8" fill-opacity=".5" d="M272 231l-47 29-8-52z"/>,<path fill="#000E0D" fill-opacity=".5" d="M0 109V0l749 1z"/>,<path fill="#333441" fill-opacity=".5" d="M283 236l-109-73 291 82z"/>,<path fill="#DE6451" fill-opacity=".5" d="M379 191l-75-2 22 19z"/>,<path fill="#0D2E40" fill-opacity=".5" d="M417 15L0 132l610 20z"/>,<path fill="#C5795A" fill-opacity=".5" d="M463 198l-61 31 9-62z"/>,<path fill="#0C1E3F" fill-opacity=".5" d="M223 374H0V41z"/>,<path fill="#0379C3" fill-opacity=".5" d="M84 167l60-9-15 41z"/>,<path fill="#81433D" fill-opacity=".5" d="M435 230l-175 20 193 66z"/>,<path fill="#110E17" fill-opacity=".5" d="M149 374L0 265v109z"/>,<path fill="#19150E" fill-opacity=".5" d="M422 374l117-171 210 171z"/>,<path fill="#43444B" fill-opacity=".5" d="M437 193l-73-69 116 20z"/>,<path fill="#347C98" fill-opacity=".5" d="M351 168l4-39-83 24z"/>,<path fill="#897880" fill-opacity=".5" d="M271 245l73 1-30 75z"/>,<path fill="#2D405E" fill-opacity=".5" d="M150 332l120-97 53 139z"/>,<path fill="#FFE198" fill-opacity=".5" d="M426 194l-48-27-13 49z"/>,<path fill="#5F4C60" fill-opacity=".5" d="M430 208l-72 11 78 19z"/>,<path fill="#2F2D38" fill-opacity=".5" d="M430 254l-4-35 42 24z"/>,<path fill="#312425" fill-opacity=".5" d="M389 227l-13 50-27-26z"/>,<path fill="#754C54" fill-opacity=".5" d="M361 205l-69-28 32 43z"/>,<path fill="#3A4C6A" fill-opacity=".5" d="M256 332l46-48 101 51z"/>,<path fill="#B1473D" fill-opacity=".5" d="M430 280l-29-43-20 18z"/>,<path fill="#196092" fill-opacity=".5" d="M264 133l1 46-54-20z"/>,<path fill="#FFEEDB" fill-opacity=".5" d="M320 198l23-14-11-7z"/>,<path fill="#7C91BA" fill-opacity=".5" d="M450 229l13-11 21 22z"/>,<path fill="#16476C" fill-opacity=".5" d="M270 159l103-31-193 4z"/>,<path fill="#5F6477" fill-opacity=".5" d="M293 215l29-46-69 4z"/>,<path fill="#FB965C" fill-opacity=".5" d="M365 220l36-7-63-39z"/>,<path fill="#FFF1DE" fill-opacity=".5" d="M371 212l20-39 15 14z"/>,<path fill="#553A39" fill-opacity=".5" d="M449 218l146 25 25-44z"/>,<path fill="#3F303D" fill-opacity=".5" d="M470 363l6-77-233 88z"/>,<path fill="#5B4143" fill-opacity=".5" d="M500 190l-24 77-105 80z"/>,<path fill="#8EA27D" fill-opacity=".5" d="M295 173h127l-93-18z"/>,<path fill="#1D5481" fill-opacity=".5" d="M161 181l66 29-72 14z"/>,<path fill="#102E50" fill-opacity=".5" d="M159 110L0 276 35 78z"/>,<path fill="#1C384F" fill-opacity=".5" d="M341 92l-225 33 339 17z"/>,<path fill="#FFCB6A" fill-opacity=".5" d="M354 198l21-23 24 23z"/>,<path fill="#8E5A58" fill-opacity=".5" d="M495 226l19-25 11 24z"/>,<path fill="#D6875A" fill-opacity=".5" d="M433 182l10 20-52 9z"/>,<path fill="#E8966B" fill-opacity=".5" d="M328 203l67-32-78 24z"/>,<path fill="#C46651" fill-opacity=".5" d="M347 198l6-29 10 50z"/>,<path fill="#02110A" fill-opacity=".5" d="M749 203L552 29 749 0z"/>,<path fill="#072125" fill-opacity=".5" d="M39 104l621-34L372 0z"/>,<path fill="#588CAE" fill-opacity=".5" d="M288 155l-2 22 77-20z"/>,<path fill="#7B7BA3" fill-opacity=".5" d="M403 211l15 21 7-8z"/>,<path fill="#263640" fill-opacity=".5" d="M457 91l114 70-102 29z"/>,<path fill="#193C62" fill-opacity=".5" d="M247 344L11 232l60-37z"/>,<path fill="#966C6F" fill-opacity=".5" d="M276 272l66-7-53-28z"/>,<path fill="#834540" fill-opacity=".5" d="M472 194l-107 26 134-10z"/>,<path fill="#213347" fill-opacity=".5" d="M190 223l-59 116 107-66z"/>,<path fill="#414B5C" fill-opacity=".5" d="M266 336l16-85-72-14z"/>,<path fill="#7C788E" fill-opacity=".5" d="M304 232l-20 49 19-8z"/>,<path fill="#0F2437" fill-opacity=".5" d="M81 129l168-63L27 78z"/>,<path fill="#243D49" fill-opacity=".5" d="M271 180l-49 21 37 21z"/>,<path fill="#57697F" fill-opacity=".5" d="M346 295l-51-21-15 53z"/>,<path fill="#53383B" fill-opacity=".5" d="M367 213l-24-15 12 128z"/>,<path fill="#6EAEF5" fill-opacity=".5" d="M242 224l-17-9 1 14z"/>,<path fill="#031311" fill-opacity=".5" d="M437 0H0v76z"/>,<path fill="#85704E" fill-opacity=".5" d="M384 155l66 22-88-7z"/>,<path fill="#0C3B68" fill-opacity=".5" d="M40 233l36 11 6-49z"/>,<path fill="#157DBD" fill-opacity=".5" d="M91 175l51 11-3-16z"/>,<path fill="#944F4A" fill-opacity=".5" d="M344 229l12 26-52 16z"/>,<path fill="#FFC167" fill-opacity=".5" d="M369 199l10 10-24 3z"/>,<path fill="#31384A" fill-opacity=".5" d="M288 209l-35 66 67-69z"/>,<path fill="#B3B7D3" fill-opacity=".5" d="M472 218l-18 10 16 1z"/>,<path fill="#1A3A50" fill-opacity=".5" d="M192 203l-14-69 75 49z"/>,<path fill="#0F396A" fill-opacity=".5" d="M29 164L0 143v24z"/>,<path fill="#0D1917" fill-opacity=".5" d="M749 374l-202-37 202-164z"/>,<path fill="#493F46" fill-opacity=".5" d="M301 339l135-23-51-50z"/>,<path fill="#304352" fill-opacity=".5" d="M483 172l27 7-21-35z"/>,<path fill="#71575F" fill-opacity=".5" d="M295 252l-13-14-20 36z"/>,<path fill="#2B2626" fill-opacity=".5" d="M505 177l37 100 54-97z"/>,<path fill="#F4AF5F" fill-opacity=".5" d="M405 216l9-32-16 14z"/>,<path fill="#3D6583" fill-opacity=".5" d="M345 165l38-23-28-10z"/>,<path fill="#284862" fill-opacity=".5" d="M204 246l42-66-58 27z"/>,<path fill="#2B2328" fill-opacity=".5" d="M515 374l20-93-180 93z"/>,<path fill="#435A78" fill-opacity=".5" d="M249 274l15 10-25 5z"/>,<path fill="#4A3532" fill-opacity=".5" d="M463 165l20 45 45-3z"/>,<path fill="#182D49" fill-opacity=".5" d="M28 268l214 106L66 236z"/>,<path fill="#663835" fill-opacity=".5" d="M469 274l-62 13 10-58z"/>,<path fill="#143C60" fill-opacity=".5" d="M41 127l76 33-67 17z"/>,<path fill="#182C46" fill-opacity=".5" d="M103 189l15 71 47-31z"/>,<path fill="#104677" fill-opacity=".5" d="M137 209l47-9-90-20z"/>,<path fill="#095B95" fill-opacity=".5" d="M92 180l9-20 22-1z"/>,<path fill="#475F83" fill-opacity=".5" d="M282 195l28 1-65 60z"/>,<path fill="#694842" fill-opacity=".5" d="M405 157l77 63-22-49z"/>,<path fill="#6A4D54" fill-opacity=".5" d="M381 313l18-11-48-43z"/>,<path fill="#2B485D" fill-opacity=".5" d="M324 124l72 31 46-11z"/>,<path fill="#304050" fill-opacity=".5" d="M271 297l7 15-26 9z"/>,<path fill="#1B201D" fill-opacity=".5" d="M594 333l5-142 112 28z"/>,<path fill="#665E66" fill-opacity=".5" d="M310 298l33 12 11-43z"/>,<path fill="#4B4152" fill-opacity=".5" d="M357 209l-32 47-13-13z"/>,<path fill="#091617" fill-opacity=".5" d="M749 374H618l27-21z"/>,<path fill="#F4905F" fill-opacity=".5" d="M367 203l5-18-34 7z"/>,<path fill="#3E3E4F" fill-opacity=".5" d="M467 214l-22 25-47-2z"/>,<path fill="#2F3448" fill-opacity=".5" d="M313 320l-61 54 171-30z"/>,<path fill="#A86E5C" fill-opacity=".5" d="M424 207l21 17 1-44z"/>,<path fill="#474C64" fill-opacity=".5" d="M491 224l-9 29-26-23z"/>,<path fill="#285D84" fill-opacity=".5" d="M266 171l26-41 29 16z"/>,<path fill="#292525" fill-opacity=".5" d="M455 300l120-29-72-42z"/>,<path fill="#426D96" fill-opacity=".5" d="M224 171l15-19 47 26z"/>,<path fill="#6176B7" fill-opacity=".5" d="M297 204l-5-3 16-5z"/>,<path fill="#141D32" fill-opacity=".5" d="M0 233v70l157 71z"/>,<path fill="#AC9D62" fill-opacity=".5" d="M356 166l61 4-83 12z"/>,<path fill="#2C3849" fill-opacity=".5" d="M683 335l-5 6 8 1z"/>,<path fill="#13395B" fill-opacity=".5" d="M97 150l56-32 22 70z"/>,<path fill="#223036" fill-opacity=".5" d="M430 166l46-10-25-56z"/>,<path fill="#253651" fill-opacity=".5" d="M208 374h106L129 234z"/>,<path fill="#392B2B" fill-opacity=".5" d="M331 278l35-29 19 3z"/>,<path fill="#5B3C3A" fill-opacity=".5" d="M402 213l-58 28 40 10z"/>,<path fill="#293037" fill-opacity=".5" d="M554 201l49-20 11 45z"/>,<path fill="#B3935E" fill-opacity=".5" d="M395 172l40 37-6-32z"/>,<path fill="#0D5383" fill-opacity=".5" d="M145 183l11-17-56-8z"/>,<path fill="#57564B" fill-opacity=".5" d="M399 148l-20 10 51 18z"/>,<path fill="#031E1E" fill-opacity=".5" d="M749 218L501 85l59-85z"/>,<path fill="#25201F" fill-opacity=".5" d="M549 258l80 9-108-62z"/>,<path fill="#774E4F" fill-opacity=".5" d="M478 228l-15-13 37-10z"/>,<path fill="#D55E54" fill-opacity=".5" d="M402 246l-14 5 18 3z"/>,<path fill="#071D1B" fill-opacity=".5" d="M641 100L223 0h323z"/>,<path fill="#4D3F49" fill-opacity=".5" d="M301 179l-21 7 35 6z"/>,<path fill="#FFE8F6" fill-opacity=".5" d="M341 186l-19-5 8 8z"/>,<path fill="#433741" fill-opacity=".5" d="M390 355l-26-57 73 28z"/>,<path fill="#2F79B4" fill-opacity=".5" d="M175 196l12-5 7 14z"/>,<path fill="#263441" fill-opacity=".5" d="M558 151l-40-32 15-12z"/>,<path fill="#FFF1B0" fill-opacity=".5" d="M396 199l-13 10-12-19z"/>,<path fill="#634D4F" fill-opacity=".5" d="M365 302l-36-1 30-41z"/>,<path fill="#A7625B" fill-opacity=".5" d="M341 260l-18-11-2 32z"/>,<path fill="#5E618C" fill-opacity=".5" d="M300 231l20 14-22 1z"/>,<path fill="#6B4A4C" fill-opacity=".5" d="M569 227l19 19 5-20z"/>,<path fill="#1C4A6F" fill-opacity=".5" d="M245 185l-19-58-34 10z"/>,<path fill="#855E4E" fill-opacity=".5" d="M457 199l-2-17-34-1z"/>,<path fill="#435972" fill-opacity=".5" d="M434 146l17-16-11 8z"/>,<path fill="#724D4C" fill-opacity=".5" d="M471 196l34 35 24-10z"/>,<path fill="#2B2626" fill-opacity=".5" d="M455 238l75 35-48 17z"/>,<path fill="#252E39" fill-opacity=".5" d="M358 235l-9-34-11 3z"/>,<path fill="#47969C" fill-opacity=".5" d="M336 152l-17 8 43 3z"/>,<path fill="#624B5B" fill-opacity=".5" d="M299 236l-38 23 9-16z"/>,<path fill="#423238" fill-opacity=".5" d="M526 248l2-29-28 42z"/>,<path fill="#435373" fill-opacity=".5" d="M280 308l36 21 15-25z"/>,<path fill="#1D2533" fill-opacity=".5" d="M99 374l49-69 87 69z"/>,<path fill="#14548E" fill-opacity=".5" d="M207 143l3-11h10z"/>,<path fill="#5D3A3A" fill-opacity=".5" d="M476 177l-35 39 25 6z"/>,<path fill="#265481" fill-opacity=".5" d="M231 219l-21-18 51 27z"/>,<path fill="#5A6F87" fill-opacity=".5" d="M279 170l18-1-1 26z"/>,<path fill="#2D4A67" fill-opacity=".5" d="M225 294l-14-65 34 36z"/>,<path fill="#465A7C" fill-opacity=".5" d="M340 217l-6-10-13 31z"/>,<path fill="#403E43" fill-opacity=".5" d="M435 157l30 29 2-24z"/>,<path fill="#D5C376" fill-opacity=".5" d="M322 180l24 4-5-17z"/>,<path fill="#97453F" fill-opacity=".5" d="M407 277l-22-17 36-18z"/>,<path fill="#443B42" fill-opacity=".5" d="M552 216l40 1-26-22z"/>,<path fill="#153657" fill-opacity=".5" d="M121 221l-43-72 1 113z"/>,<path fill="#9C7F57" fill-opacity=".5" d="M346 185l29-12-10-6z"/>,<path fill="#FFE6FF" fill-opacity=".5" d="M402 195l-12-7 11-8z"/>,<path fill="#FFE370" fill-opacity=".5" d="M383 195l19-1-2 9z"/>,<path fill="#17679E" fill-opacity=".5" d="M257 160l-23-4 7-10z"/>,<path fill="#45505C" fill-opacity=".5" d="M307 209l-37-18-9 20z"/>,<path fill="#283C52" fill-opacity=".5" d="M276 217l28 19 33-25z"/>,<path fill="#193955" fill-opacity=".5" d="M319 108l-123 17 77 25z"/>,<path fill="#4C6B94" fill-opacity=".5" d="M246 231l-27 13-3-21z"/>,<path fill="#19324B" fill-opacity=".5" d="M205 157l-73 28 8 12z"/>,<path fill="#193046" fill-opacity=".5" d="M184 181l17 23 20-29z"/>,<path fill="#1A3758" fill-opacity=".5" d="M119 312l57-76-86 43z"/>,<path fill="#0F2738" fill-opacity=".5" d="M99 92l54-37 18 79z"/>,<path fill="#132D50" fill-opacity=".5" d="M0 237l82-32-82-25z"/>,<path fill="#14282E" fill-opacity=".5" d="M485 138l64-74-190-5z"/>,<path fill="#21344B" fill-opacity=".5" d="M216 272l-10 31-80-93z"/>,<path fill="#6D4A4C" fill-opacity=".5" d="M303 172v25l17 1z"/>,<path fill="#1D4E6B" fill-opacity=".5" d="M319 151l-34-28 62 13z"/>,<path fill="#453533" fill-opacity=".5" d="M372 270l29 41 10-25z"/>,<path fill="#172E40" fill-opacity=".5" d="M394 81H239l52 38z"/>,<path fill="#212F43" fill-opacity=".5" d="M138 297l141 77h-86z"/>,<path fill="#744A49" fill-opacity=".5" d="M411 288l12 12 25-35z"/>,<path fill="#625B6F" fill-opacity=".5" d="M270 259l16 29 7-28z"/>,<path fill="#4E3936" fill-opacity=".5" d="M471 281l-26 46-3-51z"/>,<path fill="#A67E79" fill-opacity=".5" d="M312 248l-21 8 17 9z"/>,<path fill="#534E58" fill-opacity=".5" d="M426 224l-33 11-18-16z"/>,<path fill="#2D3746" fill-opacity=".5" d="M343 206l21 21-29-1z"/>,<path fill="#849494" fill-opacity=".5" d="M321 160l19 4-50 17z"/>,<path fill="#3E4043" fill-opacity=".5" d="M403 155l30 9-8-25z"/>,<path fill="#606679" fill-opacity=".5" d="M734 198h2l-1 8z"/>,<path fill="#30435A" fill-opacity=".5" d="M495 141l-6-7 15-11z"/>,<path fill="#625768" fill-opacity=".5" d="M440 217l36 2-46 10z"/>,<path fill="#716B70" fill-opacity=".5" d="M451 168l-8 8 13-5z"/>,<path fill="#987E64" fill-opacity=".5" d="M403 173l20-3 6 21z"/>,<path fill="#EECB76" fill-opacity=".5" d="M391 172h-14l-13 36z"/>,<path fill="#A7777A" fill-opacity=".5" d="M341 234l3 11h-9z"/>,<path fill="#D2A181" fill-opacity=".5" d="M335 192l-20-14 7 18z"/>,<path fill="#493736" fill-opacity=".5" d="M491 235l25-4-39-16z"/>,<path fill="#17283D" fill-opacity=".5" d="M15 197l4-51 66 51z"/>,<path fill="#4D78A9" fill-opacity=".5" d="M20 109l3 1-5 1z"/>,<path fill="#8C7072" fill-opacity=".5" d="M505 214l7 2-7 11z"/>,<path fill="#4D3635" fill-opacity=".5" d="M376 237l36-8 37 17z"/>,<path fill="#173D5F" fill-opacity=".5" d="M255 134l-17 14-33-26z"/>,<path fill="#112B41" fill-opacity=".5" d="M158 133l-13-45 149 2z"/>,<path fill="#152628" fill-opacity=".5" d="M598 110l54 75-137 10z"/>,<path fill="#203F5F" fill-opacity=".5" d="M150 213l68 13-41 31z"/>,<path fill="#372D2F" fill-opacity=".5" d="M435 252l46-3-44-10z"/>,<path fill="#3F3441" fill-opacity=".5" d="M388 293l-68 60 50-61z"/>,<path fill="#647B99" fill-opacity=".5" d="M465 236l-1-8-12 4z"/>,<path fill="#3B5879" fill-opacity=".5" d="M207 198l33 70-23-26z"/>,<path fill="#E1CFF2" fill-opacity=".5" d="M410 218l6-4-5 9z"/>,<path fill="#102529" fill-opacity=".5" d="M542 74l89 106-133-94z"/>,<path fill="#1F201D" fill-opacity=".5" d="M649 258l34-41-78-8z"/>,<path fill="#382B31" fill-opacity=".5" d="M403 334l39 22 35-50z"/>,<path fill="#3E7199" fill-opacity=".5" d="M291 146l31 5-40 16z"/>,<path fill="#7D626D" fill-opacity=".5" d="M480 219l-7 10-2-11z"/>,<path fill="#3A4D61" fill-opacity=".5" d="M222 174l52 22-39-29z"/>,<path fill="#5E5D7B" fill-opacity=".5" d="M311 216h30l-6-5z"/>,<path fill="#735051" fill-opacity=".5" d="M337 267h36l-3 15z"/>,<path fill="#8A5C5D" fill-opacity=".5" d="M369 213l-17-5 15 20z"/>,<path fill="#21405B" fill-opacity=".5" d="M296 83l-7 6-18 29z"/>,<path fill="#092123" fill-opacity=".5" d="M511 17l31 60-189-20z"/>,<path fill="#11426B" fill-opacity=".5" d="M72 174l18-18 30 3z"/>,<path fill="#1D2120" fill-opacity=".5" d="M620 298l-131-49 93 125z"/>,<path fill="#485B78" fill-opacity=".5" d="M278 205l-27 52 37-53z"/>,<path fill="#1E2D34" fill-opacity=".5" d="M420 123l45 19v23z"/>,<path fill="#653B3A" fill-opacity=".5" d="M508 204l17 11 1 18z"/>,<path fill="#86A0C2" fill-opacity=".5" d="M419 231v-6l6 2z"/>,<path fill="#FFEE72" fill-opacity=".5" d="M374 194l7 6-16 10z"/>,<path fill="#404E5C" fill-opacity=".5" d="M241 181l43-4 6 9z"/>,<path fill="#312529" fill-opacity=".5" d="M361 262l16 1v-22z"/>,<path fill="#0D1B23" fill-opacity=".5" d="M0 97l210-57L0 56z"/>,<path fill="#DD7F68" fill-opacity=".5" d="M357 209l11 6-20-31z"/>,<path fill="#28343A" fill-opacity=".5" d="M251 189l4 27 14-19z"/>,<path fill="#673835" fill-opacity=".5" d="M380 264l14-26-19-6z"/>,<path fill="#BFABCB" fill-opacity=".5" d="M387 287l-3 4-4-1z"/>,<path fill="#1B2328" fill-opacity=".5" d="M582 338l31 36 42-43z"/>,<path fill="#11141E" fill-opacity=".5" d="M0 374v-81l65 81z"/>,<path fill="#2E3243" fill-opacity=".5" d="M338 318l-23 56-20-29z"/>,<path fill="#17426C" fill-opacity=".5" d="M176 224l-33-21 23-24z"/>,<path fill="#1F3F61" fill-opacity=".5" d="M175 306l54 8-135-69z"/>,<path fill="#FFE7BE" fill-opacity=".5" d="M393 170l-7 10 3 20z"/>,<path fill="#343B4A" fill-opacity=".5" d="M262 250l6 31-28-18z"/>,<path fill="#2A91CF" fill-opacity=".5" d="M98 176l23 1-7-6z"/>,<path fill="#325575" fill-opacity=".5" d="M226 191l-13 30-36-6z"/>,<path fill="#1D333D" fill-opacity=".5" d="M452 137l-48-42-59 24z"/>,<path fill="#5D4245" fill-opacity=".5" d="M313 208l21 5 14-12z"/>,<path fill="#4D4C5D" fill-opacity=".5" d="M276 316l21-26-30-33z"/>,<path fill="#185379" fill-opacity=".5" d="M245 150l34 17-37-35z"/>,<path fill="#FFE3D5" fill-opacity=".5" d="M376 196l25 11-8-6z"/>,<path fill="#095288" fill-opacity=".5" d="M93 185l3-11 9 9z"/>,<path fill="#402F30" fill-opacity=".5" d="M347 253l17-2 10 18z"/>,<path fill="#5A4346" fill-opacity=".5" d="M394 315l-42-26 44 4z"/>,<path fill="#173452" fill-opacity=".5" d="M150 136l43 20 8-38z"/>,<path fill="#6F3D3C" fill-opacity=".5" d="M336 257l14-10-4 30z"/>,<path fill="#AAAA74" fill-opacity=".5" d="M331 178l21-11h-33z"/>,<path fill="#396786" fill-opacity=".5" d="M376 143l-73 4 76 10z"/>,<path fill="#322423" fill-opacity=".5" d="M579 242l18 20 12-28z"/>,<path fill="#296391" fill-opacity=".5" d="M184 219l7-29-19 22z"/>,<path fill="#3B535D" fill-opacity=".5" d="M383 135l-9 23 35-1z"/>,<path fill="#121E1D" fill-opacity=".5" d="M570 282l179 86-119-141z"/>,<path fill="#6A727F" fill-opacity=".5" d="M281 259l19 30 41 11z"/>,<path fill="#424B52" fill-opacity=".5" d="M246 183l31 27-6-23z"/>,<path fill="#292A2C" fill-opacity=".5" d="M522 209l-13-42 63 4z"/>,<path fill="#7A4B4F" fill-opacity=".5" d="M451 218l-36-15-1 15z"/>,<path fill="#2C393F" fill-opacity=".5" d="M644 24l3-14 2 14z"/>,<path fill="#263D55" fill-opacity=".5" d="M237 270l-2 75-51-36z"/>,<path fill="#152C45" fill-opacity=".5" d="M120 190l-38 19 9-17z"/>,<path fill="#184567" fill-opacity=".5" d="M194 173l-33-30-9 22z"/>,<path fill="#C87168" fill-opacity=".5" d="M425 201l-50 13 15 2z"/>,<path fill="#424A55" fill-opacity=".5" d="M608 208l24-7-3-1z"/>,<path fill="#0B1411" fill-opacity=".5" d="M0 57V0h164z"/>,<path fill="#5C868E" fill-opacity=".5" d="M351 158l22 9-15-18z"/>,<path fill="#FFE5FF" fill-opacity=".5" d="M403 191l-18-4 14-6z"/>,<path fill="#68728F" fill-opacity=".5" d="M702 270l1-3-2-2z"/>,<path fill="#071614" fill-opacity=".5" d="M749 324v-79l-65 34z"/>,<path fill="#0B5492" fill-opacity=".5" d="M89 139l-13 8 9-3z"/>,<path fill="#4E668D" fill-opacity=".5" d="M249 226l-4 27 33-32z"/>,<path fill="#203341" fill-opacity=".5" d="M497 162l47-6-55-42z"/>,<path fill="#574746" fill-opacity=".5" d="M458 292l-31 23-12-21z"/>,<path fill="#434962" fill-opacity=".5" d="M274 367l21-17-18-27z"/>,<path fill="#504241" fill-opacity=".5" d="M417 290l-30 33 38-4z"/>,<path fill="#174977" fill-opacity=".5" d="M154 198l-41-9 26 19z"/>,<path fill="#25211C" fill-opacity=".5" d="M597 235l48-9-43-10z"/>,<path fill="#081B19" fill-opacity=".5" d="M560 0l168 235-7-100z"/>,<path fill="#392B28" fill-opacity=".5" d="M472 265l11 41-25-11z"/>,<path fill="#214469" fill-opacity=".5" d="M175 284l-11-6 12-8z"/>,<path fill="#7A6E57" fill-opacity=".5" d="M386 157l35 15-30-4z"/>,<path fill="#645567" fill-opacity=".5" d="M327 226l23 9-20 1z"/>,<path fill="#2D2426" fill-opacity=".5" d="M544 260l-15-39-20 57z"/>,<path fill="#7A726C" fill-opacity=".5" d="M321 293l1-23-27-12z"/>,<path fill="#2B2C30" fill-opacity=".5" d="M574 191l-5 27-19-18z"/>,<path fill="#11294B" fill-opacity=".5" d="M25 258l4-35 70 51z"/>,<path fill="#30384D" fill-opacity=".5" d="M215 313l112 61h-59z"/>,<path fill="#626065" fill-opacity=".5" d="M332 273l7 29-19-14z"/>,<path fill="#2B353C" fill-opacity=".5" d="M709 185l-5 1-2-5z"/>,<path fill="#9E8273" fill-opacity=".5" d="M319 167l5 17h-15z"/>,<path fill="#133151" fill-opacity=".5" d="M35 138l65 2-15-21z"/>,<path fill="#443D4B" fill-opacity=".5" d="M492 232l-32 17h43z"/>,<path fill="#15273A" fill-opacity=".5" d="M19 156l4-66 54 6z"/>,<path fill="#22242A" fill-opacity=".5" d="M693 307h-12l12 16z"/>,<path fill="#6587AC" fill-opacity=".5" d="M300 173l24-12-37 1z"/>,<path fill="#123359" fill-opacity=".5" d="M22 209l27 36 36-51z"/>,<path fill="#28231C" fill-opacity=".5" d="M515 185l18 38 19-19z"/>,<path fill="#583533" fill-opacity=".5" d="M490 220l-8-11 1-17z"/>,<path fill="#F8D265" fill-opacity=".5" d="M409 183v12l-9-20z"/>,<path fill="#794C4A" fill-opacity=".5" d="M357 233l-12 9-3-9z"/>,<path fill="#1C4459" fill-opacity=".5" d="M422 133l-52-3 15 14z"/>,<path fill="#2D3F4A" fill-opacity=".5" d="M705 156l1-3-8 3z"/>,<path fill="#4C586F" fill-opacity=".5" d="M293 301l16 5-33-25z"/>,<path fill="#534D5F" fill-opacity=".5" d="M437 347l1-9v6z"/>,<path fill="#7F8296" fill-opacity=".5" d="M590 293l-5 4 2-1z"/>,<path fill="#1E1F1C" fill-opacity=".5" d="M541 230l16-3-3 23z"/>,<path fill="#4674A0" fill-opacity=".5" d="M233 161l22 16 14-14z"/>,<path fill="#142120" fill-opacity=".5" d="M648 205l57-33-3 35z"/>,<path fill="#5A332E" fill-opacity=".5" d="M460 195l7 12-5-26z"/>,<path fill="#504B57" fill-opacity=".5" d="M309 184l-9-10-1 6z"/>,<path fill="#3C3333" fill-opacity=".5" d="M492 176l9 44 20-26z"/>,<path fill="#1A2A42" fill-opacity=".5" d="M99 317l26-26 79 56z"/>,<path fill="#7396D2" fill-opacity=".5" d="M367 149l-1-6-2 3z"/>,<path fill="#282529" fill-opacity=".5" d="M450 374l26-88 22 64z"/>,<path fill="#14385E" fill-opacity=".5" d="M54 147l-22 6 11 18z"/>,<path fill="#1A2C35" fill-opacity=".5" d="M442 91l101 7 22 64z"/>,<path fill="#65494A" fill-opacity=".5" d="M592 241l-11-28-2 23z"/>,<path fill="#365270" fill-opacity=".5" d="M241 272l-4 18h14z"/>,<path fill="#323E54" fill-opacity=".5" d="M315 245l-1-42 15 28z"/>,<path fill="#433C4C" fill-opacity=".5" d="M344 337l48-9-12-40z"/>,<path fill="#1D3755" fill-opacity=".5" d="M157 248l18-50-2-3z"/>,<path fill="#F3B877" fill-opacity=".5" d="M396 207l14-12v13z"/>,<path fill="#091C1E" fill-opacity=".5" d="M307 44l93 10 9-54z"/>,<path fill="#838CB2" fill-opacity=".5" d="M291 279l-2-1 9-8z"/>,<path fill="#646350" fill-opacity=".5" d="M405 159l-19-3 14 11z"/>,<path fill="#233955" fill-opacity=".5" d="M227 290l-38 18 24 44z"/>,<path fill="#393B49" fill-opacity=".5" d="M270 266l4-9-35-1z"/>,<path fill="#3D3640" fill-opacity=".5" d="M451 209l16 12-13 2z"/>,<path fill="#594B4E" fill-opacity=".5" d="M466 304l-33-4 12 6z"/>,<path fill="#583939" fill-opacity=".5" d="M395 288l-15-35 5 40z"/>,<path fill="#18445B" fill-opacity=".5" d="M316 141l2-12 22 1z"/>,<path fill="#3E637C" fill-opacity=".5" d="M299 172l-38-1 18-10z"/>,<path fill="#724E4B" fill-opacity=".5" d="M325 258l19-31-31 30z"/>,<path fill="#93594C" fill-opacity=".5" d="M442 194l-8-17v16z"/>,<path fill="#7C83A3" fill-opacity=".5" d="M453 220l-6-3 15 16z"/>,<path fill="#224363" fill-opacity=".5" d="M198 224l-28 31-4-48z"/>,<path fill="#56515F" fill-opacity=".5" d="M354 306l-50-3 54-6z"/>,<path fill="#A6A9CC" fill-opacity=".5" d="M405 347l2-2h-2z"/>,<path fill="#4B446A" fill-opacity=".5" d="M303 210v-16l8 5z"/>,<path fill="#B44F46" fill-opacity=".5" d="M390 259l26-16-24 4z"/>,<path fill="#293D4B" fill-opacity=".5" d="M451 109l-32-2 27-3z"/>]</svg>