<!--?xml version="1.0" standalone="no"?-->
<svg xmlns="http://www.w3.org/2000/svg" version="1.2" baseProfile="tiny" width="500" height="333">
[<rect x="0" y="0" width="499" height="332" fill="rgb(53,62,62)" fill-opacity="1"></rect>,<polygon points="192,123 145,205 73,63" fill="rgb(210,186,109)" fill-opacity="0.5019607843137255"></polygon>,<polygon points="472,92 180,0 173,227" fill="rgb(55,95,108)" fill-opacity="0.5019607843137255"></polygon>,<polygon points="205,81 239,53 249,101" fill="rgb(9,54,66)" fill-opacity="0.5019607843137255"></polygon>,<polygon points="80,0 145,106 206,74" fill="rgb(38,89,106)" fill-opacity="0.5019607843137255"></polygon>,<polygon points="0,332 499,188 499,332" fill="rgb(37,22,20)" fill-opacity="0.5019607843137255"></polygon>,<polygon points="160,264 252,185 71,119" fill="rgb(103,84,62)" fill-opacity="0.5019607843137255"></polygon>,<polygon points="216,270 0,332 0,161" fill="rgb(48,30,23)" fill-opacity="0.5019607843137255"></polygon>,<polygon points="125,90 184,137 143,143" fill="rgb(255,221,97)" fill-opacity="0.5019607843137255"></polygon>,<polygon points="227,204 141,139 108,236" fill="rgb(100,85,67)" fill-opacity="0.5019607843137255"></polygon>,<polygon points="224,9 202,89 156,30" fill="rgb(90,94,88)" fill-opacity="0.5019607843137255"></polygon>,<polygon points="122,0 225,104 164,117" fill="rgb(32,77,86)" fill-opacity="0.5019607843137255"></polygon>,<polygon points="153,69 46,26 77,146" fill="rgb(82,102,98)" fill-opacity="0.5019607843137255"></polygon>,<polygon points="168,208 165,182 207,202" fill="rgb(146,116,84)" fill-opacity="0.5019607843137255"></polygon>,<polygon points="103,96 151,125 100,146" fill="rgb(170,173,117)" fill-opacity="0.5019607843137255"></polygon>,<polygon points="499,0 212,0 499,169" fill="rgb(18,52,73)" fill-opacity="0.5019607843137255"></polygon>,<polygon points="162,126 142,127 129,98" fill="rgb(255,230,112)" fill-opacity="0.5019607843137255"></polygon>,<polygon points="183,130 153,149 182,178" fill="rgb(122,100,63)" fill-opacity="0.5019607843137255"></polygon>,<polygon points="407,125 323,220 212,94" fill="rgb(72,92,99)" fill-opacity="0.5019607843137255"></polygon>,<polygon points="105,110 115,121 157,102" fill="rgb(199,182,115)" fill-opacity="0.5019607843137255"></polygon>,<polygon points="351,8 233,1 358,186" fill="rgb(35,86,109)" fill-opacity="0.5019607843137255"></polygon>,<polygon points="64,141 158,225 110,121" fill="rgb(73,91,85)" fill-opacity="0.5019607843137255"></polygon>,<polygon points="0,0 98,0 0,98" fill="rgb(31,48,56)" fill-opacity="0.5019607843137255"></polygon>,<polygon points="178,125 248,84 198,183" fill="rgb(37,67,65)" fill-opacity="0.5019607843137255"></polygon>,<polygon points="111,105 105,18 53,95" fill="rgb(82,93,86)" fill-opacity="0.5019607843137255"></polygon>,<polygon points="265,121 319,83 346,136" fill="rgb(69,103,115)" fill-opacity="0.5019607843137255"></polygon>,<polygon points="279,306 0,278 0,314" fill="rgb(28,28,30)" fill-opacity="0.5019607843137255"></polygon>,<polygon points="175,287 497,233 211,166" fill="rgb(69,58,55)" fill-opacity="0.5019607843137255"></polygon>,<polygon points="444,88 446,80 441,87" fill="rgb(158,149,191)" fill-opacity="0.5019607843137255"></polygon>,<polygon points="143,151 114,158 82,99" fill="rgb(110,126,98)" fill-opacity="0.5019607843137255"></polygon>,<polygon points="188,270 137,168 57,212" fill="rgb(73,66,59)" fill-opacity="0.5019607843137255"></polygon>,<polygon points="51,49 55,45 54,51" fill="rgb(255,213,255)" fill-opacity="0.5019607843137255"></polygon>,<polygon points="39,40 22,76 83,73" fill="rgb(50,72,75)" fill-opacity="0.5019607843137255"></polygon>,<polygon points="357,58 441,141 342,213" fill="rgb(45,67,85)" fill-opacity="0.5019607843137255"></polygon>,<polygon points="58,116 0,249 0,9" fill="rgb(32,47,51)" fill-opacity="0.5019607843137255"></polygon>,<polygon points="190,138 158,139 183,150" fill="rgb(133,115,83)" fill-opacity="0.5019607843137255"></polygon>,<polygon points="384,184 499,0 499,283" fill="rgb(43,50,55)" fill-opacity="0.5019607843137255"></polygon>,<polygon points="104,70 109,43 152,84" fill="rgb(30,55,69)" fill-opacity="0.5019607843137255"></polygon>,<polygon points="168,106 87,92 125,80" fill="rgb(128,118,90)" fill-opacity="0.5019607843137255"></polygon>,<polygon points="395,123 394,116 400,107" fill="rgb(97,93,158)" fill-opacity="0.5019607843137255"></polygon>,<polygon points="425,91 417,95 413,93" fill="rgb(231,192,194)" fill-opacity="0.5019607843137255"></polygon>,<polygon points="177,141 174,115 149,135" fill="rgb(201,154,70)" fill-opacity="0.5019607843137255"></polygon>,<polygon points="299,205 217,204 263,121" fill="rgb(49,66,70)" fill-opacity="0.5019607843137255"></polygon>,<polygon points="164,138 101,184 166,218" fill="rgb(93,89,73)" fill-opacity="0.5019607843137255"></polygon>,<polygon points="230,27 189,0 227,47" fill="rgb(71,92,100)" fill-opacity="0.5019607843137255"></polygon>,<polygon points="174,191 181,205 187,198" fill="rgb(160,146,130)" fill-opacity="0.5019607843137255"></polygon>,<polygon points="130,41 159,0 69,0" fill="rgb(28,54,71)" fill-opacity="0.5019607843137255"></polygon>,<polygon points="207,62 177,60 185,34" fill="rgb(118,108,89)" fill-opacity="0.5019607843137255"></polygon>,<polygon points="244,62 314,27 210,0" fill="rgb(31,67,83)" fill-opacity="0.5019607843137255"></polygon>,<polygon points="304,212 340,151 265,157" fill="rgb(81,89,86)" fill-opacity="0.5019607843137255"></polygon>,<polygon points="401,61 336,0 309,34" fill="rgb(28,59,75)" fill-opacity="0.5019607843137255"></polygon>,<polygon points="245,106 248,169 153,28" fill="rgb(67,81,80)" fill-opacity="0.5019607843137255"></polygon>,<polygon points="223,0 148,57 151,0" fill="rgb(46,67,78)" fill-opacity="0.5019607843137255"></polygon>,<polygon points="130,69 145,64 138,61" fill="rgb(182,159,255)" fill-opacity="0.5019607843137255"></polygon>,<polygon points="357,248 260,204 446,149" fill="rgb(61,64,70)" fill-opacity="0.5019607843137255"></polygon>,<polygon points="132,136 130,117 164,149" fill="rgb(191,160,85)" fill-opacity="0.5019607843137255"></polygon>,<polygon points="61,84 96,149 27,133" fill="rgb(46,72,70)" fill-opacity="0.5019607843137255"></polygon>,<polygon points="257,0 278,0 263,24" fill="rgb(52,83,105)" fill-opacity="0.5019607843137255"></polygon>,<polygon points="439,76 469,166 382,131" fill="rgb(42,58,66)" fill-opacity="0.5019607843137255"></polygon>,<polygon points="73,52 102,54 96,81" fill="rgb(104,110,97)" fill-opacity="0.5019607843137255"></polygon>,<polygon points="79,85 28,21 59,114" fill="rgb(54,73,74)" fill-opacity="0.5019607843137255"></polygon>,<polygon points="222,56 349,129 319,42" fill="rgb(43,90,110)" fill-opacity="0.5019607843137255"></polygon>,<polygon points="140,68 155,38 143,106" fill="rgb(38,73,84)" fill-opacity="0.5019607843137255"></polygon>,<polygon points="16,116 14,119 16,120" fill="rgb(155,175,233)" fill-opacity="0.5019607843137255"></polygon>,<polygon points="499,302 313,332 157,279" fill="rgb(31,32,33)" fill-opacity="0.5019607843137255"></polygon>,<polygon points="159,106 184,62 191,106" fill="rgb(18,76,84)" fill-opacity="0.5019607843137255"></polygon>,<polygon points="75,18 92,6 79,41" fill="rgb(21,37,47)" fill-opacity="0.5019607843137255"></polygon>,<polygon points="346,11 499,40 476,-6" fill="rgb(27,44,51)" fill-opacity="0.5019607843137255"></polygon>,<polygon points="128,23 96,56 35,39" fill="rgb(65,81,85)" fill-opacity="0.5019607843137255"></polygon>,<polygon points="232,92 178,159 196,175" fill="rgb(33,62,66)" fill-opacity="0.5019607843137255"></polygon>,<polygon points="272,43 258,34 256,86" fill="rgb(61,94,107)" fill-opacity="0.5019607843137255"></polygon>,<polygon points="175,80 182,73 105,46" fill="rgb(48,88,99)" fill-opacity="0.5019607843137255"></polygon>,<polygon points="227,140 290,128 246,117" fill="rgb(101,101,92)" fill-opacity="0.5019607843137255"></polygon>,<polygon points="180,112 159,111 163,134" fill="rgb(140,120,82)" fill-opacity="0.5019607843137255"></polygon>,<polygon points="161,137 158,116 146,117" fill="rgb(255,224,95)" fill-opacity="0.5019607843137255"></polygon>,<polygon points="133,38 143,43 133,59" fill="rgb(51,109,146)" fill-opacity="0.5019607843137255"></polygon>,<polygon points="157,95 191,116 158,110" fill="rgb(61,93,88)" fill-opacity="0.5019607843137255"></polygon>,<polygon points="448,124 445,127 446,129" fill="rgb(90,135,182)" fill-opacity="0.5019607843137255"></polygon>,<polygon points="166,178 149,175 151,193" fill="rgb(80,75,61)" fill-opacity="0.5019607843137255"></polygon>,<polygon points="300,257 113,277 173,226" fill="rgb(71,53,40)" fill-opacity="0.5019607843137255"></polygon>,<polygon points="324,137 297,103 300,135" fill="rgb(74,105,116)" fill-opacity="0.5019607843137255"></polygon>,<polygon points="228,14 206,22 225,-1" fill="rgb(62,87,94)" fill-opacity="0.5019607843137255"></polygon>,<polygon points="140,100 128,95 146,134" fill="rgb(239,202,116)" fill-opacity="0.5019607843137255"></polygon>,<polygon points="173,207 213,181 198,237" fill="rgb(108,86,61)" fill-opacity="0.5019607843137255"></polygon>,<polygon points="340,237 347,246 330,228" fill="rgb(120,102,116)" fill-opacity="0.5019607843137255"></polygon>,<polygon points="109,91 137,68 98,71" fill="rgb(60,72,69)" fill-opacity="0.5019607843137255"></polygon>,<polygon points="212,162 215,162 213,171" fill="rgb(83,141,159)" fill-opacity="0.5019607843137255"></polygon>,<polygon points="96,3 113,0 89,0" fill="rgb(64,104,126)" fill-opacity="0.5019607843137255"></polygon>,<polygon points="330,246 131,235 359,205" fill="rgb(72,62,58)" fill-opacity="0.5019607843137255"></polygon>,<polygon points="260,58 277,25 299,124" fill="rgb(35,74,89)" fill-opacity="0.5019607843137255"></polygon>,<polygon points="137,81 116,82 107,109" fill="rgb(132,123,89)" fill-opacity="0.5019607843137255"></polygon>,<polygon points="105,114 114,135 118,101" fill="rgb(166,173,125)" fill-opacity="0.5019607843137255"></polygon>,<polygon points="134,76 129,86 174,111" fill="rgb(62,84,83)" fill-opacity="0.5019607843137255"></polygon>,<polygon points="228,95 262,88 311,104" fill="rgb(24,60,74)" fill-opacity="0.5019607843137255"></polygon>,<polygon points="207,44 218,64 181,62" fill="rgb(94,97,89)" fill-opacity="0.5019607843137255"></polygon>,<polygon points="444,97 384,94 402,119" fill="rgb(52,67,76)" fill-opacity="0.5019607843137255"></polygon>,<polygon points="125,84 124,126 134,115" fill="rgb(140,127,80)" fill-opacity="0.5019607843137255"></polygon>,<polygon points="300,141 331,181 377,91" fill="rgb(58,85,99)" fill-opacity="0.5019607843137255"></polygon>,<polygon points="139,257 3,225 36,139" fill="rgb(51,52,52)" fill-opacity="0.5019607843137255"></polygon>,<polygon points="214,161 180,148 252,143" fill="rgb(43,69,68)" fill-opacity="0.5019607843137255"></polygon>,<polygon points="268,91 253,44 241,78" fill="rgb(68,96,106)" fill-opacity="0.5019607843137255"></polygon>,<polygon points="467,126 462,126 467,113" fill="rgb(57,93,128)" fill-opacity="0.5019607843137255"></polygon>,<polygon points="232,226 248,228 230,222" fill="rgb(101,68,122)" fill-opacity="0.5019607843137255"></polygon>,<polygon points="363,62 313,78 377,124" fill="rgb(36,80,101)" fill-opacity="0.5019607843137255"></polygon>,<polygon points="0,311 499,332 0,332" fill="rgb(41,37,32)" fill-opacity="0.5019607843137255"></polygon>,<polygon points="112,127 93,132 96,146" fill="rgb(90,112,101)" fill-opacity="0.5019607843137255"></polygon>,<polygon points="112,126 112,141 135,138" fill="rgb(137,138,93)" fill-opacity="0.5019607843137255"></polygon>,<polygon points="384,207 382,207 389,205" fill="rgb(201,159,88)" fill-opacity="0.5019607843137255"></polygon>,<polygon points="121,68 111,80 114,62" fill="rgb(23,48,54)" fill-opacity="0.5019607843137255"></polygon>,<polygon points="244,261 18,285 266,296" fill="rgb(53,41,35)" fill-opacity="0.5019607843137255"></polygon>,<polygon points="499,140 499,274 301,270" fill="rgb(51,50,50)" fill-opacity="0.5019607843137255"></polygon>,<polygon points="291,134 260,123 288,101" fill="rgb(84,98,93)" fill-opacity="0.5019607843137255"></polygon>,<polygon points="432,54 438,58 436,53" fill="rgb(96,126,169)" fill-opacity="0.5019607843137255"></polygon>,<polygon points="145,225 194,181 167,165" fill="rgb(107,87,66)" fill-opacity="0.5019607843137255"></polygon>,<polygon points="341,189 349,193 353,191" fill="rgb(130,109,139)" fill-opacity="0.5019607843137255"></polygon>,<polygon points="197,99 186,79 194,78" fill="rgb(73,87,93)" fill-opacity="0.5019607843137255"></polygon>,<polygon points="402,185 391,98 331,174" fill="rgb(51,72,81)" fill-opacity="0.5019607843137255"></polygon>,<polygon points="408,84 434,104 418,72" fill="rgb(63,75,82)" fill-opacity="0.5019607843137255"></polygon>,<polygon points="23,86 79,69 75,59" fill="rgb(44,58,58)" fill-opacity="0.5019607843137255"></polygon>,<polygon points="499,262 499,332 357,332" fill="rgb(35,34,33)" fill-opacity="0.5019607843137255"></polygon>,<polygon points="90,77 64,74 63,18" fill="rgb(70,84,80)" fill-opacity="0.5019607843137255"></polygon>,<polygon points="143,166 112,158 143,143" fill="rgb(108,109,88)" fill-opacity="0.5019607843137255"></polygon>,<polygon points="366,117 374,180 334,129" fill="rgb(57,80,94)" fill-opacity="0.5019607843137255"></polygon>,<polygon points="414,25 417,29 418,24" fill="rgb(90,121,187)" fill-opacity="0.5019607843137255"></polygon>,<polygon points="306,86 309,89 259,89" fill="rgb(70,104,128)" fill-opacity="0.5019607843137255"></polygon>,<polygon points="126,10 102,32 96,30" fill="rgb(40,61,71)" fill-opacity="0.5019607843137255"></polygon>,<polygon points="165,246 132,197 219,224" fill="rgb(87,73,58)" fill-opacity="0.5019607843137255"></polygon>,<polygon points="200,162 222,167 205,181" fill="rgb(47,65,69)" fill-opacity="0.5019607843137255"></polygon>,<polygon points="122,72 153,81 95,43" fill="rgb(38,66,78)" fill-opacity="0.5019607843137255"></polygon>,<polygon points="176,218 202,204 202,173" fill="rgb(114,93,68)" fill-opacity="0.5019607843137255"></polygon>,<polygon points="139,137 152,127 141,108" fill="rgb(234,192,98)" fill-opacity="0.5019607843137255"></polygon>,<polygon points="257,156 269,151 263,92" fill="rgb(46,74,80)" fill-opacity="0.5019607843137255"></polygon>,<polygon points="162,112 185,115 176,122" fill="rgb(110,128,116)" fill-opacity="0.5019607843137255"></polygon>,<polygon points="431,143 406,111 425,146" fill="rgb(50,68,82)" fill-opacity="0.5019607843137255"></polygon>,<polygon points="82,134 129,196 97,216" fill="rgb(67,72,71)" fill-opacity="0.5019607843137255"></polygon>,<polygon points="141,60 126,68 131,62" fill="rgb(77,81,129)" fill-opacity="0.5019607843137255"></polygon>,<polygon points="30,0 0,0 0,20" fill="rgb(34,38,41)" fill-opacity="0.5019607843137255"></polygon>,<polygon points="499,16 492,0 476,28" fill="rgb(27,36,41)" fill-opacity="0.5019607843137255"></polygon>,<polygon points="266,67 262,65 258,72" fill="rgb(125,110,210)" fill-opacity="0.5019607843137255"></polygon>,<polygon points="159,45 151,20 112,36" fill="rgb(25,59,69)" fill-opacity="0.5019607843137255"></polygon>,<polygon points="206,91 169,105 226,148" fill="rgb(36,78,81)" fill-opacity="0.5019607843137255"></polygon>,<polygon points="98,70 109,40 74,73" fill="rgb(93,102,93)" fill-opacity="0.5019607843137255"></polygon>,<polygon points="151,40 126,45 149,40" fill="rgb(29,93,113)" fill-opacity="0.5019607843137255"></polygon>,<polygon points="351,248 494,199 389,203" fill="rgb(53,54,58)" fill-opacity="0.5019607843137255"></polygon>,<polygon points="71,115 102,108 65,85" fill="rgb(79,98,88)" fill-opacity="0.5019607843137255"></polygon>,<polygon points="128,54 139,49 96,16" fill="rgb(38,65,76)" fill-opacity="0.5019607843137255"></polygon>,<polygon points="499,15 485,0 499,0" fill="rgb(26,34,40)" fill-opacity="0.5019607843137255"></polygon>,<polygon points="499,51 422,94 443,35" fill="rgb(32,53,61)" fill-opacity="0.5019607843137255"></polygon>,<polygon points="313,45 330,94 297,106" fill="rgb(42,94,114)" fill-opacity="0.5019607843137255"></polygon>,<polygon points="301,64 295,73 269,50" fill="rgb(26,72,86)" fill-opacity="0.5019607843137255"></polygon>,<polygon points="121,57 119,57 109,61" fill="rgb(65,109,129)" fill-opacity="0.5019607843137255"></polygon>,<polygon points="23,50 10,79 37,68" fill="rgb(47,65,69)" fill-opacity="0.5019607843137255"></polygon>,<polygon points="153,136 160,130 145,129" fill="rgb(158,136,92)" fill-opacity="0.5019607843137255"></polygon>,<polygon points="111,128 144,149 135,130" fill="rgb(134,128,87)" fill-opacity="0.5019607843137255"></polygon>,<polygon points="176,6 192,19 196,10" fill="rgb(36,53,62)" fill-opacity="0.5019607843137255"></polygon>,<polygon points="286,6 243,60 227,40" fill="rgb(27,64,77)" fill-opacity="0.5019607843137255"></polygon>,<polygon points="37,0 38,11 42,0" fill="rgb(82,115,128)" fill-opacity="0.5019607843137255"></polygon>,<polygon points="281,26 286,32 256,11" fill="rgb(63,91,112)" fill-opacity="0.5019607843137255"></polygon>,<polygon points="293,190 215,193 309,252" fill="rgb(58,57,60)" fill-opacity="0.5019607843137255"></polygon>,<polygon points="340,20 441,54 399,10" fill="rgb(26,48,59)" fill-opacity="0.5019607843137255"></polygon>,<polygon points="233,200 281,195 249,147" fill="rgb(46,63,67)" fill-opacity="0.5019607843137255"></polygon>,<polygon points="164,132 171,121 177,141" fill="rgb(233,181,61)" fill-opacity="0.5019607843137255"></polygon>,<polygon points="167,133 168,145 129,176" fill="rgb(109,104,77)" fill-opacity="0.5019607843137255"></polygon>,<polygon points="499,95 501,105 499,94" fill="rgb(195,177,150)" fill-opacity="0.5019607843137255"></polygon>,<polygon points="95,162 99,133 124,161" fill="rgb(73,90,83)" fill-opacity="0.5019607843137255"></polygon>,<polygon points="101,124 99,101 116,132" fill="rgb(134,146,117)" fill-opacity="0.5019607843137255"></polygon>,<polygon points="109,285 122,301 306,294" fill="rgb(39,35,36)" fill-opacity="0.5019607843137255"></polygon>,<polygon points="163,152 165,146 173,150" fill="rgb(200,161,69)" fill-opacity="0.5019607843137255"></polygon>,<polygon points="372,65 383,32 334,52" fill="rgb(32,62,76)" fill-opacity="0.5019607843137255"></polygon>,<polygon points="220,54 245,83 212,90" fill="rgb(22,62,72)" fill-opacity="0.5019607843137255"></polygon>,<polygon points="146,14 110,0 109,13" fill="rgb(30,49,58)" fill-opacity="0.5019607843137255"></polygon>,<polygon points="263,126 206,66 266,118" fill="rgb(44,68,74)" fill-opacity="0.5019607843137255"></polygon>,<polygon points="173,189 189,196 165,195" fill="rgb(139,118,85)" fill-opacity="0.5019607843137255"></polygon>,<polygon points="318,119 311,101 246,50" fill="rgb(47,83,95)" fill-opacity="0.5019607843137255"></polygon>,<polygon points="248,60 259,32 264,40" fill="rgb(55,91,109)" fill-opacity="0.5019607843137255"></polygon>,<polygon points="313,18 317,14 308,25" fill="rgb(68,104,128)" fill-opacity="0.5019607843137255"></polygon>,<polygon points="175,63 186,13 160,23" fill="rgb(69,82,83)" fill-opacity="0.5019607843137255"></polygon>,<polygon points="229,26 228,0 246,0" fill="rgb(23,50,61)" fill-opacity="0.5019607843137255"></polygon>,<polygon points="290,139 317,172 276,186" fill="rgb(81,91,85)" fill-opacity="0.5019607843137255"></polygon>,<polygon points="115,78 101,106 130,74" fill="rgb(95,95,79)" fill-opacity="0.5019607843137255"></polygon>,<polygon points="63,101 107,141 91,88" fill="rgb(77,95,83)" fill-opacity="0.5019607843137255"></polygon>,<polygon points="177,65 230,66 193,80" fill="rgb(48,72,76)" fill-opacity="0.5019607843137255"></polygon>,<polygon points="108,66 124,36 100,48" fill="rgb(54,71,76)" fill-opacity="0.5019607843137255"></polygon>,<polygon points="128,106 115,107 131,113" fill="rgb(195,182,103)" fill-opacity="0.5019607843137255"></polygon>,<polygon points="153,138 151,147 137,125" fill="rgb(198,170,80)" fill-opacity="0.5019607843137255"></polygon>,<polygon points="368,114 364,90 410,133" fill="rgb(40,66,82)" fill-opacity="0.5019607843137255"></polygon>,<polygon points="487,4 488,6 484,2" fill="rgb(180,199,255)" fill-opacity="0.5019607843137255"></polygon>,<polygon points="245,62 223,65 249,49" fill="rgb(31,61,73)" fill-opacity="0.5019607843137255"></polygon>,<polygon points="232,10 264,81 240,8" fill="rgb(33,67,80)" fill-opacity="0.5019607843137255"></polygon>,<polygon points="499,160 458,113 429,193" fill="rgb(42,53,58)" fill-opacity="0.5019607843137255"></polygon>,<polygon points="453,0 418,26 387,0" fill="rgb(29,46,54)" fill-opacity="0.5019607843137255"></polygon>,<polygon points="156,166 137,162 157,153" fill="rgb(117,109,78)" fill-opacity="0.5019607843137255"></polygon>,<polygon points="319,197 357,167 341,201" fill="rgb(55,72,74)" fill-opacity="0.5019607843137255"></polygon>,<polygon points="127,63 151,48 152,60" fill="rgb(40,72,92)" fill-opacity="0.5019607843137255"></polygon>,<polygon points="142,39 149,30 133,38" fill="rgb(47,83,93)" fill-opacity="0.5019607843137255"></polygon>,<polygon points="205,185 227,197 245,142" fill="rgb(66,76,78)" fill-opacity="0.5019607843137255"></polygon>,<polygon points="233,114 243,126 268,97" fill="rgb(85,91,89)" fill-opacity="0.5019607843137255"></polygon>,<polygon points="162,140 164,116 171,126" fill="rgb(158,126,65)" fill-opacity="0.5019607843137255"></polygon>,<polygon points="168,258 48,282 102,196" fill="rgb(62,51,45)" fill-opacity="0.5019607843137255"></polygon>,<polygon points="159,20 164,17 144,11" fill="rgb(81,87,87)" fill-opacity="0.5019607843137255"></polygon>,<polygon points="25,0 29,3 42,0" fill="rgb(34,41,44)" fill-opacity="0.5019607843137255"></polygon>,<polygon points="293,194 277,144 271,189" fill="rgb(63,76,80)" fill-opacity="0.5019607843137255"></polygon>,<polygon points="323,0 261,0 328,24" fill="rgb(28,67,87)" fill-opacity="0.5019607843137255"></polygon>,<polygon points="438,5 448,15 471,10" fill="rgb(45,63,74)" fill-opacity="0.5019607843137255"></polygon>,<polygon points="218,165 226,147 195,126" fill="rgb(34,67,70)" fill-opacity="0.5019607843137255"></polygon>,<polygon points="152,102 126,125 159,105" fill="rgb(205,169,107)" fill-opacity="0.5019607843137255"></polygon>,<polygon points="100,137 64,103 92,143" fill="rgb(63,86,75)" fill-opacity="0.5019607843137255"></polygon>,<polygon points="199,46 213,45 222,19" fill="rgb(58,80,86)" fill-opacity="0.5019607843137255"></polygon>,<polygon points="128,189 192,219 159,184" fill="rgb(101,87,68)" fill-opacity="0.5019607843137255"></polygon>,<polygon points="111,109 114,114 102,123" fill="rgb(170,183,139)" fill-opacity="0.5019607843137255"></polygon>,<polygon points="350,130 288,117 332,102" fill="rgb(63,98,113)" fill-opacity="0.5019607843137255"></polygon>,<polygon points="144,150 147,158 130,150" fill="rgb(84,83,61)" fill-opacity="0.5019607843137255"></polygon>,<polygon points="122,98 101,110 89,75" fill="rgb(116,119,91)" fill-opacity="0.5019607843137255"></polygon>,<polygon points="412,104 436,99 431,79" fill="rgb(53,69,74)" fill-opacity="0.5019607843137255"></polygon>,<polygon points="413,80 397,89 412,63" fill="rgb(42,54,62)" fill-opacity="0.5019607843137255"></polygon>,<polygon points="107,194 98,229 187,256" fill="rgb(67,63,55)" fill-opacity="0.5019607843137255"></polygon>,<polygon points="165,84 171,68 129,68" fill="rgb(44,89,102)" fill-opacity="0.5019607843137255"></polygon>,<polygon points="273,56 270,62 276,59" fill="rgb(96,109,146)" fill-opacity="0.5019607843137255"></polygon>,<polygon points="47,72 36,73 34,70" fill="rgb(112,127,112)" fill-opacity="0.5019607843137255"></polygon>,<polygon points="169,93 143,82 159,94" fill="rgb(17,57,60)" fill-opacity="0.5019607843137255"></polygon>,<polygon points="420,99 405,83 394,93" fill="rgb(54,72,81)" fill-opacity="0.5019607843137255"></polygon>,<polygon points="416,97 421,91 415,91" fill="rgb(206,173,193)" fill-opacity="0.5019607843137255"></polygon>,<polygon points="348,12 348,-10 326,17" fill="rgb(23,50,63)" fill-opacity="0.5019607843137255"></polygon>,<polygon points="58,0 28,17 45,1" fill="rgb(55,65,71)" fill-opacity="0.5019607843137255"></polygon>,<polygon points="90,0 96,2 91,-11" fill="rgb(65,111,143)" fill-opacity="0.5019607843137255"></polygon>,<polygon points="30,330 37,311 158,310" fill="rgb(50,44,39)" fill-opacity="0.5019607843137255"></polygon>,<polygon points="261,126 276,167 295,133" fill="rgb(67,85,82)" fill-opacity="0.5019607843137255"></polygon>,<polygon points="197,37 152,0 195,41" fill="rgb(47,65,73)" fill-opacity="0.5019607843137255"></polygon>,<polygon points="164,117 192,106 166,107" fill="rgb(64,89,84)" fill-opacity="0.5019607843137255"></polygon>,<polygon points="437,64 409,17 382,72" fill="rgb(28,50,60)" fill-opacity="0.5019607843137255"></polygon>,<polygon points="0,212 67,185 0,100" fill="rgb(41,49,52)" fill-opacity="0.5019607843137255"></polygon>,<polygon points="397,127 383,194 442,156" fill="rgb(49,63,71)" fill-opacity="0.5019607843137255"></polygon>,<polygon points="290,141 247,178 245,143" fill="rgb(47,75,77)" fill-opacity="0.5019607843137255"></polygon>,<polygon points="248,158 217,125 208,95" fill="rgb(71,86,87)" fill-opacity="0.5019607843137255"></polygon>,<polygon points="133,41 133,38 151,60" fill="rgb(74,125,165)" fill-opacity="0.5019607843137255"></polygon>,<polygon points="196,123 176,125 184,153" fill="rgb(81,95,85)" fill-opacity="0.5019607843137255"></polygon>,<polygon points="195,36 191,27 197,24" fill="rgb(102,108,124)" fill-opacity="0.5019607843137255"></polygon>,<polygon points="147,105 157,107 127,88" fill="rgb(121,109,87)" fill-opacity="0.5019607843137255"></polygon>,<polygon points="107,16 138,1 149,36" fill="rgb(34,55,65)" fill-opacity="0.5019607843137255"></polygon>,<polygon points="253,202 247,220 229,232" fill="rgb(64,63,58)" fill-opacity="0.5019607843137255"></polygon>,<polygon points="269,20 308,15 314,50" fill="rgb(30,67,82)" fill-opacity="0.5019607843137255"></polygon>,<polygon points="96,203 96,199 95,203" fill="rgb(195,150,252)" fill-opacity="0.5019607843137255"></polygon>,<polygon points="141,107 155,98 160,105" fill="rgb(131,114,86)" fill-opacity="0.5019607843137255"></polygon>,<polygon points="161,50 129,61 120,48" fill="rgb(51,82,90)" fill-opacity="0.5019607843137255"></polygon>,<polygon points="52,47 69,16 34,54" fill="rgb(63,78,81)" fill-opacity="0.5019607843137255"></polygon>,<polygon points="286,183 320,212 312,174" fill="rgb(79,77,74)" fill-opacity="0.5019607843137255"></polygon>,<polygon points="418,72 422,85 402,105" fill="rgb(57,74,86)" fill-opacity="0.5019607843137255"></polygon>,<polygon points="319,194 328,159 348,178" fill="rgb(71,85,87)" fill-opacity="0.5019607843137255"></polygon>,<polygon points="217,47 239,42 214,64" fill="rgb(54,82,87)" fill-opacity="0.5019607843137255"></polygon>,<polygon points="126,121 141,119 127,112" fill="rgb(140,127,81)" fill-opacity="0.5019607843137255"></polygon>,<polygon points="383,310 344,332 309,310" fill="rgb(46,44,41)" fill-opacity="0.5019607843137255"></polygon>,<polygon points="231,36 244,0 281,35" fill="rgb(37,66,78)" fill-opacity="0.5019607843137255"></polygon>,<polygon points="499,64 477,21 489,4" fill="rgb(29,46,52)" fill-opacity="0.5019607843137255"></polygon>,<polygon points="337,251 292,197 340,223" fill="rgb(62,58,61)" fill-opacity="0.5019607843137255"></polygon>,<polygon points="40,155 102,198 56,218" fill="rgb(53,56,57)" fill-opacity="0.5019607843137255"></polygon>,<polygon points="178,24 179,30 141,17" fill="rgb(44,60,70)" fill-opacity="0.5019607843137255"></polygon>,<polygon points="101,25 103,24 119,28" fill="rgb(107,129,147)" fill-opacity="0.5019607843137255"></polygon>,<polygon points="273,102 292,124 262,132" fill="rgb(83,97,95)" fill-opacity="0.5019607843137255"></polygon>,<polygon points="399,200 397,201 400,201" fill="rgb(177,198,255)" fill-opacity="0.5019607843137255"></polygon>,<polygon points="155,119 160,113 174,128" fill="rgb(190,147,70)" fill-opacity="0.5019607843137255"></polygon>,<polygon points="234,35 218,13 201,40" fill="rgb(73,90,96)" fill-opacity="0.5019607843137255"></polygon>,<polygon points="218,82 212,112 193,118" fill="rgb(54,81,88)" fill-opacity="0.5019607843137255"></polygon>,<polygon points="72,141 68,189 118,211" fill="rgb(60,65,64)" fill-opacity="0.5019607843137255"></polygon>,<polygon points="331,158 301,99 345,146" fill="rgb(65,92,102)" fill-opacity="0.5019607843137255"></polygon>,<polygon points="93,36 116,39 104,50" fill="rgb(72,91,97)" fill-opacity="0.5019607843137255"></polygon>,<polygon points="82,95 80,104 61,105" fill="rgb(83,107,107)" fill-opacity="0.5019607843137255"></polygon>,<polygon points="352,194 386,198 338,143" fill="rgb(53,71,76)" fill-opacity="0.5019607843137255"></polygon>,<polygon points="11,120 77,107 51,178" fill="rgb(44,61,62)" fill-opacity="0.5019607843137255"></polygon>,<polygon points="54,0 46,8 50,-13" fill="rgb(56,75,82)" fill-opacity="0.5019607843137255"></polygon>,<polygon points="499,30 390,4 446,47" fill="rgb(31,52,61)" fill-opacity="0.5019607843137255"></polygon>,<polygon points="499,288 499,225 231,271" fill="rgb(52,45,43)" fill-opacity="0.5019607843137255"></polygon>,<polygon points="219,216 217,183 232,227" fill="rgb(79,70,62)" fill-opacity="0.5019607843137255"></polygon>,<polygon points="456,5 464,16 456,11" fill="rgb(44,75,93)" fill-opacity="0.5019607843137255"></polygon>,<polygon points="446,66 449,63 448,70" fill="rgb(116,113,133)" fill-opacity="0.5019607843137255"></polygon>,<polygon points="325,68 328,72 328,66" fill="rgb(133,137,185)" fill-opacity="0.5019607843137255"></polygon>,<polygon points="480,4 446,63 499,99" fill="rgb(31,53,62)" fill-opacity="0.5019607843137255"></polygon>,<polygon points="140,181 173,216 149,217" fill="rgb(95,84,71)" fill-opacity="0.5019607843137255"></polygon>,<polygon points="90,80 85,84 107,97" fill="rgb(115,128,105)" fill-opacity="0.5019607843137255"></polygon>,<polygon points="148,86 144,104 159,92" fill="rgb(52,74,74)" fill-opacity="0.5019607843137255"></polygon>,<polygon points="213,207 177,180 222,202" fill="rgb(92,79,66)" fill-opacity="0.5019607843137255"></polygon>,<polygon points="10,40 56,42 39,20" fill="rgb(46,61,65)" fill-opacity="0.5019607843137255"></polygon>,<polygon points="0,152 20,98 0,92" fill="rgb(31,47,49)" fill-opacity="0.5019607843137255"></polygon>,<polygon points="364,113 337,126 379,126" fill="rgb(52,82,99)" fill-opacity="0.5019607843137255"></polygon>,<polygon points="190,61 193,65 168,118" fill="rgb(25,75,84)" fill-opacity="0.5019607843137255"></polygon>,<polygon points="327,63 344,80 333,118" fill="rgb(36,84,104)" fill-opacity="0.5019607843137255"></polygon>,<polygon points="108,2 103,32 109,30" fill="rgb(44,72,83)" fill-opacity="0.5019607843137255"></polygon>,<polygon points="59,6 52,39 32,8" fill="rgb(43,48,52)" fill-opacity="0.5019607843137255"></polygon>,<polygon points="66,100 31,58 59,110" fill="rgb(45,65,67)" fill-opacity="0.5019607843137255"></polygon>,<polygon points="188,254 238,225 140,240" fill="rgb(76,63,50)" fill-opacity="0.5019607843137255"></polygon>,<polygon points="162,41 177,68 142,43" fill="rgb(38,65,70)" fill-opacity="0.5019607843137255"></polygon>,<polygon points="154,119 161,131 131,110" fill="rgb(255,225,105)" fill-opacity="0.5019607843137255"></polygon>,<polygon points="299,145 286,118 335,144" fill="rgb(55,82,91)" fill-opacity="0.5019607843137255"></polygon>,<polygon points="313,243 303,211 294,225" fill="rgb(76,67,66)" fill-opacity="0.5019607843137255"></polygon>,<polygon points="278,144 316,172 288,182" fill="rgb(82,91,84)" fill-opacity="0.5019607843137255"></polygon>,<polygon points="159,104 187,118 141,86" fill="rgb(59,90,87)" fill-opacity="0.5019607843137255"></polygon>,<polygon points="112,131 106,145 98,117" fill="rgb(103,120,99)" fill-opacity="0.5019607843137255"></polygon>,<polygon points="0,200 0,289 113,293" fill="rgb(54,44,40)" fill-opacity="0.5019607843137255"></polygon>,<polygon points="344,22 358,0 390,0" fill="rgb(25,50,63)" fill-opacity="0.5019607843137255"></polygon>,<polygon points="284,29 272,23 273,30" fill="rgb(48,90,103)" fill-opacity="0.5019607843137255"></polygon>,<polygon points="64,192 62,187 71,187" fill="rgb(69,77,85)" fill-opacity="0.5019607843137255"></polygon>,<polygon points="325,64 283,45 292,39" fill="rgb(50,94,108)" fill-opacity="0.5019607843137255"></polygon>,<polygon points="386,192 377,184 362,198" fill="rgb(68,70,74)" fill-opacity="0.5019607843137255"></polygon>,<polygon points="94,20 76,33 99,29" fill="rgb(39,53,63)" fill-opacity="0.5019607843137255"></polygon>,<polygon points="188,87 164,104 178,100" fill="rgb(26,87,99)" fill-opacity="0.5019607843137255"></polygon>,<polygon points="477,240 461,235 459,239" fill="rgb(69,67,63)" fill-opacity="0.5019607843137255"></polygon>,<polygon points="85,71 75,92 106,70" fill="rgb(80,88,79)" fill-opacity="0.5019607843137255"></polygon>,<polygon points="436,127 411,194 455,128" fill="rgb(41,54,61)" fill-opacity="0.5019607843137255"></polygon>,<polygon points="246,0 261,43 251,0" fill="rgb(44,76,90)" fill-opacity="0.5019607843137255"></polygon>,<polygon points="478,139 453,150 447,120" fill="rgb(42,55,61)" fill-opacity="0.5019607843137255"></polygon>,<polygon points="324,93 324,121 318,83" fill="rgb(52,106,130)" fill-opacity="0.5019607843137255"></polygon>,<polygon points="189,66 177,68 188,54" fill="rgb(71,81,82)" fill-opacity="0.5019607843137255"></polygon>,<polygon points="165,26 181,53 169,38" fill="rgb(93,101,97)" fill-opacity="0.5019607843137255"></polygon>,<polygon points="429,78 398,77 433,102" fill="rgb(46,63,70)" fill-opacity="0.5019607843137255"></polygon>,<polygon points="341,194 342,174 348,197" fill="rgb(57,69,73)" fill-opacity="0.5019607843137255"></polygon>,<polygon points="208,171 174,163 221,192" fill="rgb(62,63,61)" fill-opacity="0.5019607843137255"></polygon>,<polygon points="246,87 264,74 263,86" fill="rgb(81,103,103)" fill-opacity="0.5019607843137255"></polygon>,<polygon points="499,206 498,207 497,207" fill="rgb(146,178,189)" fill-opacity="0.5019607843137255"></polygon>,<polygon points="183,14 187,22 178,25" fill="rgb(86,96,94)" fill-opacity="0.5019607843137255"></polygon>,<polygon points="300,12 292,12 297,10" fill="rgb(70,100,116)" fill-opacity="0.5019607843137255"></polygon>,<polygon points="183,37 200,57 187,53" fill="rgb(120,113,95)" fill-opacity="0.5019607843137255"></polygon>,<polygon points="448,109 499,130 445,64" fill="rgb(35,53,58)" fill-opacity="0.5019607843137255"></polygon>,<polygon points="485,63 491,68 487,62" fill="rgb(48,95,127)" fill-opacity="0.5019607843137255"></polygon>,<polygon points="39,48 36,183 43,64" fill="rgb(39,55,58)" fill-opacity="0.5019607843137255"></polygon>,<polygon points="252,132 238,144 280,180" fill="rgb(50,77,79)" fill-opacity="0.5019607843137255"></polygon>,<polygon points="142,41 128,48 159,25" fill="rgb(25,65,75)" fill-opacity="0.5019607843137255"></polygon>,<polygon points="193,97 225,91 222,78" fill="rgb(44,69,77)" fill-opacity="0.5019607843137255"></polygon>,<polygon points="499,294 415,307 499,310" fill="rgb(28,30,33)" fill-opacity="0.5019607843137255"></polygon>,<polygon points="111,126 103,142 95,132" fill="rgb(97,115,94)" fill-opacity="0.5019607843137255"></polygon>,<polygon points="143,116 117,134 128,131" fill="rgb(165,151,84)" fill-opacity="0.5019607843137255"></polygon>,<polygon points="84,37 96,34 87,54" fill="rgb(78,89,84)" fill-opacity="0.5019607843137255"></polygon>,<polygon points="499,24 499,27 506,34" fill="rgb(214,226,255)" fill-opacity="0.5019607843137255"></polygon>,<polygon points="59,188 65,189 70,191" fill="rgb(79,100,109)" fill-opacity="0.5019607843137255"></polygon>,<polygon points="121,173 110,189 152,172" fill="rgb(80,82,74)" fill-opacity="0.5019607843137255"></polygon>,<polygon points="499,64 492,62 499,65" fill="rgb(49,96,130)" fill-opacity="0.5019607843137255"></polygon>,<polygon points="143,311 154,332 302,311" fill="rgb(51,44,37)" fill-opacity="0.5019607843137255"></polygon>,<polygon points="218,154 185,168 184,160" fill="rgb(32,54,60)" fill-opacity="0.5019607843137255"></polygon>,<polygon points="27,24 24,24 21,0" fill="rgb(55,70,76)" fill-opacity="0.5019607843137255"></polygon>,<polygon points="105,142 136,143 111,163" fill="rgb(92,101,81)" fill-opacity="0.5019607843137255"></polygon>,<polygon points="90,29 85,0 75,25" fill="rgb(30,43,51)" fill-opacity="0.5019607843137255"></polygon>,<polygon points="201,274 253,241 376,239" fill="rgb(61,54,49)" fill-opacity="0.5019607843137255"></polygon>,<polygon points="257,46 268,40 258,75" fill="rgb(49,86,96)" fill-opacity="0.5019607843137255"></polygon>,<polygon points="95,21 96,8 97,28" fill="rgb(69,96,117)" fill-opacity="0.5019607843137255"></polygon>,<polygon points="291,296 198,309 391,308" fill="rgb(26,30,34)" fill-opacity="0.5019607843137255"></polygon>,<polygon points="49,45 49,51 56,42" fill="rgb(78,88,99)" fill-opacity="0.5019607843137255"></polygon>,<polygon points="173,124 171,130 171,118" fill="rgb(246,202,89)" fill-opacity="0.5019607843137255"></polygon>,<polygon points="476,27 473,24 479,36" fill="rgb(49,83,107)" fill-opacity="0.5019607843137255"></polygon>,<polygon points="115,100 121,106 138,80" fill="rgb(116,113,90)" fill-opacity="0.5019607843137255"></polygon>,<polygon points="477,89 445,83 462,42" fill="rgb(36,57,67)" fill-opacity="0.5019607843137255"></polygon>,<polygon points="201,112 197,90 185,134" fill="rgb(30,77,82)" fill-opacity="0.5019607843137255"></polygon>,<polygon points="87,99 85,84 53,77" fill="rgb(63,77,73)" fill-opacity="0.5019607843137255"></polygon>]</svg>