<svg xmlns="http://www.w3.org/2000/svg" baseProfile="tiny" version="1.2" viewBox="0 0 750 500"><defs/>[<path fill="#1D282F" d="M0 0h749v499H0z"/>,<path fill="#7B7789" fill-opacity=".5" d="M547 214L54 195l287 260z"/>,<path fill="#FFF798" fill-opacity=".5" d="M452 238l-72 48-98-65z"/>,<path fill="#543231" fill-opacity=".5" d="M611 285l-151-99-197 311z"/>,<path fill="#AA7573" fill-opacity=".5" d="M272 305l36 61 52-60z"/>,<path fill="#FFBA80" fill-opacity=".5" d="M471 271l-126-56-36 50z"/>,<path fill="#0F4372" fill-opacity=".5" d="M194 451l174-300L0 202z"/>,<path fill="#6288C0" fill-opacity=".5" d="M256 314l-46-29 29-7z"/>,<path fill="#001008" fill-opacity=".5" d="M0 0l749 350V0z"/>,<path fill="#FFEBA4" fill-opacity=".5" d="M414 272l-25-49-26 54z"/>,<path fill="#7D4039" fill-opacity=".5" d="M296 328l103-61 74 114z"/>,<path fill="#4A7B95" fill-opacity=".5" d="M288 265l161-91-227 47z"/>,<path fill="#000905" fill-opacity=".5" d="M259 122L0 0v151z"/>,<path fill="#273A59" fill-opacity=".5" d="M0 288l247 9 128 202z"/>,<path fill="#1B141E" fill-opacity=".5" d="M263 499h486L322 386z"/>,<path fill="#1B3443" fill-opacity=".5" d="M139 117l490 181-86-173z"/>,<path fill="#865F62" fill-opacity=".5" d="M492 304l-95-19 57-58z"/>,<path fill="#BF4D43" fill-opacity=".5" d="M420 305l-39 5 24 30z"/>,<path fill="#082D4B" fill-opacity=".5" d="M0 186l239 86-28-147z"/>,<path fill="#7E5347" fill-opacity=".5" d="M491 299l40-16-155-72z"/>,<path fill="#006FB8" fill-opacity=".5" d="M86 227l38 40 24-45z"/>,<path fill="#969B75" fill-opacity=".5" d="M299 252l13-34 104 12z"/>,<path fill="#F08E5B" fill-opacity=".5" d="M445 250l-40 26-48 1z"/>,<path fill="#6D4958" fill-opacity=".5" d="M327 277l-12-37-67 4z"/>,<path fill="#213848" fill-opacity=".5" d="M337 129l229 84-193-3z"/>,<path fill="#5B6C8D" fill-opacity=".5" d="M277 280l-21 40-48-19z"/>,<path fill="#453034" fill-opacity=".5" d="M323 267l143 190-116-198z"/>,<path fill="#737282" fill-opacity=".5" d="M271 322l49 64 16-68z"/>,<path fill="#0F274F" fill-opacity=".5" d="M212 448L0 161v169z"/>,<path fill="#0F1610" fill-opacity=".5" d="M457 420l292 79V163z"/>,<path fill="#FFE7D5" fill-opacity=".5" d="M344 244l-18 15-2-19z"/>,<path fill="#5891AF" fill-opacity=".5" d="M371 215l-89 2 9 26z"/>,<path fill="#134E78" fill-opacity=".5" d="M216 184l78 39-105-4z"/>,<path fill="#7275A0" fill-opacity=".5" d="M418 276l7 15-30-3z"/>,<path fill="#0C0A1A" fill-opacity=".5" d="M250 499L0 334v165z"/>,<path fill="#DE704C" fill-opacity=".5" d="M364 231l-25 25 30 28z"/>,<path fill="#4A3634" fill-opacity=".5" d="M620 262l-69-5 44 68z"/>,<path fill="#FFFADF" fill-opacity=".5" d="M409 248l-32 26 10-36z"/>,<path fill="#323346" fill-opacity=".5" d="M509 363l-356 35 140 101z"/>,<path fill="#272121" fill-opacity=".5" d="M565 221l26 224-188 20z"/>,<path fill="#FFE080" fill-opacity=".5" d="M403 272h-42l20-34z"/>,<path fill="#E27769" fill-opacity=".5" d="M312 248l49 7-35 12z"/>,<path fill="#A5C8F4" fill-opacity=".5" d="M462 282l-7 11 19-4z"/>,<path fill="#619ADB" fill-opacity=".5" d="M222 273l5 15 19 2z"/>,<path fill="#F8C664" fill-opacity=".5" d="M430 248l-28 17-14-6z"/>,<path fill="#3F4E66" fill-opacity=".5" d="M338 379l-85 51-42-145z"/>,<path fill="#1E4B6A" fill-opacity=".5" d="M196 207l159-23 73 24z"/>,<path fill="#563030" fill-opacity=".5" d="M443 270l22 17 11-51z"/>,<path fill="#0E88CC" fill-opacity=".5" d="M113 232l-16 8 46 5z"/>,<path fill="#3B3848" fill-opacity=".5" d="M239 341l50-72h46z"/>,<path fill="#BB7556" fill-opacity=".5" d="M428 237l20 41-34-11z"/>,<path fill="#0C3E6B" fill-opacity=".5" d="M186 306l-9-58-84-2z"/>,<path fill="#69886D" fill-opacity=".5" d="M342 218l65 4-51 21z"/>,<path fill="#FDB667" fill-opacity=".5" d="M391 232l-36 25 8 17z"/>,<path fill="#9C645D" fill-opacity=".5" d="M293 313l41 1 8 45z"/>,<path fill="#354154" fill-opacity=".5" d="M325 313l25-36-177-47z"/>,<path fill="#4E3D42" fill-opacity=".5" d="M469 288l-96 136 154-138z"/>,<path fill="#08232F" fill-opacity=".5" d="M0 137l499-59-251 103z"/>,<path fill="#111414" fill-opacity=".5" d="M749 499H404l122-59z"/>,<path fill="#353645" fill-opacity=".5" d="M486 279l32 37-72-5z"/>,<path fill="#123961" fill-opacity=".5" d="M78 259L0 277l171 92z"/>,<path fill="#B48D5C" fill-opacity=".5" d="M422 239l18 39-51-53z"/>,<path fill="#443D44" fill-opacity=".5" d="M328 289l70-10 60 33z"/>,<path fill="#73505E" fill-opacity=".5" d="M343 271l-11 15-39-41z"/>,<path fill="#367F9A" fill-opacity=".5" d="M342 204l32 23-89-9z"/>,<path fill="#2469A0" fill-opacity=".5" d="M182 282l-12-30 25 2z"/>,<path fill="#123154" fill-opacity=".5" d="M134 177l-95 9 39 80z"/>,<path fill="#1E567A" fill-opacity=".5" d="M293 195l-38 29 94-20z"/>,<path fill="#37323C" fill-opacity=".5" d="M354 296v-32l-15 1z"/>,<path fill="#807690" fill-opacity=".5" d="M289 347l27-42-16-10z"/>,<path fill="#2C6BA0" fill-opacity=".5" d="M226 233l16-27 30 25z"/>,<path fill="#495F81" fill-opacity=".5" d="M317 250l-55 57-45-5z"/>,<path fill="#372F36" fill-opacity=".5" d="M495 333l-58-52-23 19z"/>,<path fill="#674748" fill-opacity=".5" d="M571 274l-1 26 36 1z"/>,<path fill="#1A2425" fill-opacity=".5" d="M741 293L566 164l40 171z"/>,<path fill="#805254" fill-opacity=".5" d="M496 287l30 5-11-27z"/>,<path fill="#75B0E3" fill-opacity=".5" d="M100 238l9-1-12-1z"/>,<path fill="#12253D" fill-opacity=".5" d="M40 267l9-146-49 59z"/>,<path fill="#9F6051" fill-opacity=".5" d="M433 279l4-34 24 16z"/>,<path fill="#84433E" fill-opacity=".5" d="M432 300l-11 36-42 1z"/>,<path fill="#454961" fill-opacity=".5" d="M263 296l38 139-26-7z"/>,<path fill="#192133" fill-opacity=".5" d="M208 391l-7 108L0 341z"/>,<path fill="#293339" fill-opacity=".5" d="M410 209l138-41-31 102z"/>,<path fill="#575A62" fill-opacity=".5" d="M281 230l6 40-25 3z"/>,<path fill="#914947" fill-opacity=".5" d="M449 277l-34-12-11 13z"/>,<path fill="#9B827A" fill-opacity=".5" d="M325 246l-45-7 51-13z"/>,<path fill="#432927" fill-opacity=".5" d="M388 289l-53 48 48-19z"/>,<path fill="#634E52" fill-opacity=".5" d="M335 382l-7-50 56 12z"/>,<path fill="#55647B" fill-opacity=".5" d="M281 393l11-55 57 17z"/>,<path fill="#4A5068" fill-opacity=".5" d="M484 309l3-16-83-3z"/>,<path fill="#233A51" fill-opacity=".5" d="M272 456l-61-170-86-17z"/>,<path fill="#04120B" fill-opacity=".5" d="M0 0h749v171z"/>,<path fill="#9A5754" fill-opacity=".5" d="M345 291l-2 40-32-4z"/>,<path fill="#086CA9" fill-opacity=".5" d="M122 255l-22-25 48 9z"/>,<path fill="#61403E" fill-opacity=".5" d="M395 339l33 48 44-66z"/>,<path fill="#3B2F32" fill-opacity=".5" d="M431 316l28-2-15-29z"/>,<path fill="#FFE7FF" fill-opacity=".5" d="M399 240l5 15-15-2z"/>,<path fill="#574740" fill-opacity=".5" d="M384 218l132 60-64-54z"/>,<path fill="#052022" fill-opacity=".5" d="M550 63L269 44l480 229z"/>,<path fill="#485273" fill-opacity=".5" d="M339 272l-5 30-15-25z"/>,<path fill="#B04D44" fill-opacity=".5" d="M413 308l-32 23 14-28z"/>,<path fill="#584957" fill-opacity=".5" d="M286 297l-27 5 12 51z"/>,<path fill="#2D3E4D" fill-opacity=".5" d="M501 209l8 32-45-26z"/>,<path fill="#2E5275" fill-opacity=".5" d="M217 312l-14-50 23-9z"/>,<path fill="#173D5E" fill-opacity=".5" d="M146 189l53 50-66 21z"/>,<path fill="#2F272D" fill-opacity=".5" d="M428 380l134 10-217 91z"/>,<path fill="#3C4F56" fill-opacity=".5" d="M450 194l-35 32-47-14z"/>,<path fill="#1F2828" fill-opacity=".5" d="M593 194l43 78-141-20z"/>,<path fill="#1E3048" fill-opacity=".5" d="M275 451L146 347l-85 3z"/>,<path fill="#FFE8EC" fill-opacity=".5" d="M338 246l-4 10-10-12z"/>,<path fill="#CBB16E" fill-opacity=".5" d="M330 228l38 8-55 14z"/>,<path fill="#4F3E49" fill-opacity=".5" d="M331 315l-22-72-13-9z"/>,<path fill="#0F3969" fill-opacity=".5" d="M22 221L0 209v22z"/>,<path fill="#05110A" fill-opacity=".5" d="M0 90l274-25L0 0z"/>,<path fill="#4C6389" fill-opacity=".5" d="M438 206l-2 4-4-5z"/>,<path fill="#AFADC8" fill-opacity=".5" d="M468 283l-14 8 27-6z"/>,<path fill="#765C66" fill-opacity=".5" d="M299 296l-25 12 6 26z"/>,<path fill="#1F496F" fill-opacity=".5" d="M158 245l51 41-50 16z"/>,<path fill="#20211C" fill-opacity=".5" d="M513 249l63 134-28-125z"/>,<path fill="#56738D" fill-opacity=".5" d="M289 245l22-10-51-11z"/>,<path fill="#5C4445" fill-opacity=".5" d="M576 271l25 15-15 18z"/>,<path fill="#192D38" fill-opacity=".5" d="M537 233l-206-95 239 39z"/>,<path fill="#1A3246" fill-opacity=".5" d="M153 162l81 39 113-58z"/>,<path fill="#A78E58" fill-opacity=".5" d="M394 230l-47 4v14z"/>,<path fill="#494E66" fill-opacity=".5" d="M454 296l-50-10 56-4z"/>,<path fill="#242321" fill-opacity=".5" d="M574 365l-85-63-17 102z"/>,<path fill="#B3A9CC" fill-opacity=".5" d="M386 354l-6-2 9 1z"/>,<path fill="#FEC" fill-opacity=".5" d="M403 266l-26 2-3-12z"/>,<path fill="#1D486B" fill-opacity=".5" d="M245 253l-19-64-33 5z"/>,<path fill="#283C52" fill-opacity=".5" d="M184 412l6-84 89 46z"/>,<path fill="#2A608D" fill-opacity=".5" d="M170 282l12-29 6 26z"/>,<path fill="#0B1917" fill-opacity=".5" d="M749 499V191L608 388z"/>,<path fill="#436B86" fill-opacity=".5" d="M385 198l-47 18 34 8z"/>,<path fill="#1E1D2E" fill-opacity=".5" d="M338 434l103 65H189z"/>,<path fill="#10192F" fill-opacity=".5" d="M74 359L0 302v81z"/>,<path fill="#734241" fill-opacity=".5" d="M412 350l23 9 12-40z"/>,<path fill="#7A5556" fill-opacity=".5" d="M375 339l-34 1 18-15z"/>,<path fill="#333647" fill-opacity=".5" d="M380 363l-91 103v-69z"/>,<path fill="#061A1C" fill-opacity=".5" d="M37 89l189 59L367 29z"/>,<path fill="#4D3734" fill-opacity=".5" d="M476 263l42 9-8-25z"/>,<path fill="#81B0A2" fill-opacity=".5" d="M310 227l23 7 11-13z"/>,<path fill="#125584" fill-opacity=".5" d="M155 236l-22 13 4-31z"/>,<path fill="#638CAF" fill-opacity=".5" d="M300 217v17l29-12z"/>,<path fill="#FFC86A" fill-opacity=".5" d="M371 284l-5-25h14z"/>,<path fill="#283438" fill-opacity=".5" d="M251 281v-36l22 38z"/>,<path fill="#2A4668" fill-opacity=".5" d="M175 350l-7 12 39 14z"/>,<path fill="#663F3D" fill-opacity=".5" d="M354 308l-16 9 17 48z"/>,<path fill="#82524E" fill-opacity=".5" d="M303 242l7 23 10-13z"/>,<path fill="#FFEDFF" fill-opacity=".5" d="M412 285l-1-6h3z"/>,<path fill="#6D7176" fill-opacity=".5" d="M327 362l-48-35 63 19z"/>,<path fill="#1C2124" fill-opacity=".5" d="M550 463l159-66-114-11z"/>,<path fill="#273547" fill-opacity=".5" d="M277 280l15 22 26-32z"/>,<path fill="#1E3647" fill-opacity=".5" d="M177 242l91 22-46-33z"/>,<path fill="#293B50" fill-opacity=".5" d="M276 286l47 11 3-16z"/>,<path fill="#4A5360" fill-opacity=".5" d="M629 68l-4-2 3 6z"/>,<path fill="#335064" fill-opacity=".5" d="M276 255l-51-31-6 13z"/>,<path fill="#493B3D" fill-opacity=".5" d="M426 395l21-59 20 29z"/>,<path fill="#80595A" fill-opacity=".5" d="M381 286l-38-26 24 30z"/>,<path fill="#0B4B78" fill-opacity=".5" d="M159 233l-27-14-47 3z"/>,<path fill="#1A3F5C" fill-opacity=".5" d="M192 188l114-2-35 26z"/>,<path fill="#4E76A9" fill-opacity=".5" d="M219 299l5-22 14 19z"/>,<path fill="#1E2232" fill-opacity=".5" d="M287 490l-101-13-43-99z"/>,<path fill="#604144" fill-opacity=".5" d="M492 291l-25-25-12 14z"/>,<path fill="#996665" fill-opacity=".5" d="M348 295l-12 6 2 16z"/>,<path fill="#272F34" fill-opacity=".5" d="M445 193l43 40-60-6z"/>,<path fill="#312729" fill-opacity=".5" d="M355 317l22 16v-25z"/>,<path fill="#506BA3" fill-opacity=".5" d="M290 251l14 9-7 14z"/>,<path fill="#414A51" fill-opacity=".5" d="M250 241l24-2-4 45z"/>,<path fill="#483E3E" fill-opacity=".5" d="M420 400l15-35-73-42z"/>,<path fill="#104D7D" fill-opacity=".5" d="M111 255l-24-29-12-2z"/>,<path fill="#1A374D" fill-opacity=".5" d="M193 269l34-23-43-71z"/>,<path fill="#1A3344" fill-opacity=".5" d="M337 146l-28 42 158 19z"/>,<path fill="#3E4F74" fill-opacity=".5" d="M324 375h-50l2 23z"/>,<path fill="#6E4A4C" fill-opacity=".5" d="M371 297l-38-4-8 15z"/>,<path fill="#728EB6" fill-opacity=".5" d="M299 235l-11-14 15 13z"/>,<path fill="#626581" fill-opacity=".5" d="M448 282l12 16-10-22z"/>,<path fill="#15365A" fill-opacity=".5" d="M47 189l48 53-65-17z"/>,<path fill="#656770" fill-opacity=".5" d="M591 356h-1l-6 5z"/>,<path fill="#154D7B" fill-opacity=".5" d="M227 223l-24-27 13-4z"/>,<path fill="#0A2429" fill-opacity=".5" d="M562 127l-226 20 144-58z"/>,<path fill="#9D7B78" fill-opacity=".5" d="M293 307l7 27 17-19z"/>,<path fill="#866E71" fill-opacity=".5" d="M435 285l2 5 11-13z"/>,<path fill="#C19C8A" fill-opacity=".5" d="M318 240l-10 3 26 14z"/>,<path fill="#734545" fill-opacity=".5" d="M383 315l25 29-30-8z"/>,<path fill="#182D44" fill-opacity=".5" d="M138 252l44-29-35 38z"/>,<path fill="#77585F" fill-opacity=".5" d="M398 296l16-20-22-2z"/>,<path fill="#0D1719" fill-opacity=".5" d="M749 499l-105-86 5 86z"/>,<path fill="#202120" fill-opacity=".5" d="M532 290l92 24-149 151z"/>,<path fill="#806351" fill-opacity=".5" d="M456 240l-24 14 26 5z"/>,<path fill="#5D7AAA" fill-opacity=".5" d="M255 292l11-1-23 19z"/>,<path fill="#455368" fill-opacity=".5" d="M482 202l22-13-12 8z"/>,<path fill="#232B33" fill-opacity=".5" d="M614 438l3-30-23 8z"/>,<path fill="#412E2E" fill-opacity=".5" d="M458 301h12l-39 32z"/>,<path fill="#64647F" fill-opacity=".5" d="M403 409l2 1 8-10z"/>,<path fill="#09568E" fill-opacity=".5" d="M94 232l-1 19 12-23z"/>,<path fill="#E9916A" fill-opacity=".5" d="M358 272l23 5 27-7z"/>,<path fill="#335476" fill-opacity=".5" d="M245 282l-6 11 45-12z"/>,<path fill="#051814" fill-opacity=".5" d="M749 216l-64-112-55 143z"/>,<path fill="#162C48" fill-opacity=".5" d="M100 293l49-23-21 50z"/>,<path fill="#766E5B" fill-opacity=".5" d="M444 242l-85-18 42-3z"/>,<path fill="#352B2C" fill-opacity=".5" d="M512 321l-31-43 45 29z"/>,<path fill="#4D5179" fill-opacity=".5" d="M320 312l-12-20-13 12z"/>,<path fill="#1B3043" fill-opacity=".5" d="M174 327l19 7 6-33z"/>,<path fill="#142A46" fill-opacity=".5" d="M85 252L0 298l10-89z"/>,<path fill="#777F9B" fill-opacity=".5" d="M341 277l1-1h-16z"/>,<path fill="#1D3D55" fill-opacity=".5" d="M355 199l-55-9 62-14z"/>,<path fill="#FFE3DE" fill-opacity=".5" d="M327 254l1-12 11 8z"/>,<path fill="#0C2021" fill-opacity=".5" d="M554 191l145 89 19-69z"/>,<path fill="#454659" fill-opacity=".5" d="M356 364l-69 30 55-7z"/>,<path fill="#504B51" fill-opacity=".5" d="M615 266l-9 13 5-4z"/>,<path fill="#0F385E" fill-opacity=".5" d="M96 232l3-31-40 4z"/>,<path fill="#3177B1" fill-opacity=".5" d="M195 265l-16-12 5 11z"/>,<path fill="#5C5B6D" fill-opacity=".5" d="M288 404l9 12-21-13z"/>,<path fill="#8C5759" fill-opacity=".5" d="M470 263l7-3 1 28z"/>,<path fill="#102339" fill-opacity=".5" d="M0 218v-81l101 19z"/>,<path fill="#493843" fill-opacity=".5" d="M428 292l40-11-58 31z"/>,<path fill="#3B526C" fill-opacity=".5" d="M208 303l59 7-42 15z"/>,<path fill="#2B5784" fill-opacity=".5" d="M257 294l-19-17-33-11z"/>,<path fill="#393845" fill-opacity=".5" d="M372 422l9-29-52-5z"/>,<path fill="#666F8F" fill-opacity=".5" d="M477 288l-14 4-6 7z"/>,<path fill="#5F3633" fill-opacity=".5" d="M461 313l8 27-58-14z"/>,<path fill="#32404F" fill-opacity=".5" d="M262 304l-45 42 49-12z"/>,<path fill="#713834" fill-opacity=".5" d="M433 345l5-39-38-5z"/>,<path fill="#AD6661" fill-opacity=".5" d="M334 335l1-18-16 11z"/>,<path fill="#403E42" fill-opacity=".5" d="M449 216l-17 15 38 2z"/>,<path fill="#103961" fill-opacity=".5" d="M101 284l-39 22-41-40z"/>,<path fill="#5F3C3A" fill-opacity=".5" d="M396 307l-48 8 22-32z"/>,<path fill="#40566E" fill-opacity=".5" d="M242 356l20-14-26-4z"/>,<path fill="#635253" fill-opacity=".5" d="M335 338l-17 8 45 15z"/>,<path fill="#FFDE85" fill-opacity=".5" d="M406 265l-29-25-3 17z"/>,<path fill="#193C4F" fill-opacity=".5" d="M388 186l-18-9 8 33z"/>,<path fill="#413539" fill-opacity=".5" d="M584 260l-13 36-28-18z"/>,<path fill="#25415D" fill-opacity=".5" d="M191 323l24-27 15-49z"/>,<path fill="#FCCF64" fill-opacity=".5" d="M407 237l-5 25 7-9z"/>,<path fill="#43464C" fill-opacity=".5" d="M390 298l-34-14 42 3z"/>,<path fill="#203449" fill-opacity=".5" d="M218 317l-42 11 26 47z"/>,<path fill="#3D4651" fill-opacity=".5" d="M735 258l-1 4 4 11z"/>,<path fill="#C1A260" fill-opacity=".5" d="M360 246l11-16v24z"/>,<path fill="#20201C" fill-opacity=".5" d="M728 286l-115-16-16 29z"/>,<path fill="#313D4E" fill-opacity=".5" d="M329 287l22-20v20z"/>,<path fill="#454958" fill-opacity=".5" d="M299 253l-19-6 30-6z"/>,<path fill="#423D4F" fill-opacity=".5" d="M384 373l-22 23-3-30z"/>,<path fill="#0F2529" fill-opacity=".5" d="M504 144h78l63 123z"/>,<path fill="#DCC574" fill-opacity=".5" d="M377 250l11-15-20 3z"/>,<path fill="#5F9D8D" fill-opacity=".5" d="M380 222h-57l24 8z"/>,<path fill="#573534" fill-opacity=".5" d="M529 297l-14-4 8-22z"/>,<path fill="#DA6D62" fill-opacity=".5" d="M362 275l-3-11-18-14z"/>,<path fill="#2C3139" fill-opacity=".5" d="M566 277l-13-18 50-3z"/>,<path fill="#49404F" fill-opacity=".5" d="M465 298l35 10-27 4z"/>,<path fill="#61759B" fill-opacity=".5" d="M429 169l3-1-4 4z"/>,<path fill="#4A719C" fill-opacity=".5" d="M247 239l-6-23 25 25z"/>,<path fill="#DE8169" fill-opacity=".5" d="M338 262l-9-12 15 5z"/>,<path fill="#8E7074" fill-opacity=".5" d="M512 276l-8 1 1 10z"/>,<path fill="#372B31" fill-opacity=".5" d="M418 430l71-51-88 12z"/>,<path fill="#524944" fill-opacity=".5" d="M403 225l31 13-12-27z"/>,<path fill="#3B464F" fill-opacity=".5" d="M647 88l-1-6 1-11z"/>,<path fill="#C25950" fill-opacity=".5" d="M388 314l9-5 15 8z"/>,<path fill="#395E7D" fill-opacity=".5" d="M374 217l-25-16-10 7z"/>,<path fill="#0A222A" fill-opacity=".5" d="M212 163l8-63 148-22z"/>,<path fill="#155078" fill-opacity=".5" d="M232 209l47 20-32-30z"/>,<path fill="#4993A5" fill-opacity=".5" d="M343 212v11l-34-1z"/>,<path fill="#152B42" fill-opacity=".5" d="M0 212l225-33-197-22z"/>,<path fill="#3B3854" fill-opacity=".5" d="M397 496l-10 1 6 2z"/>,<path fill="#2E2F31" fill-opacity=".5" d="M494 258l29-48 7 45z"/>,<path fill="#0D212C" fill-opacity=".5" d="M220 137l-113-27-20 59z"/>,<path fill="#3C5369" fill-opacity=".5" d="M262 239l-5 16-12-16z"/>,<path fill="#69617D" fill-opacity=".5" d="M277 335l-15-7 40 7z"/>,<path fill="#E2C27B" fill-opacity=".5" d="M349 248l-16-16v10z"/>,<path fill="#313338" fill-opacity=".5" d="M570 265l29 20 2-20z"/>,<path fill="#413532" fill-opacity=".5" d="M466 232l59 29-38-2z"/>,<path fill="#84696D" fill-opacity=".5" d="M297 328l-17-22 19-3z"/>,<path fill="#30495C" fill-opacity=".5" d="M416 193l-42 20 51-12z"/>,<path fill="#2D4157" fill-opacity=".5" d="M226 409l-8-95 50 72z"/>,<path fill="#827E65" fill-opacity=".5" d="M364 233l30-11-32 16z"/>,<path fill="#1C191F" fill-opacity=".5" d="M664 434l-247 22-12 43z"/>,<path fill="#0F2023" fill-opacity=".5" d="M749 253l-23-5 19 25z"/>,<path fill="#36434C" fill-opacity=".5" d="M37 91l-8 3-1 1z"/>,<path fill="#E6CB62" fill-opacity=".5" d="M406 241l-14-5 22 18z"/>,<path fill="#FFE7FF" fill-opacity=".5" d="M374 266l19-4-15 5z"/>,<path fill="#36607B" fill-opacity=".5" d="M284 215h-23l18 23z"/>,<path fill="#3B6B96" fill-opacity=".5" d="M291 210h22l-22 21z"/>,<path fill="#FFD070" fill-opacity=".5" d="M385 265l11 6-28 3z"/>,<path fill="#232222" fill-opacity=".5" d="M656 275l-15 41 36-24z"/>,<path fill="#82615F" fill-opacity=".5" d="M313 253l-12-12 20 4z"/>,<path fill="#5F6675" fill-opacity=".5" d="M270 250l5-6 7 27z"/>,<path fill="#546482" fill-opacity=".5" d="M664 340l-1 3v-2z"/>,<path fill="#898076" fill-opacity=".5" d="M312 343l4-12 11 9z"/>,<path fill="#142E4C" fill-opacity=".5" d="M103 333l-20-35-53 36z"/>,<path fill="#AB8B61" fill-opacity=".5" d="M393 234l52 29-36-31z"/>,<path fill="#2A3249" fill-opacity=".5" d="M270 397l-28 1 27 57z"/>,<path fill="#465F7E" fill-opacity=".5" d="M215 298l18-1 5 33z"/>,<path fill="#395765" fill-opacity=".5" d="M379 220l32-10-40-7z"/>,<path fill="#C9766C" fill-opacity=".5" d="M417 265l-51 15 47-7z"/>,<path fill="#5A7389" fill-opacity=".5" d="M298 233h-27l2 9z"/>,<path fill="#1E2326" fill-opacity=".5" d="M691 366l-19 8 30 13z"/>,<path fill="#FFE4FF" fill-opacity=".5" d="M387 250l12-6 2 11z"/>,<path fill="#5C4043" fill-opacity=".5" d="M475 278l34-3-12 16z"/>,<path fill="#6F4D4D" fill-opacity=".5" d="M590 296l1 9-26-16z"/>,<path fill="#4C3738" fill-opacity=".5" d="M474 278l-26-11 3 14z"/>,<path fill="#FFE3F5" fill-opacity=".5" d="M378 270l8-8-4-3z"/>,<path fill="#59393B" fill-opacity=".5" d="M481 273l5-18 13 7z"/>,<path fill="#6E3531" fill-opacity=".5" d="M381 306l17-7-18 23z"/>,<path fill="#485473" fill-opacity=".5" d="M329 274v26l8-22z"/>,<path fill="#654951" fill-opacity=".5" d="M389 368l8-8-30-13z"/>,<path fill="#35445D" fill-opacity=".5" d="M265 366l17 40-45-17z"/>,<path fill="#473635" fill-opacity=".5" d="M394 352l4 35 18-50z"/>,<path fill="#6E5050" fill-opacity=".5" d="M335 308l-29 29 16-31z"/>,<path fill="#31465D" fill-opacity=".5" d="M298 265l-23 14 28-2z"/>,<path fill="#28353D" fill-opacity=".5" d="M258 252l11 12-18 9z"/>,<path fill="#21567C" fill-opacity=".5" d="M229 240l-12-19 25-10z"/>,<path fill="#12131A" fill-opacity=".5" d="M0 413v86h144z"/>,<path fill="#312829" fill-opacity=".5" d="M490 368l10-54-38-3z"/>,<path fill="#64646E" fill-opacity=".5" d="M604 479l3-3-6 2z"/>,<path fill="#283847" fill-opacity=".5" d="M555 184l-21 17 17-6z"/>,<path fill="#80ADE3" fill-opacity=".5" d="M263 230l8-5-8 3z"/>,<path fill="#644748" fill-opacity=".5" d="M452 356l-13 14-55-38z"/>,<path fill="#46343B" fill-opacity=".5" d="M377 364l6-39-3 51z"/>,<path fill="#1C364A" fill-opacity=".5" d="M292 173l-21 43v-58z"/>,<path fill="#97946C" fill-opacity=".5" d="M344 231l49-3-1 7z"/>,<path fill="#96ABCD" fill-opacity=".5" d="M423 290l-3-2-2 6z"/>,<path fill="#DAAB6C" fill-opacity=".5" d="M404 266l27-15-20 3z"/>,<path fill="#122C51" fill-opacity=".5" d="M48 308L0 294l41-50z"/>,<path fill="#6F7EBE" fill-opacity=".5" d="M299 267l3-13v8z"/>,<path fill="#1F3D5C" fill-opacity=".5" d="M217 316l-50-48-17 49z"/>,<path fill="#393C49" fill-opacity=".5" d="M241 317l21 28 7-25z"/>,<path fill="#19385A" fill-opacity=".5" d="M111 298l-16 50 81 19z"/>,<path fill="#222A3E" fill-opacity=".5" d="M249 480l-100-91 191 75z"/>,<path fill="#20292E" fill-opacity=".5" d="M593 420l43 3-8-16z"/>,<path fill="#22567F" fill-opacity=".5" d="M186 262l17 5-32 3z"/>,<path fill="#31374C" fill-opacity=".5" d="M268 420v34l32-55z"/>,<path fill="#48312D" fill-opacity=".5" d="M456 340l-16 18 34-14z"/>,<path fill="#80504A" fill-opacity=".5" d="M338 267l-19-2v10z"/>,<path fill="#21577C" fill-opacity=".5" d="M263 226l-10-6 22 4z"/>,<path fill="#101C16" fill-opacity=".5" d="M635 322l-24-14 34-21z"/>,<path fill="#264054" fill-opacity=".5" d="M266 286l-54-20 30-6z"/>,<path fill="#274466" fill-opacity=".5" d="M175 252l-7-7 34-17z"/>,<path fill="#63545C" fill-opacity=".5" d="M349 333l-26 35 22 3z"/>,<path fill="#19314E" fill-opacity=".5" d="M136 279l-23 4-5-39z"/>,<path fill="#0D1B24" fill-opacity=".5" d="M0 167l133-50-133 1z"/>,<path fill="#7A7A99" fill-opacity=".5" d="M447 281l11 8-6-6z"/>,<path fill="#844F4F" fill-opacity=".5" d="M399 339l27-13-36 10z"/>,<path fill="#486287" fill-opacity=".5" d="M304 268l-18-3 1-13z"/>,<path fill="#081714" fill-opacity=".5" d="M749 268l-14-3 14 37z"/>,<path fill="#202B33" fill-opacity=".5" d="M631 443l-21-13 10 14z"/>,<path fill="#172C39" fill-opacity=".5" d="M352 175l-37-49-11 41z"/>,<path fill="#673B3A" fill-opacity=".5" d="M474 262l-34 19 26-35z"/>,<path fill="#305271" fill-opacity=".5" d="M192 285l19-31 17 21z"/>,<path fill="#16466C" fill-opacity=".5" d="M153 224l12 8 3-36z"/>,<path fill="#15211F" fill-opacity=".5" d="M595 320l-25 21 53 47z"/>,<path fill="#658486" fill-opacity=".5" d="M359 214l15 14-25-3z"/>]</svg>