<svg xmlns="http://www.w3.org/2000/svg" baseProfile="tiny" version="1.2" viewBox="0 0 500 333"><defs/>[<path fill="#353E3E" d="M0 0h499v332H0z"/>,<path fill="#D2BA6D" fill-opacity=".5" d="M192 123l-47 82L73 63z"/>,<path fill="#375F6C" fill-opacity=".5" d="M472 92L180 0l-7 227z"/>,<path fill="#093642" fill-opacity=".5" d="M205 81l34-28 10 48z"/>,<path fill="#26596A" fill-opacity=".5" d="M80 0l65 106 61-32z"/>,<path fill="#251614" fill-opacity=".5" d="M0 332l499-144v144z"/>,<path fill="#67543E" fill-opacity=".5" d="M160 264l92-79-181-66z"/>,<path fill="#301E17" fill-opacity=".5" d="M216 270L0 332V161z"/>,<path fill="#FFDD61" fill-opacity=".5" d="M125 90l59 47-41 6z"/>,<path fill="#645543" fill-opacity=".5" d="M227 204l-86-65-33 97z"/>,<path fill="#5A5E58" fill-opacity=".5" d="M224 9l-22 80-46-59z"/>,<path fill="#204D56" fill-opacity=".5" d="M122 0l103 104-61 13z"/>,<path fill="#526662" fill-opacity=".5" d="M153 69L46 26l31 120z"/>,<path fill="#927454" fill-opacity=".5" d="M168 208l-3-26 42 20z"/>,<path fill="#AAAD75" fill-opacity=".5" d="M103 96l48 29-51 21z"/>,<path fill="#123449" fill-opacity=".5" d="M499 0H212l287 169z"/>,<path fill="#FFE670" fill-opacity=".5" d="M162 126l-20 1-13-29z"/>,<path fill="#7A643F" fill-opacity=".5" d="M183 130l-30 19 29 29z"/>,<path fill="#485C63" fill-opacity=".5" d="M407 125l-84 95L212 94z"/>,<path fill="#C7B673" fill-opacity=".5" d="M105 110l10 11 42-19z"/>,<path fill="#23566D" fill-opacity=".5" d="M351 8L233 1l125 185z"/>,<path fill="#495B55" fill-opacity=".5" d="M64 141l94 84-48-104z"/>,<path fill="#1F3038" fill-opacity=".5" d="M0 0h98L0 98z"/>,<path fill="#254341" fill-opacity=".5" d="M178 125l70-41-50 99z"/>,<path fill="#525D56" fill-opacity=".5" d="M111 105l-6-87-52 77z"/>,<path fill="#456773" fill-opacity=".5" d="M265 121l54-38 27 53z"/>,<path fill="#1C1C1E" fill-opacity=".5" d="M279 306L0 278v36z"/>,<path fill="#453A37" fill-opacity=".5" d="M175 287l322-54-286-67z"/>,<path fill="#9E95BF" fill-opacity=".5" d="M444 88l2-8-5 7z"/>,<path fill="#6E7E62" fill-opacity=".5" d="M143 151l-29 7-32-59z"/>,<path fill="#49423B" fill-opacity=".5" d="M188 270l-51-102-80 44z"/>,<path fill="#FFD5FF" fill-opacity=".5" d="M51 49l4-4-1 6z"/>,<path fill="#32484B" fill-opacity=".5" d="M39 40L22 76l61-3z"/>,<path fill="#2D4355" fill-opacity=".5" d="M357 58l84 83-99 72z"/>,<path fill="#202F33" fill-opacity=".5" d="M58 116L0 249V9z"/>,<path fill="#857353" fill-opacity=".5" d="M190 138l-32 1 25 11z"/>,<path fill="#2B3237" fill-opacity=".5" d="M384 184L499 0v283z"/>,<path fill="#1E3745" fill-opacity=".5" d="M104 70l5-27 43 41z"/>,<path fill="#80765A" fill-opacity=".5" d="M168 106L87 92l38-12z"/>,<path fill="#615D9E" fill-opacity=".5" d="M395 123l-1-7 6-9z"/>,<path fill="#E7C0C2" fill-opacity=".5" d="M425 91l-8 4-4-2z"/>,<path fill="#C99A46" fill-opacity=".5" d="M177 141l-3-26-25 20z"/>,<path fill="#314246" fill-opacity=".5" d="M299 205l-82-1 46-83z"/>,<path fill="#5D5949" fill-opacity=".5" d="M164 138l-63 46 65 34z"/>,<path fill="#475C64" fill-opacity=".5" d="M230 27L189 0l38 47z"/>,<path fill="#A09282" fill-opacity=".5" d="M174 191l7 14 6-7z"/>,<path fill="#1C3647" fill-opacity=".5" d="M130 41l29-41H69z"/>,<path fill="#766C59" fill-opacity=".5" d="M207 62l-30-2 8-26z"/>,<path fill="#1F4353" fill-opacity=".5" d="M244 62l70-35L210 0z"/>,<path fill="#515956" fill-opacity=".5" d="M304 212l36-61-75 6z"/>,<path fill="#1C3B4B" fill-opacity=".5" d="M401 61L336 0l-27 34z"/>,<path fill="#435150" fill-opacity=".5" d="M245 106l3 63-95-141z"/>,<path fill="#2E434E" fill-opacity=".5" d="M223 0l-75 57 3-57z"/>,<path fill="#B69FFF" fill-opacity=".5" d="M130 69l15-5-7-3z"/>,<path fill="#3D4046" fill-opacity=".5" d="M357 248l-97-44 186-55z"/>,<path fill="#BFA055" fill-opacity=".5" d="M132 136l-2-19 34 32z"/>,<path fill="#2E4846" fill-opacity=".5" d="M61 84l35 65-69-16z"/>,<path fill="#345369" fill-opacity=".5" d="M257 0h21l-15 24z"/>,<path fill="#2A3A42" fill-opacity=".5" d="M439 76l30 90-87-35z"/>,<path fill="#686E61" fill-opacity=".5" d="M73 52l29 2-6 27z"/>,<path fill="#36494A" fill-opacity=".5" d="M79 85L28 21l31 93z"/>,<path fill="#2B5A6E" fill-opacity=".5" d="M222 56l127 73-30-87z"/>,<path fill="#264954" fill-opacity=".5" d="M140 68l15-30-12 68z"/>,<path fill="#9BAFE9" fill-opacity=".5" d="M16 116l-2 3 2 1z"/>,<path fill="#1F2021" fill-opacity=".5" d="M499 302l-186 30-156-53z"/>,<path fill="#124C54" fill-opacity=".5" d="M159 106l25-44 7 44z"/>,<path fill="#15252F" fill-opacity=".5" d="M75 18L92 6 79 41z"/>,<path fill="#1B2C33" fill-opacity=".5" d="M346 11l153 29-23-46z"/>,<path fill="#415155" fill-opacity=".5" d="M128 23L96 56 35 39z"/>,<path fill="#213E42" fill-opacity=".5" d="M232 92l-54 67 18 16z"/>,<path fill="#3D5E6B" fill-opacity=".5" d="M272 43l-14-9-2 52z"/>,<path fill="#305863" fill-opacity=".5" d="M175 80l7-7-77-27z"/>,<path fill="#65655C" fill-opacity=".5" d="M227 140l63-12-44-11z"/>,<path fill="#8C7852" fill-opacity=".5" d="M180 112l-21-1 4 23z"/>,<path fill="#FFE05F" fill-opacity=".5" d="M161 137l-3-21-12 1z"/>,<path fill="#336D92" fill-opacity=".5" d="M133 38l10 5-10 16z"/>,<path fill="#3D5D58" fill-opacity=".5" d="M157 95l34 21-33-6z"/>,<path fill="#5A87B6" fill-opacity=".5" d="M448 124l-3 3 1 2z"/>,<path fill="#504B3D" fill-opacity=".5" d="M166 178l-17-3 2 18z"/>,<path fill="#473528" fill-opacity=".5" d="M300 257l-187 20 60-51z"/>,<path fill="#4A6974" fill-opacity=".5" d="M324 137l-27-34 3 32z"/>,<path fill="#3E575E" fill-opacity=".5" d="M228 14l-22 8 19-23z"/>,<path fill="#EFCA74" fill-opacity=".5" d="M140 100l-12-5 18 39z"/>,<path fill="#6C563D" fill-opacity=".5" d="M173 207l40-26-15 56z"/>,<path fill="#786674" fill-opacity=".5" d="M340 237l7 9-17-18z"/>,<path fill="#3C4845" fill-opacity=".5" d="M109 91l28-23-39 3z"/>,<path fill="#538D9F" fill-opacity=".5" d="M212 162h3l-2 9z"/>,<path fill="#40687E" fill-opacity=".5" d="M96 3l17-3H89z"/>,<path fill="#483E3A" fill-opacity=".5" d="M330 246l-199-11 228-30z"/>,<path fill="#234A59" fill-opacity=".5" d="M260 58l17-33 22 99z"/>,<path fill="#847B59" fill-opacity=".5" d="M137 81l-21 1-9 27z"/>,<path fill="#A6AD7D" fill-opacity=".5" d="M105 114l9 21 4-34z"/>,<path fill="#3E5453" fill-opacity=".5" d="M134 76l-5 10 45 25z"/>,<path fill="#183C4A" fill-opacity=".5" d="M228 95l34-7 49 16z"/>,<path fill="#5E6159" fill-opacity=".5" d="M207 44l11 20-37-2z"/>,<path fill="#34434C" fill-opacity=".5" d="M444 97l-60-3 18 25z"/>,<path fill="#8C7F50" fill-opacity=".5" d="M125 84l-1 42 10-11z"/>,<path fill="#3A5563" fill-opacity=".5" d="M300 141l31 40 46-90z"/>,<path fill="#333434" fill-opacity=".5" d="M139 257L3 225l33-86z"/>,<path fill="#2B4544" fill-opacity=".5" d="M214 161l-34-13 72-5z"/>,<path fill="#44606A" fill-opacity=".5" d="M268 91l-15-47-12 34z"/>,<path fill="#395D80" fill-opacity=".5" d="M467 126h-5l5-13z"/>,<path fill="#65447A" fill-opacity=".5" d="M232 226l16 2-18-6z"/>,<path fill="#245065" fill-opacity=".5" d="M363 62l-50 16 64 46z"/>,<path fill="#292520" fill-opacity=".5" d="M0 311l499 21H0z"/>,<path fill="#5A7065" fill-opacity=".5" d="M112 127l-19 5 3 14z"/>,<path fill="#898A5D" fill-opacity=".5" d="M112 126v15l23-3z"/>,<path fill="#C99F58" fill-opacity=".5" d="M384 207h-2l7-2z"/>,<path fill="#173036" fill-opacity=".5" d="M121 68l-10 12 3-18z"/>,<path fill="#352923" fill-opacity=".5" d="M244 261L18 285l248 11z"/>,<path fill="#333232" fill-opacity=".5" d="M499 140v134l-198-4z"/>,<path fill="#54625D" fill-opacity=".5" d="M291 134l-31-11 28-22z"/>,<path fill="#607EA9" fill-opacity=".5" d="M432 54l6 4-2-5z"/>,<path fill="#6B5742" fill-opacity=".5" d="M145 225l49-44-27-16z"/>,<path fill="#826D8B" fill-opacity=".5" d="M341 189l8 4 4-2z"/>,<path fill="#49575D" fill-opacity=".5" d="M197 99l-11-20 8-1z"/>,<path fill="#334851" fill-opacity=".5" d="M402 185l-11-87-60 76z"/>,<path fill="#3F4B52" fill-opacity=".5" d="M408 84l26 20-16-32z"/>,<path fill="#2C3A3A" fill-opacity=".5" d="M23 86l56-17-4-10z"/>,<path fill="#232221" fill-opacity=".5" d="M499 262v70H357z"/>,<path fill="#465450" fill-opacity=".5" d="M90 77l-26-3-1-56z"/>,<path fill="#6C6D58" fill-opacity=".5" d="M143 166l-31-8 31-15z"/>,<path fill="#39505E" fill-opacity=".5" d="M366 117l8 63-40-51z"/>,<path fill="#5A79BB" fill-opacity=".5" d="M414 25l3 4 1-5z"/>,<path fill="#466880" fill-opacity=".5" d="M306 86l3 3h-50z"/>,<path fill="#283D47" fill-opacity=".5" d="M126 10l-24 22-6-2z"/>,<path fill="#57493A" fill-opacity=".5" d="M165 246l-33-49 87 27z"/>,<path fill="#2F4145" fill-opacity=".5" d="M200 162l22 5-17 14z"/>,<path fill="#26424E" fill-opacity=".5" d="M122 72l31 9-58-38z"/>,<path fill="#725D44" fill-opacity=".5" d="M176 218l26-14v-31z"/>,<path fill="#EAC062" fill-opacity=".5" d="M139 137l13-10-11-19z"/>,<path fill="#2E4A50" fill-opacity=".5" d="M257 156l12-5-6-59z"/>,<path fill="#6E8074" fill-opacity=".5" d="M162 112l23 3-9 7z"/>,<path fill="#324452" fill-opacity=".5" d="M431 143l-25-32 19 35z"/>,<path fill="#434847" fill-opacity=".5" d="M82 134l47 62-32 20z"/>,<path fill="#4D5181" fill-opacity=".5" d="M141 60l-15 8 5-6z"/>,<path fill="#222629" fill-opacity=".5" d="M30 0H0v20z"/>,<path fill="#1B2429" fill-opacity=".5" d="M499 16l-7-16-16 28z"/>,<path fill="#7D6ED2" fill-opacity=".5" d="M266 67l-4-2-4 7z"/>,<path fill="#193B45" fill-opacity=".5" d="M159 45l-8-25-39 16z"/>,<path fill="#244E51" fill-opacity=".5" d="M206 91l-37 14 57 43z"/>,<path fill="#5D665D" fill-opacity=".5" d="M98 70l11-30-35 33z"/>,<path fill="#1D5D71" fill-opacity=".5" d="M151 40l-25 5 23-5z"/>,<path fill="#35363A" fill-opacity=".5" d="M351 248l143-49-105 4z"/>,<path fill="#4F6258" fill-opacity=".5" d="M71 115l31-7-37-23z"/>,<path fill="#26414C" fill-opacity=".5" d="M128 54l11-5-43-33z"/>,<path fill="#1A2228" fill-opacity=".5" d="M499 15L485 0h14z"/>,<path fill="#20353D" fill-opacity=".5" d="M499 51l-77 43 21-59z"/>,<path fill="#2A5E72" fill-opacity=".5" d="M313 45l17 49-33 12z"/>,<path fill="#1A4856" fill-opacity=".5" d="M301 64l-6 9-26-23z"/>,<path fill="#416D81" fill-opacity=".5" d="M121 57h-2l-10 4z"/>,<path fill="#2F4145" fill-opacity=".5" d="M23 50L10 79l27-11z"/>,<path fill="#9E885C" fill-opacity=".5" d="M153 136l7-6-15-1z"/>,<path fill="#868057" fill-opacity=".5" d="M111 128l33 21-9-19z"/>,<path fill="#24353E" fill-opacity=".5" d="M176 6l16 13 4-9z"/>,<path fill="#1B404D" fill-opacity=".5" d="M286 6l-43 54-16-20z"/>,<path fill="#527380" fill-opacity=".5" d="M37 0l1 11 4-11z"/>,<path fill="#3F5B70" fill-opacity=".5" d="M281 26l5 6-30-21z"/>,<path fill="#3A393C" fill-opacity=".5" d="M293 190l-78 3 94 59z"/>,<path fill="#1A303B" fill-opacity=".5" d="M340 20l101 34-42-44z"/>,<path fill="#2E3F43" fill-opacity=".5" d="M233 200l48-5-32-48z"/>,<path fill="#E9B53D" fill-opacity=".5" d="M164 132l7-11 6 20z"/>,<path fill="#6D684D" fill-opacity=".5" d="M167 133l1 12-39 31z"/>,<path fill="#C3B196" fill-opacity=".5" d="M499 95l2 10-2-11z"/>,<path fill="#495A53" fill-opacity=".5" d="M95 162l4-29 25 28z"/>,<path fill="#869275" fill-opacity=".5" d="M101 124l-2-23 17 31z"/>,<path fill="#272324" fill-opacity=".5" d="M109 285l13 16 184-7z"/>,<path fill="#C8A145" fill-opacity=".5" d="M163 152l2-6 8 4z"/>,<path fill="#203E4C" fill-opacity=".5" d="M372 65l11-33-49 20z"/>,<path fill="#163E48" fill-opacity=".5" d="M220 54l25 29-33 7z"/>,<path fill="#1E313A" fill-opacity=".5" d="M146 14L110 0l-1 13z"/>,<path fill="#2C444A" fill-opacity=".5" d="M263 126l-57-60 60 52z"/>,<path fill="#8B7655" fill-opacity=".5" d="M173 189l16 7-24-1z"/>,<path fill="#2F535F" fill-opacity=".5" d="M318 119l-7-18-65-51z"/>,<path fill="#375B6D" fill-opacity=".5" d="M248 60l11-28 5 8z"/>,<path fill="#446880" fill-opacity=".5" d="M313 18l4-4-9 11z"/>,<path fill="#455253" fill-opacity=".5" d="M175 63l11-50-26 10z"/>,<path fill="#17323D" fill-opacity=".5" d="M229 26l-1-26h18z"/>,<path fill="#515B55" fill-opacity=".5" d="M290 139l27 33-41 14z"/>,<path fill="#5F5F4F" fill-opacity=".5" d="M115 78l-14 28 29-32z"/>,<path fill="#4D5F53" fill-opacity=".5" d="M63 101l44 40-16-53z"/>,<path fill="#30484C" fill-opacity=".5" d="M177 65l53 1-37 14z"/>,<path fill="#36474C" fill-opacity=".5" d="M108 66l16-30-24 12z"/>,<path fill="#C3B667" fill-opacity=".5" d="M128 106l-13 1 16 6z"/>,<path fill="#C6AA50" fill-opacity=".5" d="M153 138l-2 9-14-22z"/>,<path fill="#284252" fill-opacity=".5" d="M368 114l-4-24 46 43z"/>,<path fill="#B4C7FF" fill-opacity=".5" d="M487 4l1 2-4-4z"/>,<path fill="#1F3D49" fill-opacity=".5" d="M245 62l-22 3 26-16z"/>,<path fill="#214350" fill-opacity=".5" d="M232 10l32 71-24-73z"/>,<path fill="#2A353A" fill-opacity=".5" d="M499 160l-41-47-29 80z"/>,<path fill="#1D2E36" fill-opacity=".5" d="M453 0l-35 26-31-26z"/>,<path fill="#756D4E" fill-opacity=".5" d="M156 166l-19-4 20-9z"/>,<path fill="#37484A" fill-opacity=".5" d="M319 197l38-30-16 34z"/>,<path fill="#28485C" fill-opacity=".5" d="M127 63l24-15 1 12z"/>,<path fill="#2F535D" fill-opacity=".5" d="M142 39l7-9-16 8z"/>,<path fill="#424C4E" fill-opacity=".5" d="M205 185l22 12 18-55z"/>,<path fill="#555B59" fill-opacity=".5" d="M233 114l10 12 25-29z"/>,<path fill="#9E7E41" fill-opacity=".5" d="M162 140l2-24 7 10z"/>,<path fill="#3E332D" fill-opacity=".5" d="M168 258L48 282l54-86z"/>,<path fill="#515757" fill-opacity=".5" d="M159 20l5-3-20-6z"/>,<path fill="#22292C" fill-opacity=".5" d="M25 0l4 3 13-3z"/>,<path fill="#3F4C50" fill-opacity=".5" d="M293 194l-16-50-6 45z"/>,<path fill="#1C4357" fill-opacity=".5" d="M323 0h-62l67 24z"/>,<path fill="#2D3F4A" fill-opacity=".5" d="M438 5l10 10 23-5z"/>,<path fill="#224346" fill-opacity=".5" d="M218 165l8-18-31-21z"/>,<path fill="#CDA96B" fill-opacity=".5" d="M152 102l-26 23 33-20z"/>,<path fill="#3F564B" fill-opacity=".5" d="M100 137l-36-34 28 40z"/>,<path fill="#3A5056" fill-opacity=".5" d="M199 46l14-1 9-26z"/>,<path fill="#655744" fill-opacity=".5" d="M128 189l64 30-33-35z"/>,<path fill="#AAB78B" fill-opacity=".5" d="M111 109l3 5-12 9z"/>,<path fill="#3F6271" fill-opacity=".5" d="M350 130l-62-13 44-15z"/>,<path fill="#54533D" fill-opacity=".5" d="M144 150l3 8-17-8z"/>,<path fill="#74775B" fill-opacity=".5" d="M122 98l-21 12-12-35z"/>,<path fill="#35454A" fill-opacity=".5" d="M412 104l24-5-5-20z"/>,<path fill="#2A363E" fill-opacity=".5" d="M413 80l-16 9 15-26z"/>,<path fill="#433F37" fill-opacity=".5" d="M107 194l-9 35 89 27z"/>,<path fill="#2C5966" fill-opacity=".5" d="M165 84l6-16h-42z"/>,<path fill="#606D92" fill-opacity=".5" d="M273 56l-3 6 6-3z"/>,<path fill="#707F70" fill-opacity=".5" d="M47 72l-11 1-2-3z"/>,<path fill="#11393C" fill-opacity=".5" d="M169 93l-26-11 16 12z"/>,<path fill="#364851" fill-opacity=".5" d="M420 99l-15-16-11 10z"/>,<path fill="#CEADC1" fill-opacity=".5" d="M416 97l5-6h-6z"/>,<path fill="#17323F" fill-opacity=".5" d="M348 12v-22l-22 27z"/>,<path fill="#374147" fill-opacity=".5" d="M58 0L28 17 45 1z"/>,<path fill="#416F8F" fill-opacity=".5" d="M90 0l6 2-5-13z"/>,<path fill="#322C27" fill-opacity=".5" d="M30 330l7-19 121-1z"/>,<path fill="#435552" fill-opacity=".5" d="M261 126l15 41 19-34z"/>,<path fill="#2F4149" fill-opacity=".5" d="M197 37L152 0l43 41z"/>,<path fill="#405954" fill-opacity=".5" d="M164 117l28-11-26 1z"/>,<path fill="#1C323C" fill-opacity=".5" d="M437 64l-28-47-27 55z"/>,<path fill="#293134" fill-opacity=".5" d="M0 212l67-27-67-85z"/>,<path fill="#313F47" fill-opacity=".5" d="M397 127l-14 67 59-38z"/>,<path fill="#2F4B4D" fill-opacity=".5" d="M290 141l-43 37-2-35z"/>,<path fill="#475657" fill-opacity=".5" d="M248 158l-31-33-9-30z"/>,<path fill="#4A7DA5" fill-opacity=".5" d="M133 41v-3l18 22z"/>,<path fill="#515F55" fill-opacity=".5" d="M196 123l-20 2 8 28z"/>,<path fill="#666C7C" fill-opacity=".5" d="M195 36l-4-9 6-3z"/>,<path fill="#796D57" fill-opacity=".5" d="M147 105l10 2-30-19z"/>,<path fill="#223741" fill-opacity=".5" d="M107 16l31-15 11 35z"/>,<path fill="#403F3A" fill-opacity=".5" d="M253 202l-6 18-18 12z"/>,<path fill="#1E4352" fill-opacity=".5" d="M269 20l39-5 6 35z"/>,<path fill="#C396FC" fill-opacity=".5" d="M96 203v-4l-1 4z"/>,<path fill="#837256" fill-opacity=".5" d="M141 107l14-9 5 7z"/>,<path fill="#33525A" fill-opacity=".5" d="M161 50l-32 11-9-13z"/>,<path fill="#3F4E51" fill-opacity=".5" d="M52 47l17-31-35 38z"/>,<path fill="#4F4D4A" fill-opacity=".5" d="M286 183l34 29-8-38z"/>,<path fill="#394A56" fill-opacity=".5" d="M418 72l4 13-20 20z"/>,<path fill="#475557" fill-opacity=".5" d="M319 194l9-35 20 19z"/>,<path fill="#365257" fill-opacity=".5" d="M217 47l22-5-25 22z"/>,<path fill="#8C7F51" fill-opacity=".5" d="M126 121l15-2-14-7z"/>,<path fill="#2E2C29" fill-opacity=".5" d="M383 310l-39 22-35-22z"/>,<path fill="#25424E" fill-opacity=".5" d="M231 36l13-36 37 35z"/>,<path fill="#1D2E34" fill-opacity=".5" d="M499 64l-22-43 12-17z"/>,<path fill="#3E3A3D" fill-opacity=".5" d="M337 251l-45-54 48 26z"/>,<path fill="#353839" fill-opacity=".5" d="M40 155l62 43-46 20z"/>,<path fill="#2C3C46" fill-opacity=".5" d="M178 24l1 6-38-13z"/>,<path fill="#6B8193" fill-opacity=".5" d="M101 25l2-1 16 4z"/>,<path fill="#53615F" fill-opacity=".5" d="M273 102l19 22-30 8z"/>,<path fill="#B1C6FF" fill-opacity=".5" d="M399 200l-2 1h3z"/>,<path fill="#BE9346" fill-opacity=".5" d="M155 119l5-6 14 15z"/>,<path fill="#495A60" fill-opacity=".5" d="M234 35l-16-22-17 27z"/>,<path fill="#365158" fill-opacity=".5" d="M218 82l-6 30-19 6z"/>,<path fill="#3C4140" fill-opacity=".5" d="M72 141l-4 48 50 22z"/>,<path fill="#415C66" fill-opacity=".5" d="M331 158l-30-59 44 47z"/>,<path fill="#485B61" fill-opacity=".5" d="M93 36l23 3-12 11z"/>,<path fill="#536B6B" fill-opacity=".5" d="M82 95l-2 9-19 1z"/>,<path fill="#35474C" fill-opacity=".5" d="M352 194l34 4-48-55z"/>,<path fill="#2C3D3E" fill-opacity=".5" d="M11 120l66-13-26 71z"/>,<path fill="#384B52" fill-opacity=".5" d="M54 0l-8 8 4-21z"/>,<path fill="#1F343D" fill-opacity=".5" d="M499 30L390 4l56 43z"/>,<path fill="#342D2B" fill-opacity=".5" d="M499 288v-63l-268 46z"/>,<path fill="#4F463E" fill-opacity=".5" d="M219 216l-2-33 15 44z"/>,<path fill="#2C4B5D" fill-opacity=".5" d="M456 5l8 11-8-5z"/>,<path fill="#747185" fill-opacity=".5" d="M446 66l3-3-1 7z"/>,<path fill="#8589B9" fill-opacity=".5" d="M325 68l3 4v-6z"/>,<path fill="#1F353E" fill-opacity=".5" d="M480 4l-34 59 53 36z"/>,<path fill="#5F5447" fill-opacity=".5" d="M140 181l33 35-24 1z"/>,<path fill="#738069" fill-opacity=".5" d="M90 80l-5 4 22 13z"/>,<path fill="#344A4A" fill-opacity=".5" d="M148 86l-4 18 15-12z"/>,<path fill="#5C4F42" fill-opacity=".5" d="M213 207l-36-27 45 22z"/>,<path fill="#2E3D41" fill-opacity=".5" d="M10 40l46 2-17-22z"/>,<path fill="#1F2F31" fill-opacity=".5" d="M0 152l20-54-20-6z"/>,<path fill="#345263" fill-opacity=".5" d="M364 113l-27 13h42z"/>,<path fill="#194B54" fill-opacity=".5" d="M190 61l3 4-25 53z"/>,<path fill="#245468" fill-opacity=".5" d="M327 63l17 17-11 38z"/>,<path fill="#2C4853" fill-opacity=".5" d="M108 2l-5 30 6-2z"/>,<path fill="#2B3034" fill-opacity=".5" d="M59 6l-7 33L32 8z"/>,<path fill="#2D4143" fill-opacity=".5" d="M66 100L31 58l28 52z"/>,<path fill="#4C3F32" fill-opacity=".5" d="M188 254l50-29-98 15z"/>,<path fill="#264146" fill-opacity=".5" d="M162 41l15 27-35-25z"/>,<path fill="#FFE169" fill-opacity=".5" d="M154 119l7 12-30-21z"/>,<path fill="#37525B" fill-opacity=".5" d="M299 145l-13-27 49 26z"/>,<path fill="#4C4342" fill-opacity=".5" d="M313 243l-10-32-9 14z"/>,<path fill="#525B54" fill-opacity=".5" d="M278 144l38 28-28 10z"/>,<path fill="#3B5A57" fill-opacity=".5" d="M159 104l28 14-46-32z"/>,<path fill="#677863" fill-opacity=".5" d="M112 131l-6 14-8-28z"/>,<path fill="#362C28" fill-opacity=".5" d="M0 200v89l113 4z"/>,<path fill="#19323F" fill-opacity=".5" d="M344 22l14-22h32z"/>,<path fill="#305A67" fill-opacity=".5" d="M284 29l-12-6 1 7z"/>,<path fill="#454D55" fill-opacity=".5" d="M64 192l-2-5h9z"/>,<path fill="#325E6C" fill-opacity=".5" d="M325 64l-42-19 9-6z"/>,<path fill="#44464A" fill-opacity=".5" d="M386 192l-9-8-15 14z"/>,<path fill="#27353F" fill-opacity=".5" d="M94 20L76 33l23-4z"/>,<path fill="#1A5763" fill-opacity=".5" d="M188 87l-24 17 14-4z"/>,<path fill="#45433F" fill-opacity=".5" d="M477 240l-16-5-2 4z"/>,<path fill="#50584F" fill-opacity=".5" d="M85 71L75 92l31-22z"/>,<path fill="#29363D" fill-opacity=".5" d="M436 127l-25 67 44-66z"/>,<path fill="#2C4C5A" fill-opacity=".5" d="M246 0l15 43-10-43z"/>,<path fill="#2A373D" fill-opacity=".5" d="M478 139l-25 11-6-30z"/>,<path fill="#346A82" fill-opacity=".5" d="M324 93v28l-6-38z"/>,<path fill="#475152" fill-opacity=".5" d="M189 66l-12 2 11-14z"/>,<path fill="#5D6561" fill-opacity=".5" d="M165 26l16 27-12-15z"/>,<path fill="#2E3F46" fill-opacity=".5" d="M429 78l-31-1 35 25z"/>,<path fill="#394549" fill-opacity=".5" d="M341 194l1-20 6 23z"/>,<path fill="#3E3F3D" fill-opacity=".5" d="M208 171l-34-8 47 29z"/>,<path fill="#516767" fill-opacity=".5" d="M246 87l18-13-1 12z"/>,<path fill="#92B2BD" fill-opacity=".5" d="M499 206l-1 1h-1z"/>,<path fill="#56605E" fill-opacity=".5" d="M183 14l4 8-9 3z"/>,<path fill="#466474" fill-opacity=".5" d="M300 12h-8l5-2z"/>,<path fill="#78715F" fill-opacity=".5" d="M183 37l17 20-13-4z"/>,<path fill="#23353A" fill-opacity=".5" d="M448 109l51 21-54-66z"/>,<path fill="#305F7F" fill-opacity=".5" d="M485 63l6 5-4-6z"/>,<path fill="#27373A" fill-opacity=".5" d="M39 48l-3 135 7-119z"/>,<path fill="#324D4F" fill-opacity=".5" d="M252 132l-14 12 42 36z"/>,<path fill="#19414B" fill-opacity=".5" d="M142 41l-14 7 31-23z"/>,<path fill="#2C454D" fill-opacity=".5" d="M193 97l32-6-3-13z"/>,<path fill="#1C1E21" fill-opacity=".5" d="M499 294l-84 13 84 3z"/>,<path fill="#61735E" fill-opacity=".5" d="M111 126l-8 16-8-10z"/>,<path fill="#A59754" fill-opacity=".5" d="M143 116l-26 18 11-3z"/>,<path fill="#4E5954" fill-opacity=".5" d="M84 37l12-3-9 20z"/>,<path fill="#D6E2FF" fill-opacity=".5" d="M499 24v3l7 7z"/>,<path fill="#4F646D" fill-opacity=".5" d="M59 188l6 1 5 2z"/>,<path fill="#50524A" fill-opacity=".5" d="M121 173l-11 16 42-17z"/>,<path fill="#316082" fill-opacity=".5" d="M499 64l-7-2 7 3z"/>,<path fill="#332C25" fill-opacity=".5" d="M143 311l11 21 148-21z"/>,<path fill="#20363C" fill-opacity=".5" d="M218 154l-33 14-1-8z"/>,<path fill="#37464C" fill-opacity=".5" d="M27 24h-3L21 0z"/>,<path fill="#5C6551" fill-opacity=".5" d="M105 142l31 1-25 20z"/>,<path fill="#1E2B33" fill-opacity=".5" d="M90 29L85 0 75 25z"/>,<path fill="#3D3631" fill-opacity=".5" d="M201 274l52-33 123-2z"/>,<path fill="#315660" fill-opacity=".5" d="M257 46l11-6-10 35z"/>,<path fill="#456075" fill-opacity=".5" d="M95 21l1-13 1 20z"/>,<path fill="#1A1E22" fill-opacity=".5" d="M291 296l-93 13 193-1z"/>,<path fill="#4E5863" fill-opacity=".5" d="M49 45v6l7-9z"/>,<path fill="#F6CA59" fill-opacity=".5" d="M173 124l-2 6v-12z"/>,<path fill="#31536B" fill-opacity=".5" d="M476 27l-3-3 6 12z"/>,<path fill="#74715A" fill-opacity=".5" d="M115 100l6 6 17-26z"/>,<path fill="#243943" fill-opacity=".5" d="M477 89l-32-6 17-41z"/>,<path fill="#1E4D52" fill-opacity=".5" d="M201 112l-4-22-12 44z"/>,<path fill="#3F4D49" fill-opacity=".5" d="M87 99l-2-15-32-7z"/>]</svg>