<svg xmlns="http://www.w3.org/2000/svg" id="Layer_1" x="0" y="0" version="1.1" viewBox="0 0 500 333" xml:space="preserve"><defs/><path fill="#353e3e" d="M0 0h500v333H0V0z"/><path fill="#d2ba6d" fill-opacity=".5" d="M192.4 123.4l-47.1 82.2L73.1 63.2l119.3 60.2z"/><path fill="#375f6c" fill-opacity=".5" d="M472.9 92.3L180.4 0l-7 227.7L472.9 92.3z"/><path fill="#093642" fill-opacity=".5" d="M205.4 81.2l34.1-28.1 10 48.1-44.1-20z"/><path fill="#26596a" fill-opacity=".5" d="M80.2 0l65.1 106.3 61.1-32.1L80.2 0z"/><path fill="#251614" fill-opacity=".5" d="M0 333l500-144.4V333H0z"/><path fill="#67543e" fill-opacity=".5" d="M160.3 264.8l92.2-79.2-181.4-66.2 89.2 145.4z"/><path fill="#301e17" fill-opacity=".5" d="M216.4 270.8L0 333V161.5l216.4 109.3z"/><path fill="#ffdd61" fill-opacity=".5" d="M125.3 90.3l59.1 47.1-41.1 6-18-53.1z"/><path fill="#645543" fill-opacity=".5" d="M227.5 204.6l-86.2-65.2-33.1 97.3 119.3-32.1z"/><path fill="#5a5e58" fill-opacity=".5" d="M224.4 9l-22 80.2L156.3 30l68.1-21z"/><path fill="#204d56" fill-opacity=".5" d="M122.2 0l103.2 104.3-61.1 13L122.2 0z"/><path fill="#526662" fill-opacity=".5" d="M153.3 69.2L46.1 26.1l31.1 120.4 76.1-77.3z"/><path fill="#927454" fill-opacity=".5" d="M168.3 208.6l-3-26.1 42.1 20.1-39.1 6z"/><path fill="#aaad75" fill-opacity=".5" d="M103.2 96.3l48.1 29.1-51.1 21.1 3-50.2z"/><path fill="#123449" fill-opacity=".5" d="M500 0H212.4L500 169.5V0z"/><path fill="#ffe670" fill-opacity=".5" d="M162.3 126.4l-20 1-13-29.1 33 28.1z"/><path fill="#7a643f" fill-opacity=".5" d="M183.4 130.4l-30.1 19.1 29.1 29.1 1-48.2z"/><path fill="#485c63" fill-opacity=".5" d="M407.8 125.4l-84.2 95.3L212.4 94.3l195.4 31.1z"/><path fill="#c7b673" fill-opacity=".5" d="M105.2 110.3l10 11 42.1-19.1-52.1 8.1z"/><path fill="#23566d" fill-opacity=".5" d="M351.7 8L233.5 1l125.3 185.6L351.7 8z"/><path fill="#495b55" fill-opacity=".5" d="M64.1 141.4l94.2 84.3-48.1-104.3-46.1 20z"/><path fill="#1f3038" fill-opacity=".5" d="M0 0h98.2L0 98.3V0z"/><path fill="#254341" fill-opacity=".5" d="M178.4 125.4l70.1-41.1-50.1 99.3-20-58.2z"/><path fill="#525d56" fill-opacity=".5" d="M111.2 105.3l-6-87.3-52.1 77.3 58.1 10z"/><path fill="#456773" fill-opacity=".5" d="M265.5 121.4l54.1-38.1 27.1 53.2-81.2-15.1z"/><path fill="#1c1c1e" fill-opacity=".5" d="M279.6 306.9L0 278.8v36.1l279.6-8z"/><path fill="#453a37" fill-opacity=".5" d="M175.4 287.9L498 233.7l-286.6-67.2-36 121.4z"/><path fill="#9e95bf" fill-opacity=".5" d="M444.9 88.3l2-8-5 7 3 1z"/><path fill="#6e7e62" fill-opacity=".5" d="M143.3 151.5l-29.1 7-32-59.2 61.1 52.2z"/><path fill="#49423b" fill-opacity=".5" d="M188.4 270.8l-51.1-102.3-80.2 44.1 131.3 58.2z"/><path fill="#ffd5ff" fill-opacity=".5" d="M51.1 49.1l4-4-1 6-3-2z"/><path fill="#32484b" fill-opacity=".5" d="M39.1 40.1L22 76.2l61.1-3-44-33.1z"/><path fill="#2d4355" fill-opacity=".5" d="M357.7 58.2l84.2 83.2-99.2 72.2 15-155.4z"/><path fill="#202f33" fill-opacity=".5" d="M58.1 116.3L0 249.7V9l58.1 107.3z"/><path fill="#857353" fill-opacity=".5" d="M190.4 138.4l-32.1 1 25.1 11 7-12z"/><path fill="#2b3237" fill-opacity=".5" d="M384.8 184.6L500 0v283.8l-115.2-99.2z"/><path fill="#1e3745" fill-opacity=".5" d="M104.2 70.2l5-27.1 43.1 41.1-48.1-14z"/><path fill="#80765a" fill-opacity=".5" d="M168.3 106.3l-81.2-14 38.1-12 43.1 26z"/><path fill="#615d9e" fill-opacity=".5" d="M395.8 123.4l-1-7 6-9-5 16z"/><path fill="#e7c0c2" fill-opacity=".5" d="M425.9 91.3l-8 4-4-2 12-2z"/><path fill="#c99a46" fill-opacity=".5" d="M177.4 141.4l-3-26.1-25.1 20.1 28.1 6z"/><path fill="#314246" fill-opacity=".5" d="M299.6 205.6l-82.2-1 46.1-83.2 36.1 84.2z"/><path fill="#5d5949" fill-opacity=".5" d="M164.3 138.4l-63.1 46.1 65.1 34.1-2-80.2z"/><path fill="#475c64" fill-opacity=".5" d="M230.5 27.1L189.4 0l38.1 47.1 3-20z"/><path fill="#a09282" fill-opacity=".5" d="M174.3 191.6l7 14 6-7-13-7z"/><path fill="#1c3647" fill-opacity=".5" d="M130.3 41.1l29-41.1H69.1l61.2 41.1z"/><path fill="#766c59" fill-opacity=".5" d="M207.4 62.2l-30.1-2 8-26.1 22.1 28.1z"/><path fill="#1f4353" fill-opacity=".5" d="M244.5 62.2l70.1-35.1L210.4 0l34.1 62.2z"/><path fill="#515956" fill-opacity=".5" d="M304.6 212.6l36.1-61.2-75.2 6 39.1 55.2z"/><path fill="#1c3b4b" fill-opacity=".5" d="M401.8 61.2L336.7 0l-27.1 34.1 92.2 27.1z"/><path fill="#435150" fill-opacity=".5" d="M245.5 106.3l3 63.2-95.2-141.4 92.2 78.2z"/><path fill="#2e434e" fill-opacity=".5" d="M223.4 0l-75.2 57.2 3-57.2h72.2z"/><path fill="#b69fff" fill-opacity=".5" d="M130.3 69.2l15-5-7-3-8 8z"/><path fill="#3d4046" fill-opacity=".5" d="M357.7 248.7l-97.2-44.1 186.4-55.2-89.2 99.3z"/><path fill="#bfa055" fill-opacity=".5" d="M132.3 136.4l-2-19.1 34.1 32.1-32.1-13z"/><path fill="#2e4846" fill-opacity=".5" d="M61.1 84.3l35.1 65.2-69.1-16 34-49.2z"/><path fill="#345369" fill-opacity=".5" d="M257.5 0h21l-15 24.1-6-24.1z"/><path fill="#2a3a42" fill-opacity=".5" d="M439.9 76.2l30.1 90.3-87.2-35.1 57.1-55.2z"/><path fill="#686e61" fill-opacity=".5" d="M73.1 52.2l29.1 2-6 27.1-23.1-29.1z"/><path fill="#36494a" fill-opacity=".5" d="M79.2 85.3L28.1 21.1l31.1 93.3 20-29.1z"/><path fill="#2b5a6e" fill-opacity=".5" d="M222.4 56.2l127.3 73.2-30.1-87.3-97.2 14.1z"/><path fill="#264954" fill-opacity=".5" d="M140.3 68.2l15-30.1-12 68.2-3-38.1z"/><path fill="#9bafe9" fill-opacity=".5" d="M16 116.3l-2 3 2 1v-4z"/><path fill="#1f2021" fill-opacity=".5" d="M500 302.9L313.6 333l-156.3-53.2L500 302.9z"/><path fill="#124c54" fill-opacity=".5" d="M159.3 106.3l25.1-44.1 7 44.1h-32.1z"/><path fill="#15252f" fill-opacity=".5" d="M75.2 18.1l17-12-13 35.1-4-23.1z"/><path fill="#1b2c33" fill-opacity=".5" d="M344.2 18.1l153.3 29.1L474.4 1 344.2 18.1z"/><path fill="#415155" fill-opacity=".5" d="M128.3 23.1L96.2 56.2 35.1 39.1l93.2-16z"/><path fill="#213e42" fill-opacity=".5" d="M232.5 92.3l-54.1 67.2 18 16 36.1-83.2z"/><path fill="#3d5e6b" fill-opacity=".5" d="M272.5 43.1l-14-9-2 52.2 16-43.2z"/><path fill="#305863" fill-opacity=".5" d="M175.4 80.2l7-7-77.2-27.1 70.2 34.1z"/><path fill="#65655c" fill-opacity=".5" d="M227.5 140.4l63.1-12-44.1-11-19 23z"/><path fill="#8c7852" fill-opacity=".5" d="M180.4 112.3l-21-1 4 23.1 17-22.1z"/><path fill="#ffe05f" fill-opacity=".5" d="M161.3 137.4l-3-21.1-12 1 15 20.1z"/><path fill="#336d92" fill-opacity=".5" d="M133.3 38.1l10 5-10 16v-21z"/><path fill="#3d5d58" fill-opacity=".5" d="M157.3 95.3l34.1 21.1-33.1-6-1-15.1z"/><path fill="#5a87b6" fill-opacity=".5" d="M448.9 124.4l-3 3 1 2 2-5z"/><path fill="#504b3d" fill-opacity=".5" d="M166.3 178.5l-17-3 2 18.1 15-15.1z"/><path fill="#473528" fill-opacity=".5" d="M300.6 257.8l-187.4 20.1 60.1-51.2 127.3 31.1z"/><path fill="#4a6974" fill-opacity=".5" d="M324.6 137.4l-27.1-34.1 3 32.1 24.1 2z"/><path fill="#3e575e" fill-opacity=".5" d="M228.2 15l-22 8 19-23.1 3 15.1z"/><path fill="#efca74" fill-opacity=".5" d="M140.3 100.3l-12-5 18 39.1-6-34.1z"/><path fill="#6c563d" fill-opacity=".5" d="M173.3 207.6l40.1-26.1-15 56.2-25.1-30.1z"/><path fill="#786674" fill-opacity=".5" d="M340.7 237.7l7 9-17-18.1 10 9.1z"/><path fill="#3c4845" fill-opacity=".5" d="M109.2 91.3l28.1-23.1-39.1 3 11 20.1z"/><path fill="#538d9f" fill-opacity=".5" d="M212.4 162.5h3l-2 9-1-9z"/><path fill="#40687e" fill-opacity=".5" d="M96.2 3l17-3h-24l7 3z"/><path fill="#483e3a" fill-opacity=".5" d="M330.7 246.7l-199.4-11 228.5-30.1-29.1 41.1z"/><path fill="#234a59" fill-opacity=".5" d="M260.5 58.2l17-33.1 22 99.3-39-66.2z"/><path fill="#847b59" fill-opacity=".5" d="M137.3 81.2l-21 1-9 27.1 30-28.1z"/><path fill="#a6ad7d" fill-opacity=".5" d="M105.2 114.3l9 21.1 4-34.1-13 13z"/><path fill="#3e5453" fill-opacity=".5" d="M134.3 76.2l-5 10 45.1 25.1-40.1-35.1z"/><path fill="#183c4a" fill-opacity=".5" d="M228.5 95.3l34.1-7 49.1 16-83.2-9z"/><path fill="#5e6159" fill-opacity=".5" d="M207.4 44.1l11 20.1-37.1-2 26.1-18.1z"/><path fill="#34434c" fill-opacity=".5" d="M444.9 97.3l-60.1-3 18 25.1 42.1-22.1z"/><path fill="#8c7f50" fill-opacity=".5" d="M125.3 84.3l-1 42.1 10-11-9-31.1z"/><path fill="#3a5563" fill-opacity=".5" d="M300.6 141.4l31.1 40.1 46.1-90.3-77.2 50.2z"/><path fill="#333434" fill-opacity=".5" d="M139.3 257.8L3 225.7l33.1-86.3 103.2 118.4z"/><path fill="#2b4544" fill-opacity=".5" d="M214.4 161.5l-34.1-13 72.1-5-38 18z"/><path fill="#44606a" fill-opacity=".5" d="M268.5 91.3l-15-47.1-12 34.1 27 13z"/><path fill="#395d80" fill-opacity=".5" d="M467.9 126.4h-5l5-13v13z"/><path fill="#65447a" fill-opacity=".5" d="M232.5 226.7l16 2-18-6 2 4z"/><path fill="#245065" fill-opacity=".5" d="M363.7 62.2l-50.1 16 64.1 46.1-14-62.1z"/><path fill="#292520" fill-opacity=".5" d="M0 311.9L500 333H0v-21.1z"/><path fill="#5a7065" fill-opacity=".5" d="M112.2 127.4l-19 5 3 14 16-19z"/><path fill="#898a5d" fill-opacity=".5" d="M112.2 126.4v15l23-3-23-12z"/><path fill="#c99f58" fill-opacity=".5" d="M384.8 207.6h-2l7-2-5 2z"/><path fill="#173036" fill-opacity=".5" d="M121.2 68.2l-10 12 3-18.1 7 6.1z"/><path fill="#352923" fill-opacity=".5" d="M244.5 261.8L18 285.9l248.5 11-22-35.1z"/><path fill="#333232" fill-opacity=".5" d="M500 140.4v134.4l-198.4-4L500 140.4z"/><path fill="#54625d" fill-opacity=".5" d="M291.6 134.4l-31.1-11 28.1-22.1 3 33.1z"/><path fill="#607ea9" fill-opacity=".5" d="M432.9 54.2l6 4-2-5-4 1z"/><path fill="#6b5742" fill-opacity=".5" d="M145.3 225.7l49.1-44.1-27.1-16-22 60.1z"/><path fill="#826d8b" fill-opacity=".5" d="M341.7 189.6l8 4 4-2-12-2z"/><path fill="#49575d" fill-opacity=".5" d="M197.4 99.3l-11-20.1 8-1 3 21.1z"/><path fill="#334851" fill-opacity=".5" d="M402.8 185.6l-11-87.3-60.1 76.2 71.1 11.1z"/><path fill="#3f4b52" fill-opacity=".5" d="M408.8 84.3l26.1 20.1-16-32.1-10.1 12z"/><path fill="#2c3a3a" fill-opacity=".5" d="M23 86.3l56.1-17.1-4-10L23 86.3z"/><path fill="#232221" fill-opacity=".5" d="M500 262.8V333H357.7L500 262.8z"/><path fill="#465450" fill-opacity=".5" d="M90.2 77.2l-26.1-3-1-56.2 27.1 59.2z"/><path fill="#6c6d58" fill-opacity=".5" d="M143.3 166.5l-31.1-8 31.1-15v23z"/><path fill="#39505e" fill-opacity=".5" d="M366.7 117.4l8 63.2-40.1-51.2 32.1-12z"/><path fill="#5a79bb" fill-opacity=".5" d="M414.8 25.1l3 4 1-5-4 1z"/><path fill="#466880" fill-opacity=".5" d="M306.6 86.3l3 3h-50.1l47.1-3z"/><path fill="#283d47" fill-opacity=".5" d="M126.3 10l-24 22.1-6-2 30-20.1z"/><path fill="#57493a" fill-opacity=".5" d="M165.3 246.7l-33.1-49.1 87.2 27.1-54.1 22z"/><path d="M200.4 162.5l22 5-17 14-5-19z" class="st127"/><path fill="#26424e" fill-opacity=".5" d="M122.2 72.2l31.1 9-58.1-38.1 27 29.1z"/><path fill="#725d44" fill-opacity=".5" d="M176.4 218.7l26.1-14v-31.1l-26.1 45.1z"/><path fill="#eac062" fill-opacity=".5" d="M139.3 137.4l13-10-11-19.1-2 29.1z"/><path fill="#2e4a50" fill-opacity=".5" d="M257.5 156.5l12-5-6-59.2-6 64.2z"/><path fill="#6e8074" fill-opacity=".5" d="M162.3 112.3l23 3-9 7-14-10z"/><path fill="#324452" fill-opacity=".5" d="M431.9 143.4l-25.1-32.1 19 35.1 6.1-3z"/><path fill="#434847" fill-opacity=".5" d="M82.2 134.4l47.1 62.2-32.1 20.1-15-82.3z"/><path fill="#4d5181" fill-opacity=".5" d="M141.3 60.2l-15 8 5-6 10-2z"/><path fill="#222629" fill-opacity=".5" d="M30.1 0H0v20.1L30.1 0z"/><path fill="#1b2429" fill-opacity=".5" d="M500 16l-7-16-16 28.1L500 16z"/><path fill="#7d6ed2" fill-opacity=".5" d="M266.5 67.2l-4-2-4 7 8-5z"/><path fill="#193b45" fill-opacity=".5" d="M159.3 45.1l-8-25.1-39.1 16 47.1 9.1z"/><path fill="#244e51" fill-opacity=".5" d="M206.4 91.3l-37.1 14 57.1 43.1-20-57.1z"/><path fill="#5d665d" fill-opacity=".5" d="M98.2 70.2l11-30.1-35.1 33.1 24.1-3z"/><path fill="#1d5d71" fill-opacity=".5" d="M151.3 40.1l-25.1 5 23-5h2.1z"/><path fill="#35363a" fill-opacity=".5" d="M351.7 248.7L495 199.6l-105.2 4-38.1 45.1z"/><path fill="#4f6258" fill-opacity=".5" d="M71.1 115.3l31.1-7-37.1-23 6 30z"/><path fill="#26414c" fill-opacity=".5" d="M128.3 54.2l11-5L96.2 16l32.1 38.2z"/><path fill="#1a2228" fill-opacity=".5" d="M500 15L486 0h14v15z"/><path fill="#20353d" fill-opacity=".5" d="M500 51.2l-77.2 43.1 21-59.2L500 51.2z"/><path fill="#2a5e72" fill-opacity=".5" d="M313.6 45.1l17 49.1-33.1 12 16.1-61.1z"/><path fill="#1a4856" fill-opacity=".5" d="M301.6 64.2l-6 9-26.1-23.1 32.1 14.1z"/><path fill="#416d81" fill-opacity=".5" d="M121.2 57.2h-2l-10 4 12-4z"/><path d="M23 50.2l-13 29 27.1-11-14.1-18z" class="st127"/><path fill="#9e885c" fill-opacity=".5" d="M153.3 136.4l7-6-15-1 8 7z"/><path fill="#868057" fill-opacity=".5" d="M111.2 128.4l33.1 21.1-9-19.1-24.1-2z"/><path fill="#24353e" fill-opacity=".5" d="M176.4 6l16 13 4-9-20-4z"/><path fill="#1b404d" fill-opacity=".5" d="M286.6 6l-43.1 54.2-16-20.1L286.6 6z"/><path fill="#527380" fill-opacity=".5" d="M37.1 0l1 11 4-11h-5z"/><path fill="#3f5b70" fill-opacity=".5" d="M281.6 26.1l5 6L256.5 11l25.1 15.1z"/><path fill="#3a393c" fill-opacity=".5" d="M293.6 190.6l-78.2 3 94.2 59.2-16-62.2z"/><path fill="#1a303b" fill-opacity=".5" d="M340.7 20.1l101.2 34.1L399.8 10l-59.1 10.1z"/><path fill="#2e3f43" fill-opacity=".5" d="M233.5 200.6l48.1-5-32.1-48.1-16 53.1z"/><path fill="#e9b53d" fill-opacity=".5" d="M164.3 132.4l7-11 6 20.1-13-9.1z"/><path fill="#6d684d" fill-opacity=".5" d="M167.3 133.4l1 12-39.1 31.1 38.1-43.1z"/><path fill="#495a53" fill-opacity=".5" d="M95.2 162.5l4-29.1 25.1 28.1-29.1 1z"/><path fill="#869275" fill-opacity=".5" d="M101.2 124.4l-2-23.1 17 31.1-15-8z"/><path fill="#272324" fill-opacity=".5" d="M109.2 285.9l13 16 184.4-7-197.4-9z"/><path fill="#c8a145" fill-opacity=".5" d="M163.3 152.5l2-6 8 4-10 2z"/><path fill="#203e4c" fill-opacity=".5" d="M372.7 65.2l11-33.1-49.1 20.1 38.1 13z"/><path fill="#163e48" fill-opacity=".5" d="M220.4 54.2l25.1 29.1-33.1 7 8-36.1z"/><path fill="#1e313a" fill-opacity=".5" d="M146.3 14L110.2 0l-1 13 37.1 1z"/><path fill="#2c444a" fill-opacity=".5" d="M263.5 126.4l-57.1-60.2 60.1 52.2-3 8z"/><path fill="#8b7655" fill-opacity=".5" d="M173.3 189.6l16 7-24-1 8-6z"/><path fill="#2f535f" fill-opacity=".5" d="M318.6 119.4l-7-18.1-65.1-51.2 72.1 69.3z"/><path fill="#375b6d" fill-opacity=".5" d="M248.5 60.2l11-28.1 5 8-16 20.1z"/><path fill="#446880" fill-opacity=".5" d="M313.6 18.1l4-4-9 11 5-7z"/><path fill="#455253" fill-opacity=".5" d="M175.4 63.2l11-50.2-26.1 10 15.1 40.2z"/><path fill="#17323d" fill-opacity=".5" d="M229.5 26.1l-1-26.1h18l-17 26.1z"/><path fill="#515b55" fill-opacity=".5" d="M290.6 139.4l27.1 33.1-41.1 14 14-47.1z"/><path fill="#5f5f4f" fill-opacity=".5" d="M115.2 78.2l-14 28.1 29.1-32.1-15.1 4z"/><path fill="#4d5f53" fill-opacity=".5" d="M63.1 101.3l44.1 40.1-16-53.2-28.1 13.1z"/><path fill="#30484c" fill-opacity=".5" d="M177.4 65.2l53.1 1-37.1 14-16-15z"/><path fill="#36474c" fill-opacity=".5" d="M108.2 66.2l16-30.1-24 12 8 18.1z"/><path fill="#c3b667" fill-opacity=".5" d="M128.3 106.3l-13 1 16 6-3-7z"/><path fill="#c6aa50" fill-opacity=".5" d="M153.3 138.4l-2 9-14-22.1 16 13.1z"/><path fill="#284252" fill-opacity=".5" d="M368.7 114.3l-4-24.1 46.1 43.1-42.1-19z"/><path fill="#b4c7ff" fill-opacity=".5" d="M488 4l1 2-4-4 3 2z"/><path fill="#1f3d49" fill-opacity=".5" d="M245.5 62.2l-22 3 26.1-16-4.1 13z"/><path fill="#214350" fill-opacity=".5" d="M232.5 10l32.1 71.2L240.5 8l-8 2z"/><path fill="#2a353a" fill-opacity=".5" d="M500 160.5l-41.1-47.1-29.1 80.2 70.2-33.1z"/><path fill="#1d2e36" fill-opacity=".5" d="M453.9 0l-35.1 26.1-31-26.1h66.1z"/><path fill="#756d4e" fill-opacity=".5" d="M156.3 166.5l-19-4 20-9-1 13z"/><path fill="#37484a" fill-opacity=".5" d="M319.6 197.6l38.1-30.1-16 34.1-22.1-4z"/><path fill="#28485c" fill-opacity=".5" d="M127.3 63.2l24-15 1 12-25 3z"/><path fill="#2f535d" fill-opacity=".5" d="M142.3 39.1l7-9-16 8 9 1z"/><path fill="#424c4e" fill-opacity=".5" d="M205.4 185.6l22 12 18-55.2-40 43.2z"/><path fill="#555b59" fill-opacity=".5" d="M233.5 114.3l10 12 25.1-29.1-35.1 17.1z"/><path fill="#9e7e41" fill-opacity=".5" d="M162.3 140.4l2-24.1 7 10-9 14.1z"/><path fill="#3e332d" fill-opacity=".5" d="M168.3 258.8l-120.2 24 54.1-86.3 66.1 62.3z"/><path fill="#515757" fill-opacity=".5" d="M159.3 20.1l5-3-20-6 15 9z"/><path fill="#22292c" fill-opacity=".5" d="M25.1 0l4 3 13-3h-17z"/><path fill="#3f4c50" fill-opacity=".5" d="M293.6 194.6l-16-50.2-6 45.1 22 5.1z"/><path fill="#1c4357" fill-opacity=".5" d="M323.6 0h-62.1l67.1 24.1-5-24.1z"/><path fill="#2d3f4a" fill-opacity=".5" d="M438.9 5l10 10 23-5-33-5z"/><path fill="#224346" fill-opacity=".5" d="M218.4 165.5l8-18.1-31.1-21.1 23.1 39.2z"/><path fill="#cda96b" fill-opacity=".5" d="M152.3 102.3l-26.1 23.1 33.1-20.1-7-3z"/><path fill="#3f564b" fill-opacity=".5" d="M100.2 137.4l-36.1-34.1 28.1 40.1 8-6z"/><path fill="#3a5056" fill-opacity=".5" d="M199.4 46.1l14-1 9-26.1-23 27.1z"/><path fill="#655744" fill-opacity=".5" d="M128.3 189.6l64.1 30.1-33.1-35.1-31 5z"/><path fill="#aab78b" fill-opacity=".5" d="M111.2 109.3l3 5-12 9 9-14z"/><path fill="#3f6271" fill-opacity=".5" d="M350.7 130.4l-62.1-13 44.1-15 18 28z"/><path fill="#54533d" fill-opacity=".5" d="M144.3 150.5l3 8-17-8h14z"/><path fill="#74775b" fill-opacity=".5" d="M122.2 98.3l-21 12-12-35.1 33 23.1z"/><path fill="#35454a" fill-opacity=".5" d="M412.8 104.3l24-5-5-20.1-19 25.1z"/><path fill="#2a363e" fill-opacity=".5" d="M413.8 80.2l-16 9 15-26.1 1 17.1z"/><path fill="#433f37" fill-opacity=".5" d="M107.2 194.6l-9 35.1 89.2 27.1-80.2-62.2z"/><path fill="#2c5966" fill-opacity=".5" d="M165.3 84.3l6-16h-42.1l36.1 16z"/><path fill="#606d92" fill-opacity=".5" d="M273.5 56.2l-3 6 6-3-3-3z"/><path fill="#707f70" fill-opacity=".5" d="M47.1 72.2l-11 1-2-3 13 2z"/><path fill="#11393c" fill-opacity=".5" d="M169.3 93.3l-26.1-11 16 12 10.1-1z"/><path fill="#364851" fill-opacity=".5" d="M420.8 99.3l-15-16-11 10 26 6z"/><path fill="#ceadc1" fill-opacity=".5" d="M416.8 97.3l5-6h-6l1 6z"/><path fill="#374147" fill-opacity=".5" d="M58.1 0l-30 17.1 17-16 13-1.1z"/><path fill="#322c27" fill-opacity=".5" d="M30.1 331l7-19.1 121.2-1L30.1 331z"/><path fill="#435552" fill-opacity=".5" d="M261.5 126.4l15 41.1 19-34.1-34-7z"/><path fill="#2f4149" fill-opacity=".5" d="M197.4 37.1L152.3 0l43.1 41.1 2-4z"/><path fill="#405954" fill-opacity=".5" d="M164.3 117.4l28.1-11-26.1 1-2 10z"/><path fill="#1c323c" fill-opacity=".5" d="M437.9 64.2l-28.1-47.1-27.1 55.2 55.2-8.1z"/><path fill="#293134" fill-opacity=".5" d="M0 212.6l67.1-27.1L0 100.3v112.3z"/><path fill="#313f47" fill-opacity=".5" d="M397.8 127.4l-14 67.2 59.1-38.1-45.1-29.1z"/><path fill="#2f4b4d" fill-opacity=".5" d="M290.6 141.4l-43.1 37.1-2-35.1 45.1-2z"/><path fill="#475657" fill-opacity=".5" d="M248.5 158.5l-31.1-33.1-9-30.1 40.1 63.2z"/><path fill="#4a7da5" fill-opacity=".5" d="M133.3 41.1v-3l18 22.1-18-19.1z"/><path fill="#515f55" fill-opacity=".5" d="M196.4 123.4l-20 2 8 28.1 12-30.1z"/><path fill="#666c7c" fill-opacity=".5" d="M195.4 36.1l-4-9 6-3-2 12z"/><path fill="#796d57" fill-opacity=".5" d="M147.3 105.3l10 2-30.1-19.1 20.1 17.1z"/><path fill="#223741" fill-opacity=".5" d="M107.2 16l31.1-15 11 35.1L107.2 16z"/><path fill="#403f3a" fill-opacity=".5" d="M253.5 202.6l-6 18.1-18 12 24-30.1z"/><path fill="#1e4352" fill-opacity=".5" d="M269.5 20.1l39.1-5 6 35.1-45.1-30.1z"/><path fill="#c396fc" fill-opacity=".5" d="M96.2 203.6v-4l-1 4h1z"/><path fill="#837256" fill-opacity=".5" d="M141.3 107.3l14-9 5 7-19 2z"/><path fill="#33525a" fill-opacity=".5" d="M161.3 50.2l-32.1 11-9-13 41.1 2z"/><path fill="#3f4e51" fill-opacity=".5" d="M52.1 47.1l17-31.1-35 38.2 18-7.1z"/><path fill="#4f4d4a" fill-opacity=".5" d="M286.6 183.5l34.1 29.1-8-38.1-26.1 9z"/><path fill="#394a56" fill-opacity=".5" d="M418.8 72.2l4 13-20 20.1 16-33.1z"/><path fill="#475557" fill-opacity=".5" d="M319.6 194.6l9-35.1 20 19.1-29 16z"/><path fill="#365257" fill-opacity=".5" d="M217.4 47.1l22-5-25.1 22.1 3.1-17.1z"/><path fill="#8c7f51" fill-opacity=".5" d="M126.3 121.4l15-2-14-7-1 9z"/><path fill="#2e2c29" fill-opacity=".5" d="M383.8 310.9L344.7 333l-35.1-22.1h74.2z"/><path fill="#25424e" fill-opacity=".5" d="M231.5 36.1l13-36.1 37.1 35.1-50.1 1z"/><path fill="#1d2e34" fill-opacity=".5" d="M500 64.2l-22-43.1L490 4l10 60.2z"/><path fill="#3e3a3d" fill-opacity=".5" d="M337.7 251.8l-45.1-54.2 48.1 26.1-3 28.1z"/><path fill="#353839" fill-opacity=".5" d="M40.1 155.5l62.1 43.1-46.1 20.1-16-63.2z"/><path fill="#2c3c46" fill-opacity=".5" d="M178.4 24.1l1 6-38.1-13 37.1 7z"/><path fill="#6b8193" fill-opacity=".5" d="M101.2 25.1l2-1 16 4-18-3z"/><path fill="#53615f" fill-opacity=".5" d="M273.5 102.3l19 22.1-30.1 8 11.1-30.1z"/><path fill="#b1c6ff" fill-opacity=".5" d="M399.8 200.6l-2 1h3l-1-1z"/><path fill="#be9346" fill-opacity=".5" d="M155.3 119.4l5-6 14 15-19-9z"/><path fill="#495a60" fill-opacity=".5" d="M234.5 35.1l-16-22.1-17 27.1 33-5z"/><path fill="#365158" fill-opacity=".5" d="M218.4 82.2l-6 30.1-19 6 25-36.1z"/><path fill="#3c4140" fill-opacity=".5" d="M72.1 141.4l-4 48.1 50.1 22.1-46.1-70.2z"/><path fill="#415c66" fill-opacity=".5" d="M331.7 158.5l-30.1-59.2 44.1 47.1-14 12.1z"/><path fill="#485b61" fill-opacity=".5" d="M93.2 36.1l23 3-12 11-11-14z"/><path fill="#536b6b" fill-opacity=".5" d="M82.2 95.3l-2 9-19 1 21-10z"/><path fill="#35474c" fill-opacity=".5" d="M352.7 194.6l34.1 4-48.1-55.2 14 51.2z"/><path fill="#2c3d3e" fill-opacity=".5" d="M11 120.4l66.1-13L51 178.6l-40-58.2z"/><path fill="#1f343d" fill-opacity=".5" d="M500 30.1L390.8 4l56.1 43.1 53.1-17z"/><path fill="#342d2b" fill-opacity=".5" d="M500 288.9v-63.2l-268.5 46.1L500 288.9z"/><path fill="#4f463e" fill-opacity=".5" d="M219.4 216.6l-2-33.1 15 44.1-13-11z"/><path fill="#2c4b5d" fill-opacity=".5" d="M456.9 5l8 11-8-5V5z"/><path fill="#747185" fill-opacity=".5" d="M446.9 66.2l3-3-1 7-2-4z"/><path fill="#8589b9" fill-opacity=".5" d="M325.7 68.2l3 4v-6l-3 2z"/><path fill="#1f353e" fill-opacity=".5" d="M481 4l-34.1 59.2L500 99.3 481 4z"/><path fill="#5f5447" fill-opacity=".5" d="M140.3 181.5l33.1 35.1-24 1-9.1-36.1z"/><path fill="#738069" fill-opacity=".5" d="M90.2 80.2l-5 4 22 13-17-17z"/><path fill="#344a4a" fill-opacity=".5" d="M148.3 86.3l-4 18.1 15-12-11-6.1z"/><path fill="#5c4f42" fill-opacity=".5" d="M213.4 207.6l-36.1-27.1 45.1 22.1-9 5z"/><path fill="#2e3d41" fill-opacity=".5" d="M10 40.1l46.1 2-17-22.1L10 40.1z"/><path fill="#1f2f31" fill-opacity=".5" d="M0 152.5l20-54.2-20-6v60.2z"/><path fill="#345263" fill-opacity=".5" d="M364.7 113.3l-27.1 13h42.1l-15-13z"/><path fill="#194b54" fill-opacity=".5" d="M190.4 61.2l3 4-25.1 53.2 22.1-57.2z"/><path fill="#245468" fill-opacity=".5" d="M327.7 63.2l17 17.1-11 38.1-6-55.2z"/><path fill="#2c4853" fill-opacity=".5" d="M108.2 2l-5 30.1 6-2-1-28.1z"/><path fill="#2b3034" fill-opacity=".5" d="M59.1 6l-7 33.1L32.1 8l27-2z"/><path fill="#2d4143" fill-opacity=".5" d="M66.1 100.3l-35-42.1 28.1 52.2 6.9-10.1z"/><path fill="#4c3f32" fill-opacity=".5" d="M188.4 254.8l50.1-29.1-98.2 15 48.1 14.1z"/><path fill="#264146" fill-opacity=".5" d="M162.3 41.1l15 27.1-35.1-25.1 20.1-2z"/><path fill="#ffe169" fill-opacity=".5" d="M154.3 119.4l7 12-30.1-21.1 23.1 9.1z"/><path fill="#37525b" fill-opacity=".5" d="M299.6 145.4l-13-27.1 49.1 26.1-36.1 1z"/><path fill="#4c4342" fill-opacity=".5" d="M313.6 243.7l-10-32.1-9 14 19 18.1z"/><path fill="#525b54" fill-opacity=".5" d="M278.6 144.4l38.1 28.1-28.1 10-10-38.1z"/><path fill="#3b5a57" fill-opacity=".5" d="M159.3 104.3l28.1 14-46.1-32.1 18 18.1z"/><path fill="#677863" fill-opacity=".5" d="M112.2 131.4l-6 14-8-28.1 14 14.1z"/><path fill="#362c28" fill-opacity=".5" d="M0 200.6v89.3l113.2 4L0 200.6z"/><path fill="#19323f" fill-opacity=".5" d="M344.7 22.1l14-22.1h32.1l-46.1 22.1z"/><path fill="#305a67" fill-opacity=".5" d="M284.6 29.1l-12-6 1 7 11-1z"/><path fill="#454d55" fill-opacity=".5" d="M64.1 192.6l-2-5h9l-7 5z"/><path fill="#325e6c" fill-opacity=".5" d="M325.7 64.2l-42.1-19.1 9-6 33.1 25.1z"/><path fill="#44464a" fill-opacity=".5" d="M386.8 192.6l-9-8-15 14 24-6z"/><path fill="#27353f" fill-opacity=".5" d="M94.2 20.1l-18 13 23-4-5-9z"/><path fill="#1a5763" fill-opacity=".5" d="M188.4 87.3l-24 17.1 14-4 10-13.1z"/><path fill="#45433f" fill-opacity=".5" d="M478 240.7l-16-5-2 4 18 1z"/><path fill="#50584f" fill-opacity=".5" d="M85.2 71.2l-10 21.1 31.1-22.1-21.1 1z"/><path fill="#29363d" fill-opacity=".5" d="M436.9 127.4l-25.1 67.2 44.1-66.2-19-1z"/><path fill="#2c4c5a" fill-opacity=".5" d="M246.5 0l15 43.1-10-43.1h-5z"/><path fill="#2a373d" fill-opacity=".5" d="M479 139.4l-25.1 11-6-30.1 31.1 19.1z"/><path fill="#346a82" fill-opacity=".5" d="M324.6 93.3v28.1l-6-38.1 6 10z"/><path fill="#475152" fill-opacity=".5" d="M189.4 66.2l-12 2 11-14 1 12z"/><path fill="#5d6561" fill-opacity=".5" d="M165.3 26.1l16 27.1-12-15-4-12.1z"/><path fill="#2e3f46" fill-opacity=".5" d="M429.9 78.2l-31.1-1 35.1 25.1-4-24.1z"/><path fill="#394549" fill-opacity=".5" d="M341.7 194.6l1-20.1 6 23.1-7-3z"/><path fill="#3e3f3d" fill-opacity=".5" d="M208.4 171.5l-34.1-8 47.1 29.1-13-21.1z"/><path fill="#516767" fill-opacity=".5" d="M246.5 87.3l18-13-1 12-17 1z"/><path fill="#92b2bd" fill-opacity=".5" d="M500 206.6l-1 1h-1l2-1z"/><path fill="#56605e" fill-opacity=".5" d="M183.4 14l4 8-9 3 5-11z"/><path fill="#466474" fill-opacity=".5" d="M300.6 12h-8l5-2 3 2z"/><path fill="#78715f" fill-opacity=".5" d="M183.4 37.1l17 20.1-13-4-4-16.1z"/><path fill="#23353a" fill-opacity=".5" d="M448.9 109.3l51.1 21.1-54.1-66.2 3 45.1z"/><path fill="#305f7f" fill-opacity=".5" d="M486 63.2l6 5-4-6-2 1z"/><path fill="#27373a" fill-opacity=".5" d="M39.1 48.1l-3 135.4 7-119.4-4-16z"/><path fill="#324d4f" fill-opacity=".5" d="M252.5 132.4l-14 12 42.1 36.1-28.1-48.1z"/><path fill="#19414b" fill-opacity=".5" d="M142.3 41.1l-14 7L159.4 25l-17.1 16.1z"/><path fill="#2c454d" fill-opacity=".5" d="M193.4 97.3l32.1-6-3-13-29.1 19z"/><path fill="#1c1e21" fill-opacity=".5" d="M500 294.9l-84.2 13 84.2 3v-16z"/><path fill="#61735e" fill-opacity=".5" d="M111.2 126.4l-8 16-8-10 16-6z"/><path fill="#a59754" fill-opacity=".5" d="M143.3 116.3l-26.1 18.1 11-3 15.1-15.1z"/><path fill="#4e5954" fill-opacity=".5" d="M84.2 37.1l12-3-9 20.1-3-17.1z"/><path fill="#4f646d" fill-opacity=".5" d="M59.1 188.6l6 1 5 2-11-3z"/><path fill="#50524a" fill-opacity=".5" d="M121.2 173.5l-11 16 42.1-17.1-31.1 1.1z"/><path fill="#316082" fill-opacity=".5" d="M500 64.2l-7-2 7 3v-1z"/><path fill="#332c25" fill-opacity=".5" d="M143.3 311.9l11 21.1 148.3-21.1H143.3z"/><path fill="#20363c" fill-opacity=".5" d="M218.4 154.5l-33.1 14-1-8 34.1-6z"/><path fill="#37464c" fill-opacity=".5" d="M27.1 24.1h-3L21 0l6.1 24.1z"/><path fill="#5c6551" fill-opacity=".5" d="M105.2 142.4l31.1 1-25.1 20.1-6-21.1z"/><path fill="#1e2b33" fill-opacity=".5" d="M90.2 29.1L85.2 0l-10 25.1 15 4z"/><path fill="#3d3631" fill-opacity=".5" d="M201.4 274.8l52.1-33.1 123.2-2-175.3 35.1z"/><path fill="#315660" fill-opacity=".5" d="M257.5 46.1l11-6-10 35.1-1-29.1z"/><path fill="#456075" fill-opacity=".5" d="M95.2 21.1l1-13 1 20.1-2-7.1z"/><path fill="#1a1e22" fill-opacity=".5" d="M291.6 296.9l-93.2 13 193.4-1-100.2-12z"/><path fill="#4e5863" fill-opacity=".5" d="M49.1 45.1v6l7-9-7 3z"/><path fill="#f6ca59" fill-opacity=".5" d="M173.3 124.4l-2 6v-12l2 6z"/><path fill="#31536b" fill-opacity=".5" d="M477 27.1l-3-3 6 12-3-9z"/><path fill="#74715a" fill-opacity=".5" d="M115.2 100.3l6 6 17-26.1-23 20.1z"/><path fill="#243943" fill-opacity=".5" d="M478 89.3l-32.1-6 17-41.1L478 89.3z"/><path fill="#1e4d52" fill-opacity=".5" d="M201.4 112.3l-4-22.1-12 44.1 16-22z"/><path fill="#3f4d49" fill-opacity=".5" d="M87.2 99.3l-2-15-32.1-7 34.1 22z"/></svg>