<svg xmlns="http://www.w3.org/2000/svg" xmlns:xlink="http://www.w3.org/1999/xlink" id="Layer_1" x="0" y="0" version="1.1" viewBox="0 0 647 411" xml:space="preserve"><defs/><defs><path id="SVGID_1_" d="M0 0h647v411H0z"/></defs><clipPath id="SVGID_2_"><use overflow="visible" xlink:href="#SVGID_1_"/></clipPath><g clip-path="url(#SVGID_2_)"><path fill="#472446" d="M0 0h647v411H0z"/><path fill="#ff9ccc" fill-opacity=".5" d="M0 172v171l647 6z"/><path d="M647 411H0l647-81z" class="st3"/><path fill="#ff9698" fill-opacity=".5" d="M531 355L0 333l518-81z"/><path fill="#662385" fill-opacity=".5" d="M1 104l646 199L0 257z"/><path fill="#000008" fill-opacity=".5" d="M647 0H0l647 232z"/><path d="M0 411v-79l647 72z" class="st3"/><path fill="#0c0030" fill-opacity=".5" d="M0 0v130l455 34z"/><path fill="#f681ab" fill-opacity=".5" d="M57 221l88 95L0 342z"/><path fill="#9c4562" fill-opacity=".5" d="M474 355l59-122 114 103z"/><path fill="#ffa893" fill-opacity=".5" d="M125 296l76 61 352-23z"/><path fill="#964288" fill-opacity=".5" d="M594 322L94 273l278-44z"/><path fill="#38154e" fill-opacity=".5" d="M0 233V97l60 104z"/><path fill="#ffa980" fill-opacity=".5" d="M467 355l33-2-131-48z"/><path d="M647 411v-68L7 365z" class="st3"/><path fill="#c65b5b" fill-opacity=".5" d="M453 353l135-41-64 43z"/><path fill="#00000f" fill-opacity=".5" d="M647 0H86l561 122z"/><path d="M412 411H0l146-71z" class="st3"/><path fill="#ffb7a2" fill-opacity=".5" d="M334 307l144 11-96 33z"/><path d="M0 338l211 18L0 411z" class="st3"/><path fill="#b34fa6" fill-opacity=".5" d="M55 223l201 99L0 281z"/><path fill="#5e2b6e" fill-opacity=".5" d="M589 326l36-83-367-66z"/><path d="M0 350l48-18 85 79z" class="st3"/><path fill="#361651" fill-opacity=".5" d="M243 86l404 82v115z"/><path fill="#03010c" fill-opacity=".5" d="M85 0L0 98V0z"/><path fill="#341554" fill-opacity=".5" d="M310 119l236 114-436-65z"/><path fill="#ff8a82" fill-opacity=".5" d="M35 341l-6-68-33 55z"/><path fill="#71366f" fill-opacity=".5" d="M360 231l168 78-6-68z"/><path fill="#53247d" fill-opacity=".5" d="M121 22L65 51l55 11z"/><path fill="#5d2779" fill-opacity=".5" d="M31 132l107 9-35-42z"/><path fill="#f9907c" fill-opacity=".5" d="M53 336l49 10-48-64z"/><path d="M0 411h641l-274-64z" class="st27"/><path fill="#190b30" fill-opacity=".5" d="M65 95L242 0l405 153z"/><path fill="#f27f60" fill-opacity=".5" d="M207 343l31 16 104-20z"/><path d="M97 411l-62-75 13-4z" class="st3"/><path fill="#37164f" fill-opacity=".5" d="M163 185L92 12 64 56z"/><path fill="#100a1d" fill-opacity=".5" d="M379 352l191 59-125-62z"/><path fill="#8c435b" fill-opacity=".5" d="M479 272l134 49-41 34z"/><path fill="#ff916a" fill-opacity=".5" d="M507 350l-26 6-72-15z"/><path fill="#632c74" fill-opacity=".5" d="M338 271L157 166l-83 59z"/><path fill="#803546" fill-opacity=".5" d="M494 347h126l27-16z"/><path fill="#72318c" fill-opacity=".5" d="M37 180l4 75 96-91z"/><path fill="#d36059" fill-opacity=".5" d="M289 354l-115-5-57-20z"/><path fill="#23143b" fill-opacity=".5" d="M262 25l-22 28-32-53z"/><path fill="#c74833" fill-opacity=".5" d="M91 346l62-6-104-4z"/><path fill="#c56bbe" fill-opacity=".5" d="M98 299l-15-64-36 20z"/><path d="M647 346l-152 8 152 57z" class="st3"/><path fill="#592882" fill-opacity=".5" d="M112 55L90 44l38-6z"/><path d="M585 347l24-2-42 66z" class="st27"/><path fill="#c96da6" fill-opacity=".5" d="M236 320l236-17-307-25z"/><path d="M320 391l-5-44-71 12z" class="st3"/><path fill="#3b1952" fill-opacity=".5" d="M15 96l82 12-63 70z"/><path fill="#ec8d8b" fill-opacity=".5" d="M93 313L0 291l12 53z"/><path fill="#492055" fill-opacity=".5" d="M526 170l-24 97 145-43z"/><path fill="#8b46c7" fill-opacity=".5" d="M105 158l11 22-10 5z"/><path fill="#723996" fill-opacity=".5" d="M106 140v-25l-18 5z"/><path fill="#6c2d77" fill-opacity=".5" d="M107 276l55-64-84-22z"/><path fill="#f4743f" fill-opacity=".5" d="M394 346l-82-7 29 9z"/><path fill="#a95096" fill-opacity=".5" d="M471 287l-278 13-34-36z"/><path fill="#d0728d" fill-opacity=".5" d="M212 294l-148-6 60 64z"/><path fill="#d26b7b" fill-opacity=".5" d="M458 298l82 42-92-20z"/><path fill="#e390a2" fill-opacity=".5" d="M150 320l330 5-66-27z"/><path fill="#8c3e87" fill-opacity=".5" d="M37 209l93 72 114-9z"/><path fill="#0a050c" fill-opacity=".5" d="M474 356l-69 9 22-19z"/><path fill="#02030b" fill-opacity=".5" d="M509 351l134 60-203-47z"/><path fill="#9441a1" fill-opacity=".5" d="M39 226l45-22-4 46z"/><path fill="#6a3273" fill-opacity=".5" d="M343 220l153 51-403-56z"/><path fill="#452057" fill-opacity=".5" d="M94 193l10-22-34 1z"/><path fill="#3c1954" fill-opacity=".5" d="M133 194l-18-27 85-47z"/><path fill="#cf625e" fill-opacity=".5" d="M451 351l19-13 57 14z"/><path fill="#010306" fill-opacity=".5" d="M647 79V0H458z"/><path fill="#feaa9b" fill-opacity=".5" d="M227 326l226-5-200 29z"/><path fill="#682e42" fill-opacity=".5" d="M568 356l-10-11 33-7z"/><path fill="#ff9f61" fill-opacity=".5" d="M381 351l-25-16 77 12z"/><path fill="#e66f49" fill-opacity=".5" d="M296 348l53 1 11-10z"/><path fill="#301446" fill-opacity=".5" d="M123 106l253 66-272-26z"/><path fill="#a53527" fill-opacity=".5" d="M11 345L0 334l37 2z"/><path fill="#d36c97" fill-opacity=".5" d="M40 284l-40-9v67z"/><path fill="#d4737c" fill-opacity=".5" d="M138 333l57-23 3 44z"/><path fill="#ec7a5b" fill-opacity=".5" d="M322 352l-34-11 56 1z"/><path fill="#251330" fill-opacity=".5" d="M456 381l-48-27 56 13z"/><path fill="#11061d" fill-opacity=".5" d="M161 111L108 0l131 37z"/><path fill="#220d32" fill-opacity=".5" d="M78 46L0 59v89z"/><path d="M647 333v78H516z" class="st3"/><path fill="#d97fa4" fill-opacity=".5" d="M7 305l99 21-19-59z"/><path d="M299 363L0 411v-69z" class="st76"/><path fill="#a54597" fill-opacity=".5" d="M80 219L0 255l12 42z"/><path fill="#a05ebe" fill-opacity=".5" d="M98 224l6 14 4-5z"/><path fill="#59294d" fill-opacity=".5" d="M639 240l-88 40 96 55z"/><path fill="#ca88c9" fill-opacity=".5" d="M292 196l4 2 20 2z"/><path fill="#12071e" fill-opacity=".5" d="M66 0L0 6l60 77z"/><path fill="#8d4584" fill-opacity=".5" d="M442 285l-185-25 147-2z"/><path fill="#74357c" fill-opacity=".5" d="M305 257l-140-62 8 68z"/><path d="M111 343l-71 15 174 53z" class="st84"/><path fill="#170b27" fill-opacity=".5" d="M219 51l428 84L434 31z"/><path fill="#894049" fill-opacity=".5" d="M287 358l-22-7 28-4z"/><path fill="#e8816f" fill-opacity=".5" d="M242 345L97 320l-43 16z"/><path fill="#2b1534" fill-opacity=".5" d="M327 368l1-21 42 6z"/><path fill="#762e7a" fill-opacity=".5" d="M51 215L0 250v-44z"/><path fill="#ffc09b" fill-opacity=".5" d="M463 332l-89-6 42 25z"/><path fill="#824cab" fill-opacity=".5" d="M86 158l-4 5-11-5z"/><path fill="#211033" fill-opacity=".5" d="M586 95l61 90-213-49z"/><path fill="#2e1543" fill-opacity=".5" d="M556 202l-117-98-33 73z"/><path d="M123 351l64 3-44-13z" class="st3"/><path fill="#4d2699" fill-opacity=".5" d="M289 37v3l9-1z"/><path fill="#ef8d7b" fill-opacity=".5" d="M0 310l99 23-99-1z"/><path fill="#af5583" fill-opacity=".5" d="M508 305l-109-27 92 40z"/><path fill="#190a23" fill-opacity=".5" d="M118 112l71-96-80 42z"/><path fill="#692d7b" fill-opacity=".5" d="M76 222l40-38-20 52z"/><path fill="#dc8ea4" fill-opacity=".5" d="M197 305l-44 23 196-2z"/><path fill="#363145" fill-opacity=".5" d="M509 58l12-9-15 8z"/><path fill="#74317c" fill-opacity=".5" d="M33 213l-41 18 53-1z"/><path fill="#ea9092" fill-opacity=".5" d="M127 312l-73 27-20-30z"/><path fill="#271043" fill-opacity=".5" d="M143 41L57 26 69 0z"/><path fill="#401f54" fill-opacity=".5" d="M210 190l83 23-20-47z"/><path fill="#ca84cc" fill-opacity=".5" d="M301 198l56 10 25 3z"/><path fill="#572764" fill-opacity=".5" d="M385 190l23 55-58-6z"/><path fill="#0f041b" fill-opacity=".5" d="M112 0l-12 29 17 1z"/><path fill="#a84e8e" fill-opacity=".5" d="M227 284l-116 13-18-38z"/><path fill="#431c54" fill-opacity=".5" d="M37 177L0 140v57z"/><path fill="#401b5a" fill-opacity=".5" d="M0 114l10 35 113 6z"/><path fill="#b1515d" fill-opacity=".5" d="M271 351l-120-11 57 17z"/><path fill="#914350" fill-opacity=".5" d="M631 341l-68-28 2 26z"/><path fill="#0e051d" fill-opacity=".5" d="M78 0l93 21-80-4z"/><path fill="#c46a99" fill-opacity=".5" d="M340 309l-187-19 301 7z"/><path fill="#a34c68" fill-opacity=".5" d="M533 306l43 34-79-23z"/><path fill="#625160" fill-opacity=".5" d="M513 28l3-13-6 15z"/><path fill="#392752" fill-opacity=".5" d="M519 89l3 6 7-13z"/><path fill="#c460a0" fill-opacity=".5" d="M79 300L0 285l67-22z"/><path fill="#9f92b0" fill-opacity=".5" d="M542 181l4 2-5-4z"/><path fill="#602d45" fill-opacity=".5" d="M615 280l42 53-74-7z"/><path fill="#190d25" fill-opacity=".5" d="M521 80l41 55 33-56z"/><path fill="#020306" fill-opacity=".5" d="M251 374l138 37-84-64z"/><path d="M449 396l-301 15h499z" class="st3"/><path fill="#261233" fill-opacity=".5" d="M322 357l13-10 9 22z"/><path fill="#080410" fill-opacity=".5" d="M0 45V0h42z"/><path fill="#56275e" fill-opacity=".5" d="M593 293l-201-98 211 38z"/><path fill="#231138" fill-opacity=".5" d="M233 145l260-10-257-91z"/><path fill="#643387" fill-opacity=".5" d="M104 63l12-12-3-18z"/><path fill="#e37c75" fill-opacity=".5" d="M503 323h-24l6 37z"/><path fill="#2d113b" fill-opacity=".5" d="M83 116l31-29-74-20z"/><path fill="#592a78" fill-opacity=".5" d="M96 159l-23-21 22-3z"/><path fill="#000005" fill-opacity=".5" d="M527 352l-23 13 48-18z"/><path fill="#4b2145" fill-opacity=".5" d="M620 299l27 22v-77z"/><path fill="#672d42" fill-opacity=".5" d="M552 345l68-6-53 12z"/><path fill="#4c216e" fill-opacity=".5" d="M141 120l-51 43 42 4z"/><path fill="#a382a5" fill-opacity=".5" d="M509 197h-7l-3 1z"/><path fill="#2b143d" fill-opacity=".5" d="M590 179l-24-35 29-1z"/><path fill="#4d2264" fill-opacity=".5" d="M109 188l-13-42-8 40z"/><path fill="#271034" fill-opacity=".5" d="M104 97l77-36 25 74z"/><path fill="#4d2068" fill-opacity=".5" d="M81 116l11 19 3-29z"/><path fill="#c8729d" fill-opacity=".5" d="M174 324l105-28-189 5z"/><path fill="#010207" fill-opacity=".5" d="M139 342l-17 12h68z"/><path fill="#5f2a6a" fill-opacity=".5" d="M402 208l-36 26 227 40z"/><path fill="#642d77" fill-opacity=".5" d="M24 164l63 15-31 39z"/><path fill="#c0a5b3" fill-opacity=".5" d="M126 73l-2-4v2z"/><path fill="#381751" fill-opacity=".5" d="M92 92L73 46l36 3z"/><path fill="#0d0916" fill-opacity=".5" d="M579 375l-89 30-6-48z"/><path fill="#512566" fill-opacity=".5" d="M219 179l-115 40 30-61z"/><path fill="#cc6e9c" fill-opacity=".5" d="M104 286L0 288v15z"/><path fill="#562573" fill-opacity=".5" d="M108 140l-16-28 18-6z"/><path fill="#9c8192" fill-opacity=".5" d="M292 49l-2 3-3-1z"/><path fill="#3a2351" fill-opacity=".5" d="M570 115l-5 9-42 28z"/><path fill="#b390c4" fill-opacity=".5" d="M6 163l-2-1 1-6z"/><path fill="#f5836a" fill-opacity=".5" d="M84 334l-35-5 14 11z"/><path fill="#39174e" fill-opacity=".5" d="M60 94l-7-8 23-3z"/><path fill="#ed826c" fill-opacity=".5" d="M66 327l-66 1 25 9z"/><path fill="#562338" fill-opacity=".5" d="M619 349l-20-4 48-12z"/><path fill="#492d5b" fill-opacity=".5" d="M213 95l-1 6 1-12z"/><path fill="#592775" fill-opacity=".5" d="M67 164l38-11-1 15z"/><path d="M42 334l52 15-68-9z" class="st3"/><path fill="#eb7c60" fill-opacity=".5" d="M318 347l56-7-25 9z"/><path fill="#4c2967" fill-opacity=".5" d="M90 71l-9-4 28-1z"/><path fill="#1a0c28" fill-opacity=".5" d="M180 94l55-63-9 62z"/><path fill="#2f1845" fill-opacity=".5" d="M388 174l-79-20 107-31z"/><path fill="#ef8e7d" fill-opacity=".5" d="M160 336l89 12-5-11z"/><path fill="#a44953" fill-opacity=".5" d="M516 346l-67 1 72 6z"/><path fill="#78368d" fill-opacity=".5" d="M94 220l-18-35-18 1z"/><path fill="#584b5d" fill-opacity=".5" d="M394 75l-1 1 1 10z"/><path fill="#89324b" fill-opacity=".5" d="M115 343l23-1-16 9z"/><path fill="#4a326a" fill-opacity=".5" d="M239 25l-9-10 7 11z"/><path fill="#ff9c7d" fill-opacity=".5" d="M338 332l17 8 129 13z"/><path d="M186 350l-70 1 152 60z" class="st170"/><path fill="#ffb8a4" fill-opacity=".5" d="M436 340l-87-2 59-25z"/><path fill="#04030b" fill-opacity=".5" d="M512 352l-18 1 41 27z"/><path fill="#4c2562" fill-opacity=".5" d="M272 210l-57 3-25-46z"/><path fill="#813f77" fill-opacity=".5" d="M492 299l-71-54 138 48z"/><path fill="#d9b9ff" fill-opacity=".5" d="M613 19l-3 2v-2z"/><path fill="#8b3f93" fill-opacity=".5" d="M86 216l-33-10-27 49z"/><path fill="#973d89" fill-opacity=".5" d="M0 273l23-9-23-38z"/><path fill="#05040d" fill-opacity=".5" d="M469 28L436 0l90 31z"/><path fill="#7a3a77" fill-opacity=".5" d="M483 268l-66 8-32-26z"/><path fill="#893d85" fill-opacity=".5" d="M148 283l29-50h-48z"/><path fill="#d88091" fill-opacity=".5" d="M213 329l-112-26-17 25z"/><path fill="#2f1442" fill-opacity=".5" d="M275 173l18-73-116 55z"/><path fill="#5b203f" fill-opacity=".5" d="M85 345l32-1 5-2z"/><path fill="#402555" fill-opacity=".5" d="M247 136l33 8-34-11z"/><path fill="#c267bc" fill-opacity=".5" d="M90 252l-8-20-3 47z"/><path fill="#ad55af" fill-opacity=".5" d="M54 276l22-54-46 44z"/><path fill="#b85563" fill-opacity=".5" d="M507 330l52 10 42-4z"/><path fill="#180a29" fill-opacity=".5" d="M289 48l-18 15 4 36z"/><path fill="#a34ca9" fill-opacity=".5" d="M88 234l7 6-49 3z"/><path fill="#9b4d5a" fill-opacity=".5" d="M269 348l16 9 5-1z"/><path fill="#8e4057" fill-opacity=".5" d="M560 349l-2-4 15 5z"/><path fill="#724e9f" fill-opacity=".5" d="M647 142h5l-6 7z"/><path fill="#200d2c" fill-opacity=".5" d="M165 67l-20-12-49 42z"/><path fill="#49225a" fill-opacity=".5" d="M276 206l20 8 10-16z"/><path fill="#c2544f" fill-opacity=".5" d="M80 340l61-2-5 6z"/><path fill="#aa7f9f" fill-opacity=".5" d="M552 286l4-2-4 4z"/><path fill="#582d82" fill-opacity=".5" d="M92 29l27 4-10 1z"/><path fill="#090613" fill-opacity=".5" d="M537 0H354l127 51z"/><path fill="#f0876b" fill-opacity=".5" d="M267 348l70-13 50 11z"/><path fill="#4a235b" fill-opacity=".5" d="M293 224l1-26 58 10z"/><path fill="#f49185" fill-opacity=".5" d="M460 345l52-7-83-28z"/><path fill="#d5798a" fill-opacity=".5" d="M512 341l-60-39-37-1z"/><path fill="#7a3581" fill-opacity=".5" d="M92 256l7-25 23 10z"/><path fill="#1c0f2c" fill-opacity=".5" d="M399 60l-17 14 24 8z"/><path fill="#471f5a" fill-opacity=".5" d="M289 184h158l-11 45z"/><path fill="#331d4f" fill-opacity=".5" d="M485 73l-12 2 13-1z"/><path fill="#04040a" fill-opacity=".5" d="M616 32L543 0l65 16z"/><path fill="#08040f" fill-opacity=".5" d="M143 0h-26l4 24z"/><path fill="#783c5a" fill-opacity=".5" d="M555 281l57 48-59-2z"/><path fill="#67317b" fill-opacity=".5" d="M167 234l22-48 41 45z"/><path fill="#8c4283" fill-opacity=".5" d="M141 277l102-21-148-2z"/><path fill="#150a23" fill-opacity=".5" d="M647 155l-93-29 78-35z"/><path fill="#4a1e5a" fill-opacity=".5" d="M0 163v42l54-46z"/><path fill="#29103c" fill-opacity=".5" d="M0 119V70l46 28z"/><path fill="#451d53" fill-opacity=".5" d="M537 237l-26-45-20 17z"/><path fill="#9b4a8b" fill-opacity=".5" d="M346 271l-44 12 53 3z"/><path fill="#5f4f60" fill-opacity=".5" d="M183 52l-2-5-4 3z"/><path fill="#633178" fill-opacity=".5" d="M78 185l14-34-1 21z"/><path d="M647 43L586 0h61z" class="st84"/><path fill="#623058" fill-opacity=".5" d="M572 310l53 2-65-64z"/><path fill="#0d0817" fill-opacity=".5" d="M506 16l134 93 6-69z"/><path fill="#956499" fill-opacity=".5" d="M394 223l3 1-5 9z"/><path fill="#964a7a" fill-opacity=".5" d="M505 287l37 33-126-44z"/><path fill="#813c87" fill-opacity=".5" d="M182 259l91 5-56-28z"/><path fill="#9e48a1" fill-opacity=".5" d="M59 216l33 30-16 4z"/><path fill="#3c1751" fill-opacity=".5" d="M32 105l36-4-9 56z"/><path fill="#964886" fill-opacity=".5" d="M433 280l-80-17 1 25z"/><path fill="#422558" fill-opacity=".5" d="M124 97l-6-1-27-14z"/><path fill="#4c3559" fill-opacity=".5" d="M569 80l15-1-14 4z"/><path fill="#b85f9c" fill-opacity=".5" d="M217 304l92-17-60-7z"/><path fill="#e28a9d" fill-opacity=".5" d="M75 293l16 26-90 1z"/><path fill="#0b0712" fill-opacity=".5" d="M567 373l-27 32-110-57z"/><path d="M133 30l55 37-19-35z" class="st232"/><path fill="#39194d" fill-opacity=".5" d="M212 184l-20-27 55-15z"/><path fill="#280f35" fill-opacity=".5" d="M126 66l-24 38-14-49z"/><path fill="#ff8e69" fill-opacity=".5" d="M395 349l-13-9-10 7z"/><path fill="#3b1c46" fill-opacity=".5" d="M562 177l85 29v74z"/><path fill="#0c0716" fill-opacity=".5" d="M524 17l-25 24 85 46z"/><path fill="#5e3080" fill-opacity=".5" d="M7 120l-7 2v-3z"/><path fill="#37164b" fill-opacity=".5" d="M113 141l103 34-44-48z"/><path d="M64 381L0 411l3-65z" class="st76"/><path fill="#341547" fill-opacity=".5" d="M152 89l-40 17 29 42z"/><path fill="#7f6c9f" fill-opacity=".5" d="M541 91l-1-1 1 5z"/><path fill="#1e0b2d" fill-opacity=".5" d="M19 93l-6-34 60-14z"/><path fill="#d47276" fill-opacity=".5" d="M144 341l28-16-75 8z"/><path fill="#632c70" fill-opacity=".5" d="M114 218l68 13-22-43z"/><path fill="#a3495a" fill-opacity=".5" d="M587 334l-69 20-15-11z"/><path fill="#a05458" fill-opacity=".5" d="M246 350l-9 8 53-9z"/><path fill="#ffae75" fill-opacity=".5" d="M480 352l-12-1 6 6z"/><path fill="#c198be" fill-opacity=".5" d="M173 282l-1 1 7-1z"/><path fill="#523c7a" fill-opacity=".5" d="M185 18l-1-1 7 1z"/><path fill="#3e195b" fill-opacity=".5" d="M99 129l17 34-24-23z"/><path fill="#441b64" fill-opacity=".5" d="M104 27l15 35-35-16z"/><path fill="#140924" fill-opacity=".5" d="M296 60l9-60-15 48z"/><path fill="#221238" fill-opacity=".5" d="M275 25l-3 14 7 17z"/><path fill="#2f1145" fill-opacity=".5" d="M76 69l23-3 2-21z"/><path fill="#08050f" fill-opacity=".5" d="M223 363l-37 1 15-10z"/><path fill="#713767" fill-opacity=".5" d="M544 304l-53-52 88 51z"/><path fill="#803a7e" fill-opacity=".5" d="M242 257l46 11 18-17z"/><path fill="#433154" fill-opacity=".5" d="M214 84h2l11 19z"/><path d="M194 6l-16 26 59-16z" class="st232"/><path fill="#241037" fill-opacity=".5" d="M310 89l-85-12-7 50z"/><path fill="#452c64" fill-opacity=".5" d="M228 33l4-4 12 5z"/><path fill="#341745" fill-opacity=".5" d="M562 210l-31-52 78 46z"/><path fill="#6d2f72" fill-opacity=".5" d="M132 253l-6-26-13 8z"/><path fill="#1e0e2c" fill-opacity=".5" d="M647 192v-37l-87-40z"/><path fill="#6d617b" fill-opacity=".5" d="M531 115l5-1 1 3z"/><path fill="#1e0d2e" fill-opacity=".5" d="M118 57l32 8-9-65z"/><path fill="#5e2c74" fill-opacity=".5" d="M182 203l-21-32 8 45z"/><path fill="#411a59" fill-opacity=".5" d="M111 125l-12 32 28-20z"/><path fill="#281b3d" fill-opacity=".5" d="M424 47l-26-10 22 11z"/><path fill="#35194a" fill-opacity=".5" d="M545 154l-8 43 12-35z"/><path fill="#ec8170" fill-opacity=".5" d="M0 324l38 9-38 1z"/><path fill="#4f2455" fill-opacity=".5" d="M644 281l-60-58 27 75z"/><path fill="#522262" fill-opacity=".5" d="M96 155l-14 38 16 1z"/><path fill="#3b2454" fill-opacity=".5" d="M463 102l-2 4-10 6z"/><path fill="#4b405b" fill-opacity=".5" d="M354 2l-12 7 10-10z"/><path fill="#ff916c" fill-opacity=".5" d="M419 350l-26-1 53-11z"/><path fill="#52396a" fill-opacity=".5" d="M89 19L74 5l33 26z"/><path d="M398 350l-50 2 66 5z" class="st277"/><path fill="#90728b" fill-opacity=".5" d="M563 107l4-2 1 2z"/><path fill="#110917" fill-opacity=".5" d="M436 348l-37 4 154 47z"/><path fill="#290f42" fill-opacity=".5" d="M96 37L77 21l31-3z"/><path fill="#351346" fill-opacity=".5" d="M12 142l1 17H0z"/><path fill="#db869b" fill-opacity=".5" d="M410 310l-13-10-100 17z"/><path fill="#b45195" fill-opacity=".5" d="M0 279l44-22 3 23z"/><path fill="#d76f76" fill-opacity=".5" d="M499 327l-8 16 53-8z"/><path fill="#180a26" fill-opacity=".5" d="M499 84l30 39 14-27z"/><path fill="#472050" fill-opacity=".5" d="M532 221l115 51-11-35z"/><path fill="#ed8f8f" fill-opacity=".5" d="M71 316l-13 20-45-18z"/><path d="M135 58l22 30-6 10z" class="st277"/><path fill="#0f071a" fill-opacity=".5" d="M145 13l64 11-32 28z"/><path d="M343 411l-31-63-99 38z" class="st170"/><path fill="#7d3480" fill-opacity=".5" d="M74 236l13-5-7-14z"/><path fill="#df8290" fill-opacity=".5" d="M0 307l16 19 23-21z"/><path fill="#52256b" fill-opacity=".5" d="M90 170l-39-26-12 41z"/><path fill="#180b2b" fill-opacity=".5" d="M319 82l66-13 23 34z"/><path fill="#1a0c2c" fill-opacity=".5" d="M228 0l50 32-36 5z"/><path fill="#231026" fill-opacity=".5" d="M384 358l7-10-18 6z"/><path fill="#7d3880" fill-opacity=".5" d="M191 259l-30-40-10 36z"/><path fill="#411e52" fill-opacity=".5" d="M505 197l21-19-41 14z"/><path fill="#281b46" fill-opacity=".5" d="M332 37l-1-12h3z"/><path fill="#755dae" fill-opacity=".5" d="M592 101h2l-5 2z"/><path fill="#6c3074" fill-opacity=".5" d="M258 254l149-11-140-14z"/><path fill="#ffa780" fill-opacity=".5" d="M393 341l5-2 12 13z"/><path fill="#13091d" fill-opacity=".5" d="M620 71l4 42-73-25z"/><path fill="#3c1c56" fill-opacity=".5" d="M368 186l-69-1 79-32z"/><path fill="#502460" fill-opacity=".5" d="M342 206l-33 18 123-2z"/><path fill="#110620" fill-opacity=".5" d="M208 3l7 5 33 39z"/><path fill="#662d8a" fill-opacity=".5" d="M125 191l-26-34 16 7z"/><path fill="#220f34" fill-opacity=".5" d="M152 20L141 2l4 30z"/><path fill="#eda0a5" fill-opacity=".5" d="M326 321l-70 17-24-19z"/><path fill="#461e57" fill-opacity=".5" d="M511 199l-121-6 104 27z"/><path fill="#1a0b2c" fill-opacity=".5" d="M248 65l10 29 52-26z"/><path fill="#3d326b" fill-opacity=".5" d="M636 46l8-7-10 4z"/><path fill="#796082" fill-opacity=".5" d="M13 148l-13-7 7 2z"/><path fill="#f89c87" fill-opacity=".5" d="M275 340l56-8 54 8z"/><path d="M330 377l28-23 62 7z" class="st3"/><path fill="#5a2666" fill-opacity=".5" d="M118 207l7 20 15-20z"/><path fill="#763282" fill-opacity=".5" d="M58 231l9-25-18-1z"/><path fill="#8c4caa" fill-opacity=".5" d="M124 223l-17 1 7-4z"/><path fill="#543764" fill-opacity=".5" d="M502 190h-8l16-3z"/><path fill="#a44f89" fill-opacity=".5" d="M432 280l58 20-128-18z"/><path fill="#281c35" fill-opacity=".5" d="M373 44l-17-15 21 24z"/><path fill="#401f60" fill-opacity=".5" d="M82 60l-2 20 7-44z"/><path fill="#120622" fill-opacity=".5" d="M91 16l-15 2L88 0z"/><path fill="#020206" fill-opacity=".5" d="M114 342l19 69-56-57z"/><path fill="#b65091" fill-opacity=".5" d="M0 267l29 8-29 14z"/><path fill="#180b24" fill-opacity=".5" d="M199 54l-30 32-8-37z"/><path fill="#210f33" fill-opacity=".5" d="M495 126L376 84l88 67z"/><path fill="#190a26" fill-opacity=".5" d="M122 46l24 2-29 28z"/><path fill="#7f6da3" fill-opacity=".5" d="M212 0l4 5V4z"/><path fill="#532469" fill-opacity=".5" d="M83 177l5-14 43 38z"/><path fill="#be5f97" fill-opacity=".5" d="M169 302l-90-5 43-17z"/><path fill="#2f1142" fill-opacity=".5" d="M101 58l-4 12-1-26z"/><path fill="#f68a6c" fill-opacity=".5" d="M293 349l-60-4h26z"/><path fill="#331343" fill-opacity=".5" d="M17 148l5-27-22 1z"/></g></svg>