<svg xmlns="http://www.w3.org/2000/svg" viewBox="0 0 50 50"><defs/><path fill="#fff" d="M46.6 40.2c-2.5-4.6-8.8-7.9-11.8-12.2 1.9-3.2 2.2-8.3 2.2-12.2-.7-.6-1-1.6-.7-2.6-.4.4-1.6-1.1-1.2-2.9-.5-.9-2.2-.6-1.2-1.4-1.1-.1-1.1-1.9-2.4-1.2.8-1.8-2-1.7-2.4-3.1-1.6-.6-3.9-1.1-4.6-1.9-1 .4-1.8-.1-3.1.5 1.2-1-.7-.4-1.2-1h-1.9C8.9 3.4 3.5 9.7 2 18.3v3.4c1.3 8.6 8.1 16.5 18.2 15.6 2.4-.2 4.9-.9 7-1.9 2.3 1.3 4.5 3.7 6.7 6 2.1 2.1 4.3 5.6 6.5 6.2 4.8 1.5 8.3-3.5 6.2-7.4zM20.5 9c11.3.6 13.8 18.7 2.6 21.1-.4.1-.5-.2-.5-.5-1.2.5-1.6 1.4-2.4 0-2.4 1.4-3.2-.9-7-1 1.5-.8-1-1.3-1.7-2.2-1.3-1.6-1.2-4-2.4-5 0-7.8 4.8-11.1 11.4-12.4zm-.3-3.4c-.8.9-2.1-.1-2.4 1.2-.1-.3-1.1-1.4-1.2-.2-.7-.2-.5-.2-1.2 0 1-1 3-.9 4.8-1zm23.3 39.8c-1.4 0-1.3-.3-2.9-.2-.9-2.3-3.1-3.1-4.1-4.6-.1-.2.2-.5.2-.5-.7-.8-2.1-1.8-3.4-2.4 1.2-.3-.5-2.5-1.9-2.4.1-.5.4.3.7-.2-1.1-.2-.7-1.2-2.4-1.2.9-1.6-1.5-1.2-1.7-2.4-2.9 1.5-5.6 1.6-7.4 3.4-.8-.2-.2-.5 0-1-11.8.6-18-10.2-13.8-20.9.8.6.7-1 .7-1 1.7-2.4 4.3-4.5 7.4-5.5-.9 1.1-3.1.9-3.1 2.9-.3 0-.2-.4-.2-.7-9.6 6.6-5.9 22.6 5 24.5 3.9.7 8.4-.9 12-3.4 7-5.7 4.1-20.9-4.8-22.3-.4-.5.2-.5-.2-1-.4 1.2-1.7-.6-2.4.2-.6-.1.2-.7.7-.5-.1-.8-1.6.3-1.4-.2-.1-.8 1-.4 1.4-.7 2 .6 3.4.8 4.8 1.9.7.5 1.9.6 2.4 1 4.5 3.5 6.6 10.5 4.6 16.6-.5 1.5-1.8 3-.7 4.3 2.6 3.2 9.3 8.4 11.5 11.3 1 1.3 1.3 3.7-1 5z"/></svg>